<?xml version="1.0" encoding="utf-8"?>
<!-- Generator: Adobe Illustrator 23.0.1, SVG Export Plug-In . SVG Version: 6.00 Build 0)  -->
<svg version="1.1" xmlns="http://www.w3.org/2000/svg" xmlns:xlink="http://www.w3.org/1999/xlink" x="0px" y="0px"
	 viewBox="0 0 835.5 657.7" style="enable-background:new 0 0 835.5 657.7;" xml:space="preserve">
<style type="text/css">
	.st0{fill:none;stroke:#231F20;stroke-width:1.5;stroke-linecap:round;stroke-linejoin:round;}
	.st1{fill:none;stroke:#231F20;stroke-width:4;stroke-linecap:round;stroke-linejoin:round;stroke-dasharray:6,3,1.5,3;}
</style>
<g id="Réteg_2">
</g>
<g id="Kingdom_Of_Hungary_Counties" xmlns:cc="http://creativecommons.org/ns#" xmlns:dc="http://purl.org/dc/elements/1.1/" xmlns:rdf="http://www.w3.org/1999/02/22-rdf-syntax-ns#" xmlns:svg="http://www.w3.org/2000/svg">
	<g id="szinek">
	</g>
	<g id="korvonal" transform="translate(-65.255852,-54.036054)">
		<path id="Árva_Trencsén" class="st0" d="M414.1,120.3c-2,3.5,2,6.1,0.9,9.7c-4.6,1.2-3.4,6.3-4,9.9"/>
		<path id="Árva_Túrócz" class="st0" d="M411,139.9c1.8,1.2,3.9,2.1,5,4.1"/>
		<path id="Trencsén_Nyitra" class="st0" d="M328.1,167.8c2,3.7,7.4,4,8.4,8.2c1.8-0.3,2.7,1.3,4.1,1.9c2.3-1.7,3.6,1.5,5.6,1.8
			c1.1-1.1,0.8-3.1,2.2-4c2.4-0.8,4.1,1.8,4.6,3.8c1.4,1.5,3.8,1.9,4.9,3.5c-0.2,0.5-0.5,1.6-0.5,1.8c1.1,2.3,4.1,0.9,5.8,2.6
			c1.6-5,6.7-7.8,8.8-12.3c-0.4-1-1.7-1.8-1.7-3c1.4-1.5,2-3.5,1-5.5c-1.8-1.2-3.9-2.8-2.8-5.3c0.1-0.3,0.4-0.5,0.6-0.7
			c2,0,3.9-0.9,5.9-0.5c1.6,2.4,5.6,2.2,7.9,0.6c0.6-0.4,0.7-1.7,1.7-2.2c0.4-0.2,0.7-0.1,1-0.2"/>
		<path id="Trencsén_Túrócz" class="st0" d="M385.5,158.3c1.3-1.3,3.2-1.2,4.7-2.3c-1.1-2.9,2.6-3.5,4.2-4.7
			c-0.4-2,1.1-3.8,1.3-5.7c1.6-0.1,3.2,0.4,4.8,0.1c0.3-0.1,0.5-0.4,0.7-0.6c0.1-1.9,0.2-3.8,2.1-4.8c2.5-0.4,5.2,0.3,7.7-0.4"/>
		<path id="Szepes_Liptó" class="st0" d="M467,137.8c0,1-0.6,1.8-1.1,2.6c-1.2,5.4,7.1,8.9,2.3,14.2c0,0.4,0,0.9,0,1.2
			c2.1,2.5,5.1,4.8,4.6,8.5"/>
		<path id="Szepes_Gömör-Kis-Hont" class="st0" d="M472.9,164.3c1.5,1.1,2.8-0.3,3.6-1.5c1.4,0.4,2.9,0.9,3.8,2
			c-0.4,1.9,1.2,2.9,2.4,4c2.5-0.3,5.3-0.9,6.2,2.4c1.5,1,3.2,1,4.9,1.3c0.8,0.6,0.7,1.7,1.1,2.5c4.1,0.6,8.6,2.5,10.5,6.7"/>
		<path id="Szepes_Abaúj-Torna" class="st0" d="M505.4,181.8c2.3-0.9,5.7-0.6,5.9-3.9c1.4,0.3,3.4,0.2,3.2-1.7
			c0.4-0.3,0.8-0.4,1.1-0.5c2-0.1,3.5,0.6,5,1.8c2.3-0.7,3.9-2.8,5.2-4.8"/>
		<path id="Sáros_Szepes" class="st0" d="M509.4,125.1c-1.4,0.6-2.8,1.6-3.4,3c-0.2,2.2,2.4,3.4,2.1,5.5c-1.3,1.8-0.9,4.6-3.3,5.6
			c0.1,2.6,1.5,5,1,7.7c1.2,2.2,4.5-0.1,5.4,2.9c3.1,0.1,4.3,1.4,5.2,3.8c1,2.5-0.6,5.1-0.1,7.3c4.5-0.4,5.2,5.2,6.9,8.2
			c1.6,0.3,2.3,2,2.5,3.5"/>
		<path id="Sáros_Abaúj-Torna" class="st0" d="M525.7,172.7c3.4-0.4,4.2,2.5,6.2,4.2c1.9-2.2,5.4,0.2,7.5-2.2
			c1.2,0,1.4,1.8,2.6,1.8c0.6-0.2,1-0.8,1.4-1.1c3,0.9,3.8-2.1,6.5-2.4"/>
		<path id="Zemplén_Abaúj-Torna" class="st0" d="M524.7,251.4c0.5-2,1.9-3.6,3.3-5c1.8-0.7,3.6,1,5.4-0.1c1.4-2.9,5.7-4.5,8.1-1.6
			c2.3,0.1,4.1-1.3,5.9-2.6c0.8-2.2-1-4.9,0.9-6.8c3-1,6.2-2.3,8.6-4.5c2.1-1.3,4.3,0.4,6.2,1.4c2.2,0.1,1.3-2.6,2.4-3.7
			c1.3-0.5,2.7-0.1,4-0.2c0.7-0.2,1-0.9,1.6-1.2c1.6,0.5,2.3-1.7,3.4-2.8c2.2-2.2,5.3-2.8,8-4.2c1.4-0.7,2-3,4-3.2
			c1.8-2.6,1.1-6.5,4.9-7.9c0.1-0.1,0.2-0.2,0.3-0.3"/>
		<path id="Zemplén_Ung" class="st0" d="M591.4,208.8c-2.2-3.4-5.7-5.9-9.3-7.9c-2.3-0.9-4.2,1.4-6.5,0.9c-1.2-3.3,2.7-5.5,3.8-8.3
			c0-5.3-3.9-9.4-4.1-14.5c-1.4-1.8-2.5-4-2.1-6.5c0.3-0.7,0.9-1.2,1.5-1.7c1.4-0.5,2.7,0.5,4,0.5c0.7-2.1,3.1-1.9,4.7-2.9
			c2.5-1.5,4.3-3.9,8.3-4.6c3.2,2.3,3.8,7.8,8.8,7.8"/>
		<path id="Zemplén_Sáros" class="st0" d="M565.2,122.8c-2.2,1.6-1.2,4.8,0.4,6.4c0,0.3,0,0.7,0.1,1c-1.7,1.9-5.1,3.2-4.6,6.5
			c-1.3,2-4.2,1.1-5.7,2.9c0,2.3-1,4.3-1.1,6.6c3.2,3,4.8,9.5-0.5,11.4c-1.7,3.2-0.4,7.4-3.6,10c-0.4,1.8-0.1,3.7-0.3,5.5"/>
		<path id="Zemplén_Borsod" class="st0" d="M520.1,237.5c-0.1,0.4-0.3,1.2,0,1.9c0.7,0.6,1.6,1,2.5,1.2c0.4,0.7,0.5,1.1,0.6,1.7
			c-0.1,1.1-1.2,1.6-2.1,1.9c-0.9,2.2-1.2,5-0.8,7.3c1.4,0.6,3,0.5,4.4-0.1"/>
		<path id="Liptó_Liptó" class="st0" d="M457.2,135.1c0,1.1,0.2,2.4-0.9,3.1"/>
		<path id="Liptó_Árva" class="st0" d="M454.9,134.1c-2.1,1.2-5.3,2.3-5.4,5.2c-1.3,2.7-2.4,0.7-3.8-0.9c-0.4-0.5-2.7-0.8-2.9-2.3
			c-2.8-0.5-5.8,0.9-7,3.5c-0.9,0.3-1.7-0.7-2.7-0.4c-2,3.7-5.6,4.8-9.3,5.3c-1-0.2-1.2-1.2-1.6-2c-2.2-0.7-4.3,0.5-6.2,1.5"/>
		<path id="Liptó_Túrócz" class="st0" d="M416,144c-0.9,1.6-0.8,3.7-2.8,4.6c1.2,4.6-4.5,9.2,0.4,12.5c0,0.2,0.1,0.4,0.1,0.5
			c-0.7,1.9-3.2,3.2-2.1,5.6"/>
		<path id="Liptó_Zólyom" class="st0" d="M411.5,167.1c3.6,0.1,8-0.9,10.4,2.5c0.9,0.2,2.1,0.4,3-0.1c0.3-0.7,0-1.7,0.8-2.2
			c4.8,1.7,5.1-6.4,10.9-3.8c2.2-2.3,6.6-2.1,8.1,0.9c1.7,0.6,3.1-0.8,4.8-0.7c2,0.8,1.7,4.6,4.6,3.2"/>
		<path id="Liptó_Gömör-és-Kis-Hont" class="st0" d="M454,167c2.8-3.5,7-0.8,10.4-1.7c2.5,3,6.1,1.1,8.4-1"/>
		<path id="Túrocz_Nyitra" class="st0" d="M385.5,158.3c0.3,1.9,2.3,2.3,3.2,3.6c-0.7,2.9-1.1,6.3,2.6,7.4c0.1,0.1,0.1,0.3,0.1,0.5
			c-0.4,0.8-0.7,1.7-0.9,2.6c1.6,2.1,3.6,4,4.9,6.5"/>
		<path id="Túrócz_Bars" class="st0" d="M395.4,178.8c1.9,0.2,3-2.7,5.5-1.9c1.4,0.8,2.6,2.5,4.4,2.1"/>
		<path id="Túrócz_Zolyom" class="st0" d="M405.3,179c0.5-0.8,0.9-1.7,1.1-2.6c-1.2-4.3,1.3-7.6,5.1-9.4"/>
		<path id="Ung_Zémplen" class="st0" d="M609.5,147.5c1,2.6,1.2,6-0.5,8.3c-0.7,0.3-1.4-0.2-2-0.2c-0.6,0.3-1.1,0.7-1.4,1.2
			c-0.5,1.1,0.6,1.9,0.7,3c-0.5,1.1-2,1.2-2.6,2.2c-0.1,1.5,0.5,3.7-1.8,3.8c-1.2,1.7-0.4,4-1.3,5.9"/>
		<path id="Ung_Zemplén2" class="st0" d="M600.5,171.7c0.5,0.5,0.6,0.8,1.1,1.5"/>
		<path id="Ung_Bereg" class="st0" d="M595.3,211.6c1.6-0.2,2.8-1,3.9-2.1c0.2-0.6,0.2-1.4,0-2c-0.6-0.6-1.6-0.8-2.2-1.5
			c-0.3-0.8-0.4-2.4,0.7-2.6c1,0.3,2.1,0.5,3.1,0.2c0.8-0.6,0.6-1.7,1.1-2.5c2.6,0.4,4.7,3.2,7.6,0.6c1.1,0.5,1.9,1.8,3.2,1.8
			c0.2-0.1,0.5-0.3,0.7-0.5c0.8-2.6-1.6-4.8-0.6-7.4c2.1-2.8,3.2-6.4,6.2-8.5c5-1.8,7.7,4.6,11.9,3.8c-2.1-5.3,1.7-12.4,0.7-17.6
			c-0.2-1.2-1-2.3-1.5-4.2c-0.4-1.6-1.9-3.1-0.3-5.4c1.2-0.3,2.3-0.9,3.2-1.6"/>
		<path id="Nyitra_Komárom" class="st0" d="M341.8,248.4c0.1-0.2,0.2-0.5,0.4-0.6c1.4-1.5,4.7,0.7,5.1,2.4"/>
		<path id="Nyitra_Pozsony" class="st0" d="M286.3,186.1c1.2,0.1,1.7,1.7,3,1.7c1.4-0.5,2.3-2.4,4.1-1.6c0.4,0.6,0.7,1,1,1.4
			c0.3,0.9-0.1,1.8-0.1,2.7c0.4,0.9,1.4,1.6,2.3,2c1-0.2,1.6-1.2,2.4-1.8c0.6-1.1-0.4-2-0.2-3.1c0.2-0.5,0.6-0.9,1-1.2
			c2.7-0.6,6.4-0.3,7.3,2.9c-0.3,1.7-2.6,2-2.5,3.9c0.4,1,1.2,1.8,2,2.5c2-0.4,3.6-2.7,5.9-1c1.1-0.2,1.6-1.7,2.8-1.7
			c2.7,2.3,6.8,2,9.1,4.7c0.1,0.4,0.1,1,0.2,1.4c4.1,2.1,0.7,6.2,1.9,9.3c0.8,0.4,1.9,0.1,2.5,0.9c0.5,1.4,0,2.9,0.3,4.4
			c1.4,1.2,2.9,2.7,2.5,4.7c2.4,2.9,6.5,6,4.1,10.1c0.7,1.2,2.4,1.7,2.8,3c-0.4,1.8-1.9,3.3-1.3,5.3c3.3,1.9,1.9,5.6,1.6,8.6"/>
		<path id="Poszony_Komárom" class="st0" d="M339.1,245.3c1.2,0.8,2.6,1.5,2.7,3.1"/>
		<path id="Zólyom_Bars" class="st0" d="M405.3,179c0,0.1,0.1,0.2,0.1,0.3c0.2,3,0.1,5.7,2.2,8.1c-0.1,1-0.2,2.1-1.3,2.7
			c-0.3,1.1,0.8,1.8,1.2,2.7c0,0.3,0.1,0.7,0.1,1c-0.7,2.1-3.6,0.8-4.4,2.9c-0.5,2.1-0.5,4.3-0.6,6.5"/>
		<path id="Zólyom_Hont" class="st0" d="M402.6,203.1c1.3,1.2,3,2.2,4.3,3.4c1.1-0.3,2.2-0.8,3.4-0.6c1.5,0.5,2,2.1,2,3.5
			c2.3,1,5,1.1,7.6,1.2"/>
		<path id="Zólyom_Nógrád" class="st0" d="M420,210.6c1.2-2,1.3-6.7,5-4.4c1-0.1,1.5-1.3,2.5-1.2c1-0.4,1.5-1.6,2.6-1.7
			c0.7,0.1,1.3,0.6,2.1,0.6c1.7-0.7,2.9-2.2,3.4-4.1c0.1-0.1,0.8-0.2,1.1-0.3c1,0.7,2,1.2,3.2,0.8c0.8-0.5,1.7-1,2.5-1.6
			c0.4-2-1-4.3,0.9-6c2.9,0.5,3.2-2.4,4.9-3.8c0.3,0,1.4,0.5,2.2,0.9"/>
		<path id="Zólyom_Gömőr-és-Kis-Hont" class="st0" d="M450.4,189.8c0.6-0.2,1.2-0.2,1.7-0.3c2.1-2.2,1.9-6.1,4.7-8.3
			c0.2-0.7,0.1-1.5,0.1-2.3c-3.9-1.9-1.7-6.7-1.3-9.9c-0.3-0.8-1.1-1.2-1.5-2"/>
		<path id="Bereg_Szatmár" class="st0" d="M597.9,231.4c3.7,2,4.8,8.3,9.8,7.6c1.9,2.2,4.2,0,6.3,1.2c1.9-1,2.3-4,4.6-4.5
			c2.9,2.4,6.9-0.9,10.3,0.6"/>
		<path id="Bereg_Ugocsa" class="st0" d="M629,236.3c2.3-2.6,1.1-6.1,0.7-9c-3.1-5.6,5.6-8,9.8-6.6c3.1-6.9,10.8-2.7,16.3-2.9"/>
		<path id="Bereg_Máramos" class="st0" d="M655.8,217.8c0.6-2.5-1.8-4.5-3.7-5.7c-0.1-1.6,0.5-3.4-1.1-4.6c0-4.2-1.4-8.4,0-12.5
			c0.5-0.6,1.4-1,1.8-1.3"/>
		<path id="Gömőr-és-Kis-Hont_Heves" class="st0" d="M461.1,234.2c0.4-0.1,1-0.1,1.6,0c1.5,1.2,2.1,2.9,2.9,4.5
			c1.7-0.4,2.2-2.7,3.9-3.1"/>
		<path id="Gömőr-és-Kis-Hont_Borsad" class="st0" d="M469.6,235.5c-0.5-2.3-3.2-3.7-2.1-6.3c1-1.6,3.1-1.8,4.4-3.4
			c2.6,0.3,3.1,5.4,6.1,3.5c1-2.7,4.6-3.9,7.1-4c2.6-3,6.8-2.3,10.2-3.4c0.7-1.9-1.3-3.7-0.8-5.7c0.3-3.1,4-3,5.7-5"/>
		<path id="Gömőr-és-Kis-Hont_Abaúj-Torna" class="st0" d="M500.3,211.3c-1.3-3.9-3.2-8-7.1-10c-0.3-3.1,3.9-3.7,4.7-6.4
			c0.8-0.3,1.8-0.1,2.7-0.2c2.1-1.2,4.3-3,6.9-2.9c1.2,0.8,2.7,2.2,4.2,1.4c1.7-5.5-6.9-6-6.2-11.4"/>
		<path id="Abaúj-Torna_Borsod" class="st0" d="M500.3,211.3c2.4-1,3.9-3.5,5.7-5.3c3.2-0.2,6.8,0.5,9.3-2.1
			c0.5,0.2,1.1,0.5,1.5,0.9c0.2,3.2-2.8,5.7-4.3,8.3c0.2,4.8,3.3,8.6,3.4,13.3c1,1.3,1.2,2.8,1.7,4.3c-1.4,2.4-0.4,5.5,2.3,6.5
			c0.1,0.1,0.2,0.1,0.3,0.2"/>
		<path id="Abaúj-Torna_Zemplén" class="st0" d="M520.1,237.5c1.9-2.8,2.6-6.2,3.6-9.3c2.3,0.1,4.5-0.8,5.9-2.6
			c0.9-0.2,1.9,0.1,2.5,0.8c3,0.4,5.4-2.8,7.6-4.3c0.2-0.8-0.3-1.5-0.3-2.3c0.2-2.5,2.9-2.5,4.6-3.2c0.3-0.4,0.4-0.8,0.5-1.1
			c0-1.9-2.5-2.2-2.7-3.9c3.9-2.3,10,1.6,13.9-1.5c-0.2-5-3.1-9.7-3.9-14.8c0.1-0.7,0.5-1.4,0.9-2c0.7-3.4,0.6-6.9,0.2-10.4
			c-0.4-3.3-0.3-6.3-3.1-9.8"/>
		<path id="Máramos_Szolnok-Dokoka" class="st0" d="M696.2,273.6c2.5,1,5.1-0.4,7.6-0.7c2.4,1,3.5,3.7,5.5,5.3
			c0.8,3.1,3.4,5.5,5.7,7.6"/>
		<path id="Máramos_Beszterce-Naszod" class="st0" d="M715,285.8c0.5-0.3,1.2-1.1,1.6-1.5c-0.1-2,0.6-5.1,3.4-4.3
			c1-1.3,2-2.8,3.6-3.4c3,1.7,4.4-1.7,7.1-2.1c2.1,1.8,4.7,4.3,7.8,3.4c1.7,3.4,4.2-1.4,6.7-0.1c0.6,0.4,1.2,0.8,2,0.7
			c1.7-0.8,2.3-2.8,3.9-3.6c1.6,0.8,2.8-0.8,4.3-0.7c2.3,0.6,4.5,1.4,6.7,2.2c0.6,0.6,1.4,1.3,2.4,0.9c0.4-0.3,0.7-0.9,1.1-1.4"/>
		<path id="Máramos_Bereg" class="st0" d="M660.2,175.4c-0.4,1.8-1.7,3-3.1,4c0.3,4-3.9,7.1-1.9,10.9"/>
		<path id="Máramos_Bereg2" class="st0" d="M652.9,193.6c0.7,0.8,1.3,1.7,2.2,2.3c0.5,0.1,1.2,0.4,2.2,0.1c0.6-2-0.9-4.1-2.1-5.6"
			/>
		<path id="Bars_Nyitra" class="st0" d="M395.4,178.8c-1.4,0.9-2.5,2-2.2,3.8c-0.1,0.3-0.4,0.5-0.6,0.7c-1.8,0.5-3.8,0.1-5.7,0.2
			c-2,0.7-1.9,3.1-3.1,4.4c-2.1-2.1-5.4-5.6-8-1.6c-1.6,0.4-3.2,0.1-4.8,0.2c-1.8,0.5-1,3.1-3.2,3.4c-0.6,2.4,1.2,4.1,3.3,4.6
			c0.4,1.5,1.7,2.6,2.1,4.1c-2.2,1.7-4.5,6-7.7,2.8c-3.6-1-3.2,3.2-3.4,5.4c-0.4,1.9-1,3.9-0.2,5.8c2,2,3.4,4,3.2,7
			c-0.5,1.6-3,1.1-3.2,3c0,0.4,0.5,1.2,1,1.6c1.2,0.1,2,1.1,2.2,2.2c-3.2,1.9,1.2,4.4-0.4,6.8c-0.6,0.5-1.6,0.2-2.3,0.6
			c0.6,3.4-3.9,6.2-0.3,9.2c0.3,0.9,0.1,1.9,0.7,2.7"/>
		<path id="Bars_Esztergom" class="st0" d="M372.6,245.4c1-0.2,1.6-1,2.3-1.6c0.5-0.1,1.3-0.1,1.6,0.1c1.7,1.6,3.2,4.5,5.9,3.6
			c1.2,1.1,1.9,3,3.8,3.2c0.5-0.3,1-0.6,1.5-0.9"/>
		<path id="Bars_Hont" class="st0" d="M387.8,249.8c-0.4-3.1,4-6.1,0.1-8.7c1.4-2.3,1.4-5.2,0.6-7.7c-2.2-1.7-0.9-4.8-3.1-6.4
			c-0.6-2,1.7-2.8,2.4-4.2c0.6-1.7-1.2-2.4-1.8-3.6c2-1.7,0.7-5.6,3.3-6.3c1.3-0.4,1.2-2.1,2.4-2.7c3.1,0.3,6.4-3,3.6-5.7
			c1.3-1,1.9-2.5,3.1-3.5c1.2,0.9,2.3,2.5,4.2,2"/>
		<path id="Pozsony_Moson" class="st0" d="M287.6,231.4c5.2,0.2,8.5,4,10.1,8.5c2.8-0.1,5,2.2,6.5,4.4c-0.5,4.2,2.5,7.3,5.9,9.1
			c1.7,0.8,2.1-1.8,3.7-1.4c1.2,0.8,1.6,2.2,2.1,3.4"/>
		<path id="Pozsony_Győr" class="st0" d="M315.9,255.5c3.2,0.1,5.1,3.6,8.6,3.2"/>
		<path id="Pozsony_Komárom" class="st0" d="M324.5,258.7c1.1-3.7,3.9-5.1,7.5-5c2.5-2.6,3.4-7,7.2-8.3"/>
		<path id="Nógrád_Heves" class="st0" d="M444.9,277.5c2.4-5.3,1.8-12.8-2.9-17c0.2-1.1,0.6-2.1,0.8-3.1c0.7-0.7,1.7-0.8,2.3-1.4
			c1.2,0.1,2.5,0.9,3.6-0.1c1.5-1.8,2.3-3.7,4.9-5.4c1.7-1.1,3.9-0.8,5-2.2c1.8-2,2.2-5-0.9-7.8c-1.1-3,2.6-3.9,3.4-6.3"/>
		<path id="Nógrád_Esztergom" class="st0" d="M400.6,267.2c0.7-1.1,2-1.5,3.3-1.6c1.3-1.3,1.8-3.4,3.3-4.9"/>
		<path id="Nógrád_Hont" class="st0" d="M407.2,260.7c0-3.4-1.9-5.6-4.5-7.7c1.6-2.1,2.3-4.4,3.1-6.9c1.2-1.2,2.8-2.2,2.7-4.1
			c2-0.4,2.2-2.1,3.8-2.6c3.9-1.3,8.7,3.1,11.6-2.2c-1-2.7-0.6-5.5,1.4-7.6c0-2.3-1.9-3.9-2.2-5.9c0.7-1.5,1.1-3,1.2-4.6
			c-0.2-0.7-1.1-0.9-1.4-1.5c0.5-3.1-3.4-4-3-7.1"/>
		<path id="Borsod_Hajdú" class="st0" d="M511.4,279.3c2.7-3.4,7.4-3.7,9.9-7.2c1.5,0.5,3-0.4,4.6-0.1"/>
		<path id="Borsód_Szabolcs" class="st0" d="M525.9,272.1c1.5-2.3,1.8-5,2-7.7c-0.1-0.2-0.3-0.5-0.5-0.7c-0.7-0.3-1.7,0-2-0.9
			c-0.1-0.4-0.1-0.8,0-1.2c2.3-1.8,3.7-3.7,4.6-6.5"/>
		<path id="Borsód_Szabolcs2" class="st0" d="M530,255.1c-0.7-0.7-0.8-1.7-1.3-2.6"/>
		<path id="Borsód_Szabolcs3" class="st0" d="M528.6,252.5c-1.4,0.4-3.1,0.4-4-1.1"/>
		<path id="Borsod_Szabolcs4" class="st0" d="M530,255.1c1-0.4,2.1,0,3.1-0.3c0.5-0.5,0.8-1.3,0.8-1.6c-1-2-3.6-1.3-5.2-0.7"/>
		<path id="Sopron_Győr" class="st0" d="M305.4,295.6c-0.2-2.8,3.1-3.8,4-6.1c-0.2-2.5,2.3-3.8,2.5-6.3c-1-1.3-2.6-2-3.4-3.4
			c-4.2-0.9-5.4-6.2-5.9-9.8"/>
		<path id="Nógrád_Gömör-és-Kis-Hont" class="st0" d="M461.1,234.2c-1.5-2-2.3-4.6-4.7-5.7c-0.5-1.8,1.6-2.3,2.4-3.4
			c-0.5-5.1,2.3-12-3.1-15.1c-0.8-2.1,0.5-4,0.2-6.1c-2.5-4.6-7.4-8.2-5.6-14"/>
		<path id="Szabolcs_Bihar" class="st0" d="M581.2,290.5c1.4-0.8,3-0.2,4.5,0c0.7-0.3,1.2-0.9,1.7-1.5c-0.3-2.2,1.1-3.8,2.3-5.5"/>
		<path id="Szabolcs_Szatmár" class="st0" d="M589.6,283.6c0-1.5-0.9-2.9-0.3-4.3c2.2-1.6,5.2-1.9,6.8-4.5
			c-0.4-2.2-1.5-5.6,1.7-6.5c0.1-0.3,0.1-0.8,0.1-1.1c-2-2.1-4.1-3.9-3.1-7.2c-2.3-1.7-3.3-4.4-5.6-5.9c1.4-1.5,1-3.6,0.3-5.4
			c3.1-0.6,4.3-2.6,6.6-4.4c0.4-2.8-0.9-5.2-2.5-7.4c1-2.1,3.1-3.4,4.3-5.4"/>
		<path id="Szabolcs_Bereg" class="st0" d="M597.9,231.4c-0.5-2.3-0.8-4.6-0.7-7c-0.7-2-3.6-1.7-4-3.9c0.1-3.2,2.2-5.7,2.1-9"/>
		<path id="Szabolcs_Ung" class="st0" d="M595.3,211.6c-1.7-0.5-2.3-2.2-3.9-2.8"/>
		<path id="Ugocsa_Szatmár" class="st0" d="M629,236.3c1.4,1.6,3.4,3.5,3.5,6c0.1,3.2-0.3,6.6,3,9.3c2.7-0.4,5.2,0.7,8.2-0.3
			c0.9,1.3,2.2,2,3.8,2c1.4-2.8,4.9-2.9,7.1-4.7c0.5-2.6-0.2-5.6,1.8-7.7c0.8-0.3,1.6-0.2,2.3-0.7"/>
		<path id="Ugocsa_Máramos" class="st0" d="M658.7,240.2c-1.8-3,2-6.1-0.6-8.8c-5.6-2-4.5-9.4-2.3-13.6"/>
		<path id="Moson_Sopron" class="st0" d="M267.8,246.2c1.7,1.1,3.8,2.9,3.8,5c-1.4,1.3-3.1,2.7-2.5,4.9c-0.2,0.8-1.1,1-1.5,1.6
			c-0.2,0.5-0.2,1.2-0.2,1.8c0.7,2.1,1.2,6.3,0.8,9.4c-0.3,2-3.1,4.4-0.3,6c5.7,1.2,11.4-0.6,17,0.9c0.7-1.2,0.4-2.9,1.6-4
			c1.3-0.1,2.3-1,3.5-1.2c2,0.6,3.9,1,6,1.3c2.2-0.5,4.1-3.1,6.5-1.7"/>
		<path id="Moson_Györ" class="st0" d="M302.6,270.1c2.9-0.3,4.5,3.7,7.7,3.4c0.8-0.4,1.4-1,2-1.6c0.9-4-1.8-8-0.4-11.7
			c2.9,0.4,2.7-3,4-4.7"/>
		<path id="Szatmár_Szilágy" class="st0" d="M602.9,291.8c3.7,0.9,2.7-3.8,5.7-4c0.7-2.3,3.4-2.7,4.9-4.3c0.2-1.7,1.8-2.3,3.2-2.3
			c0.5-1,1.3-1.9,2.4-2.2c3.5,0.8,5.7,3.5,8.4,5.5c1.6,0.7,3.7-0.3,4.8,1.2c0.1,0.4,0.1,1,0.1,1.5c-0.3,0.7-1,1.3-1.1,2.2
			c0.2,0.7,0.2,1.5,0.4,2.2c-1.3,3.3,2.5,5.8,5.3,4.2c2.1-1.9,4.1-4.4,6.8-5.6c1.6-2,2.2-4.6,2.4-7.1c1-1.7,4-2.1,4-4.5
			c5-2.6,9,2.8,12.1,6.1c-1.4,1.8-1.7,5.2-0.7,7.4c0.7,1.5,4.3,2.4,3.1,6.7"/>
		<path id="Szatmár_Szolnok-Doboka" class="st0" d="M664.7,298.5c2,0.8,4.7,1.4,5.4-1.3c1.7,0.3,2.8-0.7,3.9-1.8
			c2.8,0.7,3.6-2.4,5.8-3.1c0.6-1.8-0.8-3.3-1.7-4.6c0.2-3.7,2.6-8.3,7.1-7.1c2.1-1.2,4.4-2.6,4.8-5.2c1.1-0.6,2.4-0.2,3.6-0.4
			c0.9-0.3,1.6-1,2.5-1.4"/>
		<path id="Szatmár_Máramos" class="st0" d="M696.2,273.6c-0.4-2.5-2-5.6-4.9-5.2c-1.8-3.7-5.1-0.2-7.8-1.7
			c-1.5-2.3,0.2-5.2-2.5-7.2c0.4-1,1.5-1.6,2.1-2.5c0.1-0.5-0.2-1.3-0.5-1.6c-4.1-0.5-5.5-5.4-9.3-6.1c-0.3-8.4-11.3-2.8-14.5-9.2"
			/>
		<path id="Heves_Jasz-Nagy-Kun-Szolnok" class="st0" d="M446,282.1c2.2,0.6,4.2,1.7,6.5,1.8c3.1-0.4,3.4-3.8,5.6-5.1
			c2,1.8,4,0.7,6-0.2c2.2,1.2,2.6,4,1.6,6.1c0.4,0.4,0.8,0.8,1.2,1.1c2.4,0.2,5.2,2.9,6.5-0.6c0.9,0,1.7-0.5,2.7-0.4
			c4.8,0.5,7.1,3.7,6.3,8.3c1.4,2,3.9,3.8,6.5,3.3c1.3-1.6,3.2-1.8,5.2-1.3c0.2-0.1,0.5-0.3,0.7-0.5c0.2-0.8,0.4-1.7,1-2.4
			c0.6-0.4,1.2-0.6,1.9-0.5c2.1,1.7,4.5,1.9,7.1,1.2c2.1,1.8,4.7-0.2,7,0.8c2.5,2.8,6.5,2.8,9.9,3.7"/>
		<path id="Heves_Hajdú" class="st0" d="M521.7,297.4c2-3.2,1.1-7.3-0.3-10.7c-4.1-0.7-9.1-2.8-10-7.4"/>
		<path id="Heves_Borsod" class="st0" d="M511.4,279.3c-3.9,0.1-6.6-2-8.8-5.1c-3.7,0.7-6.9,0.3-8.7-3.6c-0.9-0.4-1.8,0.4-2.7,0.5
			c-0.8-0.5-1.6-1.2-1.9-2.1c0-0.2,0-0.5,0-0.8c0.3-1,1.3-1.6,1.3-2.7c-0.6-1.2-1.8-2.3-1.5-3.8c2.4-2.9,2.8-6.2,2.6-9.9
			c2.8-2.2,2.1-7.7-2.1-7.4c-1.3,0.8-2.7,1.4-4.3,1.5c-1.7-1.2-2.1-3.5-3.7-4.9c-4.5-1-7.4-4.7-11.9-5.7"/>
		<path id="Komárom_Veszprém" class="st0" d="M342.3,285.6c0.4,0.2,1,0.5,1.3,0.8c0.6,3,0.2,6.4,2.2,9c0.8,0.4,1.6,0.1,2.4,0.1"/>
		<path id="Komárom_Fejér" class="st0" d="M348.2,295.5c1.7-1.4,4.1-1,5.8-2.2c4.3,3.3,6.7,9.6,12,7.5c3.8-1.5,2.2-6.1,6-8.8
			c1.2-5.2,7.8-4,11.8-4.9"/>
		<path id="Komárom_Pest-Pilis-Solt-Kiskun" class="st0" d="M383.9,287.2c0.4-2,2.5-3.1,2.4-5.3"/>
		<path id="Komárom_Esztergom" class="st0" d="M386.3,281.9c-2.3-1.4-4.6,0.9-6.9-0.1c-1-0.9-0.8-2.2-1.9-3.1
			c-1.6-1.2-3.5-1.5-5-3.1c-2.2-2.5-5-8.9-3.9-11.1c1.1-2.8-3.2-5.7,0.4-7.8c0.9-0.1,1.7-0.1,2.3-0.2c0.5-0.3,0.7-0.7,0.7-1.1
			c-0.6-1.3-1.6-2.6-1.6-4.2c1.8-1.5,1.8-3.7,2.3-5.8"/>
		<path id="Komárom_Bars" class="st0" d="M372.6,245.4c-1.2-2-2.7-3-4.9-3.5c-1.6,1.5-1.9,4.1-4.9,4"/>
		<path id="Komárom_Nyitra" class="st0" d="M362.8,245.8c-0.8,4.7-5.8,3.6-8.4,6c-2.9,0.8-3.3-2.8-5.5-3.4c-0.5,0.4-1.1,1-1.7,1.7"
			/>
		<path id="Esztergom_Pest-Pilis-Solt-Kiskun" class="st0" d="M386.3,281.9c6.1-2,11.7-4.7,16.2-9.2c1.1-2.2-1.9-3.4-1.8-5.5"/>
		<path id="Esztergom_Hont" class="st0" d="M400.6,267.2c-1.1-0.2-1.8-1.1-2-2.1c-2.2-3.1-6.4-2.2-8.8-4.8
			c-1.6-3.2,1.2-8.1-2.1-10.4"/>
		<path id="Sopron_Vas" class="st0" d="M243.1,286.5c2.4,1.7,4.9,4.4,7.8,5.8c2.2,1,4.9,0.8,6,3.5c3.9,3,8.3-5.7,11.6-1.2
			c0,3,0.9,6.3,3.3,8.3c4.6,1.1,7.2-4.2,11.5-4.5c0.6-1,0.2-2.3,0.4-3.5c0.1-0.3,0.4-0.5,0.6-0.7c2-0.7,4.1,0.5,5.5,1.8
			c3.2,0.3,5.9-1.7,9.2-1.2c0.9,0.5,1.7,1.3,2.4,2.1c0.1,0.1,0.2,0.2,0.3,0.4"/>
		<path id="Sopron_Veszprém" class="st0" d="M301.7,297.3c1.3-0.3,2.7-0.7,3.7-1.7"/>
		<path id="Hajdú_Jász-Nagy-Kun-Szolnok" class="st0" d="M521.7,297.4c1.2,3.8,3,4.7,1.8,8.3c-1,2.8-1.1,7.2-1,10.9
			c0.3,1,1.5,1.6,2.5,1.6c0.9-0.3,1.6-1.1,2.6-1"/>
		<path id="Hajdú_Bihar" class="st0" d="M527.6,317.2c1-0.7,2.1-1.2,3.2-1.4c1.9-1.2,1.2-3.5,2.1-5.2c1.5-1.4,3.7-1.4,5.5-2.3
			c1.4,0.5,1.5,2.1,2.4,3.1c2.2,0.2,4.4,0.4,6.6,0.8c1.5-1.7,3.2-1,5-0.2c2.6-2.3-2.5-6.8,1.1-7.9c1-1.1,1.3-2.6,1.7-3.9
			c1.6-2,4.2-0.5,6.2-0.8c1.3-0.4,1.2-2.2,2.1-3c0.7-0.3,1.5-0.2,2.3-0.2c1.1,0.4,1.6,1.7,2.8,2c2.4-1,3.2-4,5.8-4.8
			c2.2,0.3,5.1,0.8,6.6-1.4c0.1-0.4,0.1-1,0.1-1.5"/>
		<path id="Hajdú_Szabolcs" class="st0" d="M581.2,290.5c-2.3-5.9-11.6-6.7-10.3-14.2c-1.2-0.7-2.2-1.8-3.7-2
			c-2.4-1.4-4.2-3.6-6.2-5.4c-3.2-0.4-6.4-3.1-6.3-6.5c1.8-2.3,2.5-5.3,2-8.1c-0.9-1.8-3.4-1.7-4.8-0.6c-2.6,0.3-5.3,0-7.9,0.1
			c-1.3,0.4-2,1.7-2.8,2.7c-0.9,0.7-1.8,1.3-2.3,2.2c-0.8,1.7-1,3.5-1.4,5.3c-2.2,2.9-1.8,6.5-5.4,8c-0.7,0.3-1.8,0.3-2.7,0.7
			c-0.7,0.3-1.4,0.8-2.2,0.9c-0.7-0.4-1-0.8-1.4-1.3"/>
		<path id="Győr_Veszprém" class="st0" d="M305.4,295.6c1.5,0.2,1.9,1.8,3,2.5c0.7,0.1,1.3,0.3,2,0.4c0.5-0.3,1-1.2,1.1-1.3
			c1-0.7,2.1-0.1,3.1-0.1c0.4,0,0.9-0.6,1.3-0.5c1.7,0.1,2.4,0.7,3.4,0.3c1.1-0.3,2.4-1.8,3.8-0.7c1.5-1,2.6-3.2,4.7-3
			c1.2,0.3,1,2.1,2.3,2.4c1.5-1.6,3.3-3.1,5.3-1c1-1.1,2.8-0.6,3.8-1.5c-1.3-3,0.4-6.1,3.1-7.5"/>
		<path id="Győr_Komárom" class="st0" d="M342.3,285.6c-1.7-3.1-3-6.6-1.7-10.1c-0.2-2.6-3.1-3.9-3.9-6.3
			c-6.3,0.4-8.7-6.5-12.2-10.6"/>
		<path id="Pest-Pilis-Solt-Kiskun_Tolna2" class="st0" d="M395.3,390c0.2,0.5,0.2,0.9,0.4,1.5"/>
		<path id="Pest-Pilis-Solt-Kiskun_Bács-Bodrog" class="st0" d="M394.6,420.4c1.8-0.7,3.5-2.2,3.9-4.1c0.5-0.4,1.1-0.8,1.5-1.4
			c-0.1-3.3,3.6-4.7,4.1-8c0.5-0.3,1.2-0.1,1.7-0.3c1.2-2.6,4.3-2.8,5.2-5.5c4.2,0.5,6-3.5,7.8-6.4c1-0.1,2-0.1,2.9,0
			c2.4,1.5,3.8,4,5.6,6.1c2.1,0.9,3.5-0.9,5.3-1.2c3.5,0.7,6.3,4,9.8,4.1"/>
		<path id="Pest-Pilis-Solt-Kiskun_Csongrád" class="st0" d="M442.5,403.8c1.1-1.3,2-3,1.1-4.7c2.8-1.7,6-4,9-5.6
			c1,1.1,2.5,2.5,4.1,2.2c1.1-2.7-1.7-5.9,0.7-8.2c0-0.3,0-0.7,0-1c-0.1-0.3-0.4-0.6-0.6-0.7c-0.8,0.1-1.7,0.1-2.5,0.1
			c-1.4-1.4-2.2-3.7-2.7-5.7c0.8-1,2.3-0.6,3.5-0.7c2.2-2.7,5.3-0.7,7.9-1.8c0.6-0.9,1.2-1.8,1.8-2.7c-0.8-3.2-1.4-6.6-1.5-10
			c-0.8-1.2-2-2.5-1.4-4c2.5,0.6,3.4-1.3,4.2-3.2"/>
		<path id="Pest-Pilis-Solt-Kiskun_Jász-Nagy-Kun-Szolnok" class="st0" d="M466,357.6c-1.1-2.1-1.4-4.5-1.4-6.9
			c2.7-1,5.7-2.3,7.8-4.6c0.4-1.2-0.6-2-0.8-3.1c0.7-2.8,3.1-2.7,4.8-4.2c-1.2-2.9-4.5-3.9-6.2-6.3c0.8-2.2,4.4-0.3,5.3-2.7
			c0.5-1.4-0.2-2.9-0.5-4.3c-1.6,0-4.4-0.7-3.6-2.9c1.2-0.6,1.6-2,2.9-2.5c-1.8-3.6-4.5-7-6.1-10.8c-1.3-0.5-2.2,1.3-3.5,1
			c-0.5-0.2-0.9-0.6-1.2-1c-0.3-1.6-0.6-3.9-2.8-3.6c-0.5-1.7-1.2-3.7-2.8-4.5c-3.1,1.3-3.4-2.3-5.5-3.5c-0.3-1.6-0.3-3.3,0-4.9
			c-0.1-0.7-0.7-1.2-1.3-1.6c-1.3-0.2-2.7,0-4-0.1c-3-1.8-3.4-6.3-1-8.9"/>
		<path id="Pest-Pilis-Solt-Kiskun_Heves" class="st0" d="M446,282.1c-0.3-1.5-0.5-3.1-1.1-4.6"/>
		<path id="Pest-Pilis-Solt-Kiskun_Nógrád" class="st0" d="M444.9,277.5c-1.1-0.1-2.2-0.5-3.2-0.7c-0.5-0.9-0.2-2-0.3-3
			c-0.1-0.3-0.4-0.6-0.6-0.8c-2.3-0.8-3.8,1.4-5.6,2c-2.3-1.4-3.2-4.4-4.4-6.6c-2.4,0.3-2.8-1.7-3.4-3.4c-3.1-0.7-6-0.1-8.1,2.3
			c-2.1-0.2-4.1-0.7-5.8-1.8c-2.7-1.7-2.5-4.4-6.3-4.7"/>
		<path id="Szolnok-Doboka_Kolozs" class="st0" d="M662.3,324.2c1.8,0.9,4.1,0.9,5.7,2.3c4.1,0,4.7,6.2,9.2,4.8
			c5.6,0.5,7,5.6,11,8.3c0.3,0,0.5,0,0.7,0c4-5,8.7,0.6,12.6,2.1c0.7-0.3,1.1-0.6,1.3-0.8c4.9,0.6,10,1,15.1,0.7
			c1.8-1.1,1.2-3.7,2.6-5.3c0.6-0.3,1.4-0.6,2.4-1"/>
		<path id="Szolnok-Doboka_Kolos2" class="st0" d="M722.9,333.3c0.1,0,0.3,0,0.4,0"/>
		<path id="Szolnok-Doboka_Szilágy" class="st0" d="M662.3,324.2c0.1-1.3,0.7-2.4,1.5-3.4c0.1-0.4,0.1-1,0.1-1.5
			c-2.1-4.4-1.9-10.3-0.1-14.8c0.5-2-0.6-4.4,1-6"/>
		<path id="Besterce-Naszód_Maros-Tarda" class="st0" d="M744.7,339.3c0.8-0.6,1.6-1.1,2-1.4c0.7-2.6-1.7-6.7,2.2-8
			c1.4-1.2,0.7-3.1,0.1-4.6c1.5-1.8,2.5-4.3,4.5-5.7c0.7-0.2,1.4,0.4,2.1,0.3c1.8-1.8,4.7-1,6.9-0.7c2.1-3.4,6.1-1.6,9.4-2.2
			c0.7,0.8,1.5,1.5,2.6,1.6c2.2-1.5,6.1-0.6,8.8-0.6"/>
		<path id="Bestercze-Nazsód_Csík" class="st0" d="M792,311.4c-1.7,1.6-4,1.6-4.5,4.4c-0.6,0.3-2.7,1.9-3.6,2.2"/>
		<path id="Koloys_Szilágy" class="st0" d="M632.2,338.5c0.6-0.6,1.1-1.4,1.8-1.9c3.3-0.6,5.8-3.3,9.2-3.1c2.4,2.3,5.4,0.2,7.3-1.5
			c0.8,0.3,1.5,0.5,2.1,0.6c1.4-2.4,5.1-3.3,4.9-6.5c1.3-1.1,3.2-1.1,4.7-1.9"/>
		<path id="Jász-Nagy-Kun-Szolnok_Csongrád" class="st0" d="M466,357.6c2.6-1.1,4.5,1.6,7.2,0.6c3.3,4.7,9.8,0.3,14.5,1.6
			c0.5-1.5,0.8-3,2.3-3.9"/>
		<path id="Jász-Nagy-Kun-Szolnok_Békés" class="st0" d="M490,356c-0.3-1.6-1.6-2.5-3-3c-1.7-1.9-0.7-4.7-1-7c-1.2-2-1.7-7.2,2-6
			c0.2,0.3,0.3,0.5,0.4,0.7c-1,2.8,1,6.6,4.2,6.3c1.4-0.7,0.9-2.4,1.9-3.3c0.8-0.3,1.6,0.5,2.4,0.6c0.6-1.5,1.9-2.2,3.1-3.3
			c1.6,0,2.9,0.7,4.6,0c1-2.2,0.6-4.5,0.3-6.9c0.9-1.4,2.7-0.1,4-0.5c0.7-1.3,0.2-2.9,0.4-4.3c1.1-1.8,3.6-1.1,4.4-0.8
			c4.3,1.7,2.9,9.1,5.4,12.3c0.5,0,0.9,0,1.3,0c1.5-1.1,2.6-2.8,4.1-3.8c0-2.5-2-4.2-2.5-6.4c1-2.3,3.2-4,2.4-6.8
			c0.9-1.4,2.1-2.8,3.8-3.1c0.1,0,0.2-0.1,0.3-0.1"/>
		<path id="Jász-Nagy-Kun-Szolnok_Bihar" class="st0" d="M528.3,320.5c0.1-1.1-0.2-2.3-0.7-3.3"/>
		<path id="Bihar_Békés" class="st0" d="M528.3,320.5c1.2,1,2.5,1.8,3.8,2.6c3.3,0.5,6.9-0.6,10,0.6c1.2,2.8,0.4,6.2,0.5,9.1
			c-0.8,0.9-2.1,1.1-2.6,2.4"/>
		<path id="Bihar_Torda-Aranyos" class="st0" d="M626.4,389.7c0.5-1,1.5-1.6,2-2.6c-2-2-2.9-4.3-2.6-7.3c2.2-1.5,4.7-2.7,6.6-4.6"/>
		<path id="Bihar_Kolozs" class="st0" d="M632.5,375.1c-0.3-2.9-3.1-4-5.3-5c-0.1-0.2-0.1-0.6-0.1-0.9c2-2.1,2.9-6,0.4-8.1
			c-2.6-0.4-3.1-3.4-2.8-5.6c-0.6-0.9-1.3-2-1-3.2c4.3-1.6,3-6.6,5.5-9.3c2-0.3,3.4-2.7,2.9-4.5"/>
		<path id="Bihar_Syilágy" class="st0" d="M632.2,338.5c-1.2-0.5-2.5-2.4-3.8-3.5c-0.2-0.2-0.8,0.1-1-0.1c-1.1-0.8-1.4-2.7-3-2.9
			c-3.4,0.5-4.3-4.6-7.8-4.1c-0.2-3.4-1.4-6.6-2.2-9.9c3.1-2.9,2.2-7.2,5.5-9.7c0.3-1.6,0.4-4.6-1.9-4.3c-0.9,0.4-1.6,1.1-2.6,1.3
			c-1.2-0.2-2.7-0.7-2.7-2.2c-1.7-1.9-5.5-0.6-6.1-3.7c-2.7-1.4-6.9-3.9-4-7.3c0.1-0.1,0.2-0.2,0.3-0.3"/>
		<path id="Bihar_Szatmár" class="st0" d="M602.9,291.8c-0.5-1.8-2.1-3.1-1.8-5.1c-0.3-0.4-0.6-0.6-0.9-0.9
			c-2.1,0.4-2.1,3.1-3.9,3.8c-2.2-1.7-3.7-4.9-6.6-6.1"/>
		<path id="Veszprém_Zala" class="st0" d="M296.7,324.7c1.3-0.1,2.8-1.1,4-0.4c0.9,1,0.3,2.7,1.2,3.7c0.5,0,1.4-0.2,1.9-0.3
			c2.9,1.7,7.1,0.7,8.8,4.6c2-1,4.4-0.6,5.9,1.3c-0.5,2,1.8,3.5,3.3,2c2.1,0.6,2.3,3.3,3.2,5.1c0.2,0.6,1,1,1.3,1.1
			c2.9-1.5,3.5-5.8,6.8-6.8c0.9,0.1,1.3,1.1,2.2,1.3c2.6-0.1,3.1-3.2,5.6-3.4c0.8,0.2,1.4,0.8,2.1,1.1"/>
		<path id="Veszprém_Balaton" class="st0" d="M342.9,334c1.1-1.1,1.9-2.2,2.1-3.7c2.4-0.9,4.3,0.4,6.2,1.4
			c-0.1,3.2,3.1,5.4,2.5,8.6c-1.3,2.1-4.6,2-4.7,5.1"/>
		<path id="Fejér_Somogy" class="st0" d="M348.9,345.4c0.2,0.4,0.6,0.8,0.8,1c4.8,1.3,8.8,4.6,11.6,8.6"/>
		<path id="Fejér_Tolna2" class="st0" d="M361.3,355.1c2.3,0.8,4.3,2.8,7,2.9"/>
		<path id="Fejer_Tolna" class="st0" d="M368.3,358c3.2,3.9,7.9,1.6,11.1-0.8c3.9,0.8,3.4,6.3,6.6,7.8c1.4-1.2,3.9-1.7,3.8-4.1
			c4.4-3.5,5.5-10.6,11-12.8"/>
		<path id="Fejér_Veszprém" class="st0" d="M368.3,358c0.1-0.7,0.4-1.9,0.7-2.3c1.9-0.2,4.5-0.8,4.7-3.2c-3.2-3.9-10-6.4-7.1-12.9
			c-0.3-0.7-0.9-1.2-1.5-1.7c-2.8-0.6-5.2-2.3-8.1-3c-0.3-2.5,1.6-4.7,1-7.3c-1.5-1.8-2.2-4.1-4.5-5c-0.2-2.7,2.2-5.8-2-6.8
			c-0.7-0.6-0.8-1.5-0.8-2.4c-2.2-2.1-0.1-4.5,0-6.9c-0.2-0.8-1.1-1.2-1.7-1.8c-0.3-3,0.6-6.3-0.8-9.2"/>
		<path id="Fejér_Pest-pilis-Solt-Kiskun" class="st0" d="M400.9,348.2c0.8-0.7,1.6-1.4,1.9-2.5c-0.4-3.5,0.1-6.8-1-10
			c-0.8-2.3-2.3-2.8-3.3-5c-2-4.2,0-9.1-0.5-14.3c0.4-0.8,1.3-1.1,1.9-1.7c0.5-4.5,1.2-9.3-0.1-13.7c-3,0.6-4.1-1.4-6.4-4.1
			c-1.7-2-3.7-4-5-5.4c-1.6-1.7-2-3.6-4.5-4.3"/>
		<path id="Szolnok-Doboka_Beszterce-Naszód" class="st0" d="M722.9,335.4c-3.2-2.7-2.7-5,0.6-8.1c0.1-1.2,0.5-2.5,1.6-3.2
			c1.4-0.1,2.2-1.5,2.7-2.7c0-0.4-0.4-1.2-0.6-1.5c-0.4-0.2-1.2-0.2-1.8-0.2c-6.9-2.2-3.2-10.3-7.7-14.3c-0.8-0.6-1.9-0.9-2.4-1.9
			c-0.7-5.9-2-11.9-0.2-17.8"/>
		<path id="Vas_Veszprém" class="st0" d="M296.7,324.7c-2.2-2.9-3.3-8.7,0.5-10.8c0.7-1.9-0.5-4.2,0.8-5.9c1.4-1.9,4.1-0.7,5.7-2.3
			c0.1-0.3,0.2-0.9,0.2-1.4c-2-1.7-3.8-4.3-2.1-7.1"/>
		<path id="Vas_Zala" class="st0" d="M230.8,370c0.9-0.9,2.1-1.7,3.4-1.9c0.3-0.1,0.5-0.4,0.7-0.6c0.5-1-0.1-2.3,0.5-3.3
			c3.6-0.2,6.3-2.7,8.1-5.5c4.9-1.1,4.8-10,11.4-8c0.5-2.2,0.3-4.7,2.4-6.4c1.8-0.5,3.7,0.1,5.4-0.3c2-4.8,8.7-4.3,11.8-1
			c1-0.1,2-0.6,2.5-1.5c-1.2-4.9,5.4-5.2,7.7-8.4c0.8-0.2,1.7,0,2.5-0.3c1.1-1.6,1.2-4,2.9-5.2c2.5,0.6,5.2-1,6.6-3"/>
		<path id="Maros-Torda_Kis_Külüllő" class="st0" d="M731.4,375.9c1.3-0.2,2.7-0.4,4.1-0.3c2.8,3.9,7.5,6.3,12.5,5.6
			c1.7,0.6,3.3,1.6,5.1,2.2"/>
		<path id="Maros-Torda_Udvarhely" class="st0" d="M753.1,383.4c0.5-0.9,0.6-2,1.6-2.6c0.3-0.1,0.7-0.1,1-0.1
			c0.9,0.4,1.7,1.1,2.8,1.2c0.3-0.1,0.9-0.8,1.3-1.1c0.9-0.1,2.1-0.2,2.5-1.2c0.3-4.2,5.8-5.1,6.3-9.2c1.7-2,3.5-4.5,6.1-5.4
			c1.4-2.6,3-4.5,5.6-6.1"/>
		<path id="Maros-Torda_Csík2" class="st0" d="M780.4,359c-1-2.5,2.5-4.1,0.5-6.6c1.5-2.7,1.9-6.4-0.6-8.8c-0.1-0.4-0.1-1-0.1-1.5
			c0.9-1.5,2.4-2.7,3.7-3.8c0.6-1.5-0.8-3-0.1-4.6c1.2-1.5,3.3-0.1,4.6-1.1c1.6-3.6-2.5-6.5-3.3-9.8c-0.8,0-1.2-1.2-1.3-2.4
			c-0.1-0.9-0.1-1.8,0-2.4"/>
		<path id="Békés_Csanád" class="st0" d="M499.6,391.2c2.3,2.5,5.8,1.2,8.7,1.6c1.4,0.3,2.4,1.7,3.9,1.6c0.5-0.2,0.9-0.6,1.2-1
			c-0.1-3.3-0.3-6.8-0.7-10c1.5-2.2,3.1-4.1,2.1-6.8c1.2-0.7,2.8,0,4.1-0.2"/>
		<path id="Békés_Arad" class="st0" d="M518.9,376.4c0.1,0,0.2-0.1,0.3-0.1c1.7-0.9,3,0.6,4.6,0.8c1.7-1.4,4-1.8,5.9-0.3
			c1-0.4,2.3-0.5,3.3-0.2c0.8,1.5,2,3,2.2,4.8c0.5,0.5,1.3,0.7,1.7,0.9c2.4-2.4,4.2-7.5,8.6-6.8c0.2-0.4,0.2-0.8,0.2-1.1
			c-0.2-0.7-0.9-1.1-1.1-1.8c0.6-0.8,1-2.2,2.1-2.3c0.9,1,1.3,2.5,2.6,3.1c1.6-1.2,1.6-3.8,3.6-4.6"/>
		<path id="Békés_Bihar" class="st0" d="M553,368.7c-1.7-2.8-2.9-7.6-6.8-7.7c-0.5-0.8,0-1.8-0.4-2.7c-3.8-0.9-4.3-5.3-3.8-8.6
			c1.6-0.7,2.9-1.7,4-3.1c0.1-2.6-0.7-5.3-0.2-8c-1.8-1.2-4.4-1.5-5.8-3.4"/>
		<path id="Békés_Bihar2" class="st0" d="M540.1,335.2c-0.6-0.1-1.4-0.2-1.7-0.2"/>
		<path id="Zala_Varasd" class="st0" d="M236.4,387.6c0.7,1.7,2.3,2.6,3.4,4c0.1,0.4,0.1,1,0.2,1.4c2.9,3.1,8.6,5.6,12.5,2.8
			c0.9-0.2,1.9-0.1,2.8-0.1c1,0.4,1.5,1.6,2.6,1.9c4.8-3.5,8.9,4.4,14,0.8"/>
		<path id="Zala_Somogy" class="st0" d="M271.9,398.5c-0.2-0.9-0.3-1.6-0.3-2.1c2.6-2.8,5.7-4.5,7.6-7.8c1.1-0.3,2.3,0.1,3.4-0.3
			c1.7-3.6,5.7-1.9,8.1-4.5c1,0.3,2.4,0.7,3.1-0.4c0-1.3,0-2.7,1.4-3.4c0.7-1.4-0.6-2.7-0.3-4.4c0.1-0.5,0.6-0.6,0.6-0.8
			c0.1-1.5,0.6-3,0.3-4.7c-0.3-2-1.2-4.5,2.5-5.5c0.1,0,0.2-0.1,0.2-0.1"/>
		<path id="Zala_Balaton" class="st0" d="M298.5,364.5c-1.3-2.9,0.2-5.2,0.3-8c3,1.5,6.1,0.1,7.4-2.7c1.9-0.1,3.9-0.6,5.5,0.6
			c1.5-0.3,2.3-1.9,3.5-2.8c1.8-0.3,4,1.1,5.2-1.1c0.3-0.1,0.9-0.1,1.3-0.1c1.6-0.8,1.9-3.2,3.8-3.6c2.6,0.1,5.3-0.1,6.9-2.4
			c0.8-0.4,1.2-0.5,1.7-0.5c0.8,0.3,1.4,1,2.2,1.4c1.3-1,0.8-2.7,0.1-3.9c1.9-2.7,7-3.1,6.3-7.5"/>
		<path id="Kolozs_Torda-Aranyos" class="st0" d="M632.5,375.1c3.6,4.1,8.9-0.9,13,1c1.3,1.4,1.8,3.4,3.6,4.5c2.7,0.4,3.9-3,6.1-4
			c0.3-0.6,0-1.4,0.3-2c3-0.8,2.9-3.4,1.6-5.7c0.3-1,1.2-1.7,1.9-2.5c1.5,0,2.9-0.3,4.4-0.3c1.7-0.6,1.1-2.7,1.7-3.9
			c3.5-0.7,7.2-1.4,10.3-3.2c3.7-0.5,6.9,1.9,10.4,2.6c2.9-1.7,5.7,0.3,8.3,1.5c1.5-1.3-0.1-3.7,1.4-5c0.8-0.3,1.8-0.1,2.7-0.2
			c1.2,0.4,1.5,1.8,2.5,2.4c0.7,0.3,1.5,0.2,2.2,0.2c1.5-1.1,2.9-2.5,5-2.3c1.9,0.7,1.5,3.6,3.6,3.9c1.4-1.4,3.2-2.5,5.4-1.5"/>
		<path id="Kolozs_Maros-Torda" class="st0" d="M716.8,360.7c0.9-3.6,6-1.6,7.5-5.1c0.1-1,0-2.2,0.8-3c0.3-0.1,0.4-0.1,0.5-0.2
			c3.7,5.6,8-3.1,12.5-0.3c3.3-1.2,4.9-4.3,5.5-7.6c0.5-0.3,1.1-0.4,1.5-0.7c0.5-1.5,0.7-3.1,0.1-4.6"/>
		<path id="Kolozs_Beszterce-Naszód" class="st0" d="M745.3,339.3c-1.5-0.8-2.4-2.4-3.4-3.8c-2.2-3-2.3-6.3-6.9-4.1
			c-0.3-0.1-0.7-0.1-1-0.1c-0.8-0.2-1.1-1.2-1.9-1.3c-2.7,2.2-7.6,0.6-8.5,5.2"/>
		<path id="Somogy_Balaton" class="st0" d="M298.5,364.5c1.8,1.3,3.3-0.1,4.3-1.6c4.9,0.1,10.9,0.5,14.7-3.5
			c0.4-0.2,1.2-0.1,1.8-0.2c0.9-0.4,1.5-1.3,2.5-1.5c4.8-0.2,8.1-4.7,12.9-5.5c3.7,0.9,4.4-3.7,7.2-4.8c2.1,0,3.8-1.3,5.6-2
			c0.5,0,1,0,1.5,0.1"/>
		<path id="Somogy_Verőcze" class="st0" d="M298.1,429c1.7,0.5,2,3,4,3c4.9-2.6,8,3.6,13,2.1c0.4,0.6,1,1.1,1.5,1.8
			c0.3,1.3,0.2,2.4,1.3,3.4c1.8,1.5,2.8,3.6,5.4,4.5c0.6,0.2,1.7,0,2.5,0.3c3.7,1.5,6.3,4.5,10.1,3.2"/>
		<path id="Somogy_Baranya" class="st0" d="M336,447.3c-1.1-2.8-3.6-5.9-6.9-5.7c-1.9-2.1,0.5-5-2-7.1c1.3-4.1,4.7-8,3.7-12.6
			c3,0,5.1-2.7,6.4-5c-2.9-2.5-0.7-5.1,0.8-7.5c-0.2-2.8,1.4-5.3,1.3-8.1c4.3-0.9,7.3-4.7,10.1-7.6"/>
		<path id="Somogy_Tolna" class="st0" d="M349.6,393.6c-0.7-1.3-0.6-2.8-0.6-4.3c-1.9-4.7-7.3-8.1-5.4-13.9c0.6-0.8,1.7-0.7,2.5-1.1
			c0.5-0.9,0.3-2,0.3-3c-0.5-1.3-2-1.7-2.7-2.9c0-0.2-0.1-0.3-0.1-0.5c1.6-2.1-0.6-4.4,0.2-6.6c2.4-0.5,4.8-1.5,7.2-1.9
			c0.1-1.3,0.6-3.3,2.2-3.4c2.6,3.3,6.4,2.9,8.1-1"/>
		<path id="Somogy_Beloyar-Kőros" class="st0" d="M277.2,404.7c3.7,3.9,8,6.4,12.9,8.7c0.9,1.4-1,2.6-0.9,4
			c0.8,0.7,1.9,0.2,2.9,0.2c3.5,2.7,4,7.7,6.1,11.5"/>
		<path id="Tolna_Baranya" class="st0" d="M349.6,393.6c2.6-0.6,6,0.2,8.1-1.9c3-0.4,7.2,2.9,7.6,5.9c-0.4,1-0.8,2.1-0.6,3.2
			c0.2,0.7,1.1,0.9,1.2,1.7c0,1.1-0.9,1.8-1.6,2.5c-0.2,3.9,3.2,2.4,5.1,1.3c2.1-1.2,2.1-2.2,3.2-3.7c1.3,0.1,2.6,0.4,3.9,0.9
			c1.1,1.3,0.1,3.1-0.1,4.5c2.5,5,9.2,6,11.4,11.6c0.8,0,1.4,0.6,2.1,0.7c0.7-0.1,1.7-0.7,2.3-1"/>
		<path id="Tolna_Bács-Bodrog" class="st0" d="M392.3,419.3c-1.1-3.6,0.1-8.4,4-9.6c0.5-0.7,0.5-1.3,0.5-1.6
			c-1-0.6-1.9-1.7-2.1-2.9c0.1-1.8,1.6-2.7,3.3-2.4c0.1-1.1,0.1-2.5-0.7-3.4c-3.9-0.7-7.8-4.3-6.6-8.7c0.1-0.3,0.4-0.5,0.6-0.7
			c1.3-0.5,2.7,0.1,4,0"/>
		<path id="Tolna_Pest-Pillis-Solt-Kiskun" class="st0" d="M395.3,390c0.2-1.5-1.5-3.1-0.6-4.4c1.3-0.2,2.3,1,3.6,1
			c3.5-4.9-2.5-9.7-2-14.4c1.9-1,4.2,0.1,6.1-0.8c0.3-0.9-0.2-1.9,0.2-2.8c1.7-0.3,3.3-1.6,2.7-3.6c-1.3-5.6-3.5-11-4.3-16.7"/>
		<path id="Csongrád_Torontál" class="st0" d="M468,415.5c0-0.1,0-0.3,0-0.4c0.4-6.1,6.9-9.4,12.4-7.7c1.3-0.7,2.7-1.1,4.1-1.5"/>
		<path id="Csongrád_Csanád" class="st0" d="M484.5,405.8c2.1-2.7,5.3-3.9,7.6-6.3c2.5-2.6,4.4-6.1,7.4-8.3"/>
		<path id="Csongrad_Békés" class="st0" d="M499.6,391.2c-0.2-0.5-0.3-0.9-0.4-1.3c0-0.5,0.2-1.2,0.5-1.5c2.6-1.7,7.4-0.3,8-4.4
			c-0.5-2.2-2.9-3.4-5-2.7c-4-1.8-3-6.2-4.1-11c-0.8-3.7-2.3-6.8-2.7-10.1c-1.4-1.9-3.3-4.2-5.9-4.2"/>
		<path id="Tordos-Aranyos_Hunyad" class="st0" d="M630.7,393.5c4.1-0.8,7.9,3.2,11.7,1.9"/>
		<path id="Tordos-Aranyos_Alsó-Fehér" class="st0" d="M642.4,395.4c0-1.2,2.9-2.2,5-2.9c3.2-1.2,8.1-2.2,11.8-2.5
			c1,0.7,1.1,2.4,2.5,2.7c1.3-0.1,2-1.4,2.9-2.2c0.4-0.1,0.8-0.1,1.2,0c2,2.1,5.5,1.8,8,0.9c0.2-5.2,7.4,1,6.6-4.5
			c0.1-0.3,0.4-0.5,0.6-0.7c1.5-0.3,3.1-0.3,4.6,0c1.5,1.5,2.4,3.5,4,4.9c3.5,2,5.2-2.8,8-3.9c0.9-1.6,2.2-2.9,3.6-4.1
			c1.4-0.2,2.8,0.1,4.1-0.5c2.9,1.6,4.3-1.7,6.5-2.8c1.8,1.1,3.6-0.9,5.3,0"/>
		<path id="Tordos-Aranyos_Kis-Küküllő" class="st0" d="M716.9,379.7c5.2,0.8,10.2-1.2,14.5-3.8"/>
		<path id="Tordos-Aranyos_Maros-Torda" class="st0" d="M731.4,375.9c-2.7-7-11.1-8.8-14.6-15.2"/>
		<path id="Udvarhely_Nagy-Küköllő" class="st0" d="M761.9,395.6c0.4,0.4,0.5,0.6,0.7,0.7c0.3,0.2,0.8,0.3,1.2,0.4
			c5.4,4.4,12.8,12.9,20.2,7.4c0.3-0.1,0.9-0.2,1.4-0.2c4.4,2.8,8.8,6.5,14.2,6.5"/>
		<path id="Udvarhely_Háromszék" class="st0" d="M799.6,410.4c1.4-1.5,2.5-3.3,4.1-4.7c2.3-0.6,4.3,1.3,6.4-0.2
			c0.5-3.1,4.1-3.3,5.1-6.3"/>
		<path id="Udvarhely_Csík" class="st0" d="M815.2,399.3c-1-1.9-2-4.2-2.3-6.5c-1.2-2.2-3.8-3-5.2-4.9c-1.6-5.4-5.7-8.9-8-13.8
			c-0.8-1.7-0.6-3.4-2.2-4.8c-0.4-2.8-3.4-4.8-6.1-4.9c-0.4-0.6-0.6-0.9-0.8-1.1c-4.2,0.5-6.6-3.2-10.3-4.4"/>
		<path id="Arad_Temes" class="st0" d="M521.6,419.9c0.9-2.2,2.3-4.3,4.2-5.8c1.9-0.5,3.4,0.9,4.7,2c0.4,0.1,1.2-0.1,2.2,0.2
			c3.6-1.6,7.4-3.2,11.5-3.5c2.4,0,2.6,3.1,4.9,3.3c2.8-2.7,7-1.6,9.7,0.5c2.9-0.7,4.5,2.3,7,2.7c1.2-0.5,1.9-2.2,3.4-1.7
			c1.1,0.4,1.9,1.3,2.9,1.9c1.4,0.3,3.1-0.1,3.1-1.8c2.5,0.1,5.4,1,8.1,1.6"/>
		<path id="Arad_Krassó-Szörény" class="st0" d="M583.3,419.3c0.8-0.4,1.7-1.1,2.6-0.7c2.4,1.7,4.4,4.1,6.4,6.3
			c2.7,0.4,5.1-0.3,7.9,0.1c0.7,0.1,3.2,0.1,4.5,0.3c2.4,0.4,4,2.2,6.6,1"/>
		<path id="Arad_Hunyad" class="st0" d="M611.4,426.2c-1.8-2.7-1.5-5.6-1.3-8.6c1.9-2,4.3-5.1,5.1-8c-1.8-1.4-3.7-3.8-2.5-6.4
			c0.4-0.2,1.2-0.2,1.8-0.2c1.5,1.2,3.5,4.7,5.5,1.9c1.6-0.4,3.2-0.1,4.8-0.2c0.3-0.1,0.6-0.4,0.8-0.6c1.4-3.7,2.9-7.2,5.2-10.6"/>
		<path id="Arad_Tordo-Aranyos" class="st0" d="M630.7,393.5c-1.2-1.5-3.1-2.3-4.3-3.8"/>
		<path id="Arad_Bihar" class="st0" d="M626.4,389.7c-1.3-0.4-2.8-0.3-3.6,1c-2.7-0.7-4.7-1.1-7.4,0.5c-1.9,0-3.9-0.6-4.9-2.4
			c-2.4-2.1-6.2-3.7-6.1-7.3c-1.8-1.8-4.6-2.1-6.5-0.5c-0.3,0.6-0.1,1.4-0.5,2c-1.6,1-3.3,0-4.9,0.5c-1,1.7-1.5,3.8-3.2,5.1
			c-1,0.4-1.9-0.2-2.6-0.8c-0.9-3.1-4.4-5.3-7.4-6.2c-0.4-0.1-0.9-1.1-1.2-1.4c-0.6-1.4,0.3-2.8,0.9-4c-1.4-3.7,0.2-8.1-2.2-11.5
			c-2.6,0.1-4-2.7-6.8-1.6c-3,3.1-8,4.1-10.4,7.8c-2.4,0-4.5-1.1-6.7-2.1"/>
		<path id="Kis-Küküllő_Nagy-Küküllő" class="st0" d="M713.4,414.6c2-0.9,2-2.6,3.5-3.6c3.5-2.4,7.9-0.7,9.6-4.6
			c0.3-0.8-0.3-1.6,0.5-2.9c1.5,0.2,3.1,0,4.6,0.2c2.3-2.8,6.2-2.1,8.1-5.1c3.8-0.7,6.5-3.9,10.1-4.7c2.3,3.6,6.6-1.8,8.9,1.8
			c1,0.3,2.2,0.2,3.3,0h0"/>
		<path id="Kis-Küküllő_Udvarhely" class="st0" d="M761.9,395.6c1-2.8-0.8-5.5-1.2-8.2c-2.5,0-4.8-1.1-7-2.2
			c-0.3-0.5-0.3-1.2-0.6-1.8"/>
		<path id="Csanád_Arad" class="st0" d="M515.8,417.4c2.6-3.9-4.3-10.6,2.5-12.7c2.1,1.3,4.3,0.3,6.5,0.3c2,0.7,2.3,3.2,4.2,4
			c0.3,0,0.6-0.2,0.8-0.3c0.1-3,4-3.9,3.5-6.9"/>
		<path id="Casnád_Arad2" class="st0" d="M533.3,401.8c-0.3-0.2-0.6-0.5-0.9-0.9"/>
		<path id="Csanád_Arad3" class="st0" d="M533.3,401.8c4-1.2,3-5.9,5.7-8.2c0-1.2-0.7-2.2-2-2.3c-1.1-3.2-6.7-1.2-5.9-5.4
			c-0.4-0.7-1-1.3-1.5-1.7c-2-0.5-3.8,0.5-5.8,0.3c-2.6-1.9-5.3-4.7-5-8.2"/>
		<path id="Alsó-Fehér_Szeben" class="st0" d="M677.4,439.7c1.3-2.9-2-5.3-1.4-8.2c1-1.7,1.1-3.9,0.2-5.7c1.9-2.1,2.9-5.3,5.6-6.5
			c1.2,0.4,1.6,2,3,1.8c0.3,0.1,0.5,0.4,0.7,0.6c0.2,2.2,0.5,5,2.6,6.3c2.7-0.2,5.5-0.7,8.3-0.8c1.4,0.5,1.4,2.7,3.2,2.6
			c0.8-0.2,1.3-0.8,1.7-1.3c0.3-1.2-0.6-3.1,1.1-3.4c2.2,1,4,2.4,5.9,3.8c-0.5,1.3-0.5,3,0.8,3.8c2-0.7,4.3,0.3,6.4-0.4
			c0.2-0.6,0.2-1.2,0.4-1.8c-0.3-1.5-1.1-2.8-1.5-4.3"/>
		<path id="Alsó-Fehér_Nagy-Küküllő" class="st0" d="M714.6,426.3c-1.7,0.3-3-1.2-4.7-1c-0.3-0.1-0.5-0.4-0.7-0.6
			c-0.6-4.1,6.2-5.7,4.1-10.1"/>
		<path id="Alsó-Fehér_Kis-Küküllő" class="st0" d="M713.4,414.6c-5.2-4.1-10.1-8.4-13.6-14c0.3-1,1.4-1.4,2.1-2
			c-0.1-3.9,3-2.4,5.3-1.9c3.5-2.6,11.9-4.6,7.5-10.4c-0.1-0.7,0-1.2,0.2-1.5c1-0.3,2.2-0.6,2.6-1.6c0.2-1.2-0.7-2.3-0.6-3.5"/>
		<path id="Varasd_Zágráb" class="st0" d="M201,426.4c0.6,0.7,1.5,1.1,2.4,0.9c0.4-0.5,1.1-1.2,1.8-1.6c3.4-0.6,5.2-5.5,9.2-3.8
			c1.3-0.4,1.8-2,3.1-2.4c1.9,0.3,3.3-1.7,5.1-0.4c2.7-2,6.3-0.6,9.4-2.5c1.8,0.8,3.3,2.3,5.1,3.1c0.4,1.2-0.1,2.7,0.9,3.8"/>
		<path id="Varasd_Belovár-Kőrós" class="st0" d="M238,423.5c2.4-0.4,3.6-2.5,3.3-4.7c1-1.4,3.2-1.1,4.1-2.6c0.4-2,0.6-4,0.6-6.2
			c2-4.6,6.9-1.6,10.3-2c0.4-0.9,1.4-1.5,2.3-1.3c2.8,5.6,9.5-0.1,13.6-1.4c1.6-0.4,3.5,0.3,5-0.6"/>
		<path id="Varasd_Somogy" class="st0" d="M277.2,404.7c-1-2.5-4.2-3.6-5.4-6.2"/>
		<path id="Háromszék_Brassó" class="st0" d="M801.6,415.7c0.1,0.1,0.2,0.1,0.3,0.2c0.2,0.1,0.3,0.3,0.5,0.5
			c0.3,4.3,0.3,6.9,1.5,10.4c1.7,5.5,4.9,5.2,9,9.8c1.2,0.5,2.1,1.7,3.4,1.6c0.9,0.4,1.7,1.3,1.9,2.2c3.5,1.7,4.6,6.2,5.9,9.7
			c2.3,1.8,5.6,2.7,5.6,6.4c0,0.2,0.1,0.3,0.1,0.5"/>
		<path id="Háromszék_Csík" class="st0" d="M846,389.5c-3.4,1.7-4.7,8.2-9.3,6.9c-3.8,2.7-6.2,4.2-9.9,4.7
			c-0.5,0.1-1.4-0.1-2.3,0.1c-3.7,0.7-5.4-1.9-9.2-1.9"/>
		<path id="Baranya_Verőcze" class="st0" d="M336,447.3c0.3,0.1,1,0.2,1.3,0.3c3.1-3,6.3,1.6,9.9,0.6c1.4-1.3,3.3-1.5,5.1-1.3
			c2.1,2.8,6.2,5.4,9.7,3.1c1.5,0.4,2.6,1.9,3,3.4c1.4,1.7,3.5,1.9,5.8,2.9c1.7,0.8,2.7,3,4.7,5.3c1.5,1.7,2.9,1.9,3.6,3.9
			c0.7,0.7,1.2,0.9,1.4,1c4.8-2,7.8,4,12.6,2.7c1,0.5,1.8,1.3,2.8,1.8c1.4-0.4,3-0.7,3.9-2.1"/>
		<path id="Baranya_Bács-Bodrog" class="st0" d="M399.8,468.9c-0.8-1.6-2-3.1-2.5-4.7c0.5-1.6,2.6-2.4,2.6-4.3
			c-0.7-1.9-2.9-2.8-3.8-4.6c0-0.3-0.1-0.7-0.1-1c0.4-1.3,2.1-1.3,2.7-2.4c0.4-1.3,0-2.7-0.9-3.6c1-3.3,0-5.8-3.5-6.3
			c-0.4-3.1,0.3-5.9-0.2-8.8c0.7-0.4,1.5-0.2,2.2-0.6c0.2-4.1-2-7.8-1.6-12"/>
		<path id="Baranya_Pest-Pilis-Solt-Kiskun" class="st0" d="M394.6,420.4c-0.6-0.7-1.5-0.8-2.3-1.1"/>
		<path id="Hunyad_Szeben" class="st0" d="M689.4,466.5c0.8-2.2,0-4-2.2-4.4c-0.3-0.6-0.3-1.4,0-2.1c2.5-0.6,1.5-3.6,1.2-5.5
			c-3.9-2.1-7.5-4.7-10.6-8c0.7-2.2,2.3-4.9-0.4-6.8"/>
		<path id="Hunyad_Alsó-Fehrér" class="st0" d="M677.4,439.7c-4.3-1.9-7.8-5.4-8.5-10.1c-0.6-1-2-0.5-2.7-1.4c0-4.1-1.1-8-5.4-9.3
			c-2.8-4.7-7.2-8.1-10.4-12.5c-0.5-0.5-1.2-0.8-1.9-0.9c-1,0.7-2.2,0.7-3.4,0.6c-3.2-2.5,0.4-7.8-2.6-10.7"/>
		<path id="Nagy-Küküllő_Fogaras" class="st0" d="M748.7,434.4c2.1,0.1,3.1-2.7,5.3-2.1c1.4,1.8,3.7,1.4,5-0.3
			c3.3-0.7,5.5-1.8,7.9-3.7c0.6-0.5,1.2-3.5,3.5-2.4c1.4,0.5,1.2,2.1,1.6,3.2c2.9,0,6.8,0.2,9.1-2.1c-0.2-3.3,0.3-7.2,4.1-8.1
			c4.4,0.8,6.3,5.5,9.4,8.1"/>
		<path id="Nagy-Küküllő_Brassó" class="st0" d="M794.6,426.9c0.7-0.4,1.3-0.6,1.7-0.8c0.3-3.9,1.6-8.1,5.3-10.4"/>
		<path id="Nagy-Küküllő_Háromszek" class="st0" d="M801.6,415.7c0.9-2-0.7-3.9-2-5.3"/>
		<path id="Bács-Bodrag_Torontál" class="st0" d="M480.6,505.8c1.5-1.7,2.8-3.6,4-5.5c-0.5-4-4.9-4.7-3.6-8.9
			c0-0.1,0.5-1.5,0.2-2.9c-0.4-1.4-2.4-1.4-2.9-2.8c0.1-0.4,0.4-1.1,0.5-1.5c-0.6-2.7-2.9-5-4.4-7.2c-0.8-1.1-0.6-2.8-2.4-2.8
			c-0.6,0.6-0.8,1.7-1.8,2c-0.4,0.1-1,0.2-1.4,0.2c-0.5-0.2-0.9-0.6-1.2-1c-0.9-3.3,1.1-6,3.3-8.2"/>
		<path id="Bács-Bodrag_Torontál2" class="st0" d="M470.9,467.3c-1.2-1.3-1-3.2,0.4-4.3c-0.1-3.2-1.1-6.4,2.6-7.7
			c0.5-4.1,0.5-8.5-3.2-11.2c-0.5-1.5,0.9-2.5,1.7-3.5c0.5-1.3-0.7-1.6-1.1-2.4c-1.1-2.5-0.7-4.3-0.1-7.1c-0.2-1-1.2-1.5-1.4-2.4
			c0.2-0.8,1-1.4,1-2.3c-2.7-2.6-0.2-5.4-0.1-8.4c-0.3-1.3-1.6-1.9-2.7-2.4"/>
		<path id="Bács-Bodrog_Torontál3" class="st0" d="M470.9,467.3c0.3,0,0.6,0,0.9,0"/>
		<path id="Bács-Bodrag_Csongrád" class="st0" d="M468,415.5c-0.5,0.5-1,0.9-1.3,1.1c-1.4-0.1-2.4-1.3-3.6-1.8
			c-3.4-1.3-4.1,2.6-5.9,4.1c-2.2-1.8-4.9-2.2-7.4-3.3c-2.4-4.1-4.7-7.9-7.4-11.8"/>
		<path id="Belovár-Kőrós_Zágráb" class="st0" d="M238,423.5c-0.2,3.3-2.5,5.6-2.8,8.7c1.4,2,2.9,4.3,2.6,6.9
			c4,4.3,2.6,10.6,4.4,15.9c2.9,1.8,8.1,5.4,4.4,9c3.4,5.5,10.8,7.7,14.3,13.5"/>
		<path id="Belovár-Kőrós_Pozsega" class="st0" d="M260.8,477.5c2.1-1.4,5.2-0.8,6.8-3.3c2.6,0.7,2-2.2,3.1-3.4
			c0.8,0.1,1.5,0.7,2.4,0.7c1-0.9,0.7-2.3,0.8-3.5c2.2-7.4,9.5-12.4,16.8-13.7c1.1,2,3.5,1.3,5.4,1.8c1.7-1.7,3.4-3.8,6.1-3.5"/>
		<path id="Belovár-Kőros_Pozsega2" class="st0" d="M302.2,452.6c1.3,0,2.6,0.5,3.9,0.1"/>
		<path id="Torontál_Temes" class="st0" d="M513.9,550c-0.2-3.9,4.8-5.3,4.7-9c-0.9-2.7-3.7-5.8-1.9-8.5c2.5-0.2,3.3-2.9,5.6-3.8
			c0.5-6.4-1-14.3,5.5-18.2c2.9,0.4,3.9-2.6,5.7-4.2c-0.4-3.6,4.1-4.4,5.6-7.7c0.6-1.5,0.9-2.9,0.5-4.9c-2-2.9-5-5.3-6.2-8.6
			c0.4-1,1.6-1.1,2.2-2c1.1-4.1-3.6-6.2-6.8-7.1c-0.1-0.3-0.1-0.8-0.1-1.3c0.1-0.2,0.3-0.5,0.5-0.7c0.4-0.2,0.9-0.2,1.4-0.3
			c1.5-1.6,0-4.6,0.5-6.7c0.3-2.3,3.1-4,1.8-6.4c-1-0.6-2.1,0-3.1,0.1c-0.3,0-0.9-0.5-1.2-0.8c0.5-2.8-0.8-3.9-2.5-5.5
			c-0.1-4.5,5.3-6.6,4.7-11.1c-1.6-3-3.2-5.7-6.9-6.1c-1.1-2.3-4.1-2.6-4.8-5.2c1.7-1.7,1.2-4.1,1.6-6.6c0.4-1.9,2.1-3.1,0.8-5.6"/>
		<path id="Torontál_Arad" class="st0" d="M521.6,419.9c-2.1,0-4.8-0.3-5.8-2.4"/>
		<path id="Torontál_Csanád" class="st0" d="M515.8,417.4c0,0-0.1,0-0.1,0c-4-3.1-9.1,0.5-13.3-2.3c-2.2-3.7-6.3-3.8-10.3-3.4
			c-3.3-1-5-3.9-7.6-5.8"/>
		<path id="Temes_Krassó-Szörény" class="st0" d="M551.4,536.4c0.8-1.4,0.1-3.1,0.2-4.6c3.3-5.4,7.9,0.7,12-0.2
			c0.8-4.6-0.8-7.9-4.3-9.5c-3.4-1.6-7.6,0.7-10.7-0.7c0-2.3,2.2-4.1,3.8-5.7c1.8,0,3.7-0.2,4.8-1.9c-0.2-4.4,3.8-5.7,6.7-7.5
			c-1.2-2.5-3.9-3.4-6.5-3.5c-0.5-5.5,5.2-7.6,1.6-13.8c-0.3-0.5-0.6-1-1.8-1.5c0-1.8,0-3.9,1.3-5.2c2.5,0,4.5-1.7,5.7-3.8
			c0.1-4.5-4.1-8.5-1.7-13.1c3.2,1.9,7.1-1.3,9.4,2.3c0.4,0.1,0.8,0.1,1.2,0c2-1,4.2-2.8,3.3-5.3c-0.2-0.6-1-1.1-1.3-1.1
			c-1.7,1.3-3.3-0.4-4.2-1.7c1.2-2.4,1.3-5.5,4-6.9c0.2-4.2-1.6-9.5,2.2-12.8c0.2-0.7,0-1.4,0.3-2.1c0.3-1.6,1.5-2.9,1.1-4.5
			c-1-1.6-2.5-3.9-0.5-5.4c-1.7-3.5,2.3-5.4,4.8-3c1.6-1.2,0.7-3.7,0.7-5.4"/>
		<path id="Fogaras_Brassó" class="st0" d="M794.6,426.9c0.5,3.2-2.1,7.1,1,9.5"/>
		<path id="Fogaras_Brassó2" class="st0" d="M795.5,436.3c0.8,0,1.6-0.1,2.4,0.3"/>
		<path id="Zágráb_Modrus-Fiume" class="st0" d="M175.2,467.6c1.2,5.7,6.5-0.2,9.2,3.2c1.6-0.9,3.5-0.7,5.4-0.9
			c0.7,0.6,1.5,1.3,2.4,1.2c1.4-2.3,4.2-2,5.9-4c0.4-0.1,0.9-0.2,1.3-0.2c4.6,3,2,10.3,4.3,14.7c-2.6,2.4-1.7,6.2,1.4,7.5
			c0.2,1.6,0.7,3.2,1.7,4.5"/>
		<path id="Zágráb_Pozsega" class="st0" d="M274.4,493.4c0.2-0.9,0.1-2.1-0.8-2.6c-2.7-0.2-5.8,0.4-7.8-2.1
			c-0.8-1.9-0.2-4.6-2.6-5.6c-0.3-2.1-1.2-4-2.5-5.6"/>
		<path id="Krassó-Szörény_Hunyad" class="st0" d="M631.4,493.9c-1.1-1-1.6-2.8-0.3-3.9c1.2-3.8-3.2-6.1-2.3-9.7
			c0-0.4-0.4-1.3-0.8-1.6c-2.3-0.4-3.8-2.6-6.1-3.4c-0.1-0.3-0.2-0.9-0.2-1.4c3.1-2.9-1.4-4.5-2.8-6.5c0.4-1.2,2-1.9,1.5-3.4
			c-0.2-1-1.6-1.1-2-2c-1.7-3-8.2-7.3-2-9.9c0.4-0.8,0.1-1.7,0.5-2.4c1.1-0.8,2.3,0.3,3.5,0.1c0.6-0.2,1.1-1,1.1-1.2
			c-0.8-2.3-2.8-4-5.2-4.2c-0.3-0.7-0.1-1.5-0.2-2.2c-0.7-3.6-4.6-2.7-5.9-5.4c-0.5-2.3,2.1-3.5,3.2-5.2c0.6-2.1-0.4-4.2-2.1-5.4"/>
		<path id="FogarasBrassó" class="st0" d="M801.8,464.8c-0.9-2.3-3.4-3.4-5.6-4c0.3-3.1,0-6.2-3-8.1c-0.8-2.9,2.1-4.9,2.7-7.5
			c-0.2-2.7-3.4-2.6-5.3-2c-0.7-0.1-1.4-0.4-1.9-0.9c-0.1-0.4-0.1-1.2-0.1-1.5c2-2,4.3-3.3,6.8-4.4"/>
		<path id="Szeben_Fogaras" class="st0" d="M741.2,458.3c-0.3-4.6-3.5-7.7-6.6-10.8c0.2-5.5,5.8-8.2,9.4-11.7
			c1.6-0.4,3.8,0.5,4.7-1.4"/>
		<path id="Szeben_Nagy-Küküllő" class="st0" d="M748.7,434.4c-0.2-1.7-0.8-5.1-2.7-7.4c-2.6-3.2-7.3-5.9-10.6-3.1
			c0.1,0.5,0.3,1.3,0.3,1.8c-1.5,2.7-5.4,1.7-6.6-0.6c-3.9-0.3-8.7,2.6-11.7-0.9c-1.2,0.1-1.5,1.7-2.7,2.1"/>
		<path id="Verőcze_Szerém" class="st0" d="M368.7,500c1.1-2.1,3.8-2.1,5.8-2.6c0.9-0.6,0.8-1.8,0.5-2.7c-0.7-0.7-2-1.1-2-2.3
			c0.2-0.8,0.4-1.2,0.5-1.5c1.3-1.7,3.5-1.3,5.1-2.4c1.5-2-0.6-4.1-0.8-6.1c1-1,2.7-1,2.9-2.8"/>
		<path id="Verőcze_Szerém2" class="st0" d="M380.8,479.8c-0.1-0.2-0.2-0.6-0.3-0.8"/>
		<path id="Verőcze_Szerém3" class="st0" d="M380.8,479.8c1.1,0.1,1.9,0.7,2.7,1.4c0.5,0.1,1.3,0.1,1.6-0.1
			c1.3-2.7,4.3-2.5,6.1-4.4c1.8,1.6,3.7,1.1,5.5-0.2c1.8,1.7,3.8,0.8,6,1.3"/>
		<path id="Verőcze_Bács-Bodrog" class="st0" d="M402.8,477.8c0.4-1.1,0.3-2.3,1-3.3c1.1-0.1,2-0.5,3.1-0.7
			c0.3-0.1,0.5-0.4,0.7-0.6c0.3-0.8,0.3-1.7,0-2.4c-1.9-2.5-5.1-2.1-7.8-1.9"/>
		<path id="Verőcze_Belovár-Koros" class="st0" d="M298.1,429c-1.4,2.1-1.2,4.9-4.3,5.7c-0.7,2.9-0.2,5.8,1.6,7.8
			c2.1,2.3,4.2,5.8,6.3,7.7"/>
		<path id="Verőcze_Belovár_Koros2" class="st0" d="M306.1,452.7c0.1-1.2,0.7-2.1,1.4-3.1c0.1-0.5,0.1-1.1-0.1-1.6
			c-1.1-0.5-2.4-0.4-3.6-0.2c-0.7,0.8-1,1.9-2.1,2.3"/>
		<path id="Verőcze_Pozsega2" class="st0" d="M368.7,500c-2.8-0.2-5.5,2-8.3,1c-0.1-1,0.5-2,0.3-3c-0.1-0.2-0.3-0.4-0.5-0.6
			c-0.2-0.1-0.6-0.1-0.9-0.1c-1.4,0.3-2,2-3.3,2.5c-0.3,0-0.7,0-1,0.1c-0.3-0.1-0.5-0.3-0.7-0.5c0.2-4.2-4.3-4.6-7.4-4.5
			c-1.5-0.6-2.7-2.1-2.1-3.8c0.3-0.9,1.4-0.8,1.9-1.5c-1.3-2.7,0.4-3.6,2.1-5c-0.7-1.9-3.3-5.7-5.5-3.6c-4.2,1.5-4.9-4-8.1-4.1
			c-1.6-1.1-2.9-2.8-5-2.8c-0.9,0.1-1.2,1.3-2.2,1.4c-1.6-0.3-1.4-2.4-2.8-2.8c-0.7,0.1-1.3,0.5-1.9,0.7c-2.9-1.2-5.6-2.6-7.6-5.2
			c-2.4-0.4-4.4,2.1-6.7,1.3c-0.6-0.5-1.5-0.6-1.9-1.3c0.5-2.9-1.2-5.2-1.2-8.1c-0.1-2.4,1.6-4.7,0.3-7.4"/>
		<path id="Pozsega_Szerém" class="st0" d="M364.4,509.9c0.2-4,4.9-6,4.4-9.8"/>
		<path id="Szerém_Torontál" class="st0" d="M495.2,536.1c-2.1-3.5-8.5-3.4-8-8.6c-1.9-1.4-3.3-3.5-3.9-5.9
			c0.9-1.7,2.7-2.7,3.8-4.2c0.2-4.9-6.9-6.4-6.4-11.6"/>
		<path id="Szerém_Bács-Bodrog" class="st0" d="M481,505.8c-2.5-1.7-5.4-3-8.5-2.8c-1.1,1.1-2.6,1.1-4.1,1
			c-0.8-0.3-1.3-1.1-2.1-1.5c-2.6,0.3-5.2-1.8-5-4.6c-0.3-0.2-0.9-0.8-1.3-1.1c-0.4-0.1-1-0.1-1.5-0.1c-5.2,5.5-13.7-1.8-18.9,3.6
			c-3-3.2-4.7-5.4-9.4-3.6c-0.7,0.3-1.3,1-2.2,1.1c-3.3,0-6.8-0.6-8.9-3.4c-2-1.2-3.8,0.4-6.3-1.1c-2.6-1.5-2.4-5.5-6.5-6.3
			c-0.9-0.2-1.9,0-2.8-0.2c-0.3-0.1-0.5-0.4-0.7-0.6c-1-2.2,1.2-3.9,1.9-5.8c-0.3-0.9-1.5-1.4-1.5-2.5"/>
		<path id="Modrus-Fiume_Lika-Krbava" class="st0" d="M145.2,503.1c2.5-1.4,4.8-4.4,8-3.1c2.7-1.4,5.6,1.3,8.4,1.7
			c1.8-1.6,4.3-1.8,6.6-1.3c0.8,1.1,0.5,2.5,0.1,3.6c1,0.5,2.1,0.5,3.1,0.5c2.8,2.5,5,5.8,7.5,8.5c0.6,2.9,2.8,3.1,5.2,2.5
			c1.7,1.6,1.9,5.5,5,3c1.3,0.6,2.4,1.5,3.7,2.1c2.1-2.2,4.5-0.2,7-0.9"/>
		<path id="X_Modrus-Fiume2" class="st1" d="M631.4,493.9c2.4-2.4,5.7-1.6,8.6-2.4c3.5,2.4,6.5-2.9,9.5,0.2c1.7,0,3.3-0.5,5.1-0.4
			c0.5-0.4,1-1.3,1.4-1.6c2.9,0.6,5.5-1.5,8.3-1c2.7-2.6,6.6-1.8,9.4-4.2c4,3.6,9.3,0.1,12.4-3c0-0.4,0-1.1,0-1.5
			c2.1-2.5,2.1-5.3,1.2-8.2c0.1-0.3,0.3-0.5,0.5-0.8c0-1.7-0.3-3.9,1.8-4.6c1.2,0.7,2.4,1.1,3.8,1.3c1,2-0.2,4.1-0.2,6.1
			c3.8,2.2,5.7-3.1,8.5-4c1.8-0.6,2.9,1.6,5.9,0.3c1.2-1.9,3.6-2.1,4.9-3.9c1.9-0.1,3.8,0.5,5.7,0.2c0.3-0.1,0.5-0.4,0.8-0.6
			c6.1,0.4,10.7-4.1,15.5-7.3c2.3-0.5,4.7,0.1,7-0.4c3.4,1.8,5.9-1.4,8.6-2.6c1.1,2,3.4,1.2,4.8,0c2.4,0.6,4.8-1.9,6.7,0.9
			c1,0.5,2.1,0,3-0.7c0.4,0,1-0.1,1.5-0.3c1.2,0.7,2.7,0.6,3.7-0.4c2.1-1,3.1,2.2,5.3,1.5c0.9-0.3,1.3-1.3,2.2-1.5
			c2.5,1.3,4.8,2.6,7.5,3.3c0.6,0.8,0.8,1.4,1,1.7c-1.4,2.9,0.9,6.3,3.7,7.4c1.9,2.7,4.8,4.4,8.1,4.7c3.1-1.6,2.7-5.2,4.8-7.5
			c2.8,0.3,2.7-3.2,4.8-4.2c2.6,1.6,5.1-0.4,6.8-2.2c0.4,0,0.6,0.2,0.9,0.3c0.4,0.8,0.5,1.8,1.2,2.4c4.3-1.4,6.7,3,10.3,4.2
			c1-0.3,1.5-1.3,2-2c0.5-2.1-1.1-5.5,2.1-6.2c1.6,0.7,2.5,2.2,3.1,3.7c2.1,0.9,3.5-1.4,5.1-2.2c0.1-0.3,0.2-0.9,0.3-1.4
			c3.2-2.4,5.8-5.3,6.6-9.3c3.2-1.9,7.3,3.3,9.4-0.4c0.5-1.6-0.3-3.5,0.5-5c1-0.4,2.1,0.8,3,0c0.1-2.3,0.5-4.3-0.2-6.2
			c-2.3-6.2,7.4-9.6-1.1-10c0.7-2.7,1.9-5.5,3.4-8c1-2.3-1.3-4.1-0.9-6.3c0.6-0.4,0.9-0.6,1.1-0.8c0.5-2.4,0.6-4.6,0.5-6.4
			c-0.3-5.7-4.5-8.2-7.9-13c-3.1,1.1-4.4-1.4-6.9-2.4c-0.1-0.7-0.2-1.7-0.2-2.3c2.8-3.5-0.1-8-1.5-11.2c-1.4-1.3-3.5-2.1-3.6-4.4
			c-1.2-1.1-3-0.3-4.4-0.5c-0.5-1.6-1.8-2.9-3.4-3.6c-1.2-3.1,3-4.5,3.8-7.2c0.2-0.5,0.2-1.3,0.1-1.8c-0.5-1.3-1.2-2.5-1.9-3.8
			c0.8-4.6-4.2-5.7-6-8.6c-0.1-0.9-0.7-1.7-0.6-2.7c-1.1-1.4-2.1-3-3.5-4.1c-0.9-1-1.2-2.4-1.8-3.6c-6.2-1.8-9.3-8.1-12.9-12.8
			c-0.1-1.1-0.5-2-0.7-3.1c-2.6-2.8-7.1-2.7-9.6-5.9c-1.1-0.2-2.2,0.7-3.3,0.4c-1.3-1.2-2.7-2.3-4.4-2.9c-1.3-2.2-4.4-2.1-6.6-3.1
			c-2.6-0.5-3.2,2.7-5.4,2.8c-2.9-5.5-10.4-3.5-14.1-8c-0.2-1.1-0.4-2.3-0.2-3.1c0.9-3.6,4.3-4.1,7.8-3.9c0.6-3.6,0.1-8.2-3.3-10.2
			c-1.2-2.6,2.1-3.8,3.1-5.6c-0.7-3.3-5-3.8-7.8-4.5c-0.4-2.5-0.2-5-0.9-7.4c-3.5-2.4-5.2-8.2-10.5-6.1c-0.2-0.1-0.5-0.3-0.7-0.5
			c-0.6-4.3-4.9-6.2-6.9-9.8c-1.6-0.5-2.7,1.5-4.4,1c-1.9-0.7-1.9-2.9-1.8-4.6c-1.3-2.7-3-4.9-5.8-6.3c-0.6-1.7,0-3.9,1.7-4.7
			c0.6-1.8-0.4-3.6-0.4-5.4c-2.6-1.5-3.3-4.9-6.4-5.4c-0.3-2.3,0-5.1,0.7-7.4c-1.1-2.6-3.2-4.6-5.2-6.6c1.1-5.8-6.4-4.4-8.8-8.5
			c-2.1-0.7-2.9,1.6-3.1,3.2c-0.6,0.4-1.1,0.5-1.5,0.5c-1.4-1.1-3.5-0.4-4.9-1.5c0-0.5,0.1-1.1,0.2-1.5c1.9-1.7,0.4-3.8-0.7-5.3
			c1.6-3-1.5-4.8-3.5-6.3c-2.4,1.9-5.8,1.7-8.5,3.1c-1-1.9-0.7-4.4-2.6-5.7c-2.5,1.1-3.6-2-5.9-2.2c-0.6-1-0.1-2.2-0.7-3.2
			c-1.7-0.4-3.3-1.1-5.1-1c-1.1-1.4-2.1-3.2-4.2-3c-2.3-4-7.2-4.6-11.2-3.4c-1.5-0.7-2.6-2.3-4.4-2.4c-2.6-2-6.3-1.5-9.5-2.2
			c-1.6-3.4-5.8-7.1-9.8-6.6c-0.6,0.7-1.3,1.6-2.4,1.4c-2.1-1.8-3.1-4.7-5.6-6c-1.9-1.8-0.2-3.8,0.1-5.7c-1.2-1.4-2-3.8-4.2-3.9
			c-1-0.8-2.3-1.3-2.8-2.5c-2.3-0.4-5,0.1-7.3,0.9c-2.3-2.3-5.7-7.4-9.3-3.4c-4.3,0.5-6.4-3.6-9.5-5.8c-1.3-0.3-2.5,0.4-3.7,0.9
			c-3.7,0.2-4.5-5.9-8.8-5.2c-0.9-0.3-1.5-1.1-2.4-1.5c-1-0.3-2.1,0.1-3.1-0.3c-0.2-0.3-0.5-0.6-0.7-1c0-0.8,0.2-1.5,0.4-2.2
			c-3.4-5.5-9.4-12.9-16.5-9.6c-0.5-1.7-2.1-3.1-3.8-3.4c-2.6-2.5-3.5-2.3-6.7-2.1c-2.5,0.2-6.1-1.1-7.6,1.7
			c-1.8-1.1-3.4-2.2-5.1-3.1c-2.8,1.2-7.7-1.5-8.5,2.9c-2.7,1.8-6.5-2.7-9.3,0.4c-0.8,1.2,0.3,2.4,0.5,3.6c-1.5,1.7-3.9,2.7-6.1,3.7
			c-0.4,1.1-0.4,2.3-1,3.3c-0.8,0.5-2.1,0.6-2.8-0.1c0.3-2.9-2.6-4.9-5.3-4.7c-0.4-2.9-3.5-3.9-5.3-5.9c-3.8-0.7-6.1,2.9-9.7,2.4
			c-1.2-0.9-2.1-2.4-3.8-2.6c-0.9,0.6-1.4,1.9-2.5,2.3c-0.7,0-1.5,0.1-2.2-0.2c-1.7-4-7.3-3.6-10.5-6.2c-1.5,2-3.7,2.8-5.6,4.3
			c-0.3,1.9,0.4,4.1-1.1,5.6c0.4,1.9,2,3.2,2.5,5.1c-2.3,2.3-1.7,5.9-4.1,7.8c-1.5-1.5-3.1-2.7-4.7-4c-1.9-0.3-3.5,0.5-5.1,1.4
			c-0.8-0.4-1.6-0.7-2.4-1c0.5-3.4,0-7.1-2.2-9.8c0-1.6,2.2-1.3,2.6-2.5c-0.1-2.9-2.7-5.3-1.8-8.4c1-1.2,2.4-2.3,2.8-3.9
			c-2-3.1-6-5.9-9.7-5c-0.9-0.6-0.8-2-1.5-2.8c-0.8-0.1-1.6-0.5-2.4-0.2c-1.5,2.1-4.2,2.2-6.1,3.4c-1.7,0.1-1.7-2.2-2.9-2.9
			c-1.8-0.1-3.2,1.4-4.9,1.6c-1.6,1.3-0.8,3.3-1.5,5c-1.4,0.7-2.4-0.5-3.4-1.2c-1.6,0.8-3.5,1.5-4.2,3.3c0.7,3.1-2.5,4.4-3.9,6.4
			c0.1,0.9,0.8,2,0,2.7c-0.5,0.2-1.5,0.5-1.7,0.6c-1.8-1.4-3.8-2.4-6.2-1.9c-0.3-2.8-2.9-4.4-2.8-7.3c-2.1-1.7-5-0.4-7.2-2
			c-0.9,0.2-1.8,0.5-2.7,0.9c-4.2,5.9-10.5-1.5-14.6,1.2c-3.6,2.3,0.2,6.5-4.6,8.2c-1.1,1.4-2.7,2.3-4.3,3.2
			c-0.4,0.7-0.2,1.7-0.7,2.3c-0.9,0.5-2,0.1-2.9,0.5c-1.8,3.8-5.9,3.3-9.4,3.8c-2.4,3-3.2,6.6-3,10.3c-4.1,3.3-1.9,8.1-2.6,12.5
			c-0.2,0.2-1.1,0.8-1.6,0.9c-3.8-0.7-8.3,0.6-10.2,4.2c0,0.6,0,1.4-0.2,1.8c-1.4,3-6.1,1.5-7,5.3c-1,0.2-1.5,1.1-2.3,1.4
			c-0.9,0.1-1.9-0.2-2.7,0.2c-0.7,0.5-0.7,1.3-1,2c-3-0.4-4.3,2.4-6.8,3.2c-2.8-3.2-6.6-3.4-9.9-0.8c-2.5-3-6-6.4-10.4-6.2
			c-0.4,0.5-0.6,1.6-0.8,1.8c-1.6,0.5-2.9,1.2-4.6,1.6c-2.6,2.2-2.1,7.1-6,7.7c-0.5,3.8-3.6,7.1-3.3,11c-1,1.6-2.4,3-3.6,4.3
			c0.2,1.9,1.7,3.7,0.9,5.7c-2.1,0.3-2.6,2.2-3.4,3.5c-2.7,4.8-2.7,5.5-0.8,10.6c0.2,0.5-0.1,1.5,0.3,2.1c4,5.5,5,11.5,5.9,17
			c0.6,0.7,1.2,1.7,2,2.1c1,3.4-1.7,5-2.7,7.6c-0.7-0.1-1.5-0.1-1.8-0.2c-1-0.9-2.4-1.5-3.8-1.3c-0.9,1.4-3,1.6-3.2,3.4
			c-0.6,0.3-1.4,0-2,0.3c-1.7,2.3-4.7-0.2-6.2,1.6c-0.2,1.1,0,2.2-0.1,3.3c-0.2,0.1-0.4,0.2-0.5,0.3c-0.4,0.1-0.7,0.3-1.2,0.4
			c-2.9-1.3-3.9,3.3-6.7,2.6c-0.7-0.5-0.6-1.6-1.2-2.2c-1.6-0.6-3.2,0.2-4.7,0.6c-0.6,3.6-5.2,3.7-6.8,6.6c-0.3,1.3,0.9,2.1,1.2,3.2
			c-1.2,2.2-3.5,3.5-5.8,2.1c-2,2.9-2.7,5.1-1.6,7.7c1.3,3.2,5.6,3.6,6.9,6.7c-1.4,3.2-3,6.2-5.1,8.9c-0.4,1.3,0.7,2.2,0.8,3.4
			c-1.6,2.1-4.7,3.4-4.8,6.4c-1.5,1.5-4.5-0.1-5.7,2.2c-0.9,0.4-1.9,0-2.8,0.3c-0.5,2.4-3.3,2.2-4.1,4.2c-0.7,4.2,2.5,7.4,1.4,11.8
			c4.4,3.1,1.4,7.2,0.8,10.6c-0.7,3.9,0.7,6.8,2.5,9.6c-1,1.5-0.8,3.4-1.4,5.1c-0.9,0.7-1.9,1.1-2.7,1.9c-1.8,3.7-5.9,6.1-4.6,10.7
			c-3.8,4.7,0.3,9.5,2.2,14c0,0.9,0.1,1.8-0.4,2.6c0,0.3,0,0.7,0.1,1c1.8,2.1,4.6,2.6,7.1,3.3c0.6,2.8,3,4,4.9,5.5
			c-0.2,3-0.8,6.4,1.5,8.7c0.2,1.2,0.1,2.5-0.8,3.4c-4.1,0.1-8.5-2.6-12.2-0.2c-0.4,0.8,0,1.7-0.4,2.4c-1.2,0.2-1.7,1.7-2.7,2.3
			c-1.5,0.9-3.2,0.5-4.6,1.1c-2.6,1-4.8,3.2-7.4,1.8c-1,1.6-1.5,3.4-2,5.1c-0.3,0.3-0.8,0.8-1.1,0.9c-2.2-0.2-3.9-2-6.1-1.6
			c-3.5,3.4-7.1,8.5-4.7,13.6c1.8,1.7,4.2,2.6,5.6,4.6c-2.2,2.8-0.5,5.8,0.3,8.8c-2.9,1.7-2.6,5.5-5,7.5c-2.8,0.4-5.9-0.4-8.6,0.4
			c-1.2,3.6-5.8,2.1-8.5,3.4c-1.5,4-8.7,4.3-7,9.8c0.2,0.2,0.5,0.5,0.7,0.6c0.9,0.2,2-0.1,2.9,0.3c0.3,0.3,0.5,0.6,0.7,1
			c-0.5,1.7-2.1,2.8-2.8,4.4c-0.7,2.1-0.4,4.5-0.3,6.7c0.8,2.3,4.1,4.8,2.2,7.2c-3.4-0.6-5.8,2.5-9,1.9c-2.1-1.4-3.1-4-5-5.5
			c-3.4-0.9-6.8-2.9-10.4-2.4c-1,1.2-1.7,2.9-3.3,3.4c-4.2,0.1-4.3-6.6-8.7-6.4c-0.2-0.2-0.5-0.5-0.6-0.7c0.6-3.1-2-5-3.9-6.9
			c-0.2-0.8,0-1.6-0.2-2.3c-0.6-1.3-1.9-2.8-3.5-2.4c-1.7,1.8-2.9,4.2-5.5,5.1c-0.9,1.1,0,2.6-0.3,3.8c-2.3,2.3-4.4,5.2-4.4,8.6
			c-1.6,2.2-2.5,4.6-2.7,7.3c-2,0.8-3.6,2.2-3.3,4.6c0,0.1,0.1,0.2,0.1,0.2c0.7,1,2,0.4,3,0.7c4.2,2.6,7.7,4.8,10.2,8.4
			c4.3,5.9,7,9.4,13.7,12.7c0.6,0.3,1.1,1.3,1.8,1.8c0.3,1.4,0.9,2.8,2.1,3.6c0.3,1.1,0.1,2.3,0.3,3.4c0.9,2,2.4,2.2,2.6,3.8
			c0.2,1.5-1.4,4.9-1.7,6.9c-0.3,2,0.2,3.7-0.2,5.2c-0.6,2-3.7,4.4-3.6,6.9c0.1,0.8,1,1.3,1.4,2c-0.2,3.8,2.4,6.8,2.7,10.5
			c1.5,2,2.3,3.6,4.5,6.6c2.5,3.6,6.3,6.2,8.7,9.6c2.6,3.7,4.1,8.7,9.2,9.7c0.7-0.8,0.7-2.2,1.7-2.8c0.2,0,0.4,0,0.6,0
			c0.7,0.6,1.1,1.5,1.8,2c2.7,0.5,5.9-0.6,7.7,2.2c0.3,2.2,1.5,4,3.5,5.2c1.6,0.4,3.2,0.1,4.8,0.2c3.2,2.6,7,4.3,10.6,6.3
			c7.9-1.7,8.1,10.9,15.6,9.6c0.7,0.3,1.5,0.6,2.2,0.8c1.3-1.2,3.5-7.3,7.5-8c1.6-1.3,1.5-4.1-0.1-5.4c-0.7-3.5,2.5-8.8-2.5-10.1
			c-0.3-1-0.2-2,0-3c3.7-5.7-2.8-12-8-13.8c0-0.6,0.3-1.2,0.4-1.8c-0.3-4.6-2.5-8.4-5.5-11.8c-0.1-0.7,0-1.4-0.1-2.1
			c-0.5-1.1-1.5-1.8-2.6-2.3c-0.8-4.9-7.2-7.4-6.6-13.2c-0.6-3,0.6-5.5,2.4-7.7c-1.9-2.4-1.1-6,0.3-8.4c-0.9-2.9,0.7-5.6,1-8.4
			c1.2-0.1,2.1-0.7,3-1.5c0.2,0,0.5-0.1,0.8-0.1c2.2,0.8,4.6,0.3,6.8,0.7c2.9,3.2,6,7,6.1,11.5c2,0.5,4.6,0.8,4.7,3.4
			c2.1,2.4,5,3.7,7.6,5.4c3.1-0.5,5.4-3.1,8.2-4.4c0.8-1.2-0.2-2.7,0-4c0.5-2.6,3.2-2.8,5.1-3.4c0.5-1.6,1.5-3,1.7-4.8
			c2.9-4.4,8.2-1.5,11.4,1c2.7-1.3,5.6-0.9,8.4-0.1c1.8-2.8,4.6-3.4,6.9-5.5c1.1,0.5,1.6,1.7,2.6,2.1c3.1-0.2,4.8,2.9,6.4,4.9
			c1.3,0.1,2.1,1.4,2.9,2.4c2.1,0.9,4.6-0.3,6.8,1.1c1-0.3,1.3-1.6,2-2.3c0.3-0.1,0.9-0.2,1.4-0.2c1.8,1.5,3.7,3.1,5.8,4.2
			c3.9-1.3,6.8,2,10.5,2.9c2.2-1.8,5.4,1.3,6.9-2.2c0.3-0.1,0.9-0.2,1.4-0.2c3.8,2.4,6.3,7.4,11.1,7.9c3.4-2.5,5.7-6.1,9.5-7.7
			c0.9,0.2,1.6,0.9,2.6,0.8c0.3,0.1,0.8,0.6,1.1,0.9c0.4,4.3,6.5,3.4,9.4,2c0.2-0.5,0.4-1.4,0.6-1.6c3.5-1.6,5.6,2.5,9.1,1.4
			c2.2,3.1,5.7,6,9.6,3.3c0.5-0.4,0.9-1.5,1.6-1.2c1.6,1.2,3.7,2.2,5.8,1.2c1.3,0.9,2.2,2.2,3.4,3.2c-0.3,2.2,0.5,4,2.7,4.7
			c0.7,1.5-0.6,2.6-0.5,3.9c0.5,5,5.8,6.7,10,8.5c2.1-0.8,4.6-2.7,6.7-1.4c0.3,0,0.7,0.1,1,0.1c1.6-0.3,2.7-1.7,3.7-2.9
			c1.4-1.1,3.3,0,4.6-1.3c2.6,2,5.8,0.6,8.6,2.1c1.5-1.8,4.6-1.4,5-4c1.2-0.3,2.5-0.2,3.8-0.1c1.6-0.6,1.3-3.6,3.6-3.1
			c0.7,0.3,1.3,1,2.2,1c2.8-2.6,6,0.9,9.2,0.5c1,0.8,1.9,1.9,2.2,3.2c-0.7,2.3-0.9,4.8-2.6,6.7c-0.2,3.5,0.1,6.8,3.1,8.2
			c0.8,0.4,1.6,0.2,2.2,0.5c3.1,1.2,5,3.6,7.7,4.7c1,0.3,2.2-0.1,3.1,0.6c0.2,1.2-1.1,2.1-0.7,3.3c1.2,2.9,4.8,1.4,6.7,0.2
			c0.3-0.7,0-1.7,0.5-2.4c1.3-0.5,2.7-0.9,3.9-1.4c1.6,0.8,3.8,2.2,5.1,0.1c1.6,1.1,3.2,2.6,5.4,1.7c0.4-1.2,1.9-1.6,1.7-3.2
			c2.1-2.8,2.7-7,7.2-6.5c1.6-1.2,3.1-2.5,4.5-4c2.1,1.3,3.7-1,5.4-1.8c2.9,0.2,2.6,3.4,1.5,5.3c3.5,4,5.5,10.2,11.8,10.4
			c4.7,1.4,12.1,1.4,15-3.4c2.5-0.4,5,0.3,7.5,0.2c2.3-0.6,3.8-2.9,5.7-4.3c0.3-0.2,1.1-0.1,1.4-0.3c2.1-1.6,4.2-3.2,5.6-5.6
			c0.7-0.2,1.5-0.1,2.3-0.1c3.1,4.5,13.4-0.7,12.4,7.9c0.7,1.4,1.4,2.9,2.8,3.8c0.7,0.2,1.5,0,2.3,0.1c1.1,1.5,3.6,0.6,5.6,0.9
			c0.4,0,0.8,0.5,1.2,0.6c2,0.2,4-0.2,5.7,0.3c1,0.3,1.7,1.3,2.8,1.6c1.4,0.4,3.4-0.4,4.4,1.2c-0.2,1.3,1.2,1.9,1,3.2
			c1.6,1.4,3.2,3.2,3.1,5.6c1.5,2.3,4.4,3.9,7.1,3.5c4.7-2.7,5.7-8.5,9.7-11.8c1.3-6.4,8.2-7.3,11.9-11.7c-0.5-3.5-5.7-5.3-3.9-9.4
			c3.1-2.8,1.9-7.3,4.9-10.2c0.2-1.1,0.8-2,0.6-3.1c1.6-2.8,2.2-6.1,5.4-7.6c0.2-2.4,2.8-3.7,3.3-5.9c-1.6-2.2-3.9-3.2-6.4-3.9
			c-0.3-0.6-0.2-1.2-0.2-1.6c1-3.3,4.5-1.9,6.3-4.3C631.4,494.8,631.4,494.3,631.4,493.9"/>
	</g>
</g>
</svg>
