<?xml version="1.0" encoding="utf-8"?>
<!-- Generator: Adobe Illustrator 23.0.1, SVG Export Plug-In . SVG Version: 6.00 Build 0)  -->
<svg version="1.1" id="Réteg_1" xmlns="http://www.w3.org/2000/svg" xmlns:xlink="http://www.w3.org/1999/xlink" x="0px" y="0px"
	 viewBox="0 0 752 495" style="enable-background:new 0 0 752 495;" xml:space="preserve">
<style type="text/css">
	.st0{fill-rule:evenodd;clip-rule:evenodd;fill:#332B29;}
	.st1{fill-rule:evenodd;clip-rule:evenodd;fill:#FC0502;}
	.st2{fill-rule:evenodd;clip-rule:evenodd;fill:#FC0602;}
	.st3{fill-rule:evenodd;clip-rule:evenodd;fill:#06FC05;}
	.st4{fill-rule:evenodd;clip-rule:evenodd;fill:#FDFD02;}
	.st5{fill-rule:evenodd;clip-rule:evenodd;fill:#06FB06;}
	.st6{fill-rule:evenodd;clip-rule:evenodd;fill:#FC0503;}
	.st7{fill-rule:evenodd;clip-rule:evenodd;fill:#0DF70C;}
	.st8{fill-rule:evenodd;clip-rule:evenodd;fill:#F8F809;}
	.st9{fill-rule:evenodd;clip-rule:evenodd;fill:#FAFA07;}
	.st10{fill-rule:evenodd;clip-rule:evenodd;fill:#0805FB;}
	.st11{fill-rule:evenodd;clip-rule:evenodd;fill:#389AD8;}
	.st12{fill-rule:evenodd;clip-rule:evenodd;fill:#11F8F8;}
	.st13{fill-rule:evenodd;clip-rule:evenodd;fill:#F90B04;}
	.st14{fill-rule:evenodd;clip-rule:evenodd;fill:#FB0903;}
	.st15{fill-rule:evenodd;clip-rule:evenodd;fill:#0FF9F9;}
	.st16{fill-rule:evenodd;clip-rule:evenodd;fill:#FAFA06;}
	.st17{fill-rule:evenodd;clip-rule:evenodd;fill:#08FB07;}
	.st18{fill-rule:evenodd;clip-rule:evenodd;fill:#0D02FA;}
	.st19{fill-rule:evenodd;clip-rule:evenodd;fill:#F80C06;}
	.st20{fill-rule:evenodd;clip-rule:evenodd;fill:#FB0503;}
	.st21{fill-rule:evenodd;clip-rule:evenodd;fill:#66381E;}
	.st22{fill-rule:evenodd;clip-rule:evenodd;fill:#565E20;}
	.st23{fill-rule:evenodd;clip-rule:evenodd;fill:#601B45;}
	.st24{fill-rule:evenodd;clip-rule:evenodd;fill:#51591E;}
	.st25{fill-rule:evenodd;clip-rule:evenodd;fill:#5E8523;}
	.st26{fill-rule:evenodd;clip-rule:evenodd;fill:#551D47;}
	.st27{fill-rule:evenodd;clip-rule:evenodd;fill:#51192F;}
	.st28{fill-rule:evenodd;clip-rule:evenodd;fill:#5A421C;}
	.st29{fill-rule:evenodd;clip-rule:evenodd;fill:#2B3355;}
	.st30{fill-rule:evenodd;clip-rule:evenodd;fill:#653442;}
	.st31{fill-rule:evenodd;clip-rule:evenodd;fill:#443F1D;}
	.st32{fill-rule:evenodd;clip-rule:evenodd;fill:#28494B;}
	.st33{fill-rule:evenodd;clip-rule:evenodd;fill:#5C1C49;}
	.st34{fill-rule:evenodd;clip-rule:evenodd;fill:#521E5D;}
	.st35{fill-rule:evenodd;clip-rule:evenodd;fill:#372F6F;}
	.st36{fill-rule:evenodd;clip-rule:evenodd;fill:#597C1D;}
	.st37{fill-rule:evenodd;clip-rule:evenodd;fill:#6F1E46;}
	.st38{fill-rule:evenodd;clip-rule:evenodd;fill:#2F3972;}
	.st39{fill-rule:evenodd;clip-rule:evenodd;fill:#635620;}
	.st40{fill-rule:evenodd;clip-rule:evenodd;fill:#4D5A1E;}
	.st41{fill-rule:evenodd;clip-rule:evenodd;fill:#5A3C1E;}
	.st42{fill-rule:evenodd;clip-rule:evenodd;fill:#665724;}
	.st43{fill-rule:evenodd;clip-rule:evenodd;fill:#6C451F;}
	.st44{fill-rule:evenodd;clip-rule:evenodd;fill:#372B3D;}
	.st45{fill-rule:evenodd;clip-rule:evenodd;fill:#4E3A1B;}
	.st46{fill-rule:evenodd;clip-rule:evenodd;fill:#54541F;}
	.st47{fill-rule:evenodd;clip-rule:evenodd;fill:#478121;}
	.st48{fill-rule:evenodd;clip-rule:evenodd;fill:#567525;}
	.st49{fill-rule:evenodd;clip-rule:evenodd;fill:#322B35;}
	.st50{fill-rule:evenodd;clip-rule:evenodd;fill:#404819;}
	.st51{fill-rule:evenodd;clip-rule:evenodd;fill:#6A1E47;}
	.st52{fill-rule:evenodd;clip-rule:evenodd;fill:#545A20;}
	.st53{fill-rule:evenodd;clip-rule:evenodd;fill:#55771F;}
	.st54{fill-rule:evenodd;clip-rule:evenodd;fill:#4F275C;}
	.st55{fill-rule:evenodd;clip-rule:evenodd;fill:#4F8221;}
	.st56{fill-rule:evenodd;clip-rule:evenodd;fill:#5A4F3F;}
	.st57{fill-rule:evenodd;clip-rule:evenodd;fill:#5C2547;}
	.st58{fill-rule:evenodd;clip-rule:evenodd;fill:#555C1E;}
	.st59{fill-rule:evenodd;clip-rule:evenodd;fill:#7F4E24;}
	.st60{fill-rule:evenodd;clip-rule:evenodd;fill:#47591E;}
	.st61{fill-rule:evenodd;clip-rule:evenodd;fill:#43216B;}
	.st62{fill-rule:evenodd;clip-rule:evenodd;fill:#4C1A4E;}
	.st63{fill-rule:evenodd;clip-rule:evenodd;fill:#693521;}
	.st64{fill-rule:evenodd;clip-rule:evenodd;fill:#2B4852;}
	.st65{fill-rule:evenodd;clip-rule:evenodd;fill:#371B57;}
	.st66{fill-rule:evenodd;clip-rule:evenodd;fill:#501E54;}
	.st67{fill-rule:evenodd;clip-rule:evenodd;fill:#4E173D;}
	.st68{fill-rule:evenodd;clip-rule:evenodd;fill:#5C453D;}
	.st69{fill-rule:evenodd;clip-rule:evenodd;fill:#7E223E;}
	.st70{fill-rule:evenodd;clip-rule:evenodd;fill:#722438;}
	.st71{fill-rule:evenodd;clip-rule:evenodd;fill:#2A4D40;}
	.st72{fill-rule:evenodd;clip-rule:evenodd;fill:#2C4C4A;}
	.st73{fill-rule:evenodd;clip-rule:evenodd;fill:#7E4422;}
	.st74{fill-rule:evenodd;clip-rule:evenodd;fill:#854822;}
	.st75{fill-rule:evenodd;clip-rule:evenodd;fill:#333F6F;}
	.st76{fill-rule:evenodd;clip-rule:evenodd;fill:#442079;}
	.st77{fill-rule:evenodd;clip-rule:evenodd;fill:#705421;}
	.st78{fill-rule:evenodd;clip-rule:evenodd;fill:#2F7E23;}
	.st79{fill-rule:evenodd;clip-rule:evenodd;fill:#5C3751;}
	.st80{fill-rule:evenodd;clip-rule:evenodd;fill:#631D4B;}
	.st81{fill-rule:evenodd;clip-rule:evenodd;fill:#4F1A44;}
	.st82{fill-rule:evenodd;clip-rule:evenodd;fill:#243A71;}
	.st83{fill-rule:evenodd;clip-rule:evenodd;fill:#763F27;}
	.st84{fill-rule:evenodd;clip-rule:evenodd;fill:#4D3D6E;}
	.st85{fill-rule:evenodd;clip-rule:evenodd;fill:#591B47;}
	.st86{fill-rule:evenodd;clip-rule:evenodd;fill:#277C4C;}
	.st87{fill-rule:evenodd;clip-rule:evenodd;fill:#2D4752;}
	.st88{fill-rule:evenodd;clip-rule:evenodd;fill:#4C403A;}
	.st89{fill-rule:evenodd;clip-rule:evenodd;fill:#571A4C;}
	.st90{fill-rule:evenodd;clip-rule:evenodd;fill:#8B4221;}
	.st91{fill-rule:evenodd;clip-rule:evenodd;fill:#5E4936;}
	.st92{fill-rule:evenodd;clip-rule:evenodd;fill:#38511C;}
	.st93{fill-rule:evenodd;clip-rule:evenodd;fill:#84213F;}
	.st94{fill-rule:evenodd;clip-rule:evenodd;fill:#233569;}
	.st95{fill-rule:evenodd;clip-rule:evenodd;fill:#722744;}
	.st96{fill-rule:evenodd;clip-rule:evenodd;fill:#635D1D;}
	.st97{fill-rule:evenodd;clip-rule:evenodd;fill:#2D3E41;}
	.st98{fill-rule:evenodd;clip-rule:evenodd;fill:#60482A;}
	.st99{fill-rule:evenodd;clip-rule:evenodd;fill:#2C4288;}
	.st100{fill-rule:evenodd;clip-rule:evenodd;fill:#335D89;}
	.st101{fill-rule:evenodd;clip-rule:evenodd;fill:#33462E;}
	.st102{fill-rule:evenodd;clip-rule:evenodd;fill:#2A4439;}
	.st103{fill-rule:evenodd;clip-rule:evenodd;fill:#2D563B;}
	.st104{fill-rule:evenodd;clip-rule:evenodd;fill:#824529;}
	.st105{fill-rule:evenodd;clip-rule:evenodd;fill:#733B1E;}
	.st106{fill-rule:evenodd;clip-rule:evenodd;fill:#263974;}
	.st107{fill-rule:evenodd;clip-rule:evenodd;fill:#541C52;}
	.st108{fill-rule:evenodd;clip-rule:evenodd;fill:#4E1E5E;}
	.st109{fill-rule:evenodd;clip-rule:evenodd;fill:#50611E;}
	.st110{fill-rule:evenodd;clip-rule:evenodd;fill:#6C4D3E;}
	.st111{fill-rule:evenodd;clip-rule:evenodd;fill:#60421E;}
	.st112{fill-rule:evenodd;clip-rule:evenodd;fill:#2E3A5E;}
	.st113{fill-rule:evenodd;clip-rule:evenodd;fill:#36435B;}
	.st114{fill-rule:evenodd;clip-rule:evenodd;fill:#491C48;}
	.st115{fill-rule:evenodd;clip-rule:evenodd;fill:#57531E;}
	.st116{fill-rule:evenodd;clip-rule:evenodd;fill:#25673F;}
	.st117{fill-rule:evenodd;clip-rule:evenodd;fill:#5D3A45;}
	.st118{fill-rule:evenodd;clip-rule:evenodd;fill:#2E355B;}
	.st119{fill-rule:evenodd;clip-rule:evenodd;fill:#6F1F48;}
	.st120{fill-rule:evenodd;clip-rule:evenodd;fill:#2A5C29;}
	.st121{fill-rule:evenodd;clip-rule:evenodd;fill:#3F3051;}
	.st122{fill-rule:evenodd;clip-rule:evenodd;fill:#563647;}
	.st123{fill-rule:evenodd;clip-rule:evenodd;fill:#581D5F;}
	.st124{fill-rule:evenodd;clip-rule:evenodd;fill:#6D3D1D;}
	.st125{fill-rule:evenodd;clip-rule:evenodd;fill:#54731F;}
	.st126{fill-rule:evenodd;clip-rule:evenodd;fill:#443431;}
	.st127{fill-rule:evenodd;clip-rule:evenodd;fill:#794B1D;}
	.st128{fill-rule:evenodd;clip-rule:evenodd;fill:#514533;}
	.st129{fill-rule:evenodd;clip-rule:evenodd;fill:#546451;}
	.st130{fill-rule:evenodd;clip-rule:evenodd;fill:#834A20;}
	.st131{fill-rule:evenodd;clip-rule:evenodd;fill:#6B643D;}
	.st132{fill-rule:evenodd;clip-rule:evenodd;fill:#5A6F24;}
	.st133{fill-rule:evenodd;clip-rule:evenodd;fill:#541C50;}
	.st134{fill-rule:evenodd;clip-rule:evenodd;fill:#574321;}
	.st135{fill-rule:evenodd;clip-rule:evenodd;fill:#3E611E;}
	.st136{fill-rule:evenodd;clip-rule:evenodd;fill:#47285E;}
	.st137{fill-rule:evenodd;clip-rule:evenodd;fill:#5A491E;}
	.st138{fill-rule:evenodd;clip-rule:evenodd;fill:#405119;}
	.st139{fill-rule:evenodd;clip-rule:evenodd;fill:#6D681F;}
	.st140{fill-rule:evenodd;clip-rule:evenodd;fill:#814B1E;}
	.st141{fill-rule:evenodd;clip-rule:evenodd;fill:#285978;}
	.st142{fill-rule:evenodd;clip-rule:evenodd;fill:#4A1D61;}
	.st143{fill-rule:evenodd;clip-rule:evenodd;fill:#59263B;}
	.st144{fill-rule:evenodd;clip-rule:evenodd;fill:#68443E;}
	.st145{fill-rule:evenodd;clip-rule:evenodd;fill:#361D5F;}
	.st146{fill-rule:evenodd;clip-rule:evenodd;fill:#3E1744;}
	.st147{fill-rule:evenodd;clip-rule:evenodd;fill:#253A7B;}
	.st148{fill-rule:evenodd;clip-rule:evenodd;fill:#2A446D;}
	.st149{fill-rule:evenodd;clip-rule:evenodd;fill:#594B47;}
	.st150{fill-rule:evenodd;clip-rule:evenodd;fill:#4C4519;}
	.st151{fill-rule:evenodd;clip-rule:evenodd;fill:#7A2037;}
	.st152{fill-rule:evenodd;clip-rule:evenodd;fill:#3A3A26;}
	.st153{fill-rule:evenodd;clip-rule:evenodd;fill:#6C3B37;}
	.st154{fill-rule:evenodd;clip-rule:evenodd;fill:#504D26;}
	.st155{fill-rule:evenodd;clip-rule:evenodd;fill:#4B4441;}
	.st156{fill-rule:evenodd;clip-rule:evenodd;fill:#61544E;}
	.st157{fill-rule:evenodd;clip-rule:evenodd;fill:#6E4E1E;}
	.st158{fill-rule:evenodd;clip-rule:evenodd;fill:#80521D;}
	.st159{fill-rule:evenodd;clip-rule:evenodd;fill:#471843;}
	.st160{fill-rule:evenodd;clip-rule:evenodd;fill:#435755;}
	.st161{fill-rule:evenodd;clip-rule:evenodd;fill:#78233E;}
	.st162{fill-rule:evenodd;clip-rule:evenodd;fill:#521A47;}
	.st163{fill-rule:evenodd;clip-rule:evenodd;fill:#35227D;}
	.st164{fill-rule:evenodd;clip-rule:evenodd;fill:#77561E;}
	.st165{fill-rule:evenodd;clip-rule:evenodd;fill:#864F21;}
	.st166{fill-rule:evenodd;clip-rule:evenodd;fill:#563E1B;}
	.st167{fill-rule:evenodd;clip-rule:evenodd;fill:#7C5127;}
	.st168{fill-rule:evenodd;clip-rule:evenodd;fill:#7C4A1D;}
	.st169{fill-rule:evenodd;clip-rule:evenodd;fill:#2E5452;}
	.st170{fill-rule:evenodd;clip-rule:evenodd;fill:#5A7F37;}
	.st171{fill-rule:evenodd;clip-rule:evenodd;fill:#8A4C22;}
	.st172{fill-rule:evenodd;clip-rule:evenodd;fill:#8C5924;}
	.st173{fill-rule:evenodd;clip-rule:evenodd;fill:#66623B;}
	.st174{fill-rule:evenodd;clip-rule:evenodd;fill:#783D20;}
	.st175{fill-rule:evenodd;clip-rule:evenodd;fill:#844925;}
	.st176{fill-rule:evenodd;clip-rule:evenodd;fill:#5E5243;}
	.st177{fill-rule:evenodd;clip-rule:evenodd;fill:#632A4A;}
	.st178{fill-rule:evenodd;clip-rule:evenodd;fill:#237225;}
	.st179{fill-rule:evenodd;clip-rule:evenodd;fill:#46265D;}
	.st180{fill-rule:evenodd;clip-rule:evenodd;fill:#63622C;}
	.st181{fill-rule:evenodd;clip-rule:evenodd;fill:#527820;}
	.st182{fill-rule:evenodd;clip-rule:evenodd;fill:#252B69;}
	.st183{fill-rule:evenodd;clip-rule:evenodd;fill:#782B43;}
	.st184{fill-rule:evenodd;clip-rule:evenodd;fill:#283C65;}
	.st185{fill-rule:evenodd;clip-rule:evenodd;fill:#784B21;}
	.st186{fill-rule:evenodd;clip-rule:evenodd;fill:#4C2A3F;}
	.st187{fill-rule:evenodd;clip-rule:evenodd;fill:#2D415B;}
	.st188{fill-rule:evenodd;clip-rule:evenodd;fill:#44335F;}
	.st189{fill-rule:evenodd;clip-rule:evenodd;fill:#471952;}
	.st190{fill-rule:evenodd;clip-rule:evenodd;fill:#481E61;}
	.st191{fill-rule:evenodd;clip-rule:evenodd;fill:#507E1D;}
	.st192{fill-rule:evenodd;clip-rule:evenodd;fill:#581C47;}
	.st193{fill-rule:evenodd;clip-rule:evenodd;fill:#655D39;}
	.st194{fill-rule:evenodd;clip-rule:evenodd;fill:#50751E;}
	.st195{fill-rule:evenodd;clip-rule:evenodd;fill:#5F6B4E;}
	.st196{fill-rule:evenodd;clip-rule:evenodd;fill:#487F20;}
	.st197{fill-rule:evenodd;clip-rule:evenodd;fill:#352266;}
	.st198{fill-rule:evenodd;clip-rule:evenodd;fill:#7E4D1D;}
	.st199{fill-rule:evenodd;clip-rule:evenodd;fill:#512070;}
	.st200{fill-rule:evenodd;clip-rule:evenodd;fill:#521B4B;}
	.st201{fill-rule:evenodd;clip-rule:evenodd;fill:#82501F;}
	.st202{fill-rule:evenodd;clip-rule:evenodd;fill:#793931;}
	.st203{fill-rule:evenodd;clip-rule:evenodd;fill:#5A7C1E;}
	.st204{fill-rule:evenodd;clip-rule:evenodd;fill:#57761E;}
	.st205{fill-rule:evenodd;clip-rule:evenodd;fill:#884820;}
	.st206{fill-rule:evenodd;clip-rule:evenodd;fill:#571E53;}
	.st207{fill-rule:evenodd;clip-rule:evenodd;fill:#681F4F;}
	.st208{fill-rule:evenodd;clip-rule:evenodd;fill:#356076;}
	.st209{fill-rule:evenodd;clip-rule:evenodd;fill:#22185A;}
	.st210{fill-rule:evenodd;clip-rule:evenodd;fill:#3D2D8C;}
	.st211{fill-rule:evenodd;clip-rule:evenodd;fill:#631D41;}
	.st212{fill-rule:evenodd;clip-rule:evenodd;fill:#551D40;}
	.st213{fill-rule:evenodd;clip-rule:evenodd;fill:#651D43;}
	.st214{fill-rule:evenodd;clip-rule:evenodd;fill:#4D1B4B;}
	.st215{fill-rule:evenodd;clip-rule:evenodd;fill:#904D25;}
	.st216{fill-rule:evenodd;clip-rule:evenodd;fill:#4B1D5E;}
	.st217{fill-rule:evenodd;clip-rule:evenodd;fill:#4A184C;}
	.st218{fill-rule:evenodd;clip-rule:evenodd;fill:#4B3A69;}
	.st219{fill-rule:evenodd;clip-rule:evenodd;fill:#46258B;}
	.st220{fill-rule:evenodd;clip-rule:evenodd;fill:#631F3A;}
	.st221{fill-rule:evenodd;clip-rule:evenodd;fill:#5E491F;}
	.st222{fill-rule:evenodd;clip-rule:evenodd;fill:#6D692A;}
	.st223{fill-rule:evenodd;clip-rule:evenodd;fill:#511E62;}
	.st224{fill-rule:evenodd;clip-rule:evenodd;fill:#584C1F;}
	.st225{fill-rule:evenodd;clip-rule:evenodd;fill:#704720;}
	.st226{fill-rule:evenodd;clip-rule:evenodd;fill:#7D4A1F;}
	.st227{fill-rule:evenodd;clip-rule:evenodd;fill:#6E1E34;}
	.st228{fill-rule:evenodd;clip-rule:evenodd;fill:#347E54;}
	.st229{fill-rule:evenodd;clip-rule:evenodd;fill:#491B5F;}
	.st230{fill-rule:evenodd;clip-rule:evenodd;fill:#7D3621;}
	.st231{fill-rule:evenodd;clip-rule:evenodd;fill:#362970;}
	.st232{fill-rule:evenodd;clip-rule:evenodd;fill:#4E1C3D;}
	.st233{fill-rule:evenodd;clip-rule:evenodd;fill:#461D5E;}
</style>
<g id="alap">
	<g>
		<path class="st0" d="M332.5,0.5c1.1,0.6,2.1,1.5,3,2.5c5.4,0,9.1,2.5,11,7.5c-3.4,3.7-3.8,7.7-1,12c-0.7,1-1.3,2-2,3
			c1.9,2.4,2.2,4.9,1,7.5c2.3-0.4,4.6-0.4,7,0c1.1,0.6,2.1,1.5,3,2.5c0.6-2.1,1.6-3.9,3-5.5c-1.4-1-2.1-2.3-2-4
			c-0.6-6.4,2.3-10.3,8.5-11.5c4,0.9,7.7,2.6,11,5c3.3-2.7,6.3-2.4,9,1c3.3-1.8,6.8-2.3,10.5-1.5c2.9,3.4,6.2,6.2,10,8.5
			c1.2-2.1,3.1-3.5,5.5-4c0.3-1.9,0.8-3.8,1.5-5.5c3.5-0.1,6.9-0.8,10-2c8.4,0.8,16.7,1.1,25,1c4.7,2.4,9.7,4.1,15,5
			c1.7,1.3,3.6,2.5,5.5,3.5c2.6,5.7,6.7,9.6,12.5,11.5c2.1,3.9,5.1,5.2,9,4c2.5,2,5.2,3.9,8,5.5c1.4-0.8,2.9-1.5,4.5-2
			c2.2,1.5,4.3,3,6.5,4.5c5.9-1.2,10.7,0.7,14.5,5.5c-0.4,4.4,1.1,7.9,4.5,10.5c6-0.3,10.7,2,14,7c4.4,0.2,8.4,1.5,12,4
			c3,0.3,6,0.7,9,1c3.9,3.5,8.2,6.3,13,8.5c1.3,3,3.7,4.5,7,4.5c0.6,1.5,1.3,3,2,4.5c3.7-2,7.3-2.2,11-0.5c1.9,3.9,3.2,8.1,4,12.5
			c1.4-1.7,3-3,5-4c3,2.5,6.3,4.3,10,5.5c1.3,4,3.5,7.5,6.5,10.5c-0.3,2.6-0.3,5.3,0,8c2,1.7,4,3.3,6,5c1,3.5,0.5,6.7-1.5,9.5
			c3.5,2.8,5.5,6.3,6,10.5c5.9,0.3,10.2,3.1,13,8.5c7.6,2.4,11.6,7.6,12,15.5c1.8,0,3.5,0.5,5,1.5c4,2.7,4,5.4,0,8
			c2.7,4.1,3.5,8.6,2.5,13.5c-2.1,0.8-4.2,1.3-6.5,1.5c-1.2,1.2-1.2,2.3,0,3.5c4.6,1.2,8.7,3.2,12.5,6c3.3-2.3,6.8-2.5,10.5-0.5
			c6.8,2.9,13.3,6.4,19.5,10.5c2.8,7,7.5,12.3,14,16c2.7,3.8,5.2,7.8,7.5,12c1.3,0.9,2.4,1.9,3.5,3c0.9,3.2,2,6.2,3.5,9
			c-1.1,2.9-2.3,5.5-3.5,8c3.7,2.1,7.1,4.7,10,8c2.5,4.3,3.4,8.8,2.5,13.5c6.9,2.7,11.5,7.5,14,14.5c-0.4,4.9-0.4,9.7,0,14.5
			c-1,2.3-2,4.6-3,7c1.9,0.4,2.9,1.6,3,3.5c-1.5,2.4-2.5,5.1-3,8c0.8,2.7,0.9,5.3,0.5,8c-1,0.8-2.2,1.2-3.5,1c0,2.1-0.6,3.9-2,5.5
			c-2.8,0.1-5.4,0.2-8,0.5c-3.2,5.7-7.7,9.7-13.5,12c-1.2-0.8-2.2-1.8-3-3c0,2.8-0.9,5.3-2.5,7.5c-3.2-0.4-6.2-1.8-9-4
			c-4.1-2-8.1-1.8-12,0.5c-2.9,3-5.4,6.3-7.5,10c-2.2,1.2-4.4,1.1-6.5-0.5c-3.1-2.1-6-4.6-8.5-7.5c-0.5-2-0.7-4-0.5-6
			c-4.5-1.1-9-2.1-13.5-3c-4.1,1.9-8.2,2.2-12.5,1c-7.5,2.2-15.1,3.4-23,3.5c-6.7,5.2-14.4,7.9-23,8c-2.6,2.7-5.6,3.5-9,2.5
			c-2.8,3.5-6.5,4.8-11,4c0.3-2.4,0-4.8-1-7c-0.7,4.7-1.5,9.4-2.5,14c-3.6,4-7.9,5.3-13,4c-13.1,5.2-26.6,7.7-40.5,7.5
			c-1.2,2.7-3.2,4.5-6,5.5c1.4,1.1,2.9,2.1,4.5,3c0.2,0.8,0.3,1.7,0.5,2.5c-1.6,4.4-4.1,8.2-7.5,11.5c-2.2,5.8-4.3,11.7-6.5,17.5
			c1.2,1.8,2.3,3.7,3.5,5.5c0.7,1,0.7,2,0,3c-2.9,2.8-6,5.1-9.5,7c-3.2,6.2-7.2,11.7-12,16.5c-2.4,0.7-4.7,0.5-7-0.5
			c-2.6-3.5-4.9-7.2-7-11c-6.7-2.6-13.7-4.1-21-4.5c-3-2-4.7-4.9-5-8.5c-3.8-0.7-7.4-1.7-11-3c-3.8,3.4-7.8,6.6-12,9.5
			c-3,0.3-6,0.7-9,1c-14.1,6.8-24.1,3-30-11.5c-3.2,1.7-6.5,3.2-10,4.5c-2.6,2.8-4.9,5.8-7,9c-3.9,0.3-7.8-0.2-11.5-1.5
			c-2.5,4.4-6.4,6.1-11.5,5c0-1.7,0-3.3,0-5c-5-2.8-10.2-5.5-15.5-8c-0.7-4.6-0.2-9.1,1.5-13.5c-1.7-1.9-3.9-3.1-6.5-3.5
			c-1.7,1.1-3.4,1.1-5,0c-6.1,6.4-13.3,8-21.5,5c-2.2,0.5-3.8,1.7-5,3.5c-3.6,0-6.9,0.9-10,2.5c-7.9-1.4-12.1-6.1-12.5-14
			c-0.8-2.1-2-3.9-3.5-5.5c-4.3-1.7-8.6-2-13-1c-2.9-1.9-6.1-3.4-9.5-4.5c-4.3,1.6-8.8,2.3-13.5,2c0-2.6-1.3-4-4-4
			c-2.7,1.7-5,3.9-7,6.5c-2,0.7-4,0.7-6,0c-2.6-2.1-5.1-4.2-7.5-6.5c-8.9,1.4-17.3-0.3-25-5c-6.9,2.8-12.4,1-16.5-5.5
			c-4.3-2.5-7.9-1.8-11,2c-1.8,0.2-3.7,0.3-5.5,0.5c-4.2-0.9-8.4-1.7-12.5-2.5c-1.2,4-3.7,6.8-7.5,8.5c0,1.3,0,2.7,0,4
			c-2.8,2.8-6.2,4.8-10,6c-7-3.1-12-8.1-15-15c-1.6-1.7-3.1-3.6-4.5-5.5c-3.2-1-6-0.5-8.5,1.5c-1.1,4.9-1.2,9.7-0.5,14.5
			c-2,3.6-2.5,7.4-1.5,11.5c6.7,7.5,11.4,16.2,14,26c6.9,3.1,9.4,8.3,7.5,15.5c0.4,1.4,1.3,2.6,2.5,3.5c0.3,4.2,0.8,8.4,1.5,12.5
			c-3.5,3-6.5,6.5-9,10.5c-0.8,0.9-1.8,1.2-3,1c-1.7,0.2-3.4,0-5-0.5c-2.6-2.5-4.9-5.1-7-8c-4.5-0.9-8.5-2.9-12-6c-3.3-1-6.7-2-10-3
			c-1.6-1.8-2.9-3.8-4-6c-4-0.3-8-0.3-12,0c-1.5-1.5-3-3-4.5-4.5c-5.7-7.3-11.3-14.7-17-22c-1.1-4.7-2.6-9.2-4.5-13.5
			c3.1-5.7,5.1-11.9,6-18.5c-2.1-3.5-3.9-7.2-5.5-11c-3.1-1.5-5.9-3.3-8.5-5.5c-4.4-7.8-10.8-13.4-19-17c-0.6-0.7-0.9-1.6-1-2.5
			c4-8.2,8-16.6,12-25c2.1-2.3,4.6-4,7.5-5c0.8,0.3,1.7,0.7,2.5,1c2.8,6.4,6.8,11.9,12,16.5c1.6-1.3,3.6-2.1,6-2.5
			c3,0.8,6,1.7,9,2.5c2.5,1.6,4.7,3.4,6.5,5.5c1.9-0.4,3.8-1.1,5.5-2c-2.6-5.2-2.6-10.4,0-15.5c-3.4-1-4.5-3.2-3.5-6.5
			c3.3-2.7,6.4-5.5,9.5-8.5c5.7-2.3,11.5-4.1,17.5-5.5c1.2-3.8,1.7-7.7,1.5-11.5c-2.1-1.1-3.9-2.6-5.5-4.5c-0.5-4.7,0.5-9,3-13
			c2.3-3,5.1-3.7,8.5-2c1.1-1.4,2.1-2.9,3-4.5c4.4-1,8.7-2.4,13-4c1.2-1.8,2.5-3.5,4-5c3.8-0.1,7.4-0.3,11-0.5
			c-1.5-2.8-2.3-5.8-2.5-9c-3.5-2.8-7.2-5.5-11-8c-0.4-1.2-0.2-2.3,0.5-3.5c-1.8-3.3-3.1-6.8-4-10.5c0.6-3,1.1-6,1.5-9
			c3.2-3.9,6-8.1,8.5-12.5c-2.3-5-2.6-10.2-1-15.5c-1.5-5.2-2.9-10.5-4-16c0.4-1.9,1.4-3.4,3-4.5c2.8-2.6,6.2-4.3,10-5
			c0.8-1.3,1.8-2.5,3-3.5c1.3-4.8,3.3-9.3,6-13.5c-5.3-2.6-7.5-6.8-6.5-12.5c1.1-3.5,3.3-4.6,6.5-3.5c0.2-1.6,0.4-3.5,0.5-5.5
			c1.3-2.1,3.1-3.1,5.5-3c-0.2-1.3,0.2-2.5,1-3.5c3.1-0.7,6.1-0.6,9,0.5c1.4-1.4,3-2.1,5-2c0-1.3,0-2.7,0-4c2,0.2,4,0,6-0.5
			c3.6-4.1,7.9-5.3,13-3.5c-0.5-4.4-1.3-8.7-2.5-13c-2.6-5.7-4.8-11.5-6.5-17.5c0.4-2.2,0.9-4.4,1.5-6.5c3.2-2.4,4-5.4,2.5-9
			c3.8-8.3,8.3-16.3,13.5-24c3-1.5,5.8-3.1,8.5-5c2.9,1,5.6,2.5,8,4.5c3.9,0,7.6,0.8,11,2.5c4.4-2.8,8.7-5.7,13-8.5
			c1.3-0.3,2.7-0.7,4-1c2.1-6.2,6.4-9,13-8.5c-0.2-3.3,0-6.7,0.5-10c1.3-4.4,3.1-8.6,5.5-12.5c3.9-0.7,7.6-2.1,11-4
			c1.9-3.1,4.4-5.6,7.5-7.5c0.6-2.3,1.5-4.4,2.5-6.5c4.2-1.9,8.4-1.7,12.5,0.5c5-3.6,10.4-4,16-1c0.5,3.8,2.5,6.5,6,8
			c2.8-2.8,4.8-6.1,6-10c2.2-2,4.5-2.3,7-1c0.4-4.1,2.8-6.4,7-7c1.3,1,2.7,2,4,3C327.2,1.8,329.7,0.8,332.5,0.5z"/>
	</g>
</g>
<g id="szinek">
	<g>
		<g>
			<path id="n11_2_" class="st1" d="M291.5,379.5c-0.5,2.7-0.7,5.3-0.5,8c1.7,0.9,3.5,1.2,5.5,1c1.3,2.3,3,4.3,5,6
				c1.8,0.8,3.8,1.3,6,1.5c0.7,0.7,1.3,1.3,2,2c3.2,0.8,6.2,0.6,9-0.5c1.7-0.2,3.4,0,5,0.5c1.2,1.6,2.7,2.7,4.5,3.5
				c1.3-0.1,2.1-0.8,2.5-2c3.5,0,7,0.3,10.5,1c2.4,0,4.5-0.6,6.5-2c1.2,0.8,2.2,1.8,3,3c2.8,2.2,6.2,3.2,10,3c4.1-0.1,7.1,1.6,9,5
				c2.4,1.4,4.1,3.4,5,6c-0.4,2.8-1.8,5.1-4,7c0.5,1.8,1.5,3.1,3,4c1.6,3.3,3.9,5.9,7,8c0.3,0.6,0.6,1.3,1,2c-1.8,2.2-4.1,3.4-7,3.5
				c-1.8,3.1-4,6-6.5,8.5c-6.5-2.1-12-0.8-16.5,4c-0.7-1.8-1.4-3.7-2-5.5c-4.7-1.7-9.2-3.9-13.5-6.5c-0.5-3.9,0-7.8,1.5-11.5
				c-0.9-1.8-1.5-3.6-2-5.5c-4.7-0.3-9.4-1-14-2c-4.1,1.8-7.8,4.3-11,7.5c-3.9,0-7.7-0.5-11.5-1.5c-4.4,2.2-9,3.5-14,4
				c-6.3-0.9-8.8-4.6-7.5-11c-1,0-2,0-3,0c-0.2-6.7-3.7-9.7-10.5-9c-5.2,3.3-8.7,2-10.5-4c-3.6,0.4-7.2,0.6-11,0.5
				c-3.3,3.7-5.9,3.3-8-1c-1.6-0.6-3.3-1.1-5-1.5c-3.4,2.7-7,5-11,7c-2.7-1.7-5-3.9-7-6.5c-4.3,0.8-8.6,1.1-13,1
				c-2.6-1.9-5.6-2.9-9-3c-1.3-1.8-2.9-3-5-3.5c-2.7,1.8-5.7,2.3-9,1.5c-3.5-4.9-8.1-8.1-14-9.5c-2.2-0.8-4.5-1.4-7-2
				c-0.9-1.2-1.3-2.5-1-4c-1-2-2-4-3-6c-0.9-0.7-1.2-1.7-1-3c-0.3,0-0.7,0-1,0c-1.4-3.7-4.1-6-8-7c-1.5-2-3.1-3.8-5-5.5
				c2-4.4,0.7-7.2-4-8.5c-0.9-8.5-3.2-16.5-7-24c1.7-5.9,4.7-10.9,9-15c0-1,0-2,0-3c0.8-1.1,1.5-2.5,2-4c4-0.8,8-1.5,12-2
				c0.6,0.6,1.4,1,2.5,1c3.3-0.7,6.5-1.7,9.5-3c2.3,0,4.7,0,7,0c2.3,0.6,3.9,2,5,4c1.5,1.7,3.3,3,5.5,4c0,1.3,0,2.7,0,4
				c2.6,0.7,4.7,2.1,6.5,4c-0.1,2.5,0.6,4.9,2,7l1,1c3.4,1.6,7.1,2.4,11,2.5c0.6,0.4,0.9,0.9,1,1.5c1.5,0.8,3.1,1.3,5,1.5
				c0.7,2.9,2.4,5.1,5,6.5c3.4,1.9,7.1,3.5,11,5c2.3,1.3,4.7,1.3,7,0c5,0.8,10,1,15,0.5c0.9,0.7,1.5,1.5,2,2.5c2,2.1,4.3,2.4,7,1
				c0.8,1.3,1.8,2.3,3,3c2,1,4,2,6,3c2,3.6,4.6,6.6,8,9c2.2,0.9,4.5,1.6,7,2c3.2,1.5,6.5,2.8,10,4c3.1-1.9,6.5-2.4,10-1.5
				c0.8,1,1.2,2.2,1,3.5"/>
		</g>
	</g>
	<g>
		<g>
			<path id="n7_2_" class="st2" d="M452.5,408.5"/>
		</g>
		<g>
			<path id="n9_3_" class="st3" d="M422.5,363"/>
		</g>
		<g>
			<path id="n10_4_" class="st4" d="M416.5,376"/>
			<path id="n10_2_" class="st4" d="M420,361.5c0.2,0.5,0.3,1,0.5,1.5"/>
		</g>
		<g>
			<path id="n14_1_" class="st5" d="M409.5,321.5c-1.3,0.2-2.3-0.1-3-1c-1.7-0.2-3-1-4-2.5c-3-0.5-6-0.7-9-0.5c-2.7-0.9-5-2.4-7-4.5
				c-2.9-0.2-5.5-0.7-8-1.5c-2.3-1.1-4.4-2.4-6.5-4c-3.5,0.7-7,1.2-10.5,1.5c-4.4,2.8-5.1,6.3-2,10.5c-0.7,2.3-1.1,4.6-1,7
				c0.8,3.8,1.3,7.8,1.5,12c1.7,1.8,1.5,3.7-0.5,5.5c2.4,2.1,3.4,4.8,3,8c-1.3,4.5-2.3,9.2-3,14c0.8,2.5-0.2,4.3-3,5.5
				c-0.3,1.8,0,3.5,1,5c1.1-1.3,2.5-1.8,4-1.5c4.1,4.6,7.1,9.8,9,15.5c-0.5,1.6-0.9,3.3-1,5c0.2,1.9,1.2,3.2,3,4
				c0.6,0.2,0.9,0.7,1,1.5c-1.8,2.7-3.1,5.5-4,8.5c2.4,1.4,4.1,3.4,5,6c1.1,1.1,1.3,2.4,0.5,4c-2.7,1.9-3.2,4.2-1.5,7
				c1.6,3.3,3.9,5.9,7,8c4,0,8,0,12,0c0.2,5.3,2.2,9.8,6,13.5c1.4,0.8,2.8,0.6,4-0.5l1,1c2.9,1.2,5.9,1.3,9,0.5
				c1.4-0.4,2.4-1.2,3-2.5c8.4-0.6,15.4-4.1,21-10.5c0.9-0.5,1.9-0.6,3-0.5l3,1.5c2.9,1,5.9,1.7,9,2c1.8,2.5,2.8,5.3,3,8.5
				c8,0,15.7,1.5,23,4.5c2.2,3.4,4.2,6.9,6,10.5c1.1,1.3,2.5,1.8,4,1.5c3.6-4.2,6.7-8.7,9.5-13.5c3.2-3.4,6.7-6.4,10.5-9
				c-1.6-2.2-2.9-4.5-4-7c3.2-10.1,7.9-19.5,14-28c-1.3-1.5-2.9-2.5-5-3c-1.8-4.4-0.3-7.1,4.5-8l3-3c2.8-0.7,5.6-1.4,8.5-2
				c11.4,0,22.5-2.3,33.5-7c1.5,1.1,3.1,1.8,5,2c5.7-2.4,7.9-6.6,6.5-12.5c0.5-3.7,1.9-6.8,4-9.5c-1-0.3-1.6-1-2-2
				c1-1.9,1.2-3.9,0.5-6c-2.7-1.1-4.9-2.7-6.5-5c-1.5,0-2.7-0.7-3.5-2c0.2-2.3,0.2-4.6,0-7c-1-0.6-1.8-1.2-2.5-2
				c-3.5-2.3-5.5-5.7-6-10c-1,0-2,0-3,0c0.4-3.1-0.5-5.7-2.5-8c-4.1-3.8-7.9-7.8-11.5-12c-2.6-1.4-5.2-2.4-8-3
				c-0.9-3.2-1.2-6.6-1-10c-3.3,0.2-6.3-0.5-9-2c-2.1-0.1-3.7,0.5-5,2c-0.8,0.3-1.2,1-1,2c-0.4,2.7-1.4,5-3,7c-2.4-0.2-4.8,0.1-7,1
				c-1.6-1.9-3.6-2.9-6-3c-0.1,3.2,0.6,6.2,2,9c-0.7,1.4-1.4,2.7-2,4c-1.4,1.3-2.1,3-2,5l-4,5c-4.8-0.8-9.8-1.3-15-1.5
				c-1.5-1.7-3.2-3.2-5-4.5l-3-1c-1.3,0-2.7,0-4,0c-4.7,0.8-9.4,1.2-14,1c-1.5,0-2.5-0.6-3-2c-2.6-1.2-5.5-2.2-8.5-3
				c-1.6,0.1-3.1,0.4-4.5,1c-1.5-1.7-3.3-2.7-5.5-3c-3.9,0.8-7.7,1.8-11.5,3c-1.9-0.5-3.7-1.2-5.5-2c-0.8,0.1-1.3,0.4-1.5,1"/>
		</g>
	</g>
	<g>
		<g>
			<path id="n4_3_" class="st6" d="M82.5,420.5"/>
		</g>
		<g>
			<path id="n17_1_" class="st7" d="M97.5,324.5c-1.7,0.2-3,0.8-4,2c0,0.7-0.3,1-1,1c-1.2-0.1-2.1-0.7-2.5-2
				c-0.5-3.3-0.7-6.6-0.5-10c-1.6,0-3-0.6-4-2c-1.9-8.7,1.4-12,10-10c0.5-2.2,1.5-4.2,3-6c3.7-0.9,7.4-1.9,11-3c1.8-1.2,2.8-2.9,3-5
				c4-0.2,8,0,12,0.5c1.8,2.9,4.1,5,7,6.5c6.7-0.6,13.4,0,20,2c2.6,1.6,5.6,2.4,9,2.5c4.3,2.8,3.9,4.7-1,5.5c-3,1.3-6.2,2.3-9.5,3
				c-1.1,0-1.9-0.4-2.5-1c-0.2-0.6-0.7-0.9-1.5-1c-3.8,0.7-7.6,1.2-11.5,1.5c-0.9,1.7-1.2,3.5-1,5.5c0,1,0,2,0,3
				c-2.9-0.3-4.4,1.1-4.5,4c-0.8,1.3-2,2-3.5,2c-1.5,3.9-2,7.9-1.5,12c3.5,5.8,5.4,12.1,5.5,19c0.2,1.2,0.9,1.9,2,2
				c1,1.5,2.1,2.8,3.5,4c-1.5,5.1,0.4,8.4,5.5,10c2.6,2.3,5.3,4.7,8,7c0.3,0,0.7,0,1,0c-0.2,1.3,0.1,2.3,1,3c-0.5,2.8,0.5,4.8,3,6
				c-0.3,1.5,0.1,2.8,1,4c2.5,0.6,4.8,1.2,7,2c0.1,1-0.2,1.8-1,2.5c-3,1.4-6.2,2.2-9.5,2.5c-4.5-1.3-9-2.2-13.5-2.5
				c-2,2.2-3.4,4.7-4,7.5c-2.1,0-3.9,0.6-5.5,2c-0.2,2.3-0.7,4.4-1.5,6.5c-2.4,1.8-5.1,2.4-8,2c-2.1-3.4-4.8-6.2-8-8.5
				c-1.1-3.7-3.1-6.9-6-9.5c-5.1-0.5-7.4,0.7-10.6-3.2l-0.4,0.7c-1.3,1.1-2.3,2.5-3,4c-0.5,3.1-1.4,6.1-2.5,9
				c-0.6,2.4-0.4,4.7,0.5,7c-1.4,2.1-2.1,4.4-2,7l-4,1c1.3,0,2.7,0,4,0c0.2,2.1,0.7,4.1,1.5,6c7,7.8,11.8,16.8,14.5,27
				c2.1,1.5,4.3,2.8,6.5,4c0.6,3,0.5,6-0.5,9c2.6,5.2,3.9,10.9,4,17c-3.3,0.5-5.6,2.3-7,5.5c-1.7,0.7-3.3,0.7-5,0
				c-3.6-6.3-8.9-9.6-16-10c-3.2-4.3-7.6-6.4-13-6.5c-0.6-2.1-1.6-3.9-3-5.5c-4.9-1.9-9.9-2.8-15-2.5c-1.4-2.7-2.9-5.4-4.5-8
				c-8.5-6.7-14-15.4-16.5-26c1.4-2.2,2.5-4.5,3.5-7c0.5-3.8,1-7.7,1.5-11.5c-1.4-3-2-6.1-2-9.5c-2.1-3.6-5.3-5.9-9.5-7
				c-4.2-4.5-8-9.4-11.5-14.5c-3-2.5-6.4-4.5-10-6c1.2-0.8,2.2-1.8,3-3c1.3-4,2.7-8,4-12c2.1-3.9,4.7-7.4,8-10.5
				c1.3,2.5,2.8,4.8,4.5,7c0.5,1.3,0.7,2.6,0.5,4c3.3,0.5,5.6,2.3,7,5.5c1.5,0.5,3,1,4.5,1.5c1.7-1.8,3.9-2.8,6.5-3
				c1.3,0.3,2.7,0.7,4,1c2.7,2.5,5.5,4.9,8.5,7c2.3-0.7,4.7-1.3,7-2h3.5c0.2-2.4,0-4.7-0.5-7c-1.6-1.2-2.4-2.9-2.5-5
				c0.4-2.8,1.4-5.3,3-7.5c-0.9-2.3-2-4.1-3.5-5.5c1.8-1.8,3.6-3.5,5.5-5c5.5-2.7,11.5-4.2,18-4.5c1.5-3.6,3.8-6.5,7-8.5"/>
		</g>
	</g>
	<g>
		<g>
			<path id="n20_1_" class="st8" d="M566.5,347c1.2,1,2.2,2.2,3,3.5c1.6,2.3,3.8,3.9,6.5,5c0.7,2.1,0.5,4.1-0.5,6c0.4,1,1,1.7,2,2
				c0.9,0.7,1.2,1.7,1,3c1.9-0.2,3.4,0.5,4.5,2c0.4,4.6,1.9,5.1,4.5,1.5c4.1,0.1,7.8-1.1,11-3.5c8.5-0.1,15.8-2.9,22-8.5
				c2.6-0.5,5.3-0.7,8-0.5c3.4,1.4,6.4,0.7,9-2c0.8,0.4,1.6,0.8,2.5,1c3.5-1.9,6.9-1.9,10,0c2.9-0.6,5.7-1.3,8.5-2
				c2.2,2.6,4.4,2.6,6.5,0c2.7,1.9,5.5,3.6,8.5,5c0.8,1.9,1.3,3.9,1.5,6c1.8,1.2,3.3,2.7,4.5,4.5c5.7,2.7,8.7,0.9,9-5.5
				c4.3-2.4,8.8-4.4,13.5-6c4.2,2.7,8.7,4.7,13.5,6c-1.2-3.1-0.4-5.8,2.5-8c1.6,2.6,3.7,3.8,6.5,3.5c3.1-3.4,5.7-7.1,8-11
				c2.9-1.7,5.9-1.9,9-0.5c1.8-4.4,3.1-8.9,4-13.5c-0.2-2.2-0.3-4.3-0.5-6.5c-0.5-0.5-1-1-1.5-1.5c1.6-3,3-6.2,4-9.5
				c-0.2-5.3-0.3-10.6-0.5-16c-3.3-5.6-8.1-8.9-14.5-10c-1.1,1.6-2.4,3.1-4,4.5c-5.2,3.2-10.9,5.4-17,6.5c-2.5-1.3-5.2-2-8-2
				c-1.4-2.5-2.2-5.1-2.5-8c-1.4-1.4-3.1-2.4-5-3c-0.3-1.7-0.8-3.4-1.5-5c-4.7-5.4-8.4-11.4-11-18c-4.9-1-9.3-3-13-6
				c-0.7,0-1.3,0-2,0c-1.1-0.1-2.1,0-3,0.5c-1.8,3.2-4.3,5.7-7.5,7.5c-2.9,4.2-5.7,8.4-8.5,12.5c-4,0.5-8,1-12,1.5
				c-3.4,0.4-6.4-0.2-9-2c-2.3-1.3-4.7-2.6-7-4c-3.1,1.9-6.4,3.2-10,4c-2,0-4,0-6,0h-2c-1.6,0.8-3.2,1.1-5,1c-0.3,1-1,1.7-2,2
				c-2.1,0.8-4.5,1.3-7,1.5c-2.7,3.7-6.2,6.2-10.5,7.5c-1.4-0.2-2.2-0.9-2.5-2c0-1.5-0.7-2.7-2-3.5c-2-0.5-4-0.7-6-0.5
				c0,1.3,0,2.7,0,4c-2,0-4,0-6,0c-0.2,2.4-1.5,3.4-4,3c-2.7-1.1-5.4-1.1-8,0c-1.7-0.9-3.6-1.6-5.5-2c-4.2,0.9-8.4,1.9-12.5,3
				c-0.3,0.7-0.7,1.3-1,2c-0.2,3.4,0.1,6.8,1,10c2.4-0.2,4.7,0,7,0.5c0.8,0.7,1.1,1.5,1,2.5c3.6,4.2,7.4,8.2,11.5,12
				c2,2.3,2.9,4.9,2.5,8c1,0,2,0,3,0c0.5,4.3,2.5,7.7,6,10"/>
		</g>
	</g>
	<g>
		<g>
			<path id="n24_2_" class="st9" d="M216,341.5"/>
		</g>
		<g>
			<path id="n23_2_" class="st10" d="M279.5,320.5c-0.3-2.2,0-4.2,1-6c0.6-2.2,1.9-3.9,4-5c-2.7-3-2.4-5.6,1-8c-2.3-0.6-3.9-2-5-4
				c-0.6-0.1-1.1-0.4-1.5-1c-0.7-2-0.7-4,0-6c1-0.8,2.2-1.2,3.5-1c-0.3-1.5,0.1-2.8,1-4c2,1.4,3,0.7,3-2c-0.3-2-0.7-4-1-6
				c-1-1.4-1.3-3.1-1-5c2,0,4,0,6,0c-0.3-2,0.3-3.3,2-4c-0.1-3.4-0.4-6.7-1-10c-1.2-2.5-2.2-5.1-3-8c-1.7,1.4-3.4,2.7-5,4
				c-1.4,4.1-3.7,7.4-7,10c-0.3,1-1,1.6-2,2c-2.4-2.4-4.6-5.1-6.5-8c-0.7,0.8-1.5,1.1-2.5,1c-0.4,0.7-1.1,1.2-2,1.5
				c-4.8,0.5-8.8-1-12-4.5c-1.1,0.1-2.1,0.4-3,1c-0.7,0-1,0.3-1,1c0-0.7,0.3-1,1-1c-1.7-5.7-5.3-9.3-11-11c-2.7,0.5-5.4,1.4-8,2.5
				c-8.6,5.5-17.6,10.1-27,14c-4.6,0-9,0.8-13,2.5c-1.4,1-3.1,1.3-5,1c0.3,5.3-0.4,10.3-2,15c0,1.3,0,2.7,0,4
				c-10.1,0.6-17.3,5.3-21.5,14c2.4,1.9,4.3,4.3,5.5,7c2.3,0.6,3.9,2,5,4c2.3,0.6,4.5,1.6,6.5,3c1.6,3.1,3.5,6.1,5.5,9
				c1.5,2.4,2.5,5.1,3,8c3.4,1.6,7.1,2.4,11,2.5c0.6,0.4,0.9,0.9,1,1.5c2-0.2,4,0,6,0.5c1.2,2.6,2.5,5.1,4,7.5c3.4,1.9,7.1,3.5,11,5
				c1.4,0.2,2.7,0,4-0.5l3,0.5c5,0.8,10,1,15,0.5c0.9,0.7,1.5,1.5,2,2.5c3.1-0.3,6.1,0,9,1c0.6,0.9,1,1.9,1,3c2,1,4,2,6,3
				c1-0.1,1.8,0.2,2.5,1c2.1,2.6,3.9,5.2,5.5,8c2-0.2,4,0,6,0.5c0.6,0.4,0.9,0.9,1,1.5c4,0.7,8,1.3,12,2l1-1c2.7-0.2,5.4,0,8,0.5
				c1.3,1.6,1.3,3.1,0,4.5c-1.8,0.8-3.2,2.1-4,4c2.5,2.2,2.5,4.5,0,7c1.9,0.8,3.5,1.8,5,3c1.3,2.3,3,4.3,5,6c5.5,1.5,11.2,2.5,17,3
				c1.8-1.1,3.8-1.3,6-0.5c1.5,2.8,3.5,3.6,6,2.5c5.5-0.8,11.2-1.4,17-2c2.4,0.2,3.4,1.6,3,4c2.8,2.2,6.2,3.2,10,3
				c2.7-1.3,5.4-0.9,8,1c1.8-1.7,3.2-3.7,4-6c-1.8-0.8-2.8-2.1-3-4c-1.2-7.1-4.2-13.5-9-19c-1.6,0.8-3.2,1.1-5,1c-0.3-2.2,0-4.2,1-6
				c1.2-4.6,2-9.3,2.5-14c3.3-4.5,3.1-9-0.5-13.5c0-5.9,0-11.7,0-17.5c-1-2.5-1.1-5.2-0.5-8c-1.9-0.6-3.8-1.3-5.5-2
				c-3-1.6-5.5-0.9-7.5,2c-3.6-0.6-6.5-2.2-8.5-5c-1.4-0.5-2.1-1.5-2-3s-0.6-2.5-2-3c-4.8-4.7-10.4-6.6-17-5.5
				c-2.2-3.4-5.2-5.2-9-5.5c-0.6,4-2.9,6.1-7,6.5c-5.7,4.8-10.3,10.3-14,16.5c-1.4,1.3-2.1,3-2,5"/>
		</g>
	</g>
	<g>
		<path id="balaton" class="st11" d="M237.5,246.5c-2.7,0.5-5.4,1.4-8,2.5c-8.6,5.5-17.6,10.1-27,14c-4.6,0-9,0.8-13,2.5
			c-1,0-2,0-3,0c-0.8-4.4,0.9-7.1,5-8c0.5-1,1.1-1.8,2-2.5c2.3-0.3,4.7-0.7,7-1c4.2-1.6,8.2-3.6,12-6c4.3-0.5,8.3-1.7,12-3.5
			c-0.2-1.3,0.1-2.3,1-3c4.9-0.9,7.2-3.9,7-9c2.2-2.4,4.7-2.4,7.5,0c1.3,2.9,1.7,5.9,1,9C238.4,242.2,237.3,243.9,237.5,246.5z"/>
	</g>
	<g>
		<g>
			<path id="n25_3_" class="st10" d="M632.5,239.5c-2.1-1.6-3.8-3.6-5-6c-4.4-1.6-8.7-1.9-13-1c-1.1,2.8-3.1,4.4-6,5
				c-0.8,1.1-1.5,2.5-2,4c-6.3,1.3-12.7,1.3-19,0c-0.5-1.4-1.5-2.1-3-2c-3.4,0.3-6.7,0.5-10,0.5c-1.6-1.1-2.6-2.6-3-4.5
				c-0.1-0.6-0.4-1.1-1-1.5c-3-0.8-6-1.7-9-2.5c-1.8-2.4-4.2-4.1-7-5c-3.5-1.4-6.5-0.8-9,2c-0.4,1.9-1.4,3.4-3,4.5
				c-6,2-12,3.2-18,3.5c-2.7,1.9-4.7,4.2-6,7c-1.6,3.9-3.6,7.5-6,11c0.3,3.3,1.8,6,4.5,8c0.7,2.4,0.5,4.7-0.5,7c0.7,1,1.4,2,2,3l1,5
				c-4.7,1.6-6.1,4.6-4,9c0.2,4.5,2.5,7.2,7,8c2.7,1.5,5.7,2.2,9,2c0.3-0.7,0.7-1.3,1-2c4.8-3.3,10.1-4.5,16-3.5
				c1.7,1.8,3.4,1.7,5-0.5c3,1.3,6,1.3,9,0c2,0,4,0,6,0c0-1.3,0-2.7,0-4c2-0.2,4,0,6,0.5c1.3,0.8,2,2,2,3.5c1.2,0.9,2.6,1.1,4,0.5
				c3-2,5.6-4.3,8-7c2.6-0.5,5.3-0.7,8-0.5c1-0.3,1.7-1,2-2c3.9-1.9,8.2-2.6,13-2c2.8-0.6,5.1-1.9,7-4l1-1c4.1,0.4,7.1,2.4,9,6
				c3.2,0.4,6.2,1,9,2c4-0.5,8-1,12-1.5c2.8-4.1,5.6-8.3,8.5-12.5c3.2-1.8,5.7-4.3,7.5-7.5c0.9-0.5,1.9-0.6,3-0.5h2
				c3.7,3,8.1,5,13,6c2.6,6.6,6.3,12.6,11,18c0.7,1.6,1.2,3.3,1.5,5c1.9,0.6,3.6,1.6,5,3c0.3,2.9,1.1,5.5,2.5,8c2.8,0,5.5,0.7,8,2
				c6.1-1.1,11.8-3.3,17-6.5c1.6-1.4,2.9-2.9,4-4.5c1.2-4.1,1-8.1-0.5-12c-3.3-4.2-7.3-7.5-12-10c-0.2-0.8-0.3-1.7-0.5-2.5
				c1.3-2.3,2.7-4.7,4-7c-1.4-2.7-2.6-5.5-3.5-8.5c-1.5-0.8-2.8-1.8-4-3c-0.7-3.6-2.4-6.6-5-9c-7-4.7-12.2-10.8-15.5-18.5
				c-5.2-2.5-10.4-5-15.5-7.5c-0.9,0.2-1.7,0.6-2.5,1c-1.6,0.3-2.6,1.3-3,3l-3,2c-6.7-0.2-13.3-0.5-20-1c-3.7,0.7-7.4,1.7-11,3
				c-1.3,3-2.3,6-3,9"/>
		</g>
	</g>
	<g>
		<g>
			<path id="n33_2_" class="st12" d="M403.5,316.5c-3.5-0.3-6.9,0-10,1c-2.7-0.9-5-2.4-7-4.5c-2.9-0.2-5.5-0.7-8-1.5
				c-1-1.5-2.1-2.8-3.5-4c-0.7-0.7-0.7-1.3,0-2c4.7-3.9,9.2-7.9,13.5-12c0-0.7-0.3-1-1-1c0-1.3,0-2.7,0-4c3.7,0.3,6.4-1.2,8-4.5
				c-0.1-0.8-0.4-1.3-1-1.5c-2.1-0.7-4.1-1.7-6-3c0.2-3-0.5-5.7-2-8c-0.8-4.5-2.2-8.8-4-13c-1.8-1.6-3.8-3-6-4c-2.1-2.7-2.4-5.7-1-9
				c1.1,0.6,2.1,1.5,3,2.5c1.2,0.7,2.2,0.6,3-0.5c3.2-3.5,7.2-5.2,12-5c0-2.7,0-5.3,0-8c1.3,0,2.7,0,4,0c0-1.7,0-3.3,0-5
				c2-0.2,3.8,0.1,5.5,1c1.2,3.4,2.4,6.8,3.5,10c0,1,0.5,1.7,1.5,2c4.2-1.5,5.4-4.2,3.5-8c0-1.1-0.4-2.1-1-3c1.1-1.1,1.8-2.5,2-4
				c0.3-4.7,2.7-6,7-4c-2-1.4-3-3.4-3-6c2-1,3.4-2.7,4-5c1.8-1.4,3.8-2.4,6-3c0.9,2.3,2.6,3.3,5,3c3.2,0.7,6.5,0.7,10,0
				c-0.1-3.1,0.2-6.1,1-9c-0.2-1.3,0.2-2.5,1-3.5c3.3-0.3,6.5-1.2,9.5-2.5c1.1,0,1.9,0.4,2.5,1c0.8,1.1,1.8,1.2,3,0.5
				c2.5-3.6,5.9-5.4,10-5.5c0-1.3,0-2.7,0-4c2.2,0.9,4.5,1.2,7,1c0.6-1.9,1.6-3.6,3-5c1.7,1.4,3.4,2.7,5,4c0.2,0.6,0.7,0.9,1.5,1
				c1.2-0.8,2.2-1.8,3-3c1.1,1.9,2,3.9,2.5,6c1.1,5.5,4.4,8.8,10,10c0.8,0.5,1.1,1.1,1,2c1.5,1.2,3.2,1.2,5,0c0.3,0.7,0.7,1.3,1,2
				c-1.4,2.5-2.4,5.2-3,8c-1.2,4.7-1.2,9.3,0,14c3.4,0.8,6.7,2,10,3.5c0.8,0.7,1.1,1.5,1,2.5c1,1.5,2.1,2.8,3.5,4
				c0.6,1.4,0.4,2.8-0.5,4c-1.6,3.9-3.6,7.5-6,11c0.3,3.3,1.8,6,4.5,8c0.7,2.4,0.5,4.7-0.5,7c0.7,1,1.4,2,2,3c0.8,1.5,1.1,3.2,1,5
				c-4.7,1.6-6.1,4.6-4,9c0,1,0,2,0,3v2.5c1.5,1.1,2.2,2.6,2,4.5c-0.8,0.3-1.2,1-1,2c-1.9,1.8-2.9,4.2-3,7c-2.4-0.2-4.8,0.1-7,1
				c-1.6-1.9-3.6-2.9-6-3c-0.1,3.2,0.6,6.2,2,9c-0.7,1.4-1.4,2.7-2,4c-1-0.1-1.8,0.2-2.5,1c-0.8,2.9-0.6,5.8,0.5,8.5
				c-1.3,0.5-2.6,0.7-4,0.5c-4.8-0.8-9.8-1.3-15-1.5c-1.5-1.7-3.2-3.2-5-4.5c-0.7-0.9-1.7-1.2-3-1c-1.3,0-2.7,0-4,0
				c-5.6-0.4-11.2-0.8-17-1c-2.6-1.2-5.5-2.2-8.5-3c-1.6,0.1-3.1,0.4-4.5,1c-1.5-1.7-3.3-2.7-5.5-3c-3.9,0.8-7.7,1.8-11.5,3
				c-1.9-0.5-3.7-1.2-5.5-2c-0.8,0.1-1.3,0.4-1.5,1c-1.3,0.7-2.3,1.7-3,3c-1.5,0.8-3.2,1.1-5,1"/>
		</g>
	</g>
	<g>
		<g>
			<path id="n34_6_" class="st13" d="M353.5,251.5"/>
		</g>
		<g>
			<path id="n38_3_" class="st14" d="M377.5,257.5c1.7,0.1,3.4,0.5,5,1c1.8,4.2,3.2,8.5,4,13c0.1,2.9,0.7,5.6,2,8
				c-0.1,1,0.2,1.8,1,2.5c1.6,0.5,3.3,0.7,5,0.5c0.6,0.2,0.9,0.7,1,1.5c-1.6,3.3-4.3,4.8-8,4.5c0,1.3,0,2.7,0,4
				c-4.8,4.6-9.8,9.1-15,13.5c-3.9,1.1-7.9,1.8-12,2c-3.3,1.9-4.7,4.7-4,8.5c-1.3,0-2.7,0-4,0c-3-1.6-5.5-0.9-7.5,2
				c-3.6-0.6-6.5-2.2-8.5-5c0.1-1.5-0.6-2.5-2-3c0.1-1.5-0.6-2.5-2-3c-4.8-4.7-10.4-6.6-17-5.5c-2.2-3.4-5.2-5.2-9-5.5
				c-4.9,3.4-9.7,7.1-14.5,11c-3,3.6-5.1,7.6-6.5,12c-1.4,1.3-2.1,3-2,5c-0.9-0.7-1.2-1.7-1-3c-1.6-2-2.3-4.3-2-7
				c0.6-2.2,1.9-3.9,4-5c-2.7-3-2.4-5.6,1-8c-2.3-0.6-3.9-2-5-4c-0.6-1.9-1-3.9-1-6c1.6-0.2,3.1,0.1,4.5,1c0.6-1.4,0.4-2.7-0.5-4
				c1.2-0.9,2.5-1.3,4-1c0.2-2.7,0-5.4-0.5-8c-0.3-0.9-0.8-1.6-1.5-2c-1-1.4-1.3-3.1-1-5c2,0,4,0,6,0c-0.3-2,0.3-3.3,2-4
				c1.4-3.5,1-6.8-1-10c-0.3-6.8-0.6-13.5-1-20c0-0.7,0-1.3,0-2c-0.9-2.1-2.1-4.1-3.5-6c-0.5-4.7-0.7-9.3-0.5-14c1.3-1.9,2-4.2,2-7
				c-0.2-2.3-0.3-4.7-0.5-7c-6-3.5-10.8-8.2-14.5-14c0-1,0-2,0-3s0-2,0-3c1.4,0.2,2.7,0,4-0.5c3.8-2.8,7.8-5.1,12-7
				c1.1-2.5,1.1-5,0-7.5c1.9-1.4,3.6-3.1,5-5c2.9,0.9,5.6,2.2,8,4c4.5-0.5,9.1-0.5,14,0c2.4,2.2,4.4,4.7,6,7.5
				c0.9,0.5,1.9,0.6,3,0.5c1.3,0,2.7,0,4,0c0,1.3,0,2.7,0,4c1.3,0,2.7,0,4,0c0,1.7,0,3.3,0,5c2.9,1.3,5.9,1.8,9,1.5
				c1.3-0.8,2-2,2-3.5c2.9-0.9,5.9-1.2,9-1c-0.3,2.2,0,4.2,1,6c1.3,0.9,2.8,1.6,4.5,2c4.1-2.8,7.9-2.4,11.5,1c0.6,2.4,1.6,4.8,3,7
				c2.3,1.1,4.8,1.1,7.5,0c1.8-1.7,4-2.7,6.5-3c5.1,0.5,10.1,1.5,15,3c2.7,0.3,5.3,0.7,8,1c-0.3,1.6,0.1,2.9,1,4
				c-1.1,5.8-1.1,11.5,0,17c1,1.3,2.2,1.3,3.5,0c0.6,1.9-0.1,3.2-2,4c-0.5,1.6-0.7,3.3-0.5,5c-0.2,1.5-0.9,2.9-2,4
				c0.6,0.9,1,1.9,1,3c0.5,3.8-1.2,5.8-5,6c-1.1-3.2-2.3-6.6-3.5-10c-1.7-0.9-3.5-1.2-5.5-1c-0.9,1.1-1.3,2.4-1,4c-1.3,0-2.7,0-4,0
				c0,2.7,0,5.3,0,8c-3.7-0.3-7,0.5-10,2.5c-0.8,1-1.2,2.2-1,3.5c-3.6-0.9-5.3-3.3-5-7c-2.4-0.4-3.8,0.6-4,3c0.7,3.3,1.2,6.6,1.5,10
				c0.7,0.8,1.5,1.1,2.5,1C377.1,255.4,377.4,256.4,377.5,257.5z"/>
			<path id="n38_1_" class="st15" d="M352.5,250.5"/>
		</g>
	</g>
	<g>
		<g>
			<path id="n43_2_" class="st16" d="M583.5,173.5c-0.8-2.3-2.5-3.8-5-4.5c-2.6-0.2-5.1-0.7-7.5-1.5c-0.2-2.6-1-5-2.5-7
				c0.7-1,1.3-2,2-3c-0.7-0.7-1.4-1.3-2-2c-1.4-2.4-3.4-4.1-6-5c-1.5-0.6-2.5-1.8-3-3.5c-3.6-0.9-6.9-2-10-3.5c-1.7-2-2.3-4.3-2-7
				c-2.6,3.8-4.1,8.2-4.5,13c-2.8,1.4-5.5,3.1-8,5c-4-1.5-8.1-2.5-12.5-3c-1.5-3.1-2.4-6.5-2.5-10c-1-2.2-2.5-3.8-4.5-5
				c-2.9,1.2-5.7,1.2-8.5,0c-4.1,4.4-8.9,5.2-14.5,2.5c-1.9-2-3.9-3.9-6-5.5c-1.3,1-2.7,2-4,3c1.3,2.3,2.3,4.8,3,7.5
				c-1.2,2.7-3.2,4.5-6,5.5c-0.3,1-0.7,2-1,3c3.5,4.7,6.1,9.9,8,15.5c-1.4,2.8-2.4,5.6-3,8.5c-2.1,1.4-3.8,3.2-5,5.5
				c1.9,2.4,3.5,4.9,5,7.5c1.5-0.9,3-1.9,4.5-3c1.8,1.6,3.2,3.6,4,6l-1.5,1c1.1,5.5,4.4,8.8,10,10c0.8,0.5,1.1,1.1,1,2
				c2.3-0.5,4.6-0.8,7-1c0.5,4.5-0.8,8.1-4,11c-1.2,4.7-1.2,9.3,0,14c3.4,0.8,6.7,2,10,3.5c0.8,0.7,1.1,1.5,1,2.5
				c1.9,0.4,3.4,1.4,4.5,3c1.1-1.5,2.6-2.2,4.5-2c1.1-1.1,2.4-1.9,4-2.5c6.4,0.5,12.1-1.3,17-5.5c2.5-2.8,5.5-3.4,9-2
				c-0.7-0.8-1.5-1.4-2.5-2c1,0.6,1.8,1.2,2.5,2c2.8,0.9,5.2,2.6,7,5c3,0.8,6,1.7,9,2.5c0.6,0.4,0.9,0.9,1,1.5c1.6,1.3,3.3,2.6,5,4
				c2.8-1.3,5.5-1.3,8,0c1.5-0.1,2.5,0.6,3,2c6.3,1.3,12.7,1.3,19,0c0.5-1.5,1.2-2.9,2-4l1-4c1.7-0.1,3.4-0.5,5-1
				c1.6-0.9,3.5-1.5,5.5-2c2,1.3,4,1.3,6,0c2.7,2.5,5.2,5.2,7.5,8c0.8-2.1,1.3-4.5,1.5-7c0.7-0.8,1.5-1.1,2.5-1
				c-0.2-2.4,0-4.7,0.5-7c0.7-0.9,1.5-1.5,2.5-2c3.6-1.3,7.3-2.3,11-3c7.5-0.2,15.2-0.5,23-1c0.4-1.7,1.4-2.7,3-3c0-1,0-2,0-3
				c-3.3-0.3-6.3,0.4-9,2c-1.6-0.8-3-1.9-4-3.5c-3.4-0.7-6.8-1.7-10-3c-4.1-7.1-2.1-10.9,6-11.5c0.3-2.1,0-4.1-1-6
				c-4-2.7-4-5.6,0-8.5c-2.9-1.6-5.9-2.8-9-3.5c-1.8-1.5-4-2.2-6.5-2c-4.5,2.1-9.3,3.5-14.5,4c-4.3-0.3-8-2-11-5c-1,0.4-1.7,1-2,2
				c-3.5,1.3-6.8,3.1-10,5.5c-0.6,1.3-1.3,2.5-2,3.5h-3c-0.3-1-1-1.7-2-2c-1.7-3.2-4-6-7-8.5c-1.3-0.5-2.6-0.7-4-0.5L583.5,173.5z"
				/>
		</g>
	</g>
	<g>
		<g>
			<path id="n40_1_" class="st8" d="M194.5,197.5c-0.1-0.6-0.4-1.1-1-1.5c2.5-3.4,4.5-7.1,6-11c-1.5-2.8-3.7-5-6.5-6.5
				c-1-2.3-1.8-4.6-2.5-7c-0.5-0.3-1-0.7-1.5-1c-1.8,0.8-3.6,1.5-5.5,2c-2.6-0.9-5.3-1.1-8-0.5c-1.5,1.1-2.2,2.6-2,4.5
				c-6,0.2-12-0.1-18-1c0-1.3,0-2.7,0-4c-0.2-4.7,0-9.3,0.5-14c0.2-1.2,0.7-2.2,1.5-3c2.7-2,2.7-4,0-6c-1.7-0.2-3.4,0-5,0.5
				c-2.6,4.3-5.5,4.5-8.5,0.5c-2.4,2.3-4.9,4.5-7.5,6.5c1.4,4.9-0.6,7-6,6.5c-0.2,2,0,4,0.5,6c4.8,1.8,6.5,5.1,5,10
				c-1.3,2.3-2.4,4.6-3.5,7c0.9,2.3,2.3,4.3,4,6c-2.1-1.6-4.4-2.1-7-1.5c-0.6,2.2-1.6,4.2-3,6c-3.9,0.7-7.5,1.9-11,3.5
				c0.6,5.9,1.9,11.6,4,17c-1.6,3.5-2.1,7.2-1.5,11c2.7,3.3,3,7,1,11c-6.1,3.5-8.9,8.8-8.5,16c2.2,4.4,3.2,9.1,3,14
				c2.1-0.2,4.1,0.2,6,1l2,1.5c1.5,1.5,2.7,3.4,3.5,5.5c0.4,3.6,1.2,7.1,2.5,10.5c-0.2,0.9-0.6,1.7-1,2.5c1.4,2.5,3.1,4.9,5,7
				c6.7-0.6,13.4,0,20,2c2.7,0.3,5.3,0.7,8,1c4.2-9.4,11.5-14.4,22-15c-0.2-1.3,0.1-2.3,1-3c0.3-8.6,1.8-16.9,4.5-25
				c1.4,0.9,2.9,1.2,4.5,1c0.5-1,1.1-1.8,2-2.5c2.3-0.3,4.7-0.7,7-1c4.2-1.6,8.2-3.6,12-6c4.3-0.5,8.3-1.7,12-3.5
				c-0.2-1.3,0.1-2.3,1-3c1.3-1.4,2.8-2.8,4.5-4c0.5-0.9,0.6-1.9,0.5-3l2-2c2.2-2.4,4.7-2.4,7.5,0c1.3,2.9,1.7,5.9,1,9
				c-2.6,0.7-3.7,2.4-3.5,5c5.7,1.7,9.3,5.3,11,11c0.9-0.6,1.9-0.9,3-1c1.2,0.2,2.4,0.5,3.5,1c1.3-1.2,2.8-1.9,4.5-2
				c0.3,0,0.7,0,1,0c0.1-1.1,0-2.1-0.5-3c-2.5-1.9-4.3-4.3-5.5-7c-0.7-1.9-1.3-3.9-2-6c-1.9-0.8-3.6-1.8-5-3c-1.3-1-2-2.3-2-4
				c0.2-3-0.5-5.6-2-8c-1.7-3.6-3.4-7.2-5-11c-0.9-2.2-0.9-4.5,0-7c-1.9-2.5-2.6-5.5-2-9c-1.2,0.2-2.2-0.1-3-1c-1.1-3.1-2.1-6.1-3-9
				c-0.9-0.1-1.5,0.2-2,1c-0.6,1.9-1.3,3.7-2,5.5c-3.7,1.1-7.4,1.2-11,0.5c-5.7,2.1-11.6,3.7-17.5,5
				C196.7,199,195.5,198.4,194.5,197.5z"/>
		</g>
	</g>
	<g>
		<g>
			<path id="n45_2_" class="st17" d="M413.5,152c0.6-0.8,1.1-1.6,1.5-2.5c4.6-1.5,9.1-3.2,13.5-5c0.3,1,1,1.6,2,2
				c1.7-0.8,3.3-1.7,5-2.5c0.6-2.5,1.3-5,2-7.5c1.2-0.4,2.2-1.1,3-2c2.3-0.5,4.3-1.5,6-3c1.8,1.4,3.8,1.9,6,1.5c0.8-1,1.2-2.2,1-3.5
				c2.7,0.3,5.1-0.3,7-2c3.3-2.7,7-4.8,11-6.5c2.2-1.3,3.6-3.1,4-5.5c-0.2-1.3,0.1-2.3,1-3c3.6-2.8,5.6-1.8,6,3
				c-2.1,3.9-1.3,6.9,2.5,9c0.3,3.1,0.8,6.1,1.5,9c-1.3,1-2.7,2-4,3c-0.6,0.2-0.9,0.7-1,1.5c3.3,4.8,2.3,8.3-3,10.5
				c-2,5-0.9,9,3.5,12c-0.1,3.1,1.1,5.6,3.5,7.5c-1.8,2.5-2.5,5.3-2,8.5c-2.3,0.6-4.5,1.6-6.5,3c-0.6,1.4-0.4,2.7,0.5,4
				c-1.7,2-2.3,4.3-2,7c-2.5,0.2-4.8-0.1-7-1c-1-0.3-1.7-1-2-2c0.3,1,1,1.7,2,2c0,1.3,0,2.7,0,4c-2.4-0.2-4.7,0-7,0.5
				c-1.6,2.1-3.6,3.6-6,4.5c-0.6-0.6-1.4-1-2.5-1c-3,1.3-6.2,2.2-9.5,2.5c-0.8,1-1.2,2.2-1,3.5c-0.6,0.1-1.1,0.4-1.5,1
				c-0.5,2.3-0.7,4.6-0.5,7c-3,0.2-6,0.5-9,1c-1.6-1.3-3.3-2.6-5-4c-1.7,0.4-3.4,0.9-5,1.5c-0.8,0.7-1.1,1.5-1,2.5c-0.6,2.3-2,4-4,5
				c-1.7,0.1-3.4,0.5-5,1c0.4-5.9,0.4-11.5,0-17c-0.9-1.1-1.3-2.4-1-4c-2.7-0.3-5.3-0.7-8-1c-0.5-1-1.1-1.8-2-2.5
				c-4.3-0.5-8.7-0.7-13-0.5c-0.4-0.6-1.1-1-2-1c-3.8,1.9-7.8,3.3-12,4c-1.4-2.2-2.4-4.6-3-7c0-1.5-0.7-2.7-2-3.5
				c-4.7-0.3-9.3-0.2-14,0.5c0.3-2.6-0.1-5.1-1-7.5c-3.5-0.3-6.5,0.5-9,2.5c-2.7,2.2-5.7,2.5-9,1c-0.8-5.6-1.3-11.3-1.5-17
				c-0.4-1.4-1.2-2.4-2.5-3c-0.4-4.3,1.6-6.1,6-5.5c1.3-1.7,2.7-3.3,4-5c7.2-1.7,8.8-5.7,5-12c0.5-1.3,1.1-2.5,2-3.5
				c0.9-0.6,1.9-0.9,3-1l4-3c2.2-5.4,5.4-6,9.5-2c3.4-2.4,6.9-4.4,10.5-6c2.6-1,5.3-1.3,8-1c0.1-2.2-0.2-4.4-1-6.5
				c0.6-2.1,1.9-3.2,4-3.5c3.3-0.8,6-2.6,8-5.5c1.9-0.2,3.5-0.7,5-1.5c1.4,0.1,2.8-0.3,4-1c0.9,0.8,1.2,1.8,1,3c-4.4,3.4-5,7.4-2,12
				c0.9,5.2,1.9,10.1,3,15c1.2,1.6,2.5,2,4,1c-0.3,1.3-0.7,2.7-1,4c0.6,0.7,1.3,1.3,2,2c-2.6,2.9-3.5,6.2-2.5,10L413.5,152z"/>
		</g>
	</g>
	<g>
		<g>
			<path id="n49_2_" class="st17" d="M234.5,195c-1.3-2.7-2.2-5.5-2.5-8.5c-0.7-0.9-1.5-1.5-2.5-2c0.1,1.1,0.4,2.1,1,3
				c-0.9-0.1-1.5,0.2-2,1c-0.6,1.9-1.3,3.7-2,5.5c-3.7,1.1-7.4,1.2-11,0.5c-5.7,2.1-11.6,3.7-17.5,5c-1.3-0.5-2.5-1.1-3.5-2
				c-0.1-0.6-0.4-1.1-1-1.5c2.5-3.4,4.5-7.1,6-11c-1.5-2.8-3.7-5-6.5-6.5c-1-2.3-1.8-4.6-2.5-7c-0.5-0.3-1-0.7-1.5-1
				c-1.8,0.8-3.6,1.5-5.5,2c-2.6-0.9-5.3-1.1-8-0.5c-1.5,1.1-2.2,2.6-2,4.5c-6,0.2-12-0.1-18-1c0-1.3,0-2.7,0-4
				c0.9-5.5,1.5-11.2,2-17c2.7-2,2.7-4,0-6c-0.2-1.6,0.1-3.1,1-4.5c3.2-0.8,6.2-2.2,9-4c1.7-0.7,3.4-0.5,5,0.5c1.8-2,3.5-4.2,5-6.5
				c0.9-0.5,1.9-0.6,3-0.5c-1.6-1.1-3.1-2.4-4.5-4c-2.1-8-4.6-15.8-7.5-23.5c0.3-1.9,0.8-3.7,1.5-5.5c3.3-2.1,4.1-5,2.5-8.5
				c1.5-2.3,3.5-3.8,6-4.5c3.3-0.1,4.8,1.6,4.5,5c1.3,1.3,2.7,1.3,4,0c0.5-1.6,0.7-3.3,0.5-5c2.2-1.3,4.5-1.3,7,0
				c1.3,2.2,0.9,4.2-1,6c0.5,1.4,1.5,2.1,3,2c5.6-1.6,10.8-0.6,15.5,3c2.4,7.5,5,14.8,8,22c1.4,1.5,2.9,2.9,4.5,4
				c-0.2,3.6,0.5,6.9,2,10c-0.6,0.4-1,1.1-1,2c1.7,3.1,2.3,6.4,2,10c-0.3,0-0.7,0-1,0c0.3,0,0.7,0,1,0c1.5,1.8,3.5,2.4,6,2
				c0.6,2.6,1.9,3.3,4,2c1,0.7,2,1.4,3,2c3.5-0.7,6.9-2.1,10-4c2.4-1.2,4.4-2.9,6-5c0.9,0.6,1.9,1,3,1c1.4,1.3,2.9,1.3,4.5,0
				c1.7,2.9,4.2,4.2,7.5,4c-0.1,1,0.2,1.8,1,2.5c1.6,0.3,3.1,0.8,4.5,1.5c0.2,2.9,0.7,5.5,1.5,8c4,1.8,7.7,4.1,11,7
				c1.1,2.5,1.1,5,0,7.5c-4.2,1.9-8.2,4.2-12,7c-1.3,0.5-2.6,0.7-4,0.5c0,1,0,2,0,3v3c3.7,5.8,8.5,10.5,14.5,14
				c0.2,2.3,0.3,4.7,0.5,7c0,2.8-0.7,5.1-2,7c-1.1,4.8-1.3,9.8-0.5,15c1,2.2,2.5,3.8,4.5,5c0,0.7,0,1.3,0,2c0.2,3,0,6-0.5,9
				c-3.1,1.6-5.2,3.9-6.5,7c-2.8,2.9-5.1,6.3-7,10c-1.1,0.1-2.1,0-3-0.5c-1.1-2.2-2.4-4.2-4-6c-1.9-0.8-3.2-0.3-4,1.5
				c-2.7,0-5.3,0-8,0c0-1.7,0.7-3,2-4c0.3,0,0.7,0,1,0c1.1-1.1,1.3-2.4,0.5-4c-2-2.2-4.2-4.2-6.5-6c1.7-6.3-0.6-9.3-7-9
				c-1.3-1-2-2.3-2-4c1.7-3.2,1-5.9-2-8c-0.3-4.4-1.9-8.1-5-11c-0.9-2.2-0.9-4.5,0-7"/>
		</g>
	</g>
	<g>
		<g>
			<path id="n61_1_" class="st18" d="M295.5,161.5c3.1,0.5,5.5,2.1,7,5c4.5-0.5,9.1-0.5,14,0c2.4,2.2,4.4,4.7,6,7.5
				c0.9,0.5,1.9,0.6,3,0.5c1.4-1,3.1-1.3,5-1c0,1.3,0,2.7,0,4c1,0,2,0,3,0c0.4-5.2-0.3-10.2-2-15c-2.4-1.6-2.4-3.4,0-5.5
				c4.3,0,7.3-2,9-6c7.1-1.3,8.7-5,5-11c-0.2-2.3,0.8-3.4,3-3.5c0.5-3.3-0.5-5.9-3-8c0.3-0.8,0.8-1.5,1.5-2c0.5-4.7,0.7-9.3,0.5-14
				c-1.3,0.2-2.5-0.2-3.5-1c-0.3-2.7-0.7-5.3-1-8c-3.8-3.5-5.3-7.9-4.5-13c1,0,2,0,3,0c0.8-3.2,1.8-6.4,3-9.5c-0.4-2.1-1-4.1-2-6
				c1.6-2.9,1.3-5.4-1-7.5v-1c6-0.6,12-0.9,18-1c0.8-1.5,1.1-3.2,1-5c-0.7-2.2-2.1-4.1-4-5.5c0.8-2.1,1.1-4.3,1-6.5
				c-1.4-0.5-2.1-1.5-2-3c-1-1.4-1.3-3.1-1-5c0.2-1.3-0.2-2.5-1-3.5c-3.9-1.3-7.9-1.8-12-1.5c0.4-3.8-0.2-7.3-2-10.5
				c2.2-3.4,2.2-6.9,0-10.5c1.3-1.8,1.8-3.8,1.5-6c-2.8-2-5.8-3.7-9-5c-2.6,1.2-5.3,2.2-8,3c-1.9-1.5-4-2.2-6.5-2
				c0.2,1.7,0,3.4-0.5,5c-2.1,0.7-4.3,0.8-6.5,0.5c-1.4,1.6-2,3.4-2,5.5c-1,0-2,0-3,0c0.2,1.7,0,3.4-0.5,5c-1.7,0.8-2.5,2.1-2.5,4
				c1.6,2.9,1.1,5.6-1.5,8c-0.5,2.3-0.7,4.6-0.5,7c1.7,1.1,2.7,2.8,3,5v1c-0.3-2.2-1.3-3.9-3-5c-0.3,0-0.7,0-1,0
				c-3.1-0.3-6.1,0.2-9,1.5c-0.7,1.1-1.2,2.2-1.5,3.5c-1.8,0.6-3.7,1.3-5.5,2c-0.5,1.7-1.2,3.4-2,5c-2,2.5-4.3,4.5-7,6c0,1,0,2,0,3
				c1.3,3.4,2.9,6.8,5,10c-0.2,0.6-0.5,1.1-1,1.5c1.6,2.1,2.9,4.2,4,6.5c2.2-0.1,4.2-0.8,6-2c1.4,1.5,3,2.1,5,2c0.7,4,1.3,8,2,12
				c-2.7,3.4-4.4,7.4-5,12c-0.7,0-1.3,0-2,0c-1,0-2,0-3,0c1.3,5.3-0.7,8-6,8c-1.3,0.8-2.5,1.8-3.5,3c-0.1,4.2-1,8.2-2.5,12
				c0,0.9,0.4,1.6,1,2c2.4,4.7,3.7,9.9,4,15.5c-0.1,0.8-0.4,1.3-1,1.5c0,0.3,0,0.7,0,1c0,1.1-0.4,2.1-1,3c1.8,3.4,2.5,7,2,11
				c4,1.8,7.7,4.1,11,7c1.9-1.4,3.6-3.1,5-5"/>
		</g>
	</g>
	<g>
		<g>
			<path id="n51_1_" class="st19" d="M281.5,84.5"/>
		</g>
		<g>
			<path id="n61_3_" class="st20" d="M250.5,148.5c-3.1,1.9-6.5,3.3-10,4c0.1-1-0.2-1.8-1-2.5c-2-0.5-4-1-6-1.5
				c-1.4-0.7-2.9-1.4-4.5-2c-0.2-4.2-1-8.2-2.5-12c-1.5-3.1-2.2-6.4-2-10c-0.5-2-1.7-3.7-3.5-5c-3-7.2-5.6-14.5-8-22
				c-5.2-4.2-10.7-4.9-16.5-2c-1.5,0.1-2.5-0.6-3-2c1.9-1.8,2.3-3.8,1-6c-2.5-1.3-4.8-1.3-7,0c-1.8,6.7-3.5,6.6-5-0.5
				c-1.6-0.8-2.9-0.6-4,0.5c-1.1-0.1-1.8-0.8-2-2c1.4-2.8,2.1-5.8,2-9c1.3,0.2,2.5-0.2,3.5-1c0.9-2,1.8-4,2.5-6
				c2.7-0.7,5.2-1.7,7.5-3c1.2,0.4,2.4,0.9,3.5,1.5c1.8,4.9,4.8,5.7,9,2.5c2.2,0.5,4,1.5,5.5,3c2.2-1.7,4.7-2.7,7.5-3
				c-0.1-1,0.2-1.8,1-2.5c1.3-0.3,2.7-0.7,4-1c1.8-2.5,4.1-4.1,7-5c0.6-1.9,1.6-3.6,3-5c3.7-1.1,7.4-2.2,11-3.5
				c-0.5-7.3,0.6-14.3,3.5-21c4.9-0.9,9.4-2.7,13.5-5.5c1.5-2.8,3.7-5,6.5-6.5c0.9-2.2,1.7-4.3,2.5-6.5c4.3,0.1,8.7,0.1,13,0
				c5.4-3.5,9.3-2,11.5,4.5c1.5,1.5,3.3,2.3,5.5,2.5c1.3,1.4,2.3,2.9,3,4.5c0.5,2.8-0.4,5.2-2.5,7c-0.5,2.6-0.7,5.3-0.5,8
				c-3.1-0.3-6.1,0.2-9,1.5c-0.7,1.1-1.2,2.2-1.5,3.5c-1.8,0.6-3.7,1.3-5.5,2c-0.5,1.7-1.2,3.4-2,5c-2,2.5-4.3,4.5-7,6
				c-2.5,0.3-4.1,1.6-5,4c1.5,0,2.7-0.7,3.5-2c0.4,0.6,0.9,0.9,1.5,1c1.3,3.4,2.9,6.8,5,10c-0.2,0.6-0.5,1.1-1,1.5
				c1.6,2.1,2.9,4.2,4,6.5c2.2-0.1,4.2-0.8,6-2c1.4,1.5,3,2.1,5,2c0.7,4,1.3,8,2,12c-2.7,3.4-4.4,7.4-5,12c-0.7,0-1.3,0-2,0
				c-0.5-1.6-1.5-2.1-3-1.5c-0.8,2.1-1.3,4.2-1.5,6.5c-1.4,1.3-2.9,2.3-4.5,3c-1.3,0.8-2.5,1.8-3.5,3c-0.1,4.2-1,8.2-2.5,12
				c0,0.9,0.4,1.6,1,2c-0.1,3.2,0.6,6.2,2,9c-0.1,1.4-0.5,2.7-1,4c1.1,1.1,1.8,2.5,2,4c0,0.3,0,0.7,0,1c-1.4,1-2.4,2.3-3,4
				c-1-0.7-2-1.4-3-2c-3.3,0.2-5.8-1.1-7.5-4c-1.6,1.3-3.1,1.3-4.5,0c-0.5-1.4-1.5-2-3-2c-1.5,0.7-2.9,1.7-4,3"/>
		</g>
	</g>
	<g>
		<path id="n62_2_" class="st14" d="M438,66.5c0.7-0.9,1.5-1.5,2.5-2c-0.2-2.4,0-4.7,0.5-7c1-0.7,2-1.3,3-2c0.5-2.3,0.7-4.6,0.5-7
			c-0.6-0.1-1.1-0.4-1.5-1c-1.9-5.5-0.2-9.2,5-11c1.1-2.8,2.6-5.3,4.5-7.5c-2-10.3-7.8-13.1-17.5-8.5c-2.4-1.3-4.9-2.3-7.5-3
			c-2.7,1-5.3,2-8,3c-1.5-0.2-3-0.5-4.5-1c-0.5,0.3-1,0.7-1.5,1c0.9,1.3,1.1,2.6,0.5,4c-3.8,1-6,3.3-6.5,7c-2,0-4,0-6,0
			c-0.7-5.1-3-6.4-7-4c0.5-1.3,0.7-2.7,0.5-4c-1.6-0.9-3.1-1.9-4.5-3c-2,1.4-4.1,2-6.5,2c-2.9-1.2-5.7-1.2-8.5,0
			c-3-1.8-6.4-3.3-10-4.5c-1.7-0.7-3.3-0.7-5,0c-1.3,3.6-1.3,7.3,0,11c-0.6,4.7-2.6,8.5-6,11.5c-0.3,1.9,0,3.6,1,5
			c1.4,0.5,2.1,1.5,2,3c0.1,2.2-0.2,4.4-1,6.5c1.9,1.4,3.3,3.3,4,5.5c0.7,0.9,1.3,1.9,2,3l-3,3c-6,0.1-12,0.4-18,1
			c2.3,2.1,2.6,4.6,1,7.5c1,1.9,1.6,3.9,2,6c-1.2,3.1-2.2,6.3-3,9.5c-1,0-2,0-3,0c-0.8,5.1,0.7,9.5,4.5,13c0.3,2.7,0.7,5.3,1,8
			c1,0.8,2.2,1.2,3.5,1c0.2,4.7,0,9.3-0.5,14c-0.7,0.5-1.2,1.2-1.5,2c2.5,2.1,3.5,4.7,3,8c0.9-0.6,1.9-0.9,3-1c4.1,2.9,5.4,1.9,4-3
			c2.2-5.4,5.4-6,9.5-2c3.4-2.4,6.9-4.4,10.5-6c2.6-1,5.3-1.3,8-1c0.1-2.2-0.2-4.4-1-6.5c0.6-2.1,1.9-3.2,4-3.5c0.8-1.5,2.3-4.7,3-4
			c1.5-1,2.8-2.1,4-3.5c2-0.5,4-0.7,6-0.5c1.4,0.1,2.8-0.3,4-1c0.9,0.8,1.2,1.8,1,3c-1.2,2.2-2.2,4.5-3,7c0.5,1.6,0.9,3.3,1,5
			c2.4,4.6,3.4,9.6,3,15c1.2,1.6,2.5,2,4,1c0.1-4.3,2.1-7,6-8c1.9-3.3,4.6-4,8-2c0.8-1.3,2-2.3,3.5-3c-0.6-4.4,1.2-6.4,5.5-6
			c0-1,0-2,0-3c-1.5-0.3-2.2-1.3-2-3c4.3,0,8.7,0,13,0c0-1.3,0-2.7,0-4c-1.4-2-2.1-4.3-2-7c-0.9-2.2-1.2-4.6-1-7
			c0.2-6.4-0.5-12.8-2-19L438,66.5z"/>
	</g>
	<g>
		<path id="n59_1_" class="st12" d="M497.5,50.5c-3.9-0.4-6.9-2.2-9-5.5c-5,1.4-8.6-0.3-11-5c-2.7-0.7-5.3-1.3-8-2c-1-5-3.7-9-8-12
			c-3.2-2.1-6.2-2-9,0.5c1.1,1.6,1.6,3.2,1.5,5c-2.5,1.8-4.1,4.1-5,7c-5.2,2-6.7,5.7-4.5,11c1.1,2.5,1.3,5.1,0.5,8c-1,0.7-2,1.3-3,2
			c-0.2,2.2-0.7,4.2-1.5,6c-1.6,2.7-2.3,5.7-2,9c1.5,0.8,2.3,2.2,2.5,4c0.8,5.2,0.6,10.2-0.5,15c-0.2,2.4,0.1,4.8,1,7
			c1.4,2,2.1,4.3,2,7c0,1.3,0,2.7,0,4c-3.8,0.8-7.8,1.3-12,1.5c0.6,0.4,0.9,0.9,1,1.5c0,1,0,2,0,3c-4.3-0.4-6.1,1.6-5.5,6
			c-1.5,0.7-2.7,1.7-3.5,3c-1.4,1.3-2.9,1.3-4.5,0c-0.8,1.3-2,2-3.5,2c-3.9,1-5.9,3.7-6,8c-0.3,1.3-0.7,2.7-1,4c1,0,2,0,3,0
			c-1.4,3.4-2.1,7.1-2,11c1.1,0.1,2.1,0,3-0.5c1.7-3.8,4.7-5.5,9-5c2-2.5,4.4-3,7-1.5c6.1,0.2,8.7-2.8,8-9c1.2-0.7,2.6-1.1,4-1
			c2.8-4.2,6.3-4.9,10.5-2c1.2-1.1,1.7-2.4,1.5-4c2.7-0.1,5.4-0.4,8-1c0-1.5,0.7-2.7,2-3.5c5-1.8,9.4-4.7,13-8.5
			c-0.2-1.3,0.1-2.3,1-3c0-1.5,0.7-2.7,2-3.5c-1.9-1.7-3.5-3.5-5-5.5c3.7,2.7,7.3,5.3,11,8c-0.5,1.5-1.2,2.8-2,4
			c-2.1,3.9-1.3,6.9,2.5,9c0.3,3.1,0.8,6.1,1.5,9c2.1,1.6,4.1,3.5,6,5.5c5.6,2.7,10.4,1.9,14.5-2.5c2.8,1.2,5.6,1.2,8.5,0
			c2,1.2,3.5,2.8,4.5,5c0.1,3.5,1,6.9,2.5,10c4.4,0.5,8.5,1.5,12.5,3c2.5-1.9,5.2-3.6,8-5c0.4-4.8,1.9-9.2,4.5-13
			c-0.3,2.7,0.3,5,2,7c3.8,0.4,7.4,1.2,11,2.5c0.8,1.5,1.4,3,2,4.5c2.6,0.9,4.6,2.6,6,5c1,0,2,0,3,0c0.1,1.8-0.2,3.4-1,5
			c0.7,1.9,1.2,3.9,1.5,6c2.1,0.7,4.3,0.8,6.5,0.5c3.2,1.1,5.2,3.3,6,6.5c1.1,0.9,2.4,1.3,4,1c6.1-0.6,9.8,2.4,11,9c1,0.3,1.7,1,2,2
			c1,0,2,0,3,0c-0.2-1.4,0-2.7,0.5-4c3.1-3.2,7-4.9,11.5-5c0.3-1,1-1.6,2-2c3,3,6.7,4.7,11,5c5.2-0.5,10-1.9,14.5-4
			c2.5-0.2,4.7,0.5,6.5,2c1,0,1.7-0.5,2-1.5c-1.4-6.7-5.4-10.7-12-12c-1.8-5.9-5.8-8.9-12-9c-0.8-1.9-1.5-3.9-2-6
			c-1.8-1.8-3.6-3.6-5.5-5.5c0.5-3.3,0.9-6.6,1-10c-4.8-4.1-7-9.4-6.5-16c-1.6-2.2-3.1-4.5-4.5-7c-2.1-1.5-4.4-2.5-7-3
			c-2.6,3.2-5.7,3.9-9.5,2c0.2-4.5-0.8-8.6-3-12.5c-3.7,0.2-7.3,0.7-11,1.5c0-1.7,0-3.3,0-5c-4.3-0.8-7.6-2.9-10-6.5
			c-1.3-0.3-2.7-0.7-4-1c-5.4-5.6-11.7-8.1-19-7.5c-0.1-1.2-0.7-2.1-2-2.5c-2.4-0.3-4.7-0.8-7-1.5c-2.7-4.9-6.7-6.7-12-5.5
			c-1.9-2.5-4.3-4.3-7-5.5c-1-1.9-1-3.7,0-5.5c-3.6-4.8-8.2-6.5-14-5L497.5,50.5z"/>
	</g>
</g>
<g id="kontur">
	<g>
		<path class="st21" d="M463.5,342.5c0.2,4,0,8-0.5,12c-2.1,1.8-3,4.2-2.5,7c1.6-0.3,2.9,0.1,4,1c-1.7,0-3.3,0-5,0
			C461.6,356,462.9,349.4,463.5,342.5z"/>
	</g>
	<g>
		<path class="st22" d="M180.5,356.5c-1,0.1-1.8-0.2-2.5-1c-5.8,2-10.6,5.3-14.5,10c2.9-5.8,7.5-9.5,14-11
			C179,354.5,180,355.1,180.5,356.5z"/>
	</g>
	<g>
		<path class="st23" d="M259.5,357.5c1-0.1,1.8,0.2,2.5,1c2.1,2.6,3.9,5.2,5.5,8C264.1,364.1,261.5,361.1,259.5,357.5z"/>
	</g>
	<g>
		<path class="st24" d="M502.5,357.5c2.1,1.1,3.4,2.8,4,5C504.4,361.4,503.1,359.7,502.5,357.5z"/>
	</g>
	<g>
		<path class="st25" d="M418.5,347.5c-1.1,2.1-2.1,4.2-3,6.5c1.1,2,1.8,4.2,2,6.5c2.4-0.5,4.1,0.3,5,2.5c-1.6,3.6-2.5,7.4-2.5,11.5
			c-0.8,0.6-1.6,1.1-2.5,1.5c6.8,1.9,8.4,5.7,5,11.5c-0.6-0.2-0.9-0.7-1-1.5c1.1-1.4,1.6-2.9,1.5-4.5c-2.1-2-4.3-3.8-6.5-5.5
			c1.5-4.3,2.8-8.6,4-13c-0.2-0.5-0.3-1-0.5-1.5c-1,1.3-2,1.3-3,0c-0.5-2.5-1.7-4.7-3.5-6.5C414.3,351.8,416,349.3,418.5,347.5z"/>
	</g>
	<g>
		<path class="st26" d="M131.5,356.5c4.7,1.3,6,4.1,4,8.5c1.9,1.7,3.5,3.5,5,5.5c-5.1-1.6-7-4.9-5.5-10
			C133.6,359.3,132.5,358,131.5,356.5z"/>
	</g>
	<g>
		<path class="st27" d="M267.5,366.5c2-0.2,4,0,6,0.5c0.6,0.4,0.9,0.9,1,1.5C272,368.1,269.7,367.4,267.5,366.5z"/>
	</g>
	<g>
		<path class="st28" d="M464.5,362.5c1.4,2,1.1,3.8-1,5.5c-4.3-0.1-8.6-0.2-13-0.5c0,1.7,0,3.3,0,5c-1-1.8-1.3-3.8-1-6
			c3.9-0.2,7.7,0.1,11.5,1C463.5,366.8,464.7,365.1,464.5,362.5z"/>
	</g>
	<g>
		<path class="st29" d="M204.5,369.5c-3.2,1.1-6.2,1.1-9,0C198.7,368.9,201.7,368.9,204.5,369.5z"/>
	</g>
	<g>
		<path class="st30" d="M286.5,366.5c0.9,0.7,1.2,1.7,1,3c2.7-0.2,5.4,0,8,0.5c1.3,1.6,1.3,3.1,0,4.5c0.2-1.3-0.2-2.5-1-3.5
			c-3.5-0.9-6.9-0.4-10,1.5c-3.5-1.2-6.8-2.5-10-4c4,0.7,8,1.3,12,2C286.5,369.2,286.5,367.8,286.5,366.5z"/>
	</g>
	<g>
		<path class="st31" d="M162.5,367.5c0,1.7,0,3.3,0,5c-1.3,0-2.7,0-4,0c0,1,0,2,0,3c-1,0-2,0-3,0c1.3-1,2-2.3,2-4c1.3,0,2.7,0,4,0
			C161.2,369.9,161.6,368.6,162.5,367.5z"/>
	</g>
	<g>
		<path class="st32" d="M206.5,371.5c1.5-0.1,2.5,0.6,3,2C208,373.6,207,372.9,206.5,371.5z"/>
	</g>
	<g>
		<path class="st33" d="M140.5,370.5c3.9,1,6.6,3.3,8,7C145.8,375.2,143.1,372.8,140.5,370.5z"/>
	</g>
	<g>
		<path class="st34" d="M88.5,368.5c1.3,0.6,2.1,1.6,2.5,3c0.5,3,0.7,6,0.5,9C90.1,376.7,89.1,372.7,88.5,368.5z"/>
	</g>
	<g>
		<path class="st35" d="M295.5,374.5c-1.8,0.8-3.2,2.1-4,4c-1.7,0-3.3,0-5,0c-3,0-6,0-9,0C283.7,378,289.7,376.6,295.5,374.5z"/>
	</g>
	<g>
		<path class="st36" d="M356.5,371.5c-0.3,1.8,0,3.5,1,5c1.1-1.3,2.5-1.8,4-1.5c4.1,4.6,7.1,9.8,9,15.5c-0.5,1.6-0.9,3.3-1,5
			c-1.2-7.1-4.2-13.5-9-19c-1.6,0.8-3.2,1.1-5,1C355.2,375.3,355.5,373.3,356.5,371.5z"/>
	</g>
	<g>
		<path class="st37" d="M277.5,378.5c-1.5,3.7-4,4.7-7.5,3c-0.7,0.7-1.3,1.3-2,2c-0.2,2.2-0.7,4.2-1.5,6c-0.7-2.3-0.8-4.7-0.5-7
			c1.3-0.7,2.3-1.7,3-3c1.1,0.8,2.3,1.5,3.5,2C273.9,380,275.6,379,277.5,378.5z"/>
	</g>
	<g>
		<path class="st38" d="M150.5,380.5c1,2,2,4,3,6C151,385.3,150,383.3,150.5,380.5z"/>
	</g>
	<g>
		<path class="st39" d="M286.5,378.5c1.7,0,3.3,0,5,0c2.5,2.2,2.5,4.5,0,7c1.9,0.8,3.5,1.8,5,3c-2,0.2-3.8-0.1-5.5-1
			c-0.2-2.7,0-5.3,0.5-8C289.6,379.8,287.9,379.5,286.5,378.5z"/>
	</g>
	<g>
		<path class="st40" d="M301.5,394.5c5.5,1.5,11.2,2.5,17,3c-2.8,1.1-5.8,1.3-9,0.5c-0.7-0.7-1.3-1.3-2-2
			C305.3,395.8,303.3,395.3,301.5,394.5z"/>
	</g>
	<g>
		<path class="st41" d="M318.5,397.5c1.8-1.1,3.8-1.3,6-0.5c1.5,2.8,3.5,3.6,6,2.5c-0.4,1.2-1.2,1.9-2.5,2c-1.8-0.8-3.3-1.9-4.5-3.5
			C321.9,397.5,320.2,397.3,318.5,397.5z"/>
	</g>
	<g>
		<path class="st42" d="M350.5,401.5c-0.8-1.2-1.8-2.2-3-3c-2,1.4-4.1,2-6.5,2c-3.5-0.7-7-1-10.5-1c5.5-0.8,11.2-1.4,17-2
			C349.9,397.7,350.9,399.1,350.5,401.5z"/>
	</g>
	<g>
		<path class="st43" d="M451.5,374.5c2.5,5.3,0.8,8.3-5,9c0.4,3.6,1.1,7.1,2,10.5c-0.2,3.3-0.9,6.4-2,9.5c3.8-0.5,5.8,1.2,6,5
			c-1,0-2,0-3,0c1.3-3.4-0.1-4.7-4-4c-0.1-3.8,0.6-7.5,2-11c-1.6-3.4-2.3-7.1-2-11C450.9,382.5,452.9,379.8,451.5,374.5z"/>
	</g>
	<g>
		<path class="st44" d="M259.5,398.5c-1.2,1.6-2.2,3.3-3,5c0-1-0.5-1.7-1.5-2c-2.1,0.8-4.3,1.1-6.5,1c0.2-1.4,0-2.7-0.5-4
			c-0.8,1.3-2,2-3.5,2c0.9-2.2,2.6-3.2,5-3c0,1.3,0,2.7,0,4C253.1,401.1,256.4,400.1,259.5,398.5z"/>
	</g>
	<g>
		<path class="st45" d="M60.5,405.5c-1.3,0-2.7,0-4,0c0-1.3,0-2.7,0-4c-3.5,0.7-6.8,0.7-10,0c3.6-0.6,7.3-0.9,11-1c0,1.3,0,2.7,0,4
			C58.8,404.3,59.8,404.6,60.5,405.5z"/>
	</g>
	<g>
		<path class="st46" d="M372.5,399.5c0.6,0.2,0.9,0.7,1,1.5c-1.8,2.7-3.1,5.5-4,8.5c-1.9-3.4-4.9-5.1-9-5c2.7-1.3,5.4-0.9,8,1
			C370.3,403.8,371.7,401.8,372.5,399.5z"/>
	</g>
	<g>
		<path class="st47" d="M425.5,391.5c3.4,2.7,3.9,6.1,1.5,10c-2.8,2.1-4.8,4.8-6,8c-3.9,1.8-7.1,4.4-9.5,8c-0.1-1.1,0-2.1,0.5-3
			c2.2-2.7,4.8-4.7,8-6c1.2-3.2,3.2-5.9,6-8C428,397.4,427.8,394.4,425.5,391.5z"/>
	</g>
	<g>
		<path class="st48" d="M444.5,415.5c-2.8,1.3-5.1,3.3-7,6c3.8,0.7,7.5,1.3,11,2c-4,0-8,0-12,0C436.8,418.5,439.5,415.8,444.5,415.5
			z"/>
	</g>
	<g>
		<path class="st49" d="M194.5,357.5c0-1.3,0-2.7,0-4c-3.8-0.7-6.8,0.5-9,3.5c-1.9,0.8-3.6,0.6-5-0.5c1.4,0.2,2.7,0,4-0.5
			c1.5-2.1,3.5-3.5,6-4c-0.9-0.7-1.5-1.5-2-2.5c1.7-0.6,3.3-1.3,5-2c0.9,0.1,1.8,0.4,2.5,1C196.1,351.7,195.6,354.7,194.5,357.5z"/>
	</g>
	<g>
		<path class="st50" d="M285.5,343.5c0.9,2.5,1.5,5.2,2,8c0,0.9-0.4,1.6-1,2C285.8,350.2,285.5,346.9,285.5,343.5z"/>
	</g>
	<g>
		<path class="st51" d="M243.5,350.5c3.1-0.3,6.1,0,9,1c0.6,0.9,1,1.9,1,3c-1.2-0.7-2.2-1.7-3-3
			C247.8,352.9,245.5,352.6,243.5,350.5z"/>
	</g>
	<g>
		<path class="st52" d="M506.5,345.5c1-0.1,1.8,0.2,2.5,1c0.5,1.6,0.7,3.3,0.5,5c-3.6,0.5-5.9,2.5-7,6c-0.6-0.2-0.9-0.7-1-1.5
			c1.7-1.9,2.7-4,3-6.5C508.8,349.7,509.5,348.4,506.5,345.5z"/>
	</g>
	<g>
		<path class="st53" d="M358.5,326.5c0.8,3.8,1.3,7.8,1.5,12c1.7,1.8,1.5,3.7-0.5,5.5c2.4,2.1,3.4,4.8,3,8c-1.3,4.5-2.3,9.2-3,14
			c0.8,2.5-0.2,4.3-3,5.5c1.2-4.6,2-9.3,2.5-14c3.3-4.5,3.1-9-0.5-13.5C358.5,338.1,358.5,332.3,358.5,326.5z"/>
	</g>
	<g>
		<path class="st54" d="M635.5,329.5c1.4,1.3,2.1,2.9,2,5c0,0.7-0.3,1-1,1C635.8,333.6,635.5,331.6,635.5,329.5z"/>
	</g>
	<g>
		<path class="st55" d="M413.5,315.5c-2.1,5.7-3.7,11.5-5,17.5c2.2,2.9,5.1,5.1,8.5,6.5c2.4,2.5,2.9,5.1,1.5,8
			c0.2-2.7-0.6-5.1-2.5-7c-2.8-1.4-5.5-3.1-8-5c-0.1-4.7,0.4-9.4,1.5-14c-1.3,0.2-2.3-0.1-3-1c2,0.3,3.3-0.3,4-2
			C411.2,317.2,412.2,316.2,413.5,315.5z"/>
	</g>
	<g>
		<path class="st56" d="M198.5,334.5c2-0.2,4,0,6,0.5c1.2,2.6,2.5,5.1,4,7.5c-2.6-1.4-4.3-3.6-5-6.5
			C201.6,335.8,200,335.3,198.5,334.5z"/>
	</g>
	<g>
		<path class="st57" d="M183.5,322.5c1.5,2.4,2.5,5.1,3,8c-0.9,2.9-2.3,5.6-4,8c0.6,2.5,1.6,4.9,3,7c-3-1.3-4.3-3.7-4-7
			c1.2-3,2.5-6,4-9C184.1,327.4,183.4,325,183.5,322.5z"/>
	</g>
	<g>
		<path class="st58" d="M466.5,335.5c0.3,3-0.7,5.3-3,7C463.9,339.8,464.9,337.5,466.5,335.5z"/>
	</g>
	<g>
		<path class="st59" d="M216.5,332.5c0.2,3.1,0.8,6.1,2,9c3,1.7,5.7,3.7,8,6c-2.3,1.3-4.7,1.3-7,0c1.4,0.2,2.7,0,4-0.5
			c-2.1-2.4-4.6-4.3-7.5-5.5C215.2,338.3,215.4,335.3,216.5,332.5z"/>
	</g>
	<g>
		<path class="st60" d="M565.5,336.5c1.9,3.3,2.2,6.8,1,10.5c1.2,1,2.2,2.2,3,3.5c-1.5,0-2.7-0.7-3.5-2c0.2-2.3,0.2-4.6,0-7
			c-1-0.6-1.8-1.2-2.5-2C565,339.2,565.7,338.2,565.5,336.5z"/>
	</g>
	<g>
		<path class="st61" d="M604.5,312.5c-1,4.3-3,8.2-6,11.5c2.1,3.1,4.4,3.3,7,0.5c0.8,0.5,1.1,1.1,1,2c-1.3,0-2.3,0.5-3,1.5
			c0.9,1.7,1.2,3.5,1,5.5c-3,0-6,0-9,0c0.2-2.4-0.4-4.4-2-6c2.8,0.5,4.1,2.1,4,5c2,0,4,0,6,0c-0.3-4.2-2.6-6.2-7-6
			c0-1.8,0.5-3.5,1.5-5c3.2-1.7,4-4,2.5-7C602.1,314.3,603.4,313.6,604.5,312.5z"/>
	</g>
	<g>
		<path class="st62" d="M575.5,328.5c-1.2-3-3.1-5.6-5.5-8c-3.5,3-5.3,6.6-5.5,11c-1-5.4,0.8-9.4,5.5-12
			C573.7,321.2,575.5,324.2,575.5,328.5z"/>
	</g>
	<g>
		<path class="st63" d="M471.5,319.5c1.3-0.2,2.3,0.1,3,1c-1.6,1.6-2.8,3.6-3.5,6c-1.4-0.9-2.9-1.2-4.5-1c-0.2,2.4-0.5,4.7-1,7
			c-0.8-2.5-0.8-5.1,0-8c2,0,4,0,6,0C471.5,322.8,471.5,321.2,471.5,319.5z"/>
	</g>
	<g>
		<path class="st64" d="M97.5,324.5c-0.8,1.6-2.1,2.3-4,2C94.5,325.3,95.8,324.7,97.5,324.5z"/>
	</g>
	<g>
		<path class="st65" d="M612.5,326.5c0.8-0.6,1.8-1,3-1c2.5,1.2,5.2,1.8,8,2c-0.6,0.6-1.4,1-2.5,1
			C618.4,327,615.6,326.3,612.5,326.5z"/>
	</g>
	<g>
		<path class="st66" d="M630.5,324.5c2.7,0.7,4.3,2.3,5,5C633.5,328.2,631.8,326.5,630.5,324.5z"/>
	</g>
	<g>
		<path class="st67" d="M593.5,327.5c-1,0.1-1.8-0.2-2.5-1c-0.2,1.2-0.7,2.2-1.5,3c0-1.3,0-2.7,0-4
			C591.4,325.2,592.7,325.9,593.5,327.5z"/>
	</g>
	<g>
		<path class="st68" d="M500.5,316.5c-1.4,1.3-2.1,3-2,5c0.7,3.5,2,6.7,4,9.5c-0.5,2.2-1.5,4.2-3,6c0.2,0.9,0.6,1.7,1,2.5
			c-1.1-0.3-1.8-1.1-2-2.5c1.4-2.4,2.3-4.9,2.5-7.5c-2.4-0.6-4.6-1.6-6.5-3c1.4,0.2,2.7,0,4-0.5c-1.1-2.7-1.3-5.6-0.5-8.5
			C498.7,316.7,499.5,316.4,500.5,316.5z"/>
	</g>
	<g>
		<path class="st69" d="M589.5,329.5c-0.3,1-1,1.6-2,2c-3.9-1.5-7.9-2.5-12-3c2.7,0.1,5.4-0.2,8-1
			C585.3,328.7,587.3,329.3,589.5,329.5z"/>
	</g>
	<g>
		<path class="st70" d="M133.5,317.5c-4.3,4.1-7.3,9.1-9,15c3.8,7.5,6.1,15.5,7,24c-1.1-0.1-1.8-0.8-2-2c-0.1-6.9-2-13.2-5.5-19
			c-0.5-4.1,0-8.1,1.5-12c1.5,0,2.7-0.7,3.5-2C129.1,318.6,130.6,317.2,133.5,317.5z"/>
	</g>
	<g>
		<path class="st71" d="M450.5,318.5c5.8,0.2,11.4,0.6,17,1c-4.7,0.8-9.4,1.2-14,1C452,320.5,451,319.9,450.5,318.5z"/>
	</g>
	<g>
		<path class="st72" d="M532.5,306.5c2.4-0.2,4.7,0,7,0.5c0.8,0.7,1.1,1.5,1,2.5C537.9,308.1,535.3,307.1,532.5,306.5z"/>
	</g>
	<g>
		<path class="st73" d="M147.5,308.5c-4,0.5-8,1.2-12,2c-0.5,1.5-1.2,2.9-2,4c-0.2-2,0.1-3.8,1-5.5c3.9-0.3,7.7-0.8,11.5-1.5
			C146.8,307.6,147.3,307.9,147.5,308.5z"/>
	</g>
	<g>
		<path class="st74" d="M171.5,310.5c2.3,0.6,4.5,1.6,6.5,3c1.6,3.1,3.5,6.1,5.5,9c-1.8-1.9-3.9-3.3-6.5-4c0-1.3,0-2.7,0-4
			C174.8,313.5,173,312.2,171.5,310.5z"/>
	</g>
	<g>
		<path class="st75" d="M285.5,277.5c0.7,0.4,1.2,1.1,1.5,2c0.5,2.6,0.7,5.3,0.5,8c-1.5-0.3-2.8,0.1-4,1c0.9,1.3,1.1,2.6,0.5,4
			c-1.4-0.9-2.9-1.2-4.5-1c0,2.1,0.4,4.1,1,6c-0.6-0.1-1.1-0.4-1.5-1c-0.7-2-0.7-4,0-6c1-0.8,2.2-1.2,3.5-1c-0.3-1.5,0.1-2.8,1-4
			c2,1.4,3,0.7,3-2C286.2,281.5,285.8,279.5,285.5,277.5z"/>
	</g>
	<g>
		<path class="st76" d="M596.5,283.5c-2.1,0.8-4.5,1.3-7,1.5c-2.7,3.7-6.2,6.2-10.5,7.5c-1.4-0.2-2.2-0.9-2.5-2
			c1.2,0.9,2.6,1.1,4,0.5c3-2,5.6-4.3,8-7C591.1,283.5,593.8,283.3,596.5,283.5z"/>
	</g>
	<g>
		<path class="st77" d="M182.5,281.5c0,1.3,0,2.7,0,4c-10.1,0.6-17.3,5.3-21.5,14c2.4,1.9,4.3,4.3,5.5,7c-2.3,0-4.7,0-7,0
			c4.9-0.8,5.3-2.7,1-5.5c-3.4-0.1-6.4-0.9-9-2.5c2.7,0.3,5.3,0.7,8,1c4.2-9.4,11.5-14.4,22-15C181.3,283.2,181.6,282.2,182.5,281.5
			z"/>
	</g>
	<g>
		<path class="st78" d="M402.5,281.5c-0.9,4.6-1.2,9.3-1,14c-1.3,0.2-2.3-0.1-3-1c1.8-3.5,2.6-7.5,2.5-12
			C401.4,281.9,401.9,281.6,402.5,281.5z"/>
	</g>
	<g>
		<path class="st79" d="M515.5,286.5c0.2,4.5,2.5,7.2,7,8c-2.1-0.1-3.7,0.5-5,2c0.2-1.9-0.5-3.4-2-4.5c-3.7-0.5-7.3-0.7-11-0.5
			c3.5-0.9,7.2-1.6,11-2C515.5,288.5,515.5,287.5,515.5,286.5z"/>
	</g>
	<g>
		<path class="st80" d="M562.5,290.5c-0.2,2.4-1.5,3.4-4,3c-2.7-1.1-5.4-1.1-8,0c-1.7-0.9-3.6-1.6-5.5-2c-4.2,0.9-8.4,1.9-12.5,3
			c4.8-3.3,10.1-4.5,16-3.5c1.7,1.8,3.4,1.7,5-0.5C556.5,291.8,559.5,291.8,562.5,290.5z"/>
	</g>
	<g>
		<path class="st81" d="M244.5,293.5c1.8-1.1,3.8-1.3,6-0.5c2.5,2.9,3.9,6.4,4,10.5c0,0.9-0.4,1.6-1,2c-0.5-3-1-6-1.5-9
			C250.2,294,247.7,293,244.5,293.5z"/>
	</g>
	<g>
		<path class="st82" d="M342.5,286.5c1.5-0.3,2.8,0.1,4,1c-0.9,2.9-1.2,5.9-1,9c-1.8,0.1-3.4-0.2-5-1c-1.6,1-3.2,1.6-5,2
			c2.1-2.9,4.7-3.5,8-2C344.9,292.2,344.6,289.2,342.5,286.5z"/>
	</g>
	<g>
		<path class="st83" d="M235.5,287.5c1.8,1.5,2.4,3.5,2,6c2.3,0,4.7,0,7,0c-2.2,0.7-4.5,1.3-7,2c-3,3.5-6.3,6.5-10,9
			c-0.2-1.2,0.1-2.2,1-3c2.9-1.4,5.4-3.4,7.5-6C236.6,292.8,236.4,290.1,235.5,287.5z"/>
	</g>
	<g>
		<path class="st84" d="M632.5,297.5c-2.3,1.9-5,3.2-8,4C626.6,299.2,629.3,297.9,632.5,297.5z"/>
	</g>
	<g>
		<path class="st85" d="M426.5,295.5c-0.3,2.5-1.3,4.5-3,6C423.8,299,424.8,297,426.5,295.5z"/>
	</g>
	<g>
		<path class="st86" d="M306.5,296.5c-0.6,4-2.9,6.1-7,6.5c-5.7,4.8-10.3,10.3-14,16.5c1.4-4.4,3.5-8.4,6.5-12
			C296.8,303.6,301.6,299.9,306.5,296.5z"/>
	</g>
	<g>
		<path class="st87" d="M516.5,298.5c-0.4,2.7-1.4,5-3,7C513.6,302.7,514.6,300.3,516.5,298.5z"/>
	</g>
	<g>
		<path class="st88" d="M622.5,302.5c-0.1,0.6-0.4,1.1-1,1.5c-2,0.5-4,0.7-6,0.5c0.2,1.3-0.1,2.3-1,3c0-1.3,0-2.7,0-4
			C617.2,303.6,619.9,303.3,622.5,302.5z"/>
	</g>
	<g>
		<path class="st89" d="M266.5,311.5c-0.6-0.1-1.1-0.4-1.5-1c-0.5-2-0.7-4-0.5-6c-2.8,0.7-5.5,1.7-8,3c2.1-3,5.1-4.4,9-4
			C265.4,306.2,265.7,308.9,266.5,311.5z"/>
	</g>
	<g>
		<path class="st90" d="M227.5,304.5c-0.8,5-1.6,10-2.5,15c-0.4,0.6-0.9,0.9-1.5,1c1.2-1.8,1.2-3.7,0-5.5
			C225.3,311.6,226.7,308.1,227.5,304.5z"/>
	</g>
	<g>
		<path class="st91" d="M387.5,292.5c0.7,0,1,0.3,1,1c-4.3,4.1-8.8,8.1-13.5,12c-0.7,0.7-0.7,1.3,0,2c1.4,1.2,2.5,2.5,3.5,4
			c-2.3-1.1-4.4-2.4-6.5-4c-3.5,0.7-7,1.2-10.5,1.5c-4.4,2.8-5.1,6.3-2,10.5c-0.7,2.3-1.1,4.6-1,7c-1-2.5-1.1-5.2-0.5-8
			c-1.9-0.6-3.8-1.3-5.5-2c1.3,0,2.7,0,4,0c-0.7-3.8,0.7-6.6,4-8.5c4.1-0.2,8.1-0.9,12-2C377.7,301.6,382.7,297.1,387.5,292.5z"/>
	</g>
	<g>
		<path class="st92" d="M628.5,280.5c3.2,0.4,6.2,1,9,2C634.1,282.9,631.1,282.3,628.5,280.5z"/>
	</g>
	<g>
		<path class="st93" d="M408.5,281.5c2.8,2.5,6.1,3.7,10,3.5c2.2,3.1,4.9,5.6,8,7.5c-1.9-1-3.9-1.8-6-2.5c-2.3-2.8-5.3-4.1-9-4
			C409.9,284.9,408.9,283.4,408.5,281.5z"/>
	</g>
	<g>
		<path class="st94" d="M351.5,278.5c-3.5,1-7.1,1.7-11,2C343.8,278.8,347.5,278.1,351.5,278.5z"/>
	</g>
	<g>
		<path class="st95" d="M611.5,279.5c0,0.3,0,0.7,0,1c-2,0-4,0-6,0c-1.6,3.7-2.2,7.4-2,11c-0.1-1.7-0.5-3.4-1-5c0.7-1.3,1.3-2.7,2-4
			c-0.3-0.7-0.7-1.3-1-2c-1.6,0.8-3.2,1.1-5,1C602.4,279.6,606.7,278.9,611.5,279.5z"/>
	</g>
	<g>
		<path class="st96" d="M615.5,270.5c1.6,1,3,2.3,4,4c4.1,0.4,7.1,2.4,9,6c-2.3-1.3-4.7-2.6-7-4c-3.1,1.9-6.4,3.2-10,4
			c0-0.3,0-0.7,0-1c2.8-0.6,5.1-1.9,7-4C617,274.1,616,272.4,615.5,270.5z"/>
	</g>
	<g>
		<path class="st97" d="M388.5,279.5c1.9,1.3,3.9,2.3,6,3c-1.7,0.2-3.4,0-5-0.5C388.7,281.3,388.4,280.5,388.5,279.5z"/>
	</g>
	<g>
		<path class="st98" d="M191.5,257.5c-4.1,0.9-5.8,3.6-5,8c1,0,2,0,3,0c-1.4,1-3.1,1.3-5,1c0.3,5.3-0.4,10.3-2,15
			c0.3-8.6,1.8-16.9,4.5-25C188.4,257.4,189.9,257.7,191.5,257.5z"/>
	</g>
	<g>
		<path class="st99" d="M452.5,267.5c-2,4.8-5,5.8-9,3c1.7,0.2,3.4,0,5-0.5C449.5,268.5,450.8,267.7,452.5,267.5z"/>
	</g>
	<g>
		<path class="st100" d="M351.5,265.5c0.8,3,1.5,6.2,2,9.5c-0.3,1.5-1,2.6-2,3.5C351.5,274.2,351.5,269.8,351.5,265.5z"/>
	</g>
	<g>
		<path class="st101" d="M410.5,277.5c-1.2-0.2-2.2,0.1-3,1c0.6,0.9,1,1.9,1,3c-1.6-0.8-2.3-2.1-2-4c-1,0-2,0-3,0
			c0.3,1.6-0.1,2.9-1,4c0-1.7,0-3.3,0-5C405.4,276.2,408.1,276.5,410.5,277.5z"/>
	</g>
	<g>
		<path class="st102" d="M421.5,277.5c-3.9,0.3-7.6,0.3-11,0C414.3,276.3,418,276.3,421.5,277.5z"/>
	</g>
	<g>
		<path class="st103" d="M386.5,271.5c1.5,2.3,2.2,5,2,8C387.2,277.1,386.6,274.4,386.5,271.5z"/>
	</g>
	<g>
		<path class="st104" d="M552.5,266.5c-1.7,0.7-3.6,1.4-5.5,2c-0.5,6.3-3.5,10.9-9,14c-2.2-0.8-3.7-2.3-4.5-4.5
			c-4.7,0.4-9.4,0.3-14-0.5c0.1-1.8-0.2-3.5-1-5c1.6,0.3,2.6,1.3,3,3c4.3,0.8,8.6,1.3,13,1.5c0.6,1.8,1.8,2.9,3.5,3.5
			c3-1.7,5.3-4,7-7C544.1,267.5,546.6,265.2,552.5,266.5z"/>
	</g>
	<g>
		<path class="st105" d="M570.5,261.5c-1.8-0.2-3.7-0.6-5.5-1c-3.7,1.4-7.6,2.4-11.5,3c0.2,1.3-0.1,2.3-1,3c0-1.3,0-2.7,0-4
			c4.2-0.8,8.4-1.8,12.5-3C567.2,259.4,569.1,260.1,570.5,261.5z"/>
	</g>
	<g>
		<path class="st106" d="M291.5,258.5c2,3.2,2.4,6.5,1,10C292.4,265.1,292.1,261.8,291.5,258.5z"/>
	</g>
	<g>
		<path class="st107" d="M276.5,264.5c-0.3,1-1,1.6-2,2c-2.4-2.4-4.6-5.1-6.5-8c-0.7,0.8-1.5,1.1-2.5,1c0.8-1.8,2.1-2.3,4-1.5
			c1.6,1.8,2.9,3.8,4,6C274.4,264.5,275.4,264.6,276.5,264.5z"/>
	</g>
	<g>
		<path class="st108" d="M377.5,257.5c0,1.1-0.4,2.1-1,3c-6.8,1.7-13.1,1.1-19-2c3.9,1.1,7.9,1.8,12,2c2-0.3,4-0.7,6-1
			C375.9,258.5,376.5,257.8,377.5,257.5z"/>
	</g>
	<g>
		<path class="st109" d="M247.5,236.5c6.4-0.3,8.7,2.7,7,9c-0.7-1.9-1.3-3.9-2-6C250.6,238.7,248.9,237.7,247.5,236.5z"/>
	</g>
	<g>
		<path class="st110" d="M381.5,247.5c-0.8,1.1-1.8,1.2-3,0.5c-0.9-1-1.9-1.9-3-2.5c-1.4,3.3-1.1,6.3,1,9c-1,0.1-1.8-0.2-2.5-1
			c-0.3-3.4-0.8-6.7-1.5-10c0.2-2.4,1.6-3.4,4-3C376.2,244.2,377.9,246.6,381.5,247.5z"/>
	</g>
	<g>
		<path class="st111" d="M397.5,229.5c0,1.7,0,3.3,0,5c-1.3,0-2.7,0-4,0c0,2.7,0,5.3,0,8c-4.8-0.2-8.8,1.5-12,5
			c-0.2-1.3,0.2-2.5,1-3.5c3-2,6.3-2.8,10-2.5c0-2.7,0-5.3,0-8c1.3,0,2.7,0,4,0C396.2,231.9,396.6,230.6,397.5,229.5z"/>
	</g>
	<g>
		<path class="st112" d="M677.5,233.5c-1.4,1-3.1,1.3-5,1c0.2,2,0,4-0.5,6c-1.9,1.2-2.7,2.8-2.5,5c-1.4-2.3-0.9-4.3,1.5-6
			c0.5-2,0.7-4,0.5-6C673.5,233.5,675.5,233.5,677.5,233.5z"/>
	</g>
	<g>
		<path class="st113" d="M290.5,238.5c0.4,6.5,0.7,13.2,1,20c-1.2-2.5-2.2-5.1-3-8c-1.7,1.4-3.4,2.7-5,4c1.3-3.1,3.4-5.4,6.5-7
			C290.5,244.5,290.7,241.5,290.5,238.5z"/>
	</g>
	<g>
		<path class="st114" d="M159.5,241.5c-1.7-0.2-3.4,0-5,0.5c-2.3,2.9-5.3,4.2-9,4c-0.6,1-1.2,1.8-2,2.5c-0.2-1.3,0.2-2.5,1-3.5
			c2-0.3,4-0.7,6-1C152.9,240.6,155.9,239.8,159.5,241.5z"/>
	</g>
	<g>
		<path class="st115" d="M254.5,245.5c2.3,1.8,4.5,3.8,6.5,6c0.8,1.6,0.6,2.9-0.5,4c0.1-1.1,0-2.1-0.5-3
			C257.5,250.6,255.7,248.2,254.5,245.5z"/>
	</g>
	<g>
		<path class="st116" d="M430.5,224.5c0.7,1.5,1,3.1,1,5c0.2,2.5-0.5,4.7-2,6.5c1.4,1,2.9,1.9,4.5,2.5c0.7,3.3,0.7,6.7,0,10
			c-2.7,1.6-3.8,3.9-3.5,7c-1.5-3.2-0.7-5.9,2.5-8c0.7-2.7,0.7-5.3,0-8c-2.4-0.8-4.5-2-6.5-3.5c1.4-0.5,2.6-1.3,3.5-2.5
			C430.5,230.5,430.7,227.5,430.5,224.5z"/>
	</g>
	<g>
		<path class="st117" d="M357.5,249.5c-0.8,1.6-2.1,2.3-4,2c-0.4,3.5,0.9,5.8,4,7c-2.4,1.2-4.7,2.7-7,4.5c0.8,0.7,1.1,1.5,1,2.5
			c-1.2-0.4-1.9-1.2-2-2.5c1.7-1.4,3-3,4-5c-0.8-2.4-1.2-4.9-1-7.5C354.2,250.4,355.9,250,357.5,249.5z"/>
	</g>
	<g>
		<path class="st118" d="M669.5,245.5c0.8,4.9,1.1,9.9,1,15c-0.7,0-1.3,0-2,0C669.2,255.5,669.5,250.5,669.5,245.5z"/>
	</g>
	<g>
		<path class="st119" d="M143.5,248.5c0,1,0,2,0,3c-4,1.2-7,3.7-9,7.5c-0.9,0.5-1.9,0.6-3,0.5C134.9,255.1,138.9,251.5,143.5,248.5z
			"/>
	</g>
	<g>
		<path class="st120" d="M376.5,254.5c2.2,1,4.2,2.4,6,4c-1.6-0.5-3.3-0.9-5-1C377.4,256.4,377.1,255.4,376.5,254.5z"/>
	</g>
	<g>
		<path class="st121" d="M247.5,258.5c-2.8,0.9-5.5,0.9-8,0c0-1,0.5-1.7,1.5-2C242.9,258,245,258.7,247.5,258.5z"/>
	</g>
	<g>
		<path class="st122" d="M259.5,255.5c-1.3,1-2,2.3-2,4c2.7,0,5.3,0,8,0c-0.4,0.7-1.1,1.2-2,1.5c-4.8,0.5-8.8-1-12-4.5
			c1.2,0.2,2.4,0.5,3.5,1C256.3,256.3,257.8,255.6,259.5,255.5z"/>
	</g>
	<g>
		<path class="st123" d="M283.5,254.5c-1.4,4.1-3.7,7.4-7,10C278.4,260.8,280.7,257.4,283.5,254.5z"/>
	</g>
	<g>
		<path class="st124" d="M593.5,259.5c-0.6,1.4-1.8,2.1-3.5,2c-2.1-0.9-4.3-1.6-6.5-2c0.5,4.7-0.8,5.7-4,3c1,0,2,0,3,0
			c0-1.3,0-2.7,0-4c2.8-0.3,5.3,0.4,7.5,2C591.1,260,592.3,259.7,593.5,259.5z"/>
	</g>
	<g>
		<path class="st125" d="M637.5,230.5c-1.3,7.4-3.8,14.4-7.5,21c-4.2,1.5-8.6,2.9-13,4c-1.1-0.1-2.1-0.4-3-1c-1,3.4-3.4,5.4-7,6
			c-0.2,1.3,0,2.7,0.5,4c-1.3-1-2.6-2-4-3c-3.2,3.1-5.5,2.6-7-1.5c-0.9-0.5-1.9-0.6-3-0.5c1.1-1.1,2.4-1.3,4-0.5
			c0.5,1.2,1.3,2,2.5,2.5c4-1,7.9-2.5,11.5-4.5c0.6-1.5,1.3-3,2-4.5c1,0.9,2.2,1.6,3.5,2c3.5-2.2,7.4-3.3,11.5-3.5
			c1.4-2.6,2.9-5.1,4.5-7.5c0.6-1.4,0.4-2.8-0.5-4c0.7,0,1-0.3,1-1c0.8-2.1,1.3-4.5,1.5-7C635.7,230.7,636.5,230.4,637.5,230.5z"/>
	</g>
	<g>
		<path class="st126" d="M609.5,230.5c0,1,0,2,0,3c1.7-0.1,3.4-0.5,5-1c-1.1,2.8-3.1,4.4-6,5C608.6,235.1,609,232.8,609.5,230.5z"/>
	</g>
	<g>
		<path class="st127" d="M545.5,228.5c-0.4,1.9-1.4,3.4-3,4.5c-6,2-12,3.2-18,3.5c1.1-1.1,2.4-1.9,4-2.5
			C534.9,234.5,540.6,232.7,545.5,228.5z"/>
	</g>
	<g>
		<path class="st128" d="M232.5,232.5c0.2,5.1-2.1,8.1-7,9c1.3-1.4,2.8-2.8,4.5-4c0.5-0.9,0.6-1.9,0.5-3c-2.5,0.3-4.6,1.3-6.5,3
			c-0.8-0.1-1.3-0.4-1.5-1C225.4,234.3,228.8,233,232.5,232.5z"/>
	</g>
	<g>
		<path class="st129" d="M515.5,235.5c1.9,0.4,3.4,1.4,4.5,3c1.1-1.5,2.6-2.2,4.5-2c-2.7,1.9-4.7,4.2-6,7c0.9-1.2,1.1-2.6,0.5-4
			C517.6,238.3,516.5,237,515.5,235.5z"/>
	</g>
	<g>
		<path class="st130" d="M633.5,238.5c0,0.7-0.3,1-1,1c-2.1-1.6-3.8-3.6-5-6c-4.4-1.6-8.7-1.9-13-1c1.6-0.9,3.5-1.5,5.5-2
			c2,1.3,4,1.3,6,0C628.7,233,631.2,235.7,633.5,238.5z"/>
	</g>
	<g>
		<path class="st131" d="M571.5,235.5c1.6,1.3,3.3,2.6,5,4c2.8-1.3,5.5-1.3,8,0c-3.4,0.3-6.7,0.5-10,0.5
			C572.9,238.9,571.9,237.4,571.5,235.5z"/>
	</g>
	<g>
		<path class="st132" d="M411.5,234.5c1.9,3.8,0.7,6.5-3.5,8c-1-0.3-1.5-1-1.5-2C410.3,240.3,412,238.3,411.5,234.5z"/>
	</g>
	<g>
		<path class="st133" d="M169.5,236.5c-2.4,2.4-4.4,5.1-6,8c-1.8-0.5-3.1-1.5-4-3c1.6,0.5,3.3,0.9,5,1
			C164.7,239.3,166.4,237.3,169.5,236.5z"/>
	</g>
	<g>
		<path class="st134" d="M222.5,236.5c-2.8,0.9-4.8,2.8-6,5.5c-1.3,0.5-2.6,0.7-4,0.5c0-1,0-2,0-3c0.7,0.6,1.3,1.3,2,2
			c1.5-1.9,3.2-3.7,5-5.5C220.7,235.3,221.7,235.4,222.5,236.5z"/>
	</g>
	<g>
		<path class="st135" d="M640.5,221.5c-1.3,3-2.3,6-3,9c-0.2-2.4,0-4.7,0.5-7C638.7,222.6,639.5,222,640.5,221.5z"/>
	</g>
	<g>
		<path class="st136" d="M183.5,222.5c1.9,1.3,3.9,2.3,6,3c-4.2,1.8-8.5,3.5-13,5c-0.1-1,0.2-1.8,1-2.5
			C181.9,228.6,183.9,226.8,183.5,222.5z"/>
	</g>
	<g>
		<path class="st137" d="M189.5,228.5c3.8-0.2,7.2,0.8,10,3C196,230.8,192.6,229.8,189.5,228.5z"/>
	</g>
	<g>
		<path class="st138" d="M243.5,224.5c3,2.1,3.7,4.8,2,8C245.7,229.5,245,226.9,243.5,224.5z"/>
	</g>
	<g>
		<path class="st139" d="M229.5,184.5c1,0.5,1.8,1.1,2.5,2c0.3,3,1.2,5.8,2.5,8.5c2.7,0.2,5.4-0.3,8-1.5c2.4,1.4,4.1,3.4,5,6
			c-9.3-6.7-12.3-4.4-9,7c-1.9-2.5-2.6-5.5-2-9c-1.2,0.2-2.2-0.1-3-1c-1.1-3.1-2.1-6.1-3-9C229.9,186.6,229.6,185.6,229.5,184.5z"/>
	</g>
	<g>
		<path class="st140" d="M387.5,193.5c-2.5,0.3-4.7,1.3-6.5,3c-2.7,1.1-5.2,1.1-7.5,0c4.2-0.7,8.2-2.1,12-4
			C386.4,192.5,387.1,192.9,387.5,193.5z"/>
	</g>
	<g>
		<path class="st141" d="M468.5,193.5c-4.1,0.1-7.5,1.9-10,5.5c-1.2,0.7-2.2,0.6-3-0.5c2.4-0.9,4.4-2.4,6-4.5
			C463.8,193.5,466.1,193.3,468.5,193.5z"/>
	</g>
	<g>
		<path class="st142" d="M169.5,199.5c-1.3,2.3-3.3,3.7-6,4C165.1,201.7,167.1,200.3,169.5,199.5z"/>
	</g>
	<g>
		<path class="st143" d="M550.5,193.5c1-0.1,1.8,0.2,2.5,1c0.5,1.6,0.7,3.3,0.5,5c1.3,0,2.7,0,4,0c-1.4,1-3.1,1.3-5,1
			c-0.6,5.6-1,11.3-1,17c-1.2-6.6-0.9-13.2,1-20C552.2,195.9,551.6,194.6,550.5,193.5z"/>
	</g>
	<g>
		<path class="st144" d="M342.5,200.5c4.7,0.7,7.7,3.4,9,8C348.9,205.2,345.9,202.6,342.5,200.5z"/>
	</g>
	<g>
		<path class="st145" d="M157.5,200.5c1.6,1.9,3.6,2.9,6,3C160.3,205.2,158.3,204.2,157.5,200.5z"/>
	</g>
	<g>
		<path class="st146" d="M411.5,201.5c0.4,5.5,0.4,11.1,0,17C410.4,213,410.4,207.3,411.5,201.5z"/>
	</g>
	<g>
		<path class="st147" d="M431.5,212.5c-2.4,0.3-4.1-0.7-5-3c-2.2,0.6-4.2,1.6-6,3c-0.1-1,0.2-1.8,1-2.5c1.6-0.6,3.3-1.1,5-1.5
			C428.2,209.9,429.9,211.2,431.5,212.5z"/>
	</g>
	<g>
		<path class="st148" d="M442.5,203.5c-0.8,2.9-1.1,5.9-1,9c-3.5,0.7-6.8,0.7-10,0c3-0.5,6-0.8,9-1c-0.2-2.4,0-4.7,0.5-7
			C441.4,203.9,441.9,203.6,442.5,203.5z"/>
	</g>
	<g>
		<path class="st149" d="M504.5,215.5c0.6-2.8,1.6-5.5,3-8c-0.3-0.7-0.7-1.3-1-2c-1.8,1.2-3.5,1.2-5,0c2.3-0.5,4.6-0.8,7-1
			C509,209,507.7,212.6,504.5,215.5z"/>
	</g>
	<g>
		<path class="st150" d="M238.5,213.5c3.1,2.9,4.7,6.6,5,11C241.8,220.9,240.1,217.3,238.5,213.5z"/>
	</g>
	<g>
		<path class="st151" d="M607.5,208.5c1.5,2.8,2.6,5.8,3.5,9c1.4,1.3,2.9,2.3,4.5,3c-2.2,0.3-4.1-0.3-5.5-2
			C608.7,215.3,607.9,211.9,607.5,208.5z"/>
	</g>
	<g>
		<path class="st152" d="M651.5,218.5c7.5-0.2,15.2-0.5,23-1c-1.6,1.6-2.2,3.6-2,6c-0.9-1.1-1.3-2.4-1-4
			C664.8,219.3,658.2,219,651.5,218.5z"/>
	</g>
	<g>
		<path class="st153" d="M360.5,217.5c1.3,0.8,2.3,2,3,3.5c-3.8,2.2-3.8,4.1,0,5.5c-1.3,0-2.7,0-4,0c-0.3-2.3,0.4-4.3,2-6
			C360.9,219.6,360.5,218.6,360.5,217.5z"/>
	</g>
	<g>
		<path class="st154" d="M416.5,217.5c0,2.6,1,4.6,3,6c-4.3-2-6.7-0.7-7,4c-0.2-1.7,0-3.4,0.5-5c1.9-0.8,2.6-2.1,2-4
			c-1.3,1.3-2.5,1.3-3.5,0C413.1,218,414.8,217.6,416.5,217.5z"/>
	</g>
	<g>
		<path class="st155" d="M286.5,216.5c-0.2,4.7,0,9.3,0.5,14c1.4,1.9,2.6,3.9,3.5,6c-2-1.2-3.5-2.8-4.5-5
			C285.2,226.3,285.4,221.3,286.5,216.5z"/>
	</g>
	<g>
		<path class="st156" d="M566.5,186.5c0.9,1.7,1.5,3.6,2,5.5c-0.2,1.4-0.9,2.2-2,2.5C566.8,191.7,566.8,189,566.5,186.5z"/>
	</g>
	<g>
		<path class="st157" d="M387.5,193.5c4.3-0.2,8.7,0,13,0.5c0.9,0.7,1.5,1.5,2,2.5C397.6,195,392.6,194,387.5,193.5z"/>
	</g>
	<g>
		<path class="st158" d="M533.5,188.5c0.1,0.7,0,1.4-0.5,2c-2.6,2-5.1,4.2-7.5,6.5c-2.2,0.9-3.8,0.4-5-1.5c1.3,0.5,2.7,0.7,4,0.5
			C527.5,193.5,530.5,191,533.5,188.5z"/>
	</g>
	<g>
		<path class="st159" d="M177.5,196.5c-1.6-0.5-3.3-0.9-5-1c0,1.3,0,2.7,0,4c-1,0-2,0-3,0c1.5-1.3,2.1-2.9,2-5
			C174,194.1,176,194.7,177.5,196.5z"/>
	</g>
	<g>
		<path class="st160" d="M333.5,183.5c-1.2,5.8,1.2,8.5,7,8c0,2.3,0,4.7,0,7c-1-1.8-1.3-3.8-1-6
			C332.8,192.6,330.8,189.6,333.5,183.5z"/>
	</g>
	<g>
		<path class="st161" d="M601.5,185.5c1,0,2,0,3,0c-1.1,6.3-1.3,12.6-0.5,19c2.1,0.6,3.2,1.9,3.5,4c-1.4-1.1-2.9-2.1-4.5-3
			C602.8,198.8,602.3,192.1,601.5,185.5z"/>
	</g>
	<g>
		<path class="st162" d="M156.5,194.5c-2.4,0.4-4.8,1-7,2C151.4,193.8,153.7,193.1,156.5,194.5z"/>
	</g>
	<g>
		<path class="st163" d="M189.5,197.5c0,1.3,0,2.7,0,4c-0.7-1.4-1.4-2.9-2-4.5c-3.5,0.2-6.8,0.1-10-0.5c2.5-0.2,5-0.6,7.5-1
			C187,195.3,188.5,196,189.5,197.5z"/>
	</g>
	<g>
		<path class="st164" d="M354.5,186.5c-1-1.8-1.3-3.8-1-6c-3.1-0.2-6.1,0.1-9,1c2.5-2,5.5-2.8,9-2.5
			C354.4,181.4,354.8,183.9,354.5,186.5z"/>
	</g>
	<g>
		<path class="st165" d="M544.5,179.5c-5.8,0.4-9.4,3.4-11,9c-0.2-1.7,0-3.4,0.5-5c1.4-1.2,2.5-2.5,3.5-4
			C540,178.2,542.3,178.2,544.5,179.5z"/>
	</g>
	<g>
		<path class="st166" d="M616.5,176.5c-3.5,1.3-6.8,3.1-10,5.5c-0.6,1.3-1.3,2.5-2,3.5c-0.2-1.4,0-2.7,0.5-4
			C608.1,178.3,612,176.6,616.5,176.5z"/>
	</g>
	<g>
		<path class="st167" d="M331.5,162.5c1.3,0.6,2.1,1.6,2.5,3c0.2,5.7,0.7,11.4,1.5,17c3.3,1.5,6.3,1.2,9-1c0,1.5-0.7,2.7-2,3.5
			c-3.1,0.3-6.1-0.2-9-1.5c0-1.7,0-3.3,0-5c-1.3,0-2.7,0-4,0c0-1.3,0-2.7,0-4c-1.3,0-2.7,0-4,0c1.4-1,3.1-1.3,5-1c0,1.3,0,2.7,0,4
			c1,0,2,0,3,0C333.9,172.3,333.2,167.3,331.5,162.5z"/>
	</g>
	<g>
		<path class="st168" d="M509.5,180.5c-4.1,1.2-7.8,3.2-11,6c2-2.5,4.3-4.6,7-6.5C507.1,179.2,508.4,179.4,509.5,180.5z"/>
	</g>
	<g>
		<path class="st169" d="M460.5,182.5c2.6,0.9,4.6,2.6,6,5C463.9,186.6,461.9,184.9,460.5,182.5z"/>
	</g>
	<g>
		<path class="st170" d="M483.5,176.5c-2.1,1.4-3.8,3.2-5,5.5c1.9,2.4,3.5,4.9,5,7.5c-1.6-1.3-3.3-2.6-5-4c-1.4,1.4-2.4,3.1-3,5
			c-0.3-2.7,0.3-5,2-7c-0.9-1.3-1.1-2.6-0.5-4C479,178.1,481.2,177.1,483.5,176.5z"/>
	</g>
	<g>
		<path class="st171" d="M509.5,180.5c2.6,1,4.9,2.5,7,4.5c1.6,0.5,3.3,0.7,5,0.5c-0.7,3.3-1,6.6-1,10c-1-2.8-1.3-5.8-1-9
			C515.4,185.8,512.1,183.8,509.5,180.5z"/>
	</g>
	<g>
		<path class="st172" d="M370.5,189.5c-3.6-3.4-7.4-3.8-11.5-1c-1.7-0.4-3.2-1.1-4.5-2c4.7-0.7,9.3-0.8,14-0.5
			C369.8,186.8,370.5,188,370.5,189.5z"/>
	</g>
	<g>
		<path class="st173" d="M498.5,186.5c-1.6,3.6-4.3,6-8,7c-0.5-2.1-1.4-4.1-2.5-6c-0.8,1.2-1.8,2.2-3,3c-0.8-0.1-1.3-0.4-1.5-1
			c1.5-0.9,3-1.9,4.5-3c1.8,1.6,3.2,3.6,4,6C493.7,189.9,495.9,187.9,498.5,186.5z"/>
	</g>
	<g>
		<path class="st174" d="M544.5,179.5c2.2,0.7,4,2,5.5,4c-0.5,3.4-0.3,6.7,0.5,10c-2.3-2.3-2.6-4.9-1-8
			C547.8,183.5,546.1,181.5,544.5,179.5z"/>
	</g>
	<g>
		<path class="st175" d="M273.5,185.5c0,1,0,2,0,3c-3.4,0.2-6.7,0.7-10,1.5c-3.4,3.5-6.1,7.5-8,12c-2,0.7-4,0.7-6,0
			c-0.8-0.7-1.1-1.5-1-2.5c1.7,1.7,3.7,2.2,6,1.5c1.9-4.5,4.6-8.5,8-12C266.4,188.3,270.1,187.1,273.5,185.5z"/>
	</g>
	<g>
		<path class="st176" d="M233.5,148.5c2,0.5,4,1,6,1.5c0.8,0.7,1.1,1.5,1,2.5c-1-0.6-2-1.3-3-2C235.4,151.8,234.1,151.1,233.5,148.5
			z"/>
	</g>
	<g>
		<path class="st177" d="M294.5,146.5c-0.5,2.4-1.2,4.7-2,7c2.1,2.2,3.1,4.9,3,8c3.1,0.5,5.5,2.1,7,5c-2.4-1.8-5.1-3.1-8-4
			c0-3.6-1.3-6.6-4-9C291.5,150.8,292.8,148.5,294.5,146.5z"/>
	</g>
	<g>
		<path class="st178" d="M445.5,155.5c-1-0.6-2-1.3-3-2c-3.6,0.9-7.3,1.3-11,1c3.5-0.8,7.2-1.5,11-2
			C444.5,152.5,445.5,153.5,445.5,155.5z"/>
	</g>
	<g>
		<path class="st179" d="M277.5,146.5c0,1.1-0.4,2.1-1,3c1.8,3.4,2.5,7,2,11c-0.8-2.5-1.3-5.1-1.5-8c-1.4-0.7-2.9-1.2-4.5-1.5
			c-0.8-0.7-1.1-1.5-1-2.5c1,0.6,2,1.3,3,2C275.1,148.8,276.1,147.5,277.5,146.5z"/>
	</g>
	<g>
		<path class="st180" d="M408.5,140.5c1,0,2,0,3,0c-1.4,3.4-2.1,7.1-2,11c1.1,0.1,2.1,0,3-0.5c1.7-3.8,4.7-5.5,9-5
			c2-2.5,4.4-3,7-1.5c-4.4,1.8-8.9,3.5-13.5,5c-0.4,0.9-0.9,1.8-1.5,2.5c3,0.5,6,0.7,9,0.5c0.1,1.1,0,2.1-0.5,3
			c-4.2,1.9-6.3,4.9-6.5,9c-1,0-1.7-0.5-2-1.5c1.2-2.2,2.5-4.4,4-6.5c-2.8-2.1-5.9-3.5-9.5-4c-1-3.8-0.1-7.1,2.5-10
			C409.8,141.8,409.1,141.2,408.5,140.5z"/>
	</g>
	<g>
		<path class="st181" d="M568.5,155.5c1,0,2,0,3,0c0.1,1.8-0.2,3.4-1,5c0.7,1.9,1.2,3.9,1.5,6c2.1,0.7,4.3,0.8,6.5,0.5
			c3.2,1.1,5.2,3.3,6,6.5c-0.3,0-0.7,0-1,0c-0.8-2.3-2.5-3.8-5-4.5c-2.6-0.2-5.1-0.7-7.5-1.5c-0.2-2.6-1-5-2.5-7c0.7-1,1.3-2,2-3
			C569.8,156.8,569.1,156.2,568.5,155.5z"/>
	</g>
	<g>
		<path class="st182" d="M444.5,160.5c-1.3,2.3-1.3,4.7,0,7c-1.4-0.6-2.1-1.8-2-3.5C442.4,162.3,443.1,161.1,444.5,160.5z"/>
	</g>
	<g>
		<path class="st183" d="M157.5,154.5c-0.5,5.8-1.1,11.5-2,17c-0.2-4.7,0-9.3,0.5-14C156.2,156.3,156.7,155.3,157.5,154.5z"/>
	</g>
	<g>
		<path class="st184" d="M448.5,169.5c2.2,0.6,3.9,1.9,5,4C451.3,172.9,449.6,171.6,448.5,169.5z"/>
	</g>
	<g>
		<path class="st185" d="M379.5,145.5c1.2,0.7,1.9,1.8,2,3.5c-0.4,4.3-1.2,8.5-2.5,12.5c-0.7,3-0.7,6,0,9c1,0.5,2.2,0.6,3.5,0.5
			c2.3,2.9,5.3,4.2,9,4c2.5,3.8,5.9,4.9,10,3.5c-0.7,1.2-1.1,2.5-1,4c-3.7-1.4-7.1-3.5-10-6.5c-2-0.3-4-0.7-6-1
			c-1.8-1.8-4-3-6.5-3.5c-0.3-2.9-0.8-5.7-1.5-8.5C379.6,157.5,380.6,151.7,379.5,145.5z"/>
	</g>
	<g>
		<path class="st186" d="M415.5,169.5c0,1.3,0,2.7,0,4c-2-0.2-4,0-6,0.5c-1.2,1.9-2.8,2.7-5,2.5c2.4-3.4,5.7-4.8,10-4
			C414.3,171.2,414.6,170.2,415.5,169.5z"/>
	</g>
	<g>
		<path class="st187" d="M588.5,174.5c6.1-0.6,9.8,2.4,11,9c-1.7-3.2-4-6-7-8.5C591.2,174.5,589.9,174.3,588.5,174.5z"/>
	</g>
	<g>
		<path class="st188" d="M583.5,173.5c0.3,0,0.7,0,1,0c1.1,0.9,2.4,1.3,4,1c-3.1,1.3-6.4,2-10,2c0.2,1.3-0.2,2.5-1,3.5
			c-2.2,1.2-4.5,1.7-7,1.5c1.9-0.8,3.9-1.7,6-2.5c0.8-1,1.2-2.2,1-3.5C580,175.9,582,175.3,583.5,173.5z"/>
	</g>
	<g>
		<path class="st189" d="M404.5,108.5c-1.2,2.2-2.2,4.5-3,7c0.5,1.6,0.9,3.3,1,5C399.5,115.9,400.1,111.9,404.5,108.5z"/>
	</g>
	<g>
		<path class="st190" d="M308.5,113.5c2.1,1,3.3,2.6,3.5,5c0.5,3,0.7,6,0.5,9C312,122.7,310.6,118,308.5,113.5z"/>
	</g>
	<g>
		<path class="st191" d="M475.5,115.5c-0.4,2.4-1.8,4.2-4,5.5c-4,1.7-7.7,3.8-11,6.5c0-1.5,0.7-2.7,2-3.5
			C467.5,122.2,471.9,119.3,475.5,115.5z"/>
	</g>
	<g>
		<path class="st192" d="M402.5,120.5c2.4,4.6,3.4,9.6,3,15C404.4,130.6,403.4,125.7,402.5,120.5z"/>
	</g>
	<g>
		<path class="st193" d="M423.5,126.5c-1.4,1.3-2.9,1.3-4.5,0c-0.8,1.3-2,2-3.5,2C417.4,125.2,420.1,124.5,423.5,126.5z"/>
	</g>
	<g>
		<path class="st194" d="M460.5,127.5c-1.9,1.7-4.3,2.3-7,2c0.2,1.3-0.2,2.5-1,3.5c-2.2,0.4-4.2-0.1-6-1.5c-1.7,1.5-3.7,2.5-6,3
			c2.8-4.2,6.3-4.9,10.5-2c1.2-1.1,1.7-2.4,1.5-4C455.2,128.4,457.9,128.1,460.5,127.5z"/>
	</g>
	<g>
		<path class="st195" d="M355.5,132.5c2.9,2.6,5.9,4.9,9,7c-2-0.7-4-1.3-6-2c-3.4,3.1-5.8,2.4-7-2
			C355.6,138.4,356.9,137.4,355.5,132.5z"/>
	</g>
	<g>
		<path class="st196" d="M440.5,134.5c-0.8,0.9-1.8,1.6-3,2c-0.7,2.5-1.4,5-2,7.5c-1.7,0.8-3.3,1.7-5,2.5c-1-0.4-1.7-1-2-2
			c6.1,0.2,8.7-2.8,8-9C437.7,134.8,439.1,134.4,440.5,134.5z"/>
	</g>
	<g>
		<path class="st197" d="M226.5,134.5c1.5,3.8,2.3,7.8,2.5,12c1.6,0.6,3.1,1.3,4.5,2c-2.5,0.4-4.5-0.2-6-2c0.3-3.6-0.3-6.9-2-10
			C225.5,135.6,225.9,134.9,226.5,134.5z"/>
	</g>
	<g>
		<path class="st198" d="M348.5,136.5c-0.9,1-1.5,2.2-2,3.5c3.8,6.3,2.2,10.3-5,12c-1.3,1.7-2.7,3.3-4,5c-4.4-0.6-6.4,1.2-6,5.5
			c-2.4-1.6-2.4-3.4,0-5.5c4.3,0,7.3-2,9-6c7.1-1.3,8.7-5,5-11C345.3,137.7,346.3,136.6,348.5,136.5z"/>
	</g>
	<g>
		<path class="st199" d="M312.5,131.5c0.3,2.9-0.1,5.8-1,8.5c-3.7,0.3-7.3,0.7-11,1c-1.9,2-3.9,3.9-6,5.5c1-2.6,2.7-4.7,5-6.5
			c3.7-0.3,7.3-0.7,11-1C311.1,136.4,311.8,133.9,312.5,131.5z"/>
	</g>
	<g>
		<path class="st200" d="M274.5,128.5c2.4,4.7,3.7,9.9,4,15.5c-0.1,0.8-0.4,1.3-1,1.5c-0.2-1.5-0.9-2.9-2-4c0.5-1.3,0.9-2.6,1-4
			C275.1,134.7,274.4,131.7,274.5,128.5z"/>
	</g>
	<g>
		<path class="st201" d="M364.5,139.5c3.6,0.2,6.3,1.9,8,5c1.5,1,3.2,1.3,5,1c-1.3,1.6-3,2.1-5,1.5
			C370.4,143.8,367.7,141.3,364.5,139.5z"/>
	</g>
	<g>
		<path class="st202" d="M252.5,130.5c0.6,0.4,1,1.1,1,2c-2.1,3.1-3.2,6.4-3.5,10c0.8,1,1.7,2,2.5,3c1.1-1.3,2.5-2.3,4-3
			c1.5,0,2.5,0.6,3,2c-1.1,0-2.1-0.4-3-1c-1.6,2.1-3.6,3.8-6,5c0-2.7-0.6-5.2-2-7.5C249.6,137.3,250.9,133.8,252.5,130.5z"/>
	</g>
	<g>
		<path class="st203" d="M482.5,136.5c1.3,2.3,2.3,4.8,3,7.5c-1.2,2.7-3.2,4.5-6,5.5c-0.3,1-0.7,2-1,3c3.5,4.7,6.1,9.9,8,15.5
			c-1.4,2.8-2.4,5.6-3,8.5c-0.5-3.2,0.2-6,2-8.5c-2.4-1.9-3.6-4.4-3.5-7.5c-4.4-3-5.5-7-3.5-12c5.3-2.2,6.3-5.7,3-10.5
			C481.6,137.2,481.9,136.7,482.5,136.5z"/>
	</g>
	<g>
		<path class="st204" d="M549.5,143.5c3.8,0.4,7.4,1.2,11,2.5c0.8,1.5,1.4,3,2,4.5c-1.5-0.6-2.5-1.8-3-3.5
			C555.9,146.1,552.6,145,549.5,143.5z"/>
	</g>
	<g>
		<path class="st205" d="M226.5,146.5c-2,2.2-3.7,4.7-5,7.5c-2,0.5-4,1-6,1.5c1.2-1.6,2.8-2.4,5-2.5
			C221.5,149.8,223.5,147.6,226.5,146.5z"/>
	</g>
	<g>
		<path class="st206" d="M251.5,102.5c-0.1,2.7-0.4,5.4-1,8c1,2.7,2,5.3,3,8c0.1,2-0.6,3.6-2,5c2.2,2.1,2.6,4.4,1,7
			c-1.3-1-1.3-2.2,0-3.5c-1.2-1-2.2-2.2-3-3.5c1.4-1.4,2.4-3.1,3-5c-2.9-4.5-3.7-9.5-2.5-15C250.4,102.9,250.9,102.6,251.5,102.5z"
			/>
	</g>
	<g>
		<path class="st207" d="M259.5,71.5c0.2,2.7,0,5.4-0.5,8c-2,2.2-4.2,4.2-6.5,6c1.2-2.7,3-5.1,5.5-7c0.7-1.7,0.5-3.4-0.5-5
			C257.9,72.5,258.5,71.8,259.5,71.5z"/>
	</g>
	<g>
		<path class="st208" d="M391.5,79.5c2.7,2.7,5.3,2.7,8,0c-0.5,2.6-2.2,3.6-5,3c0,1,0,2,0,3C393,83.8,392,81.8,391.5,79.5z"/>
	</g>
	<g>
		<path class="st209" d="M281.5,81.5c0,1,0,2,0,3c-2.3,0-4.7,0-7,0C277,83.9,279.3,82.9,281.5,81.5z"/>
	</g>
	<g>
		<path class="st210" d="M438.5,74.5c1.5,0.8,2.3,2.2,2.5,4c0.8,5.2,0.6,10.2-0.5,15C440.7,87.1,440,80.7,438.5,74.5z"/>
	</g>
	<g>
		<path class="st211" d="M252.5,85.5c0.2,1.2-0.1,2.2-1,3c-1.8-0.5-3.5-1.2-5-2C248.6,86.7,250.6,86.3,252.5,85.5z"/>
	</g>
	<g>
		<path class="st212" d="M273.5,85.5c0.2,1.6-0.3,2.9-1.5,4c-1.4-1.5-3-2.5-5-3c-2.8,0.8-5.6,1.2-8.5,1c2.8-1,5.8-1.6,9-2
			c1.9-0.1,3.4,0.6,4.5,2C272.3,86.6,272.8,85.9,273.5,85.5z"/>
	</g>
	<g>
		<path class="st213" d="M258.5,87.5c-0.2,2.2-0.9,4.2-2,6c-1.1-0.8-1.2-1.8-0.5-3C256.9,89.4,257.7,88.4,258.5,87.5z"/>
	</g>
	<g>
		<path class="st214" d="M178.5,87.5c1.1-1.1,2.4-1.3,4-0.5c1.5,7.1,3.2,7.2,5,0.5c0.2,1.7,0,3.4-0.5,5c-1.3,1.3-2.7,1.3-4,0
			C183.3,89.1,181.8,87.4,178.5,87.5z"/>
	</g>
	<g>
		<path class="st215" d="M466.5,88.5c1,1.4,1.7,3.1,2,5c-1.3,2.3-2.6,4.6-4,7c2.6,0.8,5.3,1.3,8,1.5c0.6,0.4,0.9,0.9,1,1.5
			c-3.3-0.8-6.6-1.2-10-1C465.5,98.1,466.5,93.4,466.5,88.5z"/>
	</g>
	<g>
		<path class="st216" d="M224.5,124.5c-1.6-1.1-3.1-2.5-4.5-4c-3-7.2-5.6-14.5-8-22c-4.7-3.6-9.9-4.6-15.5-3
			c5.8-2.9,11.3-2.2,16.5,2c2.4,7.5,5,14.8,8,22C222.8,120.8,224,122.5,224.5,124.5z"/>
	</g>
	<g>
		<path class="st217" d="M260.5,97.5c1.1,0.8,1.2,1.8,0.5,3c-2.6,3.2-5.8,3.8-9.5,2c1.8-0.6,3.8-0.8,6-0.5
			C259.1,100.9,260.1,99.4,260.5,97.5z"/>
	</g>
	<g>
		<path class="st218" d="M441.5,100.5c1.4,2,2.1,4.3,2,7C442.1,105.5,441.4,103.2,441.5,100.5z"/>
	</g>
	<g>
		<path class="st219" d="M288.5,103.5c-1,0-2,0-3,0c1.3,5.3-0.7,8-6,8c1.6-0.7,3.1-1.7,4.5-3c0.2-2.3,0.7-4.4,1.5-6.5
			C287,101.4,288,101.9,288.5,103.5z"/>
	</g>
	<g>
		<path class="st220" d="M399.5,106.5c-1.5,0.8-3.1,1.3-5,1.5c-2,2.9-4.7,4.7-8,5.5c0.8-1.5,1.1-3.2,1-5c0.7,0.6,1.3,1.3,2,2
			c1.5-1,2.8-2.1,4-3.5C395.5,106.5,397.5,106.3,399.5,106.5z"/>
	</g>
	<g>
		<path class="st221" d="M473.5,103.5c3.7,2.7,7.3,5.3,11,8c-0.5,1.5-1.2,2.8-2,4c-0.4-4.8-2.4-5.8-6-3c0-1.5,0.7-2.7,2-3.5
			C476.6,107.3,475,105.5,473.5,103.5z"/>
	</g>
	<g>
		<path class="st222" d="M443.5,111.5c-3.8,0.8-7.8,1.3-12,1.5c0.6,0.4,0.9,0.9,1,1.5c-1.5-0.3-2.2-1.3-2-3
			C434.8,111.5,439.2,111.5,443.5,111.5z"/>
	</g>
	<g>
		<path class="st223" d="M302.5,25.5c1.6,2.9,1.1,5.6-1.5,8c-0.5,2.3-0.7,4.6-0.5,7c-0.3,0-0.7,0-1,0c-0.2-2.7,0-5.4,0.5-8
			C302.1,30.7,303,28.3,302.5,25.5z"/>
	</g>
	<g>
		<path class="st224" d="M395.5,36.5c-0.2,2.2-0.9,4.2-2,6c-1.1-0.8-1.2-1.8-0.5-3C393.9,38.4,394.7,37.4,395.5,36.5z"/>
	</g>
	<g>
		<path class="st225" d="M393.5,42.5c0.9,1.8,1.9,3.6,3,5.5c2.4,0.6,4.4,1.8,6,3.5c-2.8-1.1-5.6-2.1-8.5-3
			C393.5,46.5,393.3,44.5,393.5,42.5z"/>
	</g>
	<g>
		<path class="st226" d="M444.5,49.5c1.1,2.5,1.3,5.1,0.5,8c-1,0.7-2,1.3-3,2c-0.2,2.2-0.7,4.2-1.5,6c-0.2-2.4,0-4.7,0.5-7
			c1-0.7,2-1.3,3-2C444.5,54.2,444.7,51.9,444.5,49.5z"/>
	</g>
	<g>
		<path class="st227" d="M263.5,61.5c-7-1-8.4,1-4,6c-3.5-0.6-4.6-2.6-3.5-6C258.6,60.2,261.1,60.2,263.5,61.5z"/>
	</g>
	<g>
		<path class="st228" d="M360.5,61.5c0.7,0.9,1.3,1.9,2,3c4-1.8,6.6-0.7,8,3.5c3.7-0.3,6,1.2,7,4.5c-2-1.5-4.3-2.3-7-2.5
			c-1.1-2.3-2.8-4.2-5-5.5c-1.8,1.2-3.8,1.9-6,2C360.3,65,360.6,63.3,360.5,61.5z"/>
	</g>
	<g>
		<path class="st229" d="M217.5,70.5c2.7,0.3,4.7,1.7,6,4C221.1,73.7,219.1,72.3,217.5,70.5z"/>
	</g>
	<g>
		<path class="st230" d="M475.5,66.5c-2.1,2.6-4.8,4.4-8,5.5c-1.6,0.5-3.3,0.7-5,0.5c0.7,3.7,1.3,7.3,2,11c-2.5-3.5-3.5-7.5-3-12
			C466.4,70.6,471.1,69,475.5,66.5z"/>
	</g>
	<g>
		<path class="st231" d="M413.5,73.5c1.4-0.2,2.7,0,4,0.5c2.5,2.3,5.5,3.1,9,2.5c-4.2,1.7-8,1-11.5-2c-1.1,1.6-2.6,2.6-4.5,3
			C411.5,76.1,412.5,74.8,413.5,73.5z"/>
	</g>
	<g>
		<path class="st232" d="M440.5,65.5c-1.6,2.7-2.3,5.7-2,9c-3.8,2.3-7.8,2.9-12,2c1-1.3,2.2-1.3,3.5,0c5.3-0.7,8-3.7,8-9
			C438.7,66.6,439.5,66,440.5,65.5z"/>
	</g>
	<g>
		<path class="st233" d="M224.5,76.5c3.3,0.2,6.3,1.2,9,3c0.8-2,2.3-3,4.5-3c1.4,0.2,2.2,0.9,2.5,2c-0.8-0.4-1.6-0.8-2.5-1
			C233.4,81.1,228.9,80.7,224.5,76.5z"/>
	</g>
</g>
</svg>
