<svg xmlns="http://www.w3.org/2000/svg" xml:space="preserve" id="Réteg_1" x="0" y="0" style="enable-background:new 0 0 752 495" version="1.1" viewBox="0 0 752 495">
  <style>
    .st10,.st12,.st14,.st17,.st4,.st8{fill-rule:evenodd;clip-rule:evenodd;fill:#fdfd02}.st10,.st12,.st14,.st17,.st8{fill:#f8f809}.st10,.st12,.st14,.st17{fill:#0805fb}.st12,.st14,.st17{fill:#11f8f8}.st14,.st17{fill:#fb0903}.st17{fill:#08fb07}
  </style>
  <path id="alap" d="M332.5.5c1.1.6 2.1 1.5 3 2.5 5.4 0 9.1 2.5 11 7.5-3.4 3.7-3.8 7.7-1 12-.7 1-1.3 2-2 3 1.9 2.4 2.2 4.9 1 7.5 2.3-.4 4.6-.4 7 0 1.1.6 2.1 1.5 3 2.5.6-2.1 1.6-3.9 3-5.5-1.4-1-2.1-2.3-2-4-.6-6.4 2.3-10.3 8.5-11.5 4 .9 7.7 2.6 11 5 3.3-2.7 6.3-2.4 9 1 3.3-1.8 6.8-2.3 10.5-1.5 2.9 3.4 6.2 6.2 10 8.5 1.2-2.1 3.1-3.5 5.5-4 .3-1.9.8-3.8 1.5-5.5 3.5-.1 6.9-.8 10-2 8.4.8 16.7 1.1 25 1 4.7 2.4 9.7 4.1 15 5 1.7 1.3 3.6 2.5 5.5 3.5 2.6 5.7 6.7 9.6 12.5 11.5 2.1 3.9 5.1 5.2 9 4 2.5 2 5.2 3.9 8 5.5 1.4-.8 2.9-1.5 4.5-2 2.2 1.5 4.3 3 6.5 4.5 5.9-1.2 10.7.7 14.5 5.5-.4 4.4 1.1 7.9 4.5 10.5 6-.3 10.7 2 14 7 4.4.2 8.4 1.5 12 4 3 .3 6 .7 9 1 3.9 3.5 8.2 6.3 13 8.5 1.3 3 3.7 4.5 7 4.5.6 1.5 1.3 3 2 4.5 3.7-2 7.3-2.2 11-.5 1.9 3.9 3.2 8.1 4 12.5 1.4-1.7 3-3 5-4 3 2.5 6.3 4.3 10 5.5 1.3 4 3.5 7.5 6.5 10.5-.3 2.6-.3 5.3 0 8 2 1.7 4 3.3 6 5 1 3.5.5 6.7-1.5 9.5 3.5 2.8 5.5 6.3 6 10.5 5.9.3 10.2 3.1 13 8.5 7.6 2.4 11.6 7.6 12 15.5 1.8 0 3.5.5 5 1.5 4 2.7 4 5.4 0 8 2.7 4.1 3.5 8.6 2.5 13.5-2.1.8-4.2 1.3-6.5 1.5-1.2 1.2-1.2 2.3 0 3.5 4.6 1.2 8.7 3.2 12.5 6 3.3-2.3 6.8-2.5 10.5-.5 6.8 2.9 13.3 6.4 19.5 10.5 2.8 7 7.5 12.3 14 16 2.7 3.8 5.2 7.8 7.5 12 1.3.9 2.4 1.9 3.5 3 .9 3.2 2 6.2 3.5 9-1.1 2.9-2.3 5.5-3.5 8 3.7 2.1 7.1 4.7 10 8 2.5 4.3 3.4 8.8 2.5 13.5 6.9 2.7 11.5 7.5 14 14.5-.4 4.9-.4 9.7 0 14.5-1 2.3-2 4.6-3 7 1.9.4 2.9 1.6 3 3.5-1.5 2.4-2.5 5.1-3 8 .8 2.7.9 5.3.5 8-1 .8-2.2 1.2-3.5 1 0 2.1-.6 3.9-2 5.5-2.8.1-5.4.2-8 .5-3.2 5.7-7.7 9.7-13.5 12-1.2-.8-2.2-1.8-3-3 0 2.8-.9 5.3-2.5 7.5-3.2-.4-6.2-1.8-9-4-4.1-2-8.1-1.8-12 .5-2.9 3-5.4 6.3-7.5 10-2.2 1.2-4.4 1.1-6.5-.5-3.1-2.1-6-4.6-8.5-7.5-.5-2-.7-4-.5-6-4.5-1.1-9-2.1-13.5-3-4.1 1.9-8.2 2.2-12.5 1-7.5 2.2-15.1 3.4-23 3.5-6.7 5.2-14.4 7.9-23 8-2.6 2.7-5.6 3.5-9 2.5-2.8 3.5-6.5 4.8-11 4 .3-2.4 0-4.8-1-7-.7 4.7-1.5 9.4-2.5 14-3.6 4-7.9 5.3-13 4-13.1 5.2-26.6 7.7-40.5 7.5-1.2 2.7-3.2 4.5-6 5.5 1.4 1.1 2.9 2.1 4.5 3 .2.8.3 1.7.5 2.5-1.6 4.4-4.1 8.2-7.5 11.5-2.2 5.8-4.3 11.7-6.5 17.5 1.2 1.8 2.3 3.7 3.5 5.5.7 1 .7 2 0 3-2.9 2.8-6 5.1-9.5 7-3.2 6.2-7.2 11.7-12 16.5-2.4.7-4.7.5-7-.5-2.6-3.5-4.9-7.2-7-11-6.7-2.6-13.7-4.1-21-4.5-3-2-4.7-4.9-5-8.5-3.8-.7-7.4-1.7-11-3-3.8 3.4-7.8 6.6-12 9.5-3 .3-6 .7-9 1-14.1 6.8-24.1 3-30-11.5-3.2 1.7-6.5 3.2-10 4.5-2.6 2.8-4.9 5.8-7 9-3.9.3-7.8-.2-11.5-1.5-2.5 4.4-6.4 6.1-11.5 5v-5c-5-2.8-10.2-5.5-15.5-8-.7-4.6-.2-9.1 1.5-13.5-1.7-1.9-3.9-3.1-6.5-3.5-1.7 1.1-3.4 1.1-5 0-6.1 6.4-13.3 8-21.5 5-2.2.5-3.8 1.7-5 3.5-3.6 0-6.9.9-10 2.5-7.9-1.4-12.1-6.1-12.5-14-.8-2.1-2-3.9-3.5-5.5-4.3-1.7-8.6-2-13-1-2.9-1.9-6.1-3.4-9.5-4.5-4.3 1.6-8.8 2.3-13.5 2 0-2.6-1.3-4-4-4-2.7 1.7-5 3.9-7 6.5-2 .7-4 .7-6 0-2.6-2.1-5.1-4.2-7.5-6.5-8.9 1.4-17.3-.3-25-5-6.9 2.8-12.4 1-16.5-5.5-4.3-2.5-7.9-1.8-11 2-1.8.2-3.7.3-5.5.5-4.2-.9-8.4-1.7-12.5-2.5-1.2 4-3.7 6.8-7.5 8.5v4c-2.8 2.8-6.2 4.8-10 6-7-3.1-12-8.1-15-15-1.6-1.7-3.1-3.6-4.5-5.5-3.2-1-6-.5-8.5 1.5-1.1 4.9-1.2 9.7-.5 14.5-2 3.6-2.5 7.4-1.5 11.5 6.7 7.5 11.4 16.2 14 26 6.9 3.1 9.4 8.3 7.5 15.5.4 1.4 1.3 2.6 2.5 3.5.3 4.2.8 8.4 1.5 12.5-3.5 3-6.5 6.5-9 10.5-.8.9-1.8 1.2-3 1-1.7.2-3.4 0-5-.5-2.6-2.5-4.9-5.1-7-8-4.5-.9-8.5-2.9-12-6-3.3-1-6.7-2-10-3-1.6-1.8-2.9-3.8-4-6-4-.3-8-.3-12 0l-4.5-4.5c-5.7-7.3-11.3-14.7-17-22-1.1-4.7-2.6-9.2-4.5-13.5 3.1-5.7 5.1-11.9 6-18.5-2.1-3.5-3.9-7.2-5.5-11-3.1-1.5-5.9-3.3-8.5-5.5-4.4-7.8-10.8-13.4-19-17-.6-.7-.9-1.6-1-2.5 4-8.2 8-16.6 12-25 2.1-2.3 4.6-4 7.5-5 .8.3 1.7.7 2.5 1 2.8 6.4 6.8 11.9 12 16.5 1.6-1.3 3.6-2.1 6-2.5 3 .8 6 1.7 9 2.5 2.5 1.6 4.7 3.4 6.5 5.5 1.9-.4 3.8-1.1 5.5-2-2.6-5.2-2.6-10.4 0-15.5-3.4-1-4.5-3.2-3.5-6.5 3.3-2.7 6.4-5.5 9.5-8.5 5.7-2.3 11.5-4.1 17.5-5.5 1.2-3.8 1.7-7.7 1.5-11.5-2.1-1.1-3.9-2.6-5.5-4.5-.5-4.7.5-9 3-13 2.3-3 5.1-3.7 8.5-2 1.1-1.4 2.1-2.9 3-4.5 4.4-1 8.7-2.4 13-4 1.2-1.8 2.5-3.5 4-5 3.8-.1 7.4-.3 11-.5-1.5-2.8-2.3-5.8-2.5-9-3.5-2.8-7.2-5.5-11-8-.4-1.2-.2-2.3.5-3.5-1.8-3.3-3.1-6.8-4-10.5.6-3 1.1-6 1.5-9 3.2-3.9 6-8.1 8.5-12.5-2.3-5-2.6-10.2-1-15.5-1.5-5.2-2.9-10.5-4-16 .4-1.9 1.4-3.4 3-4.5 2.8-2.6 6.2-4.3 10-5 .8-1.3 1.8-2.5 3-3.5 1.3-4.8 3.3-9.3 6-13.5-5.3-2.6-7.5-6.8-6.5-12.5 1.1-3.5 3.3-4.6 6.5-3.5.2-1.6.4-3.5.5-5.5 1.3-2.1 3.1-3.1 5.5-3-.2-1.3.2-2.5 1-3.5 3.1-.7 6.1-.6 9 .5 1.4-1.4 3-2.1 5-2v-4c2 .2 4 0 6-.5 3.6-4.1 7.9-5.3 13-3.5-.5-4.4-1.3-8.7-2.5-13-2.6-5.7-4.8-11.5-6.5-17.5.4-2.2.9-4.4 1.5-6.5 3.2-2.4 4-5.4 2.5-9 3.8-8.3 8.3-16.3 13.5-24 3-1.5 5.8-3.1 8.5-5 2.9 1 5.6 2.5 8 4.5 3.9 0 7.6.8 11 2.5 4.4-2.8 8.7-5.7 13-8.5 1.3-.3 2.7-.7 4-1 2.1-6.2 6.4-9 13-8.5-.2-3.3 0-6.7.5-10 1.3-4.4 3.1-8.6 5.5-12.5 3.9-.7 7.6-2.1 11-4 1.9-3.1 4.4-5.6 7.5-7.5.6-2.3 1.5-4.4 2.5-6.5 4.2-1.9 8.4-1.7 12.5.5 5-3.6 10.4-4 16-1 .5 3.8 2.5 6.5 6 8 2.8-2.8 4.8-6.1 6-10 2.2-2 4.5-2.3 7-1 .4-4.1 2.8-6.4 7-7 1.3 1 2.7 2 4 3 2.2-1.7 4.7-2.7 7.5-3z" style="fill-rule:evenodd;clip-rule:evenodd;fill:#332b29"/>
  <g id="szinek">
    <path id="balaton" d="M237.5 246.5c-2.7.5-5.4 1.4-8 2.5-8.6 5.5-17.6 10.1-27 14-4.6 0-9 .8-13 2.5h-3c-.8-4.4.9-7.1 5-8 .5-1 1.1-1.8 2-2.5 2.3-.3 4.7-.7 7-1 4.2-1.6 8.2-3.6 12-6 4.3-.5 8.3-1.7 12-3.5-.2-1.3.1-2.3 1-3 4.9-.9 7.2-3.9 7-9 2.2-2.4 4.7-2.4 7.5 0 1.3 2.9 1.7 5.9 1 9-2.6.7-3.7 2.4-3.5 5z" style="fill-rule:evenodd;clip-rule:evenodd;fill:#389ad8"/>
    <path id="n1" d="M97.5 324.5c-1.7.2-3 .8-4 2 0 .7-.3 1-1 1-1.2-.1-2.1-.7-2.5-2-.5-3.3-.7-6.6-.5-10-1.6 0-3-.6-4-2-1.9-8.7 1.4-12 10-10 .5-2.2 1.5-4.2 3-6 3.7-.9 7.4-1.9 11-3 1.8-1.2 2.8-2.9 3-5 4-.2 8 0 12 .5 1.8 2.9 4.1 5 7 6.5 6.7-.6 13.4 0 20 2 2.6 1.6 5.6 2.4 9 2.5 4.3 2.8 3.9 4.7-1 5.5-3 1.3-6.2 2.3-9.5 3-1.1 0-1.9-.4-2.5-1-.2-.6-.7-.9-1.5-1-3.8.7-7.6 1.2-11.5 1.5-.9 1.7-1.2 3.5-1 5.5v3c-2.9-.3-4.4 1.1-4.5 4-.8 1.3-2 2-3.5 2-1.5 3.9-2 7.9-1.5 12 3.5 5.8 5.4 12.1 5.5 19 .2 1.2.9 1.9 2 2 1 1.5 2.1 2.8 3.5 4-1.5 5.1.4 8.4 5.5 10 2.6 2.3 5.3 4.7 8 7h1c-.2 1.3.1 2.3 1 3-.5 2.8.5 4.8 3 6-.3 1.5.1 2.8 1 4 2.5.6 4.8 1.2 7 2 .1 1-.2 1.8-1 2.5-3 1.4-6.2 2.2-9.5 2.5-4.5-1.3-9-2.2-13.5-2.5-2 2.2-3.4 4.7-4 7.5-2.1 0-3.9.6-5.5 2-.2 2.3-.7 4.4-1.5 6.5-2.4 1.8-5.1 2.4-8 2-2.1-3.4-4.8-6.2-8-8.5-1.1-3.7-3.1-6.9-6-9.5-5.1-.5-7.4.7-10.6-3.2l-.4.7c-1.3 1.1-2.3 2.5-3 4-.5 3.1-1.4 6.1-2.5 9-.6 2.4-.4 4.7.5 7-1.4 2.1-2.1 4.4-2 7l-4 1h4c.2 2.1.7 4.1 1.5 6 7 7.8 11.8 16.8 14.5 27 2.1 1.5 4.3 2.8 6.5 4 .6 3 .5 6-.5 9 2.6 5.2 3.9 10.9 4 17-3.3.5-5.6 2.3-7 5.5-1.7.7-3.3.7-5 0-3.6-6.3-8.9-9.6-16-10-3.2-4.3-7.6-6.4-13-6.5-.6-2.1-1.6-3.9-3-5.5-4.9-1.9-9.9-2.8-15-2.5-1.4-2.7-2.9-5.4-4.5-8-8.5-6.7-14-15.4-16.5-26 1.4-2.2 2.5-4.5 3.5-7 .5-3.8 1-7.7 1.5-11.5-1.4-3-2-6.1-2-9.5-2.1-3.6-5.3-5.9-9.5-7-4.2-4.5-8-9.4-11.5-14.5-3-2.5-6.4-4.5-10-6 1.2-.8 2.2-1.8 3-3 1.3-4 2.7-8 4-12 2.1-3.9 4.7-7.4 8-10.5 1.3 2.5 2.8 4.8 4.5 7 .5 1.3.7 2.6.5 4 3.3.5 5.6 2.3 7 5.5l4.5 1.5c1.7-1.8 3.9-2.8 6.5-3 1.3.3 2.7.7 4 1 2.7 2.5 5.5 4.9 8.5 7 2.3-.7 4.7-1.3 7-2h3.5c.2-2.4 0-4.7-.5-7-1.6-1.2-2.4-2.9-2.5-5 .4-2.8 1.4-5.3 3-7.5-.9-2.3-2-4.1-3.5-5.5 1.8-1.8 3.6-3.5 5.5-5 5.5-2.7 11.5-4.2 18-4.5 1.5-3.6 3.8-6.5 7-8.5" style="fill-rule:evenodd;clip-rule:evenodd;fill:#0df70c"/>	
    <path id="n2" d="M291.5 379.5c-.5 2.7-.7 5.3-.5 8 1.7.9 3.5 1.2 5.5 1 1.3 2.3 3 4.3 5 6 1.8.8 3.8 1.3 6 1.5l2 2c3.2.8 6.2.6 9-.5 1.7-.2 3.4 0 5 .5 1.2 1.6 2.7 2.7 4.5 3.5 1.3-.1 2.1-.8 2.5-2 3.5 0 7 .3 10.5 1 2.4 0 4.5-.6 6.5-2 1.2.8 2.2 1.8 3 3 2.8 2.2 6.2 3.2 10 3 4.1-.1 7.1 1.6 9 5 2.4 1.4 4.1 3.4 5 6-.4 2.8-1.8 5.1-4 7 .5 1.8 1.5 3.1 3 4 1.6 3.3 3.9 5.9 7 8 .3.6.6 1.3 1 2-1.8 2.2-4.1 3.4-7 3.5-1.8 3.1-4 6-6.5 8.5-6.5-2.1-12-.8-16.5 4-.7-1.8-1.4-3.7-2-5.5-4.7-1.7-9.2-3.9-13.5-6.5-.5-3.9 0-7.8 1.5-11.5-.9-1.8-1.5-3.6-2-5.5-4.7-.3-9.4-1-14-2-4.1 1.8-7.8 4.3-11 7.5-3.9 0-7.7-.5-11.5-1.5-4.4 2.2-9 3.5-14 4-6.3-.9-8.8-4.6-7.5-11h-3c-.2-6.7-3.7-9.7-10.5-9-5.2 3.3-8.7 2-10.5-4-3.6.4-7.2.6-11 .5-3.3 3.7-5.9 3.3-8-1-1.6-.6-3.3-1.1-5-1.5-3.4 2.7-7 5-11 7-2.7-1.7-5-3.9-7-6.5-4.3.8-8.6 1.1-13 1-2.6-1.9-5.6-2.9-9-3-1.3-1.8-2.9-3-5-3.5-2.7 1.8-5.7 2.3-9 1.5-3.5-4.9-8.1-8.1-14-9.5-2.2-.8-4.5-1.4-7-2-.9-1.2-1.3-2.5-1-4l-3-6c-.9-.7-1.2-1.7-1-3h-1c-1.4-3.7-4.1-6-8-7-1.5-2-3.1-3.8-5-5.5 2-4.4.7-7.2-4-8.5-.9-8.5-3.2-16.5-7-24 1.7-5.9 4.7-10.9 9-15v-3c.8-1.1 1.5-2.5 2-4 4-.8 8-1.5 12-2 .6.6 1.4 1 2.5 1 3.3-.7 6.5-1.7 9.5-3h7c2.3.6 3.9 2 5 4 1.5 1.7 3.3 3 5.5 4v4c2.6.7 4.7 2.1 6.5 4-.1 2.5.6 4.9 2 7l1 1c3.4 1.6 7.1 2.4 11 2.5.6.4.9.9 1 1.5 1.5.8 3.1 1.3 5 1.5.7 2.9 2.4 5.1 5 6.5 3.4 1.9 7.1 3.5 11 5 2.3 1.3 4.7 1.3 7 0 5 .8 10 1 15 .5.9.7 1.5 1.5 2 2.5 2 2.1 4.3 2.4 7 1 .8 1.3 1.8 2.3 3 3l6 3c2 3.6 4.6 6.6 8 9 2.2.9 4.5 1.6 7 2 3.2 1.5 6.5 2.8 10 4 3.1-1.9 6.5-2.4 10-1.5.8 1 1.2 2.2 1 3.5" style="fill-rule:evenodd;clip-rule:evenodd;fill:#fc0502"/>
    <path id="n3" d="M409.5 321.5c-1.3.2-2.3-.1-3-1-1.7-.2-3-1-4-2.5-3-.5-6-.7-9-.5-2.7-.9-5-2.4-7-4.5-2.9-.2-5.5-.7-8-1.5-2.3-1.1-4.4-2.4-6.5-4-3.5.7-7 1.2-10.5 1.5-4.4 2.8-5.1 6.3-2 10.5-.7 2.3-1.1 4.6-1 7 .8 3.8 1.3 7.8 1.5 12 1.7 1.8 1.5 3.7-.5 5.5 2.4 2.1 3.4 4.8 3 8-1.3 4.5-2.3 9.2-3 14 .8 2.5-.2 4.3-3 5.5-.3 1.8 0 3.5 1 5 1.1-1.3 2.5-1.8 4-1.5 4.1 4.6 7.1 9.8 9 15.5-.5 1.6-.9 3.3-1 5 .2 1.9 1.2 3.2 3 4 .6.2.9.7 1 1.5a31.4 31.4 0 0 0-4 8.5c2.4 1.4 4.1 3.4 5 6 1.1 1.1 1.3 2.4.5 4-2.7 1.9-3.2 4.2-1.5 7 1.6 3.3 3.9 5.9 7 8h12c.2 5.3 2.2 9.8 6 13.5 1.4.8 2.8.6 4-.5l1 1c2.9 1.2 5.9 1.3 9 .5 1.4-.4 2.4-1.2 3-2.5 8.4-.6 15.4-4.1 21-10.5.9-.5 1.9-.6 3-.5l3 1.5c2.9 1 5.9 1.7 9 2 1.8 2.5 2.8 5.3 3 8.5 8 0 15.7 1.5 23 4.5 2.2 3.4 4.2 6.9 6 10.5 1.1 1.3 2.5 1.8 4 1.5 3.6-4.2 6.7-8.7 9.5-13.5 3.2-3.4 6.7-6.4 10.5-9-1.6-2.2-2.9-4.5-4-7 3.2-10.1 7.9-19.5 14-28-1.3-1.5-2.9-2.5-5-3-1.8-4.4-.3-7.1 4.5-8l3-3c2.8-.7 5.6-1.4 8.5-2 11.4 0 22.5-2.3 33.5-7 1.5 1.1 3.1 1.8 5 2 5.7-2.4 7.9-6.6 6.5-12.5.5-3.7 1.9-6.8 4-9.5-1-.3-1.6-1-2-2 1-1.9 1.2-3.9.5-6-2.7-1.1-4.9-2.7-6.5-5-1.5 0-2.7-.7-3.5-2 .2-2.3.2-4.6 0-7-1-.6-1.8-1.2-2.5-2-3.5-2.3-5.5-5.7-6-10h-3c.4-3.1-.5-5.7-2.5-8-4.1-3.8-7.9-7.8-11.5-12-2.6-1.4-5.2-2.4-8-3-.9-3.2-1.2-6.6-1-10-3.3.2-6.3-.5-9-2-2.1-.1-3.7.5-5 2-.8.3-1.2 1-1 2-.4 2.7-1.4 5-3 7-2.4-.2-4.8.1-7 1-1.6-1.9-3.6-2.9-6-3-.1 3.2.6 6.2 2 9-.7 1.4-1.4 2.7-2 4-1.4 1.3-2.1 3-2 5l-4 5c-4.8-.8-9.8-1.3-15-1.5-1.5-1.7-3.2-3.2-5-4.5l-3-1h-4c-4.7.8-9.4 1.2-14 1-1.5 0-2.5-.6-3-2-2.6-1.2-5.5-2.2-8.5-3-1.6.1-3.1.4-4.5 1-1.5-1.7-3.3-2.7-5.5-3-3.9.8-7.7 1.8-11.5 3-1.9-.5-3.7-1.2-5.5-2-.8.1-1.3.4-1.5 1" style="fill-rule:evenodd;clip-rule:evenodd;fill:#06fb06"/>
    <path id="n4" d="M566.5 347c1.2 1 2.2 2.2 3 3.5 1.6 2.3 3.8 3.9 6.5 5 .7 2.1.5 4.1-.5 6 .4 1 1 1.7 2 2 .9.7 1.2 1.7 1 3 1.9-.2 3.4.5 4.5 2 .4 4.6 1.9 5.1 4.5 1.5 4.1.1 7.8-1.1 11-3.5 8.5-.1 15.8-2.9 22-8.5 2.6-.5 5.3-.7 8-.5 3.4 1.4 6.4.7 9-2 .8.4 1.6.8 2.5 1 3.5-1.9 6.9-1.9 10 0 2.9-.6 5.7-1.3 8.5-2 2.2 2.6 4.4 2.6 6.5 0 2.7 1.9 5.5 3.6 8.5 5 .8 1.9 1.3 3.9 1.5 6 1.8 1.2 3.3 2.7 4.5 4.5 5.7 2.7 8.7.9 9-5.5 4.3-2.4 8.8-4.4 13.5-6 4.2 2.7 8.7 4.7 13.5 6-1.2-3.1-.4-5.8 2.5-8 1.6 2.6 3.7 3.8 6.5 3.5 3.1-3.4 5.7-7.1 8-11 2.9-1.7 5.9-1.9 9-.5 1.8-4.4 3.1-8.9 4-13.5-.2-2.2-.3-4.3-.5-6.5l-1.5-1.5c1.6-3 3-6.2 4-9.5-.2-5.3-.3-10.6-.5-16-3.3-5.6-8.1-8.9-14.5-10-1.1 1.6-2.4 3.1-4 4.5-5.2 3.2-10.9 5.4-17 6.5-2.5-1.3-5.2-2-8-2-1.4-2.5-2.2-5.1-2.5-8-1.4-1.4-3.1-2.4-5-3-.3-1.7-.8-3.4-1.5-5-4.7-5.4-8.4-11.4-11-18-4.9-1-9.3-3-13-6h-2c-1.1-.1-2.1 0-3 .5-1.8 3.2-4.3 5.7-7.5 7.5-2.9 4.2-5.7 8.4-8.5 12.5l-12 1.5c-3.4.4-6.4-.2-9-2-2.3-1.3-4.7-2.6-7-4-3.1 1.9-6.4 3.2-10 4h-8c-1.6.8-3.2 1.1-5 1-.3 1-1 1.7-2 2-2.1.8-4.5 1.3-7 1.5-2.7 3.7-6.2 6.2-10.5 7.5-1.4-.2-2.2-.9-2.5-2 0-1.5-.7-2.7-2-3.5-2-.5-4-.7-6-.5v4h-6c-.2 2.4-1.5 3.4-4 3-2.7-1.1-5.4-1.1-8 0-1.7-.9-3.6-1.6-5.5-2-4.2.9-8.4 1.9-12.5 3-.3.7-.7 1.3-1 2-.2 3.4.1 6.8 1 10 2.4-.2 4.7 0 7 .5.8.7 1.1 1.5 1 2.5 3.6 4.2 7.4 8.2 11.5 12 2 2.3 2.9 4.9 2.5 8h3c.5 4.3 2.5 7.7 6 10" class="st8"/>
    <path id="n5" d="M632.5 239.5c-2.1-1.6-3.8-3.6-5-6-4.4-1.6-8.7-1.9-13-1-1.1 2.8-3.1 4.4-6 5-.8 1.1-1.5 2.5-2 4-6.3 1.3-12.7 1.3-19 0-.5-1.4-1.5-2.1-3-2-3.4.3-6.7.5-10 .5-1.6-1.1-2.6-2.6-3-4.5-.1-.6-.4-1.1-1-1.5-3-.8-6-1.7-9-2.5-1.8-2.4-4.2-4.1-7-5-3.5-1.4-6.5-.8-9 2-.4 1.9-1.4 3.4-3 4.5-6 2-12 3.2-18 3.5-2.7 1.9-4.7 4.2-6 7-1.6 3.9-3.6 7.5-6 11 .3 3.3 1.8 6 4.5 8 .7 2.4.5 4.7-.5 7 .7 1 1.4 2 2 3l1 5c-4.7 1.6-6.1 4.6-4 9 .2 4.5 2.5 7.2 7 8 2.7 1.5 5.7 2.2 9 2 .3-.7.7-1.3 1-2 4.8-3.3 10.1-4.5 16-3.5 1.7 1.8 3.4 1.7 5-.5 3 1.3 6 1.3 9 0h6v-4c2-.2 4 0 6 .5 1.3.8 2 2 2 3.5 1.2.9 2.6 1.1 4 .5 3-2 5.6-4.3 8-7 2.6-.5 5.3-.7 8-.5 1-.3 1.7-1 2-2 3.9-1.9 8.2-2.6 13-2 2.8-.6 5.1-1.9 7-4l1-1c4.1.4 7.1 2.4 9 6 3.2.4 6.2 1 9 2l12-1.5c2.8-4.1 5.6-8.3 8.5-12.5 3.2-1.8 5.7-4.3 7.5-7.5.9-.5 1.9-.6 3-.5h2c3.7 3 8.1 5 13 6 2.6 6.6 6.3 12.6 11 18 .7 1.6 1.2 3.3 1.5 5 1.9.6 3.6 1.6 5 3 .3 2.9 1.1 5.5 2.5 8 2.8 0 5.5.7 8 2 6.1-1.1 11.8-3.3 17-6.5 1.6-1.4 2.9-2.9 4-4.5 1.2-4.1 1-8.1-.5-12-3.3-4.2-7.3-7.5-12-10-.2-.8-.3-1.7-.5-2.5 1.3-2.3 2.7-4.7 4-7-1.4-2.7-2.6-5.5-3.5-8.5-1.5-.8-2.8-1.8-4-3-.7-3.6-2.4-6.6-5-9-7-4.7-12.2-10.8-15.5-18.5-5.2-2.5-10.4-5-15.5-7.5-.9.2-1.7.6-2.5 1-1.6.3-2.6 1.3-3 3l-3 2c-6.7-.2-13.3-.5-20-1-3.7.7-7.4 1.7-11 3-1.3 3-2.3 6-3 9" class="st10"/>
    <path id="n6" d="M403.5 316.5c-3.5-.3-6.9 0-10 1-2.7-.9-5-2.4-7-4.5-2.9-.2-5.5-.7-8-1.5-1-1.5-2.1-2.8-3.5-4-.7-.7-.7-1.3 0-2 4.7-3.9 9.2-7.9 13.5-12 0-.7-.3-1-1-1v-4c3.7.3 6.4-1.2 8-4.5-.1-.8-.4-1.3-1-1.5-2.1-.7-4.1-1.7-6-3 .2-3-.5-5.7-2-8-.8-4.5-2.2-8.8-4-13-1.8-1.6-3.8-3-6-4-2.1-2.7-2.4-5.7-1-9 1.1.6 2.1 1.5 3 2.5 1.2.7 2.2.6 3-.5 3.2-3.5 7.2-5.2 12-5v-8h4v-5c2-.2 3.8.1 5.5 1 1.2 3.4 2.4 6.8 3.5 10 0 1 .5 1.7 1.5 2 4.2-1.5 5.4-4.2 3.5-8 0-1.1-.4-2.1-1-3 1.1-1.1 1.8-2.5 2-4 .3-4.7 2.7-6 7-4-2-1.4-3-3.4-3-6 2-1 3.4-2.7 4-5 1.8-1.4 3.8-2.4 6-3 .9 2.3 2.6 3.3 5 3 3.2.7 6.5.7 10 0-.1-3.1.2-6.1 1-9-.2-1.3.2-2.5 1-3.5 3.3-.3 6.5-1.2 9.5-2.5 1.1 0 1.9.4 2.5 1 .8 1.1 1.8 1.2 3 .5 2.5-3.6 5.9-5.4 10-5.5v-4c2.2.9 4.5 1.2 7 1 .6-1.9 1.6-3.6 3-5 1.7 1.4 3.4 2.7 5 4 .2.6.7.9 1.5 1 1.2-.8 2.2-1.8 3-3 1.1 1.9 2 3.9 2.5 6 1.1 5.5 4.4 8.8 10 10 .8.5 1.1 1.1 1 2 1.5 1.2 3.2 1.2 5 0 .3.7.7 1.3 1 2-1.4 2.5-2.4 5.2-3 8-1.2 4.7-1.2 9.3 0 14 3.4.8 6.7 2 10 3.5.8.7 1.1 1.5 1 2.5 1 1.5 2.1 2.8 3.5 4 .6 1.4.4 2.8-.5 4-1.6 3.9-3.6 7.5-6 11 .3 3.3 1.8 6 4.5 8 .7 2.4.5 4.7-.5 7 .7 1 1.4 2 2 3 .8 1.5 1.1 3.2 1 5-4.7 1.6-6.1 4.6-4 9v5.5c1.5 1.1 2.2 2.6 2 4.5-.8.3-1.2 1-1 2-1.9 1.8-2.9 4.2-3 7-2.4-.2-4.8.1-7 1-1.6-1.9-3.6-2.9-6-3-.1 3.2.6 6.2 2 9-.7 1.4-1.4 2.7-2 4-1-.1-1.8.2-2.5 1-.8 2.9-.6 5.8.5 8.5-1.3.5-2.6.7-4 .5-4.8-.8-9.8-1.3-15-1.5-1.5-1.7-3.2-3.2-5-4.5-.7-.9-1.7-1.2-3-1h-4c-5.6-.4-11.2-.8-17-1-2.6-1.2-5.5-2.2-8.5-3-1.6.1-3.1.4-4.5 1-1.5-1.7-3.3-2.7-5.5-3-3.9.8-7.7 1.8-11.5 3-1.9-.5-3.7-1.2-5.5-2-.8.1-1.3.4-1.5 1-1.3.7-2.3 1.7-3 3-1.5.8-3.2 1.1-5 1" class="st12"/>
    <path id="n7" d="M279.5 320.5c-.3-2.2 0-4.2 1-6 .6-2.2 1.9-3.9 4-5-2.7-3-2.4-5.6 1-8-2.3-.6-3.9-2-5-4-.6-.1-1.1-.4-1.5-1-.7-2-.7-4 0-6 1-.8 2.2-1.2 3.5-1-.3-1.5.1-2.8 1-4 2 1.4 3 .7 3-2-.3-2-.7-4-1-6-1-1.4-1.3-3.1-1-5h6c-.3-2 .3-3.3 2-4-.1-3.4-.4-6.7-1-10-1.2-2.5-2.2-5.1-3-8-1.7 1.4-3.4 2.7-5 4-1.4 4.1-3.7 7.4-7 10-.3 1-1 1.6-2 2-2.4-2.4-4.6-5.1-6.5-8-.7.8-1.5 1.1-2.5 1-.4.7-1.1 1.2-2 1.5-4.8.5-8.8-1-12-4.5-1.1.1-2.1.4-3 1-.7 0-1 .3-1 1 0-.7.3-1 1-1-1.7-5.7-5.3-9.3-11-11-2.7.5-5.4 1.4-8 2.5-8.6 5.5-17.6 10.1-27 14-4.6 0-9 .8-13 2.5-1.4 1-3.1 1.3-5 1 .3 5.3-.4 10.3-2 15v4c-10.1.6-17.3 5.3-21.5 14 2.4 1.9 4.3 4.3 5.5 7 2.3.6 3.9 2 5 4 2.3.6 4.5 1.6 6.5 3 1.6 3.1 3.5 6.1 5.5 9 1.5 2.4 2.5 5.1 3 8 3.4 1.6 7.1 2.4 11 2.5.6.4.9.9 1 1.5 2-.2 4 0 6 .5 1.2 2.6 2.5 5.1 4 7.5 3.4 1.9 7.1 3.5 11 5 1.4.2 2.7 0 4-.5l3 .5c5 .8 10 1 15 .5.9.7 1.5 1.5 2 2.5 3.1-.3 6.1 0 9 1 .6.9 1 1.9 1 3l6 3c1-.1 1.8.2 2.5 1 2.1 2.6 3.9 5.2 5.5 8 2-.2 4 0 6 .5.6.4.9.9 1 1.5 4 .7 8 1.3 12 2l1-1c2.7-.2 5.4 0 8 .5 1.3 1.6 1.3 3.1 0 4.5-1.8.8-3.2 2.1-4 4 2.5 2.2 2.5 4.5 0 7 1.9.8 3.5 1.8 5 3 1.3 2.3 3 4.3 5 6 5.5 1.5 11.2 2.5 17 3 1.8-1.1 3.8-1.3 6-.5 1.5 2.8 3.5 3.6 6 2.5 5.5-.8 11.2-1.4 17-2 2.4.2 3.4 1.6 3 4 2.8 2.2 6.2 3.2 10 3 2.7-1.3 5.4-.9 8 1 1.8-1.7 3.2-3.7 4-6-1.8-.8-2.8-2.1-3-4-1.2-7.1-4.2-13.5-9-19-1.6.8-3.2 1.1-5 1-.3-2.2 0-4.2 1-6 1.2-4.6 2-9.3 2.5-14 3.3-4.5 3.1-9-.5-13.5v-17.5c-1-2.5-1.1-5.2-.5-8-1.9-.6-3.8-1.3-5.5-2-3-1.6-5.5-.9-7.5 2-3.6-.6-6.5-2.2-8.5-5-1.4-.5-2.1-1.5-2-3s-.6-2.5-2-3c-4.8-4.7-10.4-6.6-17-5.5-2.2-3.4-5.2-5.2-9-5.5-.6 4-2.9 6.1-7 6.5-5.7 4.8-10.3 10.3-14 16.5-1.4 1.3-2.1 3-2 5" class="st10"/>
    <path id="n8" d="M194.5 197.5c-.1-.6-.4-1.1-1-1.5 2.5-3.4 4.5-7.1 6-11-1.5-2.8-3.7-5-6.5-6.5-1-2.3-1.8-4.6-2.5-7-.5-.3-1-.7-1.5-1-1.8.8-3.6 1.5-5.5 2-2.6-.9-5.3-1.1-8-.5-1.5 1.1-2.2 2.6-2 4.5-6 .2-12-.1-18-1v-4c-.2-4.7 0-9.3.5-14 .2-1.2.7-2.2 1.5-3 2.7-2 2.7-4 0-6-1.7-.2-3.4 0-5 .5-2.6 4.3-5.5 4.5-8.5.5-2.4 2.3-4.9 4.5-7.5 6.5 1.4 4.9-.6 7-6 6.5-.2 2 0 4 .5 6 4.8 1.8 6.5 5.1 5 10-1.3 2.3-2.4 4.6-3.5 7 .9 2.3 2.3 4.3 4 6-2.1-1.6-4.4-2.1-7-1.5-.6 2.2-1.6 4.2-3 6-3.9.7-7.5 1.9-11 3.5.6 5.9 1.9 11.6 4 17-1.6 3.5-2.1 7.2-1.5 11 2.7 3.3 3 7 1 11-6.1 3.5-8.9 8.8-8.5 16 2.2 4.4 3.2 9.1 3 14 2.1-.2 4.1.2 6 1l2 1.5c1.5 1.5 2.7 3.4 3.5 5.5.4 3.6 1.2 7.1 2.5 10.5-.2.9-.6 1.7-1 2.5 1.4 2.5 3.1 4.9 5 7 6.7-.6 13.4 0 20 2 2.7.3 5.3.7 8 1 4.2-9.4 11.5-14.4 22-15-.2-1.3.1-2.3 1-3 .3-8.6 1.8-16.9 4.5-25 1.4.9 2.9 1.2 4.5 1 .5-1 1.1-1.8 2-2.5 2.3-.3 4.7-.7 7-1 4.2-1.6 8.2-3.6 12-6 4.3-.5 8.3-1.7 12-3.5-.2-1.3.1-2.3 1-3 1.3-1.4 2.8-2.8 4.5-4 .5-.9.6-1.9.5-3l2-2c2.2-2.4 4.7-2.4 7.5 0 1.3 2.9 1.7 5.9 1 9-2.6.7-3.7 2.4-3.5 5 5.7 1.7 9.3 5.3 11 11 .9-.6 1.9-.9 3-1 1.2.2 2.4.5 3.5 1 1.3-1.2 2.8-1.9 4.5-2h1c.1-1.1 0-2.1-.5-3-2.5-1.9-4.3-4.3-5.5-7-.7-1.9-1.3-3.9-2-6-1.9-.8-3.6-1.8-5-3-1.3-1-2-2.3-2-4 .2-3-.5-5.6-2-8-1.7-3.6-3.4-7.2-5-11-.9-2.2-.9-4.5 0-7-1.9-2.5-2.6-5.5-2-9-1.2.2-2.2-.1-3-1-1.1-3.1-2.1-6.1-3-9-.9-.1-1.5.2-2 1-.6 1.9-1.3 3.7-2 5.5-3.7 1.1-7.4 1.2-11 .5-5.7 2.1-11.6 3.7-17.5 5-1.3-.5-2.5-1.1-3.5-2z" class="st8"/>
    <path id="n9" d="M234.5 195c-1.3-2.7-2.2-5.5-2.5-8.5-.7-.9-1.5-1.5-2.5-2 .1 1.1.4 2.1 1 3-.9-.1-1.5.2-2 1-.6 1.9-1.3 3.7-2 5.5-3.7 1.1-7.4 1.2-11 .5-5.7 2.1-11.6 3.7-17.5 5-1.3-.5-2.5-1.1-3.5-2-.1-.6-.4-1.1-1-1.5 2.5-3.4 4.5-7.1 6-11-1.5-2.8-3.7-5-6.5-6.5-1-2.3-1.8-4.6-2.5-7-.5-.3-1-.7-1.5-1-1.8.8-3.6 1.5-5.5 2-2.6-.9-5.3-1.1-8-.5-1.5 1.1-2.2 2.6-2 4.5-6 .2-12-.1-18-1v-4c.9-5.5 1.5-11.2 2-17 2.7-2 2.7-4 0-6-.2-1.6.1-3.1 1-4.5 3.2-.8 6.2-2.2 9-4 1.7-.7 3.4-.5 5 .5 1.8-2 3.5-4.2 5-6.5.9-.5 1.9-.6 3-.5-1.6-1.1-3.1-2.4-4.5-4-2.1-8-4.6-15.8-7.5-23.5.3-1.9.8-3.7 1.5-5.5 3.3-2.1 4.1-5 2.5-8.5 1.5-2.3 3.5-3.8 6-4.5 3.3-.1 4.8 1.6 4.5 5 1.3 1.3 2.7 1.3 4 0 .5-1.6.7-3.3.5-5 2.2-1.3 4.5-1.3 7 0 1.3 2.2.9 4.2-1 6 .5 1.4 1.5 2.1 3 2 5.6-1.6 10.8-.6 15.5 3 2.4 7.5 5 14.8 8 22 1.4 1.5 2.9 2.9 4.5 4-.2 3.6.5 6.9 2 10-.6.4-1 1.1-1 2 1.7 3.1 2.3 6.4 2 10h-1 1c1.5 1.8 3.5 2.4 6 2 .6 2.6 1.9 3.3 4 2 1 .7 2 1.4 3 2 3.5-.7 6.9-2.1 10-4 2.4-1.2 4.4-2.9 6-5 .9.6 1.9 1 3 1 1.4 1.3 2.9 1.3 4.5 0 1.7 2.9 4.2 4.2 7.5 4-.1 1 .2 1.8 1 2.5 1.6.3 3.1.8 4.5 1.5.2 2.9.7 5.5 1.5 8 4 1.8 7.7 4.1 11 7 1.1 2.5 1.1 5 0 7.5-4.2 1.9-8.2 4.2-12 7-1.3.5-2.6.7-4 .5v6c3.7 5.8 8.5 10.5 14.5 14 .2 2.3.3 4.7.5 7 0 2.8-.7 5.1-2 7-1.1 4.8-1.3 9.8-.5 15 1 2.2 2.5 3.8 4.5 5v2c.2 3 0 6-.5 9-3.1 1.6-5.2 3.9-6.5 7-2.8 2.9-5.1 6.3-7 10-1.1.1-2.1 0-3-.5-1.1-2.2-2.4-4.2-4-6-1.9-.8-3.2-.3-4 1.5h-8c0-1.7.7-3 2-4h1c1.1-1.1 1.3-2.4.5-4-2-2.2-4.2-4.2-6.5-6 1.7-6.3-.6-9.3-7-9-1.3-1-2-2.3-2-4 1.7-3.2 1-5.9-2-8-.3-4.4-1.9-8.1-5-11-.9-2.2-.9-4.5 0-7" class="st17"/>
    <path id="n10" d="M377.5 257.5c1.7.1 3.4.5 5 1 1.8 4.2 3.2 8.5 4 13 .1 2.9.7 5.6 2 8-.1 1 .2 1.8 1 2.5 1.6.5 3.3.7 5 .5.6.2.9.7 1 1.5-1.6 3.3-4.3 4.8-8 4.5v4c-4.8 4.6-9.8 9.1-15 13.5-3.9 1.1-7.9 1.8-12 2-3.3 1.9-4.7 4.7-4 8.5h-4c-3-1.6-5.5-.9-7.5 2-3.6-.6-6.5-2.2-8.5-5 .1-1.5-.6-2.5-2-3 .1-1.5-.6-2.5-2-3-4.8-4.7-10.4-6.6-17-5.5-2.2-3.4-5.2-5.2-9-5.5-4.9 3.4-9.7 7.1-14.5 11-3 3.6-5.1 7.6-6.5 12-1.4 1.3-2.1 3-2 5-.9-.7-1.2-1.7-1-3-1.6-2-2.3-4.3-2-7 .6-2.2 1.9-3.9 4-5-2.7-3-2.4-5.6 1-8-2.3-.6-3.9-2-5-4-.6-1.9-1-3.9-1-6 1.6-.2 3.1.1 4.5 1 .6-1.4.4-2.7-.5-4 1.2-.9 2.5-1.3 4-1 .2-2.7 0-5.4-.5-8-.3-.9-.8-1.6-1.5-2-1-1.4-1.3-3.1-1-5h6c-.3-2 .3-3.3 2-4 1.4-3.5 1-6.8-1-10-.3-6.8-.6-13.5-1-20v-2c-.9-2.1-2.1-4.1-3.5-6-.5-4.7-.7-9.3-.5-14 1.3-1.9 2-4.2 2-7-.2-2.3-.3-4.7-.5-7-6-3.5-10.8-8.2-14.5-14v-6c1.4.2 2.7 0 4-.5 3.8-2.8 7.8-5.1 12-7 1.1-2.5 1.1-5 0-7.5 1.9-1.4 3.6-3.1 5-5 2.9.9 5.6 2.2 8 4 4.5-.5 9.1-.5 14 0 2.4 2.2 4.4 4.7 6 7.5.9.5 1.9.6 3 .5h4v4h4v5c2.9 1.3 5.9 1.8 9 1.5 1.3-.8 2-2 2-3.5 2.9-.9 5.9-1.2 9-1-.3 2.2 0 4.2 1 6 1.3.9 2.8 1.6 4.5 2 4.1-2.8 7.9-2.4 11.5 1 .6 2.4 1.6 4.8 3 7 2.3 1.1 4.8 1.1 7.5 0 1.8-1.7 4-2.7 6.5-3 5.1.5 10.1 1.5 15 3 2.7.3 5.3.7 8 1-.3 1.6.1 2.9 1 4-1.1 5.8-1.1 11.5 0 17 1 1.3 2.2 1.3 3.5 0 .6 1.9-.1 3.2-2 4-.5 1.6-.7 3.3-.5 5-.2 1.5-.9 2.9-2 4 .6.9 1 1.9 1 3 .5 3.8-1.2 5.8-5 6-1.1-3.2-2.3-6.6-3.5-10-1.7-.9-3.5-1.2-5.5-1-.9 1.1-1.3 2.4-1 4h-4v8c-3.7-.3-7 .5-10 2.5-.8 1-1.2 2.2-1 3.5-3.6-.9-5.3-3.3-5-7-2.4-.4-3.8.6-4 3 .7 3.3 1.2 6.6 1.5 10 .7.8 1.5 1.1 2.5 1 .6.9.9 1.9 1 3z" class="st14"/>
    <path id="n11" d="M413.5 152c.6-.8 1.1-1.6 1.5-2.5 4.6-1.5 9.1-3.2 13.5-5 .3 1 1 1.6 2 2 1.7-.8 3.3-1.7 5-2.5.6-2.5 1.3-5 2-7.5 1.2-.4 2.2-1.1 3-2 2.3-.5 4.3-1.5 6-3 1.8 1.4 3.8 1.9 6 1.5.8-1 1.2-2.2 1-3.5 2.7.3 5.1-.3 7-2 3.3-2.7 7-4.8 11-6.5 2.2-1.3 3.6-3.1 4-5.5-.2-1.3.1-2.3 1-3 3.6-2.8 5.6-1.8 6 3-2.1 3.9-1.3 6.9 2.5 9 .3 3.1.8 6.1 1.5 9-1.3 1-2.7 2-4 3-.6.2-.9.7-1 1.5 3.3 4.8 2.3 8.3-3 10.5-2 5-.9 9 3.5 12-.1 3.1 1.1 5.6 3.5 7.5-1.8 2.5-2.5 5.3-2 8.5-2.3.6-4.5 1.6-6.5 3-.6 1.4-.4 2.7.5 4-1.7 2-2.3 4.3-2 7-2.5.2-4.8-.1-7-1-1-.3-1.7-1-2-2 .3 1 1 1.7 2 2v4c-2.4-.2-4.7 0-7 .5-1.6 2.1-3.6 3.6-6 4.5-.6-.6-1.4-1-2.5-1-3 1.3-6.2 2.2-9.5 2.5-.8 1-1.2 2.2-1 3.5-.6.1-1.1.4-1.5 1-.5 2.3-.7 4.6-.5 7-3 .2-6 .5-9 1-1.6-1.3-3.3-2.6-5-4-1.7.4-3.4.9-5 1.5-.8.7-1.1 1.5-1 2.5-.6 2.3-2 4-4 5-1.7.1-3.4.5-5 1 .4-5.9.4-11.5 0-17-.9-1.1-1.3-2.4-1-4-2.7-.3-5.3-.7-8-1-.5-1-1.1-1.8-2-2.5-4.3-.5-8.7-.7-13-.5-.4-.6-1.1-1-2-1-3.8 1.9-7.8 3.3-12 4-1.4-2.2-2.4-4.6-3-7 0-1.5-.7-2.7-2-3.5-4.7-.3-9.3-.2-14 .5.3-2.6-.1-5.1-1-7.5-3.5-.3-6.5.5-9 2.5-2.7 2.2-5.7 2.5-9 1-.8-5.6-1.3-11.3-1.5-17-.4-1.4-1.2-2.4-2.5-3-.4-4.3 1.6-6.1 6-5.5 1.3-1.7 2.7-3.3 4-5 7.2-1.7 8.8-5.7 5-12 .5-1.3 1.1-2.5 2-3.5.9-.6 1.9-.9 3-1l4-3c2.2-5.4 5.4-6 9.5-2 3.4-2.4 6.9-4.4 10.5-6 2.6-1 5.3-1.3 8-1 .1-2.2-.2-4.4-1-6.5.6-2.1 1.9-3.2 4-3.5 3.3-.8 6-2.6 8-5.5 1.9-.2 3.5-.7 5-1.5 1.4.1 2.8-.3 4-1 .9.8 1.2 1.8 1 3-4.4 3.4-5 7.4-2 12 .9 5.2 1.9 10.1 3 15 1.2 1.6 2.5 2 4 1-.3 1.3-.7 2.7-1 4 .6.7 1.3 1.3 2 2-2.6 2.9-3.5 6.2-2.5 10l5.5-.5z" class="st17"/>
    <path id="n12" d="M583.5 173.5c-.8-2.3-2.5-3.8-5-4.5-2.6-.2-5.1-.7-7.5-1.5-.2-2.6-1-5-2.5-7 .7-1 1.3-2 2-3-.7-.7-1.4-1.3-2-2-1.4-2.4-3.4-4.1-6-5-1.5-.6-2.5-1.8-3-3.5-3.6-.9-6.9-2-10-3.5-1.7-2-2.3-4.3-2-7-2.6 3.8-4.1 8.2-4.5 13-2.8 1.4-5.5 3.1-8 5-4-1.5-8.1-2.5-12.5-3-1.5-3.1-2.4-6.5-2.5-10-1-2.2-2.5-3.8-4.5-5-2.9 1.2-5.7 1.2-8.5 0-4.1 4.4-8.9 5.2-14.5 2.5-1.9-2-3.9-3.9-6-5.5-1.3 1-2.7 2-4 3 1.3 2.3 2.3 4.8 3 7.5-1.2 2.7-3.2 4.5-6 5.5-.3 1-.7 2-1 3 3.5 4.7 6.1 9.9 8 15.5-1.4 2.8-2.4 5.6-3 8.5-2.1 1.4-3.8 3.2-5 5.5 1.9 2.4 3.5 4.9 5 7.5 1.5-.9 3-1.9 4.5-3 1.8 1.6 3.2 3.6 4 6l-1.5 1c1.1 5.5 4.4 8.8 10 10 .8.5 1.1 1.1 1 2 2.3-.5 4.6-.8 7-1 .5 4.5-.8 8.1-4 11-1.2 4.7-1.2 9.3 0 14 3.4.8 6.7 2 10 3.5.8.7 1.1 1.5 1 2.5 1.9.4 3.4 1.4 4.5 3 1.1-1.5 2.6-2.2 4.5-2 1.1-1.1 2.4-1.9 4-2.5 6.4.5 12.1-1.3 17-5.5 2.5-2.8 5.5-3.4 9-2-.7-.8-1.5-1.4-2.5-2 1 .6 1.8 1.2 2.5 2 2.8.9 5.2 2.6 7 5 3 .8 6 1.7 9 2.5.6.4.9.9 1 1.5 1.6 1.3 3.3 2.6 5 4 2.8-1.3 5.5-1.3 8 0 1.5-.1 2.5.6 3 2 6.3 1.3 12.7 1.3 19 0 .5-1.5 1.2-2.9 2-4l1-4c1.7-.1 3.4-.5 5-1 1.6-.9 3.5-1.5 5.5-2 2 1.3 4 1.3 6 0 2.7 2.5 5.2 5.2 7.5 8 .8-2.1 1.3-4.5 1.5-7 .7-.8 1.5-1.1 2.5-1-.2-2.4 0-4.7.5-7 .7-.9 1.5-1.5 2.5-2 3.6-1.3 7.3-2.3 11-3 7.5-.2 15.2-.5 23-1 .4-1.7 1.4-2.7 3-3v-3c-3.3-.3-6.3.4-9 2-1.6-.8-3-1.9-4-3.5-3.4-.7-6.8-1.7-10-3-4.1-7.1-2.1-10.9 6-11.5.3-2.1 0-4.1-1-6-4-2.7-4-5.6 0-8.5-2.9-1.6-5.9-2.8-9-3.5-1.8-1.5-4-2.2-6.5-2-4.5 2.1-9.3 3.5-14.5 4-4.3-.3-8-2-11-5-1 .4-1.7 1-2 2-3.5 1.3-6.8 3.1-10 5.5-.6 1.3-1.3 2.5-2 3.5h-3c-.3-1-1-1.7-2-2-1.7-3.2-4-6-7-8.5-1.3-.5-2.6-.7-4-.5l-5-1z" style="fill-rule:evenodd;clip-rule:evenodd;fill:#fafa06"/>
    <path id="n13" d="M497.5 50.5c-3.9-.4-6.9-2.2-9-5.5-5 1.4-8.6-.3-11-5-2.7-.7-5.3-1.3-8-2-1-5-3.7-9-8-12-3.2-2.1-6.2-2-9 .5 1.1 1.6 1.6 3.2 1.5 5-2.5 1.8-4.1 4.1-5 7-5.2 2-6.7 5.7-4.5 11 1.1 2.5 1.3 5.1.5 8-1 .7-2 1.3-3 2-.2 2.2-.7 4.2-1.5 6-1.6 2.7-2.3 5.7-2 9 1.5.8 2.3 2.2 2.5 4 .8 5.2.6 10.2-.5 15-.2 2.4.1 4.8 1 7 1.4 2 2.1 4.3 2 7v4c-3.8.8-7.8 1.3-12 1.5.6.4.9.9 1 1.5v3c-4.3-.4-6.1 1.6-5.5 6-1.5.7-2.7 1.7-3.5 3-1.4 1.3-2.9 1.3-4.5 0-.8 1.3-2 2-3.5 2-3.9 1-5.9 3.7-6 8-.3 1.3-.7 2.7-1 4h3c-1.4 3.4-2.1 7.1-2 11 1.1.1 2.1 0 3-.5 1.7-3.8 4.7-5.5 9-5 2-2.5 4.4-3 7-1.5 6.1.2 8.7-2.8 8-9 1.2-.7 2.6-1.1 4-1 2.8-4.2 6.3-4.9 10.5-2 1.2-1.1 1.7-2.4 1.5-4 2.7-.1 5.4-.4 8-1 0-1.5.7-2.7 2-3.5 5-1.8 9.4-4.7 13-8.5-.2-1.3.1-2.3 1-3 0-1.5.7-2.7 2-3.5-1.9-1.7-3.5-3.5-5-5.5 3.7 2.7 7.3 5.3 11 8-.5 1.5-1.2 2.8-2 4-2.1 3.9-1.3 6.9 2.5 9 .3 3.1.8 6.1 1.5 9 2.1 1.6 4.1 3.5 6 5.5 5.6 2.7 10.4 1.9 14.5-2.5 2.8 1.2 5.6 1.2 8.5 0 2 1.2 3.5 2.8 4.5 5 .1 3.5 1 6.9 2.5 10 4.4.5 8.5 1.5 12.5 3 2.5-1.9 5.2-3.6 8-5 .4-4.8 1.9-9.2 4.5-13-.3 2.7.3 5 2 7 3.8.4 7.4 1.2 11 2.5.8 1.5 1.4 3 2 4.5 2.6.9 4.6 2.6 6 5h3c.1 1.8-.2 3.4-1 5 .7 1.9 1.2 3.9 1.5 6 2.1.7 4.3.8 6.5.5 3.2 1.1 5.2 3.3 6 6.5 1.1.9 2.4 1.3 4 1 6.1-.6 9.8 2.4 11 9 1 .3 1.7 1 2 2h3c-.2-1.4 0-2.7.5-4 3.1-3.2 7-4.9 11.5-5 .3-1 1-1.6 2-2 3 3 6.7 4.7 11 5 5.2-.5 10-1.9 14.5-4 2.5-.2 4.7.5 6.5 2 1 0 1.7-.5 2-1.5-1.4-6.7-5.4-10.7-12-12-1.8-5.9-5.8-8.9-12-9-.8-1.9-1.5-3.9-2-6l-5.5-5.5c.5-3.3.9-6.6 1-10-4.8-4.1-7-9.4-6.5-16-1.6-2.2-3.1-4.5-4.5-7-2.1-1.5-4.4-2.5-7-3-2.6 3.2-5.7 3.9-9.5 2 .2-4.5-.8-8.6-3-12.5-3.7.2-7.3.7-11 1.5v-5c-4.3-.8-7.6-2.9-10-6.5-1.3-.3-2.7-.7-4-1-5.4-5.6-11.7-8.1-19-7.5-.1-1.2-.7-2.1-2-2.5-2.4-.3-4.7-.8-7-1.5-2.7-4.9-6.7-6.7-12-5.5-1.9-2.5-4.3-4.3-7-5.5-1-1.9-1-3.7 0-5.5-3.6-4.8-8.2-6.5-14-5l-8-2.5z" class="st12"/>
    <path id="n14" d="M438 66.5c.7-.9 1.5-1.5 2.5-2-.2-2.4 0-4.7.5-7 1-.7 2-1.3 3-2 .5-2.3.7-4.6.5-7-.6-.1-1.1-.4-1.5-1-1.9-5.5-.2-9.2 5-11 1.1-2.8 2.6-5.3 4.5-7.5-2-10.3-7.8-13.1-17.5-8.5-2.4-1.3-4.9-2.3-7.5-3-2.7 1-5.3 2-8 3-1.5-.2-3-.5-4.5-1-.5.3-1 .7-1.5 1 .9 1.3 1.1 2.6.5 4-3.8 1-6 3.3-6.5 7h-6c-.7-5.1-3-6.4-7-4 .5-1.3.7-2.7.5-4-1.6-.9-3.1-1.9-4.5-3-2 1.4-4.1 2-6.5 2-2.9-1.2-5.7-1.2-8.5 0-3-1.8-6.4-3.3-10-4.5-1.7-.7-3.3-.7-5 0-1.3 3.6-1.3 7.3 0 11-.6 4.7-2.6 8.5-6 11.5-.3 1.9 0 3.6 1 5 1.4.5 2.1 1.5 2 3 .1 2.2-.2 4.4-1 6.5 1.9 1.4 3.3 3.3 4 5.5.7.9 1.3 1.9 2 3l-3 3c-6 .1-12 .4-18 1 2.3 2.1 2.6 4.6 1 7.5 1 1.9 1.6 3.9 2 6-1.2 3.1-2.2 6.3-3 9.5h-3c-.8 5.1.7 9.5 4.5 13 .3 2.7.7 5.3 1 8 1 .8 2.2 1.2 3.5 1 .2 4.7 0 9.3-.5 14-.7.5-1.2 1.2-1.5 2 2.5 2.1 3.5 4.7 3 8 .9-.6 1.9-.9 3-1 4.1 2.9 5.4 1.9 4-3 2.2-5.4 5.4-6 9.5-2 3.4-2.4 6.9-4.4 10.5-6 2.6-1 5.3-1.3 8-1 .1-2.2-.2-4.4-1-6.5.6-2.1 1.9-3.2 4-3.5.8-1.5 2.3-4.7 3-4 1.5-1 2.8-2.1 4-3.5 2-.5 4-.7 6-.5 1.4.1 2.8-.3 4-1 .9.8 1.2 1.8 1 3-1.2 2.2-2.2 4.5-3 7 .5 1.6.9 3.3 1 5 2.4 4.6 3.4 9.6 3 15 1.2 1.6 2.5 2 4 1 .1-4.3 2.1-7 6-8 1.9-3.3 4.6-4 8-2 .8-1.3 2-2.3 3.5-3-.6-4.4 1.2-6.4 5.5-6v-3c-1.5-.3-2.2-1.3-2-3h13v-4c-1.4-2-2.1-4.3-2-7-.9-2.2-1.2-4.6-1-7 .2-6.4-.5-12.8-2-19l-.5-7z" class="st14"/>
    <path id="n15" d="M295.5 161.5c3.1.5 5.5 2.1 7 5 4.5-.5 9.1-.5 14 0 2.4 2.2 4.4 4.7 6 7.5.9.5 1.9.6 3 .5 1.4-1 3.1-1.3 5-1v4h3c.4-5.2-.3-10.2-2-15-2.4-1.6-2.4-3.4 0-5.5 4.3 0 7.3-2 9-6 7.1-1.3 8.7-5 5-11-.2-2.3.8-3.4 3-3.5.5-3.3-.5-5.9-3-8 .3-.8.8-1.5 1.5-2 .5-4.7.7-9.3.5-14-1.3.2-2.5-.2-3.5-1-.3-2.7-.7-5.3-1-8-3.8-3.5-5.3-7.9-4.5-13h3c.8-3.2 1.8-6.4 3-9.5-.4-2.1-1-4.1-2-6 1.6-2.9 1.3-5.4-1-7.5v-1c6-.6 12-.9 18-1 .8-1.5 1.1-3.2 1-5-.7-2.2-2.1-4.1-4-5.5.8-2.1 1.1-4.3 1-6.5-1.4-.5-2.1-1.5-2-3-1-1.4-1.3-3.1-1-5 .2-1.3-.2-2.5-1-3.5-3.9-1.3-7.9-1.8-12-1.5.4-3.8-.2-7.3-2-10.5 2.2-3.4 2.2-6.9 0-10.5 1.3-1.8 1.8-3.8 1.5-6-2.8-2-5.8-3.7-9-5-2.6 1.2-5.3 2.2-8 3-1.9-1.5-4-2.2-6.5-2 .2 1.7 0 3.4-.5 5-2.1.7-4.3.8-6.5.5-1.4 1.6-2 3.4-2 5.5h-3c.2 1.7 0 3.4-.5 5-1.7.8-2.5 2.1-2.5 4 1.6 2.9 1.1 5.6-1.5 8-.5 2.3-.7 4.6-.5 7 1.7 1.1 2.7 2.8 3 5v1c-.3-2.2-1.3-3.9-3-5h-1c-3.1-.3-6.1.2-9 1.5-.7 1.1-1.2 2.2-1.5 3.5-1.8.6-3.7 1.3-5.5 2-.5 1.7-1.2 3.4-2 5-2 2.5-4.3 4.5-7 6v3c1.3 3.4 2.9 6.8 5 10-.2.6-.5 1.1-1 1.5 1.6 2.1 2.9 4.2 4 6.5 2.2-.1 4.2-.8 6-2 1.4 1.5 3 2.1 5 2 .7 4 1.3 8 2 12-2.7 3.4-4.4 7.4-5 12h-5c1.3 5.3-.7 8-6 8-1.3.8-2.5 1.8-3.5 3-.1 4.2-1 8.2-2.5 12 0 .9.4 1.6 1 2 2.4 4.7 3.7 9.9 4 15.5-.1.8-.4 1.3-1 1.5v1c0 1.1-.4 2.1-1 3 1.8 3.4 2.5 7 2 11 4 1.8 7.7 4.1 11 7 1.9-1.4 3.6-3.1 5-5" style="fill-rule:evenodd;clip-rule:evenodd;fill:#0d02fa"/>
    <path id="n16" d="M250.5 148.5c-3.1 1.9-6.5 3.3-10 4 .1-1-.2-1.8-1-2.5l-6-1.5c-1.4-.7-2.9-1.4-4.5-2-.2-4.2-1-8.2-2.5-12-1.5-3.1-2.2-6.4-2-10-.5-2-1.7-3.7-3.5-5-3-7.2-5.6-14.5-8-22-5.2-4.2-10.7-4.9-16.5-2-1.5.1-2.5-.6-3-2 1.9-1.8 2.3-3.8 1-6-2.5-1.3-4.8-1.3-7 0-1.8 6.7-3.5 6.6-5-.5-1.6-.8-2.9-.6-4 .5-1.1-.1-1.8-.8-2-2 1.4-2.8 2.1-5.8 2-9 1.3.2 2.5-.2 3.5-1 .9-2 1.8-4 2.5-6 2.7-.7 5.2-1.7 7.5-3 1.2.4 2.4.9 3.5 1.5 1.8 4.9 4.8 5.7 9 2.5 2.2.5 4 1.5 5.5 3 2.2-1.7 4.7-2.7 7.5-3-.1-1 .2-1.8 1-2.5 1.3-.3 2.7-.7 4-1 1.8-2.5 4.1-4.1 7-5 .6-1.9 1.6-3.6 3-5 3.7-1.1 7.4-2.2 11-3.5-.5-7.3.6-14.3 3.5-21 4.9-.9 9.4-2.7 13.5-5.5 1.5-2.8 3.7-5 6.5-6.5.9-2.2 1.7-4.3 2.5-6.5 4.3.1 8.7.1 13 0 5.4-3.5 9.3-2 11.5 4.5 1.5 1.5 3.3 2.3 5.5 2.5 1.3 1.4 2.3 2.9 3 4.5.5 2.8-.4 5.2-2.5 7-.5 2.6-.7 5.3-.5 8-3.1-.3-6.1.2-9 1.5-.7 1.1-1.2 2.2-1.5 3.5-1.8.6-3.7 1.3-5.5 2-.5 1.7-1.2 3.4-2 5-2 2.5-4.3 4.5-7 6-2.5.3-4.1 1.6-5 4 1.5 0 2.7-.7 3.5-2 .4.6.9.9 1.5 1 1.3 3.4 2.9 6.8 5 10-.2.6-.5 1.1-1 1.5 1.6 2.1 2.9 4.2 4 6.5 2.2-.1 4.2-.8 6-2 1.4 1.5 3 2.1 5 2 .7 4 1.3 8 2 12-2.7 3.4-4.4 7.4-5 12h-2c-.5-1.6-1.5-2.1-3-1.5-.8 2.1-1.3 4.2-1.5 6.5-1.4 1.3-2.9 2.3-4.5 3-1.3.8-2.5 1.8-3.5 3-.1 4.2-1 8.2-2.5 12 0 .9.4 1.6 1 2-.1 3.2.6 6.2 2 9-.1 1.4-.5 2.7-1 4 1.1 1.1 1.8 2.5 2 4v1c-1.4 1-2.4 2.3-3 4-1-.7-2-1.4-3-2-3.3.2-5.8-1.1-7.5-4-1.6 1.3-3.1 1.3-4.5 0-.5-1.4-1.5-2-3-2-1.5.7-2.9 1.7-4 3" style="fill-rule:evenodd;clip-rule:evenodd;fill:#fb0503"/>
  </g>
  <g id="kontur">
    <path d="M463.5 342.5c.2 4 0 8-.5 12-2.1 1.8-3 4.2-2.5 7 1.6-.3 2.9.1 4 1h-5c2.1-6.5 3.4-13.1 4-20z" style="fill-rule:evenodd;clip-rule:evenodd;fill:#66381e"/>
    <path d="M180.5 356.5c-1 .1-1.8-.2-2.5-1-5.8 2-10.6 5.3-14.5 10 2.9-5.8 7.5-9.5 14-11 1.5 0 2.5.6 3 2z" style="fill-rule:evenodd;clip-rule:evenodd;fill:#565e20"/>
    <path d="M259.5 357.5c1-.1 1.8.2 2.5 1 2.1 2.6 3.9 5.2 5.5 8-3.4-2.4-6-5.4-8-9z" style="fill-rule:evenodd;clip-rule:evenodd;fill:#601b45"/>
    <path d="M502.5 357.5c2.1 1.1 3.4 2.8 4 5-2.1-1.1-3.4-2.8-4-5z" style="fill-rule:evenodd;clip-rule:evenodd;fill:#51591e"/>
    <path d="M418.5 347.5c-1.1 2.1-2.1 4.2-3 6.5 1.1 2 1.8 4.2 2 6.5 2.4-.5 4.1.3 5 2.5-1.6 3.6-2.5 7.4-2.5 11.5-.8.6-1.6 1.1-2.5 1.5 6.8 1.9 8.4 5.7 5 11.5-.6-.2-.9-.7-1-1.5 1.1-1.4 1.6-2.9 1.5-4.5-2.1-2-4.3-3.8-6.5-5.5 1.5-4.3 2.8-8.6 4-13-.2-.5-.3-1-.5-1.5-1 1.3-2 1.3-3 0-.5-2.5-1.7-4.7-3.5-6.5.8-3.2 2.5-5.7 5-7.5z" style="fill-rule:evenodd;clip-rule:evenodd;fill:#5e8523"/>
    <path d="M131.5 356.5c4.7 1.3 6 4.1 4 8.5 1.9 1.7 3.5 3.5 5 5.5-5.1-1.6-7-4.9-5.5-10-1.4-1.2-2.5-2.5-3.5-4z" style="fill-rule:evenodd;clip-rule:evenodd;fill:#551d47"/>
    <path d="M267.5 366.5c2-.2 4 0 6 .5.6.4.9.9 1 1.5-2.5-.4-4.8-1.1-7-2z" style="fill-rule:evenodd;clip-rule:evenodd;fill:#51192f"/>
    <path d="M464.5 362.5c1.4 2 1.1 3.8-1 5.5-4.3-.1-8.6-.2-13-.5v5c-1-1.8-1.3-3.8-1-6 3.9-.2 7.7.1 11.5 1 2.5-.7 3.7-2.4 3.5-5z" style="fill-rule:evenodd;clip-rule:evenodd;fill:#5a421c"/>
    <path d="M204.5 369.5c-3.2 1.1-6.2 1.1-9 0 3.2-.6 6.2-.6 9 0z" style="fill-rule:evenodd;clip-rule:evenodd;fill:#2b3355"/>
    <path d="M286.5 366.5c.9.7 1.2 1.7 1 3 2.7-.2 5.4 0 8 .5 1.3 1.6 1.3 3.1 0 4.5.2-1.3-.2-2.5-1-3.5-3.5-.9-6.9-.4-10 1.5-3.5-1.2-6.8-2.5-10-4 4 .7 8 1.3 12 2v-4z" style="fill-rule:evenodd;clip-rule:evenodd;fill:#653442"/>
    <path d="M162.5 367.5v5h-4v3h-3c1.3-1 2-2.3 2-4h4c-.3-1.6.1-2.9 1-4z" style="fill-rule:evenodd;clip-rule:evenodd;fill:#443f1d"/>
    <path d="M206.5 371.5c1.5-.1 2.5.6 3 2-1.5.1-2.5-.6-3-2z" style="fill-rule:evenodd;clip-rule:evenodd;fill:#28494b"/>
    <path d="M140.5 370.5c3.9 1 6.6 3.3 8 7-2.7-2.3-5.4-4.7-8-7z" style="fill-rule:evenodd;clip-rule:evenodd;fill:#5c1c49"/>
    <path d="M88.5 368.5c1.3.6 2.1 1.6 2.5 3 .5 3 .7 6 .5 9-1.4-3.8-2.4-7.8-3-12z" style="fill-rule:evenodd;clip-rule:evenodd;fill:#521e5d"/>
    <path d="M295.5 374.5c-1.8.8-3.2 2.1-4 4h-14c6.2-.5 12.2-1.9 18-4z" style="fill-rule:evenodd;clip-rule:evenodd;fill:#372f6f"/>
    <path d="M356.5 371.5c-.3 1.8 0 3.5 1 5 1.1-1.3 2.5-1.8 4-1.5 4.1 4.6 7.1 9.8 9 15.5-.5 1.6-.9 3.3-1 5-1.2-7.1-4.2-13.5-9-19-1.6.8-3.2 1.1-5 1-.3-2.2 0-4.2 1-6z" style="fill-rule:evenodd;clip-rule:evenodd;fill:#597c1d"/>
    <path d="M277.5 378.5c-1.5 3.7-4 4.7-7.5 3l-2 2c-.2 2.2-.7 4.2-1.5 6-.7-2.3-.8-4.7-.5-7 1.3-.7 2.3-1.7 3-3 1.1.8 2.3 1.5 3.5 2 1.4-1.5 3.1-2.5 5-3z" style="fill-rule:evenodd;clip-rule:evenodd;fill:#6f1e46"/>
    <path d="m150.5 380.5 3 6c-2.5-1.2-3.5-3.2-3-6z" style="fill-rule:evenodd;clip-rule:evenodd;fill:#2f3972"/>
    <path d="M286.5 378.5h5c2.5 2.2 2.5 4.5 0 7 1.9.8 3.5 1.8 5 3-2 .2-3.8-.1-5.5-1-.2-2.7 0-5.3.5-8-1.9.3-3.6 0-5-1z" style="fill-rule:evenodd;clip-rule:evenodd;fill:#635620"/>
    <path d="M301.5 394.5c5.5 1.5 11.2 2.5 17 3-2.8 1.1-5.8 1.3-9 .5l-2-2c-2.2-.2-4.2-.7-6-1.5z" style="fill-rule:evenodd;clip-rule:evenodd;fill:#4d5a1e"/>
    <path d="M318.5 397.5c1.8-1.1 3.8-1.3 6-.5 1.5 2.8 3.5 3.6 6 2.5-.4 1.2-1.2 1.9-2.5 2-1.8-.8-3.3-1.9-4.5-3.5-1.6-.5-3.3-.7-5-.5z" style="fill-rule:evenodd;clip-rule:evenodd;fill:#5a3c1e"/>
    <path d="M350.5 401.5c-.8-1.2-1.8-2.2-3-3-2 1.4-4.1 2-6.5 2-3.5-.7-7-1-10.5-1 5.5-.8 11.2-1.4 17-2 2.4.2 3.4 1.6 3 4z" style="fill-rule:evenodd;clip-rule:evenodd;fill:#665724"/>
    <path d="M451.5 374.5c2.5 5.3.8 8.3-5 9 .4 3.6 1.1 7.1 2 10.5-.2 3.3-.9 6.4-2 9.5 3.8-.5 5.8 1.2 6 5h-3c1.3-3.4-.1-4.7-4-4-.1-3.8.6-7.5 2-11-1.6-3.4-2.3-7.1-2-11 5.4 0 7.4-2.7 6-8z" style="fill-rule:evenodd;clip-rule:evenodd;fill:#6c451f"/>
    <path d="M259.5 398.5a28.8 28.8 0 0 0-3 5c0-1-.5-1.7-1.5-2-2.1.8-4.3 1.1-6.5 1 .2-1.4 0-2.7-.5-4-.8 1.3-2 2-3.5 2 .9-2.2 2.6-3.2 5-3v4c3.6-.4 6.9-1.4 10-3z" style="fill-rule:evenodd;clip-rule:evenodd;fill:#372b3d"/>
    <path d="M60.5 405.5h-4v-4c-3.5.7-6.8.7-10 0 3.6-.6 7.3-.9 11-1v4c1.3-.2 2.3.1 3 1z" style="fill-rule:evenodd;clip-rule:evenodd;fill:#4e3a1b"/>
    <path d="M372.5 399.5c.6.2.9.7 1 1.5a31.4 31.4 0 0 0-4 8.5c-1.9-3.4-4.9-5.1-9-5 2.7-1.3 5.4-.9 8 1 1.8-1.7 3.2-3.7 4-6z" style="fill-rule:evenodd;clip-rule:evenodd;fill:#54541f"/>
    <path d="M425.5 391.5c3.4 2.7 3.9 6.1 1.5 10-2.8 2.1-4.8 4.8-6 8-3.9 1.8-7.1 4.4-9.5 8-.1-1.1 0-2.1.5-3 2.2-2.7 4.8-4.7 8-6 1.2-3.2 3.2-5.9 6-8 2-3.1 1.8-6.1-.5-9z" style="fill-rule:evenodd;clip-rule:evenodd;fill:#478121"/>
    <path d="M444.5 415.5c-2.8 1.3-5.1 3.3-7 6 3.8.7 7.5 1.3 11 2h-12c.3-5 3-7.7 8-8z" style="fill-rule:evenodd;clip-rule:evenodd;fill:#567525"/>
    <path d="M194.5 357.5v-4c-3.8-.7-6.8.5-9 3.5-1.9.8-3.6.6-5-.5 1.4.2 2.7 0 4-.5 1.5-2.1 3.5-3.5 6-4-.9-.7-1.5-1.5-2-2.5 1.7-.6 3.3-1.3 5-2 .9.1 1.8.4 2.5 1 .1 3.2-.4 6.2-1.5 9z" style="fill-rule:evenodd;clip-rule:evenodd;fill:#322b35"/>
    <path d="M285.5 343.5c.9 2.5 1.5 5.2 2 8 0 .9-.4 1.6-1 2-.7-3.3-1-6.6-1-10z" style="fill-rule:evenodd;clip-rule:evenodd;fill:#404819"/>
    <path d="M243.5 350.5c3.1-.3 6.1 0 9 1 .6.9 1 1.9 1 3-1.2-.7-2.2-1.7-3-3-2.7 1.4-5 1.1-7-1z" style="fill-rule:evenodd;clip-rule:evenodd;fill:#6a1e47"/>
    <path d="M506.5 345.5c1-.1 1.8.2 2.5 1 .5 1.6.7 3.3.5 5-3.6.5-5.9 2.5-7 6-.6-.2-.9-.7-1-1.5 1.7-1.9 2.7-4 3-6.5 4.3.2 5-1.1 2-4z" style="fill-rule:evenodd;clip-rule:evenodd;fill:#545a20"/>
    <path d="M358.5 326.5c.8 3.8 1.3 7.8 1.5 12 1.7 1.8 1.5 3.7-.5 5.5 2.4 2.1 3.4 4.8 3 8-1.3 4.5-2.3 9.2-3 14 .8 2.5-.2 4.3-3 5.5 1.2-4.6 2-9.3 2.5-14 3.3-4.5 3.1-9-.5-13.5v-17.5z" style="fill-rule:evenodd;clip-rule:evenodd;fill:#55771f"/>
    <path d="M635.5 329.5c1.4 1.3 2.1 2.9 2 5 0 .7-.3 1-1 1-.7-1.9-1-3.9-1-6z" style="fill-rule:evenodd;clip-rule:evenodd;fill:#4f275c"/>
    <path d="M413.5 315.5c-2.1 5.7-3.7 11.5-5 17.5 2.2 2.9 5.1 5.1 8.5 6.5 2.4 2.5 2.9 5.1 1.5 8 .2-2.7-.6-5.1-2.5-7-2.8-1.4-5.5-3.1-8-5-.1-4.7.4-9.4 1.5-14-1.3.2-2.3-.1-3-1 2 .3 3.3-.3 4-2 .7-1.3 1.7-2.3 3-3z" style="fill-rule:evenodd;clip-rule:evenodd;fill:#4f8221"/>
    <path d="M198.5 334.5c2-.2 4 0 6 .5 1.2 2.6 2.5 5.1 4 7.5-2.6-1.4-4.3-3.6-5-6.5-1.9-.2-3.5-.7-5-1.5z" style="fill-rule:evenodd;clip-rule:evenodd;fill:#5a4f3f"/>
    <path d="M183.5 322.5c1.5 2.4 2.5 5.1 3 8-.9 2.9-2.3 5.6-4 8 .6 2.5 1.6 4.9 3 7-3-1.3-4.3-3.7-4-7 1.2-3 2.5-6 4-9-1.4-2.1-2.1-4.5-2-7z" style="fill-rule:evenodd;clip-rule:evenodd;fill:#5c2547"/>
    <path d="M466.5 335.5c.3 3-.7 5.3-3 7 .4-2.7 1.4-5 3-7z" style="fill-rule:evenodd;clip-rule:evenodd;fill:#555c1e"/>
    <path d="M216.5 332.5c.2 3.1.8 6.1 2 9 3 1.7 5.7 3.7 8 6-2.3 1.3-4.7 1.3-7 0 1.4.2 2.7 0 4-.5-2.1-2.4-4.6-4.3-7.5-5.5-.8-3.2-.6-6.2.5-9z" style="fill-rule:evenodd;clip-rule:evenodd;fill:#7f4e24"/>
    <path d="M565.5 336.5c1.9 3.3 2.2 6.8 1 10.5 1.2 1 2.2 2.2 3 3.5-1.5 0-2.7-.7-3.5-2 .2-2.3.2-4.6 0-7-1-.6-1.8-1.2-2.5-2 1.5-.3 2.2-1.3 2-3z" style="fill-rule:evenodd;clip-rule:evenodd;fill:#47591e"/>
    <path d="M604.5 312.5c-1 4.3-3 8.2-6 11.5 2.1 3.1 4.4 3.3 7 .5.8.5 1.1 1.1 1 2-1.3 0-2.3.5-3 1.5.9 1.7 1.2 3.5 1 5.5h-9c.2-2.4-.4-4.4-2-6 2.8.5 4.1 2.1 4 5h6c-.3-4.2-2.6-6.2-7-6 0-1.8.5-3.5 1.5-5 3.2-1.7 4-4 2.5-7 1.6-.2 2.9-.9 4-2z" style="fill-rule:evenodd;clip-rule:evenodd;fill:#43216b"/>
    <path d="M575.5 328.5c-1.2-3-3.1-5.6-5.5-8-3.5 3-5.3 6.6-5.5 11-1-5.4.8-9.4 5.5-12 3.7 1.7 5.5 4.7 5.5 9z" style="fill-rule:evenodd;clip-rule:evenodd;fill:#4c1a4e"/>
    <path d="M471.5 319.5c1.3-.2 2.3.1 3 1-1.6 1.6-2.8 3.6-3.5 6-1.4-.9-2.9-1.2-4.5-1-.2 2.4-.5 4.7-1 7-.8-2.5-.8-5.1 0-8h6v-5z" style="fill-rule:evenodd;clip-rule:evenodd;fill:#693521"/>
    <path d="M97.5 324.5c-.8 1.6-2.1 2.3-4 2 1-1.2 2.3-1.8 4-2z" style="fill-rule:evenodd;clip-rule:evenodd;fill:#2b4852"/>
    <path d="M612.5 326.5c.8-.6 1.8-1 3-1 2.5 1.2 5.2 1.8 8 2-.6.6-1.4 1-2.5 1-2.6-1.5-5.4-2.2-8.5-2z" style="fill-rule:evenodd;clip-rule:evenodd;fill:#371b57"/>
    <path d="M630.5 324.5c2.7.7 4.3 2.3 5 5-2-1.3-3.7-3-5-5z" style="fill-rule:evenodd;clip-rule:evenodd;fill:#501e54"/>
    <path d="M593.5 327.5c-1 .1-1.8-.2-2.5-1-.2 1.2-.7 2.2-1.5 3v-4c1.9-.3 3.2.4 4 2z" style="fill-rule:evenodd;clip-rule:evenodd;fill:#4e173d"/>
    <path d="M500.5 316.5c-1.4 1.3-2.1 3-2 5 .7 3.5 2 6.7 4 9.5-.5 2.2-1.5 4.2-3 6 .2.9.6 1.7 1 2.5-1.1-.3-1.8-1.1-2-2.5 1.4-2.4 2.3-4.9 2.5-7.5-2.4-.6-4.6-1.6-6.5-3 1.4.2 2.7 0 4-.5-1.1-2.7-1.3-5.6-.5-8.5.7-.8 1.5-1.1 2.5-1z" style="fill-rule:evenodd;clip-rule:evenodd;fill:#5c453d"/>
    <path d="M589.5 329.5c-.3 1-1 1.6-2 2-3.9-1.5-7.9-2.5-12-3 2.7.1 5.4-.2 8-1 1.8 1.2 3.8 1.8 6 2z" style="fill-rule:evenodd;clip-rule:evenodd;fill:#7e223e"/>
    <path d="M133.5 317.5c-4.3 4.1-7.3 9.1-9 15 3.8 7.5 6.1 15.5 7 24-1.1-.1-1.8-.8-2-2-.1-6.9-2-13.2-5.5-19-.5-4.1 0-8.1 1.5-12 1.5 0 2.7-.7 3.5-2 .1-2.9 1.6-4.3 4.5-4z" style="fill-rule:evenodd;clip-rule:evenodd;fill:#722438"/>
    <path d="M450.5 318.5c5.8.2 11.4.6 17 1-4.7.8-9.4 1.2-14 1-1.5 0-2.5-.6-3-2z" style="fill-rule:evenodd;clip-rule:evenodd;fill:#2a4d40"/>
    <path d="M532.5 306.5c2.4-.2 4.7 0 7 .5.8.7 1.1 1.5 1 2.5-2.6-1.4-5.2-2.4-8-3z" style="fill-rule:evenodd;clip-rule:evenodd;fill:#2c4c4a"/>
    <path d="M147.5 308.5c-4 .5-8 1.2-12 2-.5 1.5-1.2 2.9-2 4-.2-2 .1-3.8 1-5.5 3.9-.3 7.7-.8 11.5-1.5.8.1 1.3.4 1.5 1z" style="fill-rule:evenodd;clip-rule:evenodd;fill:#7e4422"/>
    <path d="M171.5 310.5c2.3.6 4.5 1.6 6.5 3 1.6 3.1 3.5 6.1 5.5 9-1.8-1.9-3.9-3.3-6.5-4v-4c-2.2-1-4-2.3-5.5-4z" style="fill-rule:evenodd;clip-rule:evenodd;fill:#854822"/>
    <path d="M285.5 277.5c.7.4 1.2 1.1 1.5 2 .5 2.6.7 5.3.5 8-1.5-.3-2.8.1-4 1 .9 1.3 1.1 2.6.5 4-1.4-.9-2.9-1.2-4.5-1 0 2.1.4 4.1 1 6-.6-.1-1.1-.4-1.5-1-.7-2-.7-4 0-6 1-.8 2.2-1.2 3.5-1-.3-1.5.1-2.8 1-4 2 1.4 3 .7 3-2-.3-2-.7-4-1-6z" style="fill-rule:evenodd;clip-rule:evenodd;fill:#333f6f"/>
    <path d="M596.5 283.5c-2.1.8-4.5 1.3-7 1.5-2.7 3.7-6.2 6.2-10.5 7.5-1.4-.2-2.2-.9-2.5-2 1.2.9 2.6 1.1 4 .5 3-2 5.6-4.3 8-7 2.6-.5 5.3-.7 8-.5z" style="fill-rule:evenodd;clip-rule:evenodd;fill:#442079"/>
    <path d="M182.5 281.5v4c-10.1.6-17.3 5.3-21.5 14 2.4 1.9 4.3 4.3 5.5 7h-7c4.9-.8 5.3-2.7 1-5.5-3.4-.1-6.4-.9-9-2.5 2.7.3 5.3.7 8 1 4.2-9.4 11.5-14.4 22-15-.2-1.3.1-2.3 1-3z" style="fill-rule:evenodd;clip-rule:evenodd;fill:#705421"/>
    <path d="M402.5 281.5c-.9 4.6-1.2 9.3-1 14-1.3.2-2.3-.1-3-1 1.8-3.5 2.6-7.5 2.5-12 .4-.6.9-.9 1.5-1z" style="fill-rule:evenodd;clip-rule:evenodd;fill:#2f7e23"/>
    <path d="M515.5 286.5c.2 4.5 2.5 7.2 7 8-2.1-.1-3.7.5-5 2 .2-1.9-.5-3.4-2-4.5-3.7-.5-7.3-.7-11-.5 3.5-.9 7.2-1.6 11-2v-3z" style="fill-rule:evenodd;clip-rule:evenodd;fill:#5c3751"/>
    <path d="M562.5 290.5c-.2 2.4-1.5 3.4-4 3-2.7-1.1-5.4-1.1-8 0-1.7-.9-3.6-1.6-5.5-2-4.2.9-8.4 1.9-12.5 3 4.8-3.3 10.1-4.5 16-3.5 1.7 1.8 3.4 1.7 5-.5 3 1.3 6 1.3 9 0z" style="fill-rule:evenodd;clip-rule:evenodd;fill:#631d4b"/>
    <path d="M244.5 293.5c1.8-1.1 3.8-1.3 6-.5 2.5 2.9 3.9 6.4 4 10.5 0 .9-.4 1.6-1 2l-1.5-9c-1.8-2.5-4.3-3.5-7.5-3z" style="fill-rule:evenodd;clip-rule:evenodd;fill:#4f1a44"/>
    <path d="M342.5 286.5c1.5-.3 2.8.1 4 1-.9 2.9-1.2 5.9-1 9-1.8.1-3.4-.2-5-1-1.6 1-3.2 1.6-5 2 2.1-2.9 4.7-3.5 8-2 1.4-3.3 1.1-6.3-1-9z" style="fill-rule:evenodd;clip-rule:evenodd;fill:#243a71"/>
    <path d="M235.5 287.5c1.8 1.5 2.4 3.5 2 6h7c-2.2.7-4.5 1.3-7 2-3 3.5-6.3 6.5-10 9-.2-1.2.1-2.2 1-3 2.9-1.4 5.4-3.4 7.5-6 .6-2.7.4-5.4-.5-8z" style="fill-rule:evenodd;clip-rule:evenodd;fill:#763f27"/>
    <path d="M632.5 297.5c-2.3 1.9-5 3.2-8 4 2.1-2.3 4.8-3.6 8-4z" style="fill-rule:evenodd;clip-rule:evenodd;fill:#4d3d6e"/>
    <path d="M426.5 295.5c-.3 2.5-1.3 4.5-3 6 .3-2.5 1.3-4.5 3-6z" style="fill-rule:evenodd;clip-rule:evenodd;fill:#591b47"/>
    <path d="M306.5 296.5c-.6 4-2.9 6.1-7 6.5-5.7 4.8-10.3 10.3-14 16.5 1.4-4.4 3.5-8.4 6.5-12 4.8-3.9 9.6-7.6 14.5-11z" style="fill-rule:evenodd;clip-rule:evenodd;fill:#277c4c"/>
    <path d="M516.5 298.5c-.4 2.7-1.4 5-3 7 .1-2.8 1.1-5.2 3-7z" style="fill-rule:evenodd;clip-rule:evenodd;fill:#2d4752"/>
    <path d="M622.5 302.5c-.1.6-.4 1.1-1 1.5-2 .5-4 .7-6 .5.2 1.3-.1 2.3-1 3v-4c2.7.1 5.4-.2 8-1z" style="fill-rule:evenodd;clip-rule:evenodd;fill:#4c403a"/>
    <path d="M266.5 311.5c-.6-.1-1.1-.4-1.5-1-.5-2-.7-4-.5-6-2.8.7-5.5 1.7-8 3 2.1-3 5.1-4.4 9-4-.1 2.7.2 5.4 1 8z" style="fill-rule:evenodd;clip-rule:evenodd;fill:#571a4c"/>
    <path d="M227.5 304.5c-.8 5-1.6 10-2.5 15-.4.6-.9.9-1.5 1 1.2-1.8 1.2-3.7 0-5.5 1.8-3.4 3.2-6.9 4-10.5z" style="fill-rule:evenodd;clip-rule:evenodd;fill:#8b4221"/>
    <path d="M387.5 292.5c.7 0 1 .3 1 1-4.3 4.1-8.8 8.1-13.5 12-.7.7-.7 1.3 0 2 1.4 1.2 2.5 2.5 3.5 4-2.3-1.1-4.4-2.4-6.5-4-3.5.7-7 1.2-10.5 1.5-4.4 2.8-5.1 6.3-2 10.5-.7 2.3-1.1 4.6-1 7-1-2.5-1.1-5.2-.5-8-1.9-.6-3.8-1.3-5.5-2h4c-.7-3.8.7-6.6 4-8.5 4.1-.2 8.1-.9 12-2 5.2-4.4 10.2-8.9 15-13.5z" style="fill-rule:evenodd;clip-rule:evenodd;fill:#5e4936"/>
    <path d="M628.5 280.5c3.2.4 6.2 1 9 2-3.4.4-6.4-.2-9-2z" style="fill-rule:evenodd;clip-rule:evenodd;fill:#38511c"/>
    <path d="M408.5 281.5c2.8 2.5 6.1 3.7 10 3.5 2.2 3.1 4.9 5.6 8 7.5-1.9-1-3.9-1.8-6-2.5-2.3-2.8-5.3-4.1-9-4-1.6-1.1-2.6-2.6-3-4.5z" style="fill-rule:evenodd;clip-rule:evenodd;fill:#84213f"/>
    <path d="M351.5 278.5c-3.5 1-7.1 1.7-11 2 3.3-1.7 7-2.4 11-2z" style="fill-rule:evenodd;clip-rule:evenodd;fill:#233569"/>
    <path d="M611.5 279.5v1h-6c-1.6 3.7-2.2 7.4-2 11-.1-1.7-.5-3.4-1-5 .7-1.3 1.3-2.7 2-4-.3-.7-.7-1.3-1-2-1.6.8-3.2 1.1-5 1 3.9-1.9 8.2-2.6 13-2z" style="fill-rule:evenodd;clip-rule:evenodd;fill:#722744"/>
    <path d="M615.5 270.5c1.6 1 3 2.3 4 4 4.1.4 7.1 2.4 9 6-2.3-1.3-4.7-2.6-7-4-3.1 1.9-6.4 3.2-10 4v-1c2.8-.6 5.1-1.9 7-4-1.5-1.4-2.5-3.1-3-5z" style="fill-rule:evenodd;clip-rule:evenodd;fill:#635d1d"/>
    <path d="M388.5 279.5c1.9 1.3 3.9 2.3 6 3-1.7.2-3.4 0-5-.5-.8-.7-1.1-1.5-1-2.5z" style="fill-rule:evenodd;clip-rule:evenodd;fill:#2d3e41"/>
    <path d="M191.5 257.5c-4.1.9-5.8 3.6-5 8h3c-1.4 1-3.1 1.3-5 1 .3 5.3-.4 10.3-2 15 .3-8.6 1.8-16.9 4.5-25 1.4.9 2.9 1.2 4.5 1z" style="fill-rule:evenodd;clip-rule:evenodd;fill:#60482a"/>
    <path d="M452.5 267.5c-2 4.8-5 5.8-9 3 1.7.2 3.4 0 5-.5 1-1.5 2.3-2.3 4-2.5z" style="fill-rule:evenodd;clip-rule:evenodd;fill:#2c4288"/>
    <path d="M351.5 265.5c.8 3 1.5 6.2 2 9.5-.3 1.5-1 2.6-2 3.5v-13z" style="fill-rule:evenodd;clip-rule:evenodd;fill:#335d89"/>
    <path d="M410.5 277.5c-1.2-.2-2.2.1-3 1 .6.9 1 1.9 1 3-1.6-.8-2.3-2.1-2-4h-3c.3 1.6-.1 2.9-1 4v-5c2.9-.3 5.6 0 8 1z" style="fill-rule:evenodd;clip-rule:evenodd;fill:#33462e"/>
    <path d="M421.5 277.5c-3.9.3-7.6.3-11 0 3.8-1.2 7.5-1.2 11 0z" style="fill-rule:evenodd;clip-rule:evenodd;fill:#2a4439"/>
    <path d="M386.5 271.5c1.5 2.3 2.2 5 2 8-1.3-2.4-1.9-5.1-2-8z" style="fill-rule:evenodd;clip-rule:evenodd;fill:#2d563b"/>
    <path d="M552.5 266.5c-1.7.7-3.6 1.4-5.5 2-.5 6.3-3.5 10.9-9 14-2.2-.8-3.7-2.3-4.5-4.5-4.7.4-9.4.3-14-.5.1-1.8-.2-3.5-1-5 1.6.3 2.6 1.3 3 3 4.3.8 8.6 1.3 13 1.5.6 1.8 1.8 2.9 3.5 3.5 3-1.7 5.3-4 7-7-.9-6 1.6-8.3 7.5-7z" style="fill-rule:evenodd;clip-rule:evenodd;fill:#824529"/>
    <path d="M570.5 261.5c-1.8-.2-3.7-.6-5.5-1-3.7 1.4-7.6 2.4-11.5 3 .2 1.3-.1 2.3-1 3v-4c4.2-.8 8.4-1.8 12.5-3 2.2-.1 4.1.6 5.5 2z" style="fill-rule:evenodd;clip-rule:evenodd;fill:#733b1e"/>
    <path d="M291.5 258.5c2 3.2 2.4 6.5 1 10-.1-3.4-.4-6.7-1-10z" style="fill-rule:evenodd;clip-rule:evenodd;fill:#263974"/>
    <path d="M276.5 264.5c-.3 1-1 1.6-2 2-2.4-2.4-4.6-5.1-6.5-8-.7.8-1.5 1.1-2.5 1 .8-1.8 2.1-2.3 4-1.5 1.6 1.8 2.9 3.8 4 6 .9.5 1.9.6 3 .5z" style="fill-rule:evenodd;clip-rule:evenodd;fill:#541c52"/>
    <path d="M377.5 257.5c0 1.1-.4 2.1-1 3-6.8 1.7-13.1 1.1-19-2 3.9 1.1 7.9 1.8 12 2 2-.3 4-.7 6-1 .4-1 1-1.7 2-2z" style="fill-rule:evenodd;clip-rule:evenodd;fill:#4e1e5e"/>
    <path d="M247.5 236.5c6.4-.3 8.7 2.7 7 9-.7-1.9-1.3-3.9-2-6-1.9-.8-3.6-1.8-5-3z" style="fill-rule:evenodd;clip-rule:evenodd;fill:#50611e"/>
    <path d="M381.5 247.5c-.8 1.1-1.8 1.2-3 .5-.9-1-1.9-1.9-3-2.5-1.4 3.3-1.1 6.3 1 9-1 .1-1.8-.2-2.5-1-.3-3.4-.8-6.7-1.5-10 .2-2.4 1.6-3.4 4-3-.3 3.7 1.4 6.1 5 7z" style="fill-rule:evenodd;clip-rule:evenodd;fill:#6c4d3e"/>
    <path d="M397.5 229.5v5h-4v8c-4.8-.2-8.8 1.5-12 5-.2-1.3.2-2.5 1-3.5 3-2 6.3-2.8 10-2.5v-8h4c-.3-1.6.1-2.9 1-4z" style="fill-rule:evenodd;clip-rule:evenodd;fill:#60421e"/>
    <path d="M677.5 233.5c-1.4 1-3.1 1.3-5 1 .2 2 0 4-.5 6-1.9 1.2-2.7 2.8-2.5 5-1.4-2.3-.9-4.3 1.5-6 .5-2 .7-4 .5-6h6z" style="fill-rule:evenodd;clip-rule:evenodd;fill:#2e3a5e"/>
    <path d="M290.5 238.5c.4 6.5.7 13.2 1 20-1.2-2.5-2.2-5.1-3-8-1.7 1.4-3.4 2.7-5 4 1.3-3.1 3.4-5.4 6.5-7 .5-3 .7-6 .5-9z" style="fill-rule:evenodd;clip-rule:evenodd;fill:#36435b"/>
    <path d="M159.5 241.5c-1.7-.2-3.4 0-5 .5-2.3 2.9-5.3 4.2-9 4-.6 1-1.2 1.8-2 2.5-.2-1.3.2-2.5 1-3.5 2-.3 4-.7 6-1 2.4-3.4 5.4-4.2 9-2.5z" style="fill-rule:evenodd;clip-rule:evenodd;fill:#491c48"/>
    <path d="M254.5 245.5c2.3 1.8 4.5 3.8 6.5 6 .8 1.6.6 2.9-.5 4 .1-1.1 0-2.1-.5-3-2.5-1.9-4.3-4.3-5.5-7z" style="fill-rule:evenodd;clip-rule:evenodd;fill:#57531e"/>
    <path d="M430.5 224.5c.7 1.5 1 3.1 1 5 .2 2.5-.5 4.7-2 6.5 1.4 1 2.9 1.9 4.5 2.5.7 3.3.7 6.7 0 10-2.7 1.6-3.8 3.9-3.5 7-1.5-3.2-.7-5.9 2.5-8 .7-2.7.7-5.3 0-8-2.4-.8-4.5-2-6.5-3.5 1.4-.5 2.6-1.3 3.5-2.5.5-3 .7-6 .5-9z" style="fill-rule:evenodd;clip-rule:evenodd;fill:#25673f"/>
    <path d="M357.5 249.5c-.8 1.6-2.1 2.3-4 2-.4 3.5.9 5.8 4 7-2.4 1.2-4.7 2.7-7 4.5.8.7 1.1 1.5 1 2.5-1.2-.4-1.9-1.2-2-2.5 1.7-1.4 3-3 4-5-.8-2.4-1.2-4.9-1-7.5 1.7-.1 3.4-.5 5-1z" style="fill-rule:evenodd;clip-rule:evenodd;fill:#5d3a45"/>
    <path d="M669.5 245.5c.8 4.9 1.1 9.9 1 15h-2c.7-5 1-10 1-15z" style="fill-rule:evenodd;clip-rule:evenodd;fill:#2e355b"/>
    <path d="M143.5 248.5v3c-4 1.2-7 3.7-9 7.5-.9.5-1.9.6-3 .5 3.4-4.4 7.4-8 12-11z" style="fill-rule:evenodd;clip-rule:evenodd;fill:#6f1f48"/>
    <path d="M376.5 254.5c2.2 1 4.2 2.4 6 4-1.6-.5-3.3-.9-5-1-.1-1.1-.4-2.1-1-3z" style="fill-rule:evenodd;clip-rule:evenodd;fill:#2a5c29"/>
    <path d="M247.5 258.5c-2.8.9-5.5.9-8 0 0-1 .5-1.7 1.5-2 1.9 1.5 4 2.2 6.5 2z" style="fill-rule:evenodd;clip-rule:evenodd;fill:#3f3051"/>
    <path d="M259.5 255.5c-1.3 1-2 2.3-2 4h8c-.4.7-1.1 1.2-2 1.5-4.8.5-8.8-1-12-4.5 1.2.2 2.4.5 3.5 1 1.3-1.2 2.8-1.9 4.5-2z" style="fill-rule:evenodd;clip-rule:evenodd;fill:#563647"/>
    <path d="M283.5 254.5c-1.4 4.1-3.7 7.4-7 10 1.9-3.7 4.2-7.1 7-10z" style="fill-rule:evenodd;clip-rule:evenodd;fill:#581d5f"/>
    <path d="M593.5 259.5c-.6 1.4-1.8 2.1-3.5 2-2.1-.9-4.3-1.6-6.5-2 .5 4.7-.8 5.7-4 3h3v-4c2.8-.3 5.3.4 7.5 2 1.1-.5 2.3-.8 3.5-1z" style="fill-rule:evenodd;clip-rule:evenodd;fill:#6d3d1d"/>
    <path d="M637.5 230.5c-1.3 7.4-3.8 14.4-7.5 21-4.2 1.5-8.6 2.9-13 4-1.1-.1-2.1-.4-3-1-1 3.4-3.4 5.4-7 6-.2 1.3 0 2.7.5 4-1.3-1-2.6-2-4-3-3.2 3.1-5.5 2.6-7-1.5-.9-.5-1.9-.6-3-.5 1.1-1.1 2.4-1.3 4-.5.5 1.2 1.3 2 2.5 2.5 4-1 7.9-2.5 11.5-4.5.6-1.5 1.3-3 2-4.5 1 .9 2.2 1.6 3.5 2 3.5-2.2 7.4-3.3 11.5-3.5 1.4-2.6 2.9-5.1 4.5-7.5.6-1.4.4-2.8-.5-4 .7 0 1-.3 1-1 .8-2.1 1.3-4.5 1.5-7 .7-.8 1.5-1.1 2.5-1z" style="fill-rule:evenodd;clip-rule:evenodd;fill:#54731f"/>
    <path d="M609.5 230.5v3c1.7-.1 3.4-.5 5-1-1.1 2.8-3.1 4.4-6 5 .1-2.4.5-4.7 1-7z" style="fill-rule:evenodd;clip-rule:evenodd;fill:#443431"/>
    <path d="M545.5 228.5c-.4 1.9-1.4 3.4-3 4.5-6 2-12 3.2-18 3.5 1.1-1.1 2.4-1.9 4-2.5 6.4.5 12.1-1.3 17-5.5z" style="fill-rule:evenodd;clip-rule:evenodd;fill:#794b1d"/>
    <path d="M232.5 232.5c.2 5.1-2.1 8.1-7 9 1.3-1.4 2.8-2.8 4.5-4 .5-.9.6-1.9.5-3-2.5.3-4.6 1.3-6.5 3-.8-.1-1.3-.4-1.5-1 2.9-2.2 6.3-3.5 10-4z" style="fill-rule:evenodd;clip-rule:evenodd;fill:#514533"/>
    <path d="M515.5 235.5c1.9.4 3.4 1.4 4.5 3 1.1-1.5 2.6-2.2 4.5-2-2.7 1.9-4.7 4.2-6 7 .9-1.2 1.1-2.6.5-4-1.4-1.2-2.5-2.5-3.5-4z" style="fill-rule:evenodd;clip-rule:evenodd;fill:#546451"/>
    <path d="M633.5 238.5c0 .7-.3 1-1 1-2.1-1.6-3.8-3.6-5-6-4.4-1.6-8.7-1.9-13-1 1.6-.9 3.5-1.5 5.5-2 2 1.3 4 1.3 6 0 2.7 2.5 5.2 5.2 7.5 8z" style="fill-rule:evenodd;clip-rule:evenodd;fill:#834a20"/>
    <path d="M571.5 235.5c1.6 1.3 3.3 2.6 5 4 2.8-1.3 5.5-1.3 8 0-3.4.3-6.7.5-10 .5-1.6-1.1-2.6-2.6-3-4.5z" style="fill-rule:evenodd;clip-rule:evenodd;fill:#6b643d"/>
    <path d="M411.5 234.5c1.9 3.8.7 6.5-3.5 8-1-.3-1.5-1-1.5-2 3.8-.2 5.5-2.2 5-6z" style="fill-rule:evenodd;clip-rule:evenodd;fill:#5a6f24"/>
    <path d="M169.5 236.5c-2.4 2.4-4.4 5.1-6 8-1.8-.5-3.1-1.5-4-3 1.6.5 3.3.9 5 1 .2-3.2 1.9-5.2 5-6z" style="fill-rule:evenodd;clip-rule:evenodd;fill:#541c50"/>
    <path d="M222.5 236.5c-2.8.9-4.8 2.8-6 5.5-1.3.5-2.6.7-4 .5v-3c.7.6 1.3 1.3 2 2 1.5-1.9 3.2-3.7 5-5.5 1.2-.7 2.2-.6 3 .5z" style="fill-rule:evenodd;clip-rule:evenodd;fill:#574321"/>
    <path d="M640.5 221.5c-1.3 3-2.3 6-3 9-.2-2.4 0-4.7.5-7 .7-.9 1.5-1.5 2.5-2z" style="fill-rule:evenodd;clip-rule:evenodd;fill:#3e611e"/>
    <path d="M183.5 222.5c1.9 1.3 3.9 2.3 6 3-4.2 1.8-8.5 3.5-13 5-.1-1 .2-1.8 1-2.5 4.4.6 6.4-1.2 6-5.5z" style="fill-rule:evenodd;clip-rule:evenodd;fill:#47285e"/>
    <path d="M189.5 228.5c3.8-.2 7.2.8 10 3-3.5-.7-6.9-1.7-10-3z" style="fill-rule:evenodd;clip-rule:evenodd;fill:#5a491e"/>
    <path d="M243.5 224.5c3 2.1 3.7 4.8 2 8 .2-3-.5-5.6-2-8z" style="fill-rule:evenodd;clip-rule:evenodd;fill:#405119"/>
    <path d="M229.5 184.5c1 .5 1.8 1.1 2.5 2 .3 3 1.2 5.8 2.5 8.5 2.7.2 5.4-.3 8-1.5 2.4 1.4 4.1 3.4 5 6-9.3-6.7-12.3-4.4-9 7-1.9-2.5-2.6-5.5-2-9-1.2.2-2.2-.1-3-1-1.1-3.1-2.1-6.1-3-9-.6-.9-.9-1.9-1-3z" style="fill-rule:evenodd;clip-rule:evenodd;fill:#6d681f"/>
    <path d="M387.5 193.5c-2.5.3-4.7 1.3-6.5 3-2.7 1.1-5.2 1.1-7.5 0 4.2-.7 8.2-2.1 12-4 .9 0 1.6.4 2 1z" style="fill-rule:evenodd;clip-rule:evenodd;fill:#814b1e"/>
    <path d="M468.5 193.5c-4.1.1-7.5 1.9-10 5.5-1.2.7-2.2.6-3-.5 2.4-.9 4.4-2.4 6-4.5 2.3-.5 4.6-.7 7-.5z" style="fill-rule:evenodd;clip-rule:evenodd;fill:#285978"/>
    <path d="M169.5 199.5c-1.3 2.3-3.3 3.7-6 4 1.6-1.8 3.6-3.2 6-4z" style="fill-rule:evenodd;clip-rule:evenodd;fill:#4a1d61"/>
    <path d="M550.5 193.5c1-.1 1.8.2 2.5 1 .5 1.6.7 3.3.5 5h4c-1.4 1-3.1 1.3-5 1-.6 5.6-1 11.3-1 17-1.2-6.6-.9-13.2 1-20-.3-1.6-.9-2.9-2-4z" style="fill-rule:evenodd;clip-rule:evenodd;fill:#59263b"/>
    <path d="M342.5 200.5c4.7.7 7.7 3.4 9 8-2.6-3.3-5.6-5.9-9-8z" style="fill-rule:evenodd;clip-rule:evenodd;fill:#68443e"/>
    <path d="M157.5 200.5c1.6 1.9 3.6 2.9 6 3-3.2 1.7-5.2.7-6-3z" style="fill-rule:evenodd;clip-rule:evenodd;fill:#361d5f"/>
    <path d="M411.5 201.5c.4 5.5.4 11.1 0 17-1.1-5.5-1.1-11.2 0-17z" style="fill-rule:evenodd;clip-rule:evenodd;fill:#3e1744"/>
    <path d="M431.5 212.5c-2.4.3-4.1-.7-5-3-2.2.6-4.2 1.6-6 3-.1-1 .2-1.8 1-2.5 1.6-.6 3.3-1.1 5-1.5 1.7 1.4 3.4 2.7 5 4z" style="fill-rule:evenodd;clip-rule:evenodd;fill:#253a7b"/>
    <path d="M442.5 203.5c-.8 2.9-1.1 5.9-1 9-3.5.7-6.8.7-10 0 3-.5 6-.8 9-1-.2-2.4 0-4.7.5-7 .4-.6.9-.9 1.5-1z" style="fill-rule:evenodd;clip-rule:evenodd;fill:#2a446d"/>
    <path d="M504.5 215.5c.6-2.8 1.6-5.5 3-8-.3-.7-.7-1.3-1-2-1.8 1.2-3.5 1.2-5 0 2.3-.5 4.6-.8 7-1 .5 4.5-.8 8.1-4 11z" style="fill-rule:evenodd;clip-rule:evenodd;fill:#594b47"/>
    <path d="M238.5 213.5c3.1 2.9 4.7 6.6 5 11-1.7-3.6-3.4-7.2-5-11z" style="fill-rule:evenodd;clip-rule:evenodd;fill:#4c4519"/>
    <path d="M607.5 208.5c1.5 2.8 2.6 5.8 3.5 9 1.4 1.3 2.9 2.3 4.5 3-2.2.3-4.1-.3-5.5-2-1.3-3.2-2.1-6.6-2.5-10z" style="fill-rule:evenodd;clip-rule:evenodd;fill:#7a2037"/>
    <path d="M651.5 218.5c7.5-.2 15.2-.5 23-1-1.6 1.6-2.2 3.6-2 6-.9-1.1-1.3-2.4-1-4-6.7-.2-13.3-.5-20-1z" style="fill-rule:evenodd;clip-rule:evenodd;fill:#3a3a26"/>
    <path d="M360.5 217.5c1.3.8 2.3 2 3 3.5-3.8 2.2-3.8 4.1 0 5.5h-4c-.3-2.3.4-4.3 2-6-.6-.9-1-1.9-1-3z" style="fill-rule:evenodd;clip-rule:evenodd;fill:#6c3b37"/>
    <path d="M416.5 217.5c0 2.6 1 4.6 3 6-4.3-2-6.7-.7-7 4-.2-1.7 0-3.4.5-5 1.9-.8 2.6-2.1 2-4-1.3 1.3-2.5 1.3-3.5 0 1.6-.5 3.3-.9 5-1z" style="fill-rule:evenodd;clip-rule:evenodd;fill:#504d26"/>
    <path d="M286.5 216.5c-.2 4.7 0 9.3.5 14 1.4 1.9 2.6 3.9 3.5 6-2-1.2-3.5-2.8-4.5-5-.8-5.2-.6-10.2.5-15z" style="fill-rule:evenodd;clip-rule:evenodd;fill:#4b4441"/>
    <path d="M566.5 186.5c.9 1.7 1.5 3.6 2 5.5-.2 1.4-.9 2.2-2 2.5.3-2.8.3-5.5 0-8z" style="fill-rule:evenodd;clip-rule:evenodd;fill:#61544e"/>
    <path d="M387.5 193.5c4.3-.2 8.7 0 13 .5.9.7 1.5 1.5 2 2.5-4.9-1.5-9.9-2.5-15-3z" style="fill-rule:evenodd;clip-rule:evenodd;fill:#6e4e1e"/>
    <path d="M533.5 188.5c.1.7 0 1.4-.5 2-2.6 2-5.1 4.2-7.5 6.5-2.2.9-3.8.4-5-1.5 1.3.5 2.7.7 4 .5l9-7.5z" style="fill-rule:evenodd;clip-rule:evenodd;fill:#80521d"/>
    <path d="M177.5 196.5c-1.6-.5-3.3-.9-5-1v4h-3c1.5-1.3 2.1-2.9 2-5 2.5-.4 4.5.2 6 2z" style="fill-rule:evenodd;clip-rule:evenodd;fill:#471843"/>
    <path d="M333.5 183.5c-1.2 5.8 1.2 8.5 7 8v7c-1-1.8-1.3-3.8-1-6-6.7.1-8.7-2.9-6-9z" style="fill-rule:evenodd;clip-rule:evenodd;fill:#435755"/>
    <path d="M601.5 185.5h3c-1.1 6.3-1.3 12.6-.5 19 2.1.6 3.2 1.9 3.5 4-1.4-1.1-2.9-2.1-4.5-3-.2-6.7-.7-13.4-1.5-20z" style="fill-rule:evenodd;clip-rule:evenodd;fill:#78233e"/>
    <path d="M156.5 194.5c-2.4.4-4.8 1-7 2 1.9-2.7 4.2-3.4 7-2z" style="fill-rule:evenodd;clip-rule:evenodd;fill:#521a47"/>
    <path d="M189.5 197.5v4c-.7-1.4-1.4-2.9-2-4.5-3.5.2-6.8.1-10-.5 2.5-.2 5-.6 7.5-1 2-.2 3.5.5 4.5 2z" style="fill-rule:evenodd;clip-rule:evenodd;fill:#35227d"/>
    <path d="M354.5 186.5c-1-1.8-1.3-3.8-1-6-3.1-.2-6.1.1-9 1 2.5-2 5.5-2.8 9-2.5.9 2.4 1.3 4.9 1 7.5z" style="fill-rule:evenodd;clip-rule:evenodd;fill:#77561e"/>
    <path d="M544.5 179.5c-5.8.4-9.4 3.4-11 9-.2-1.7 0-3.4.5-5 1.4-1.2 2.5-2.5 3.5-4 2.5-1.3 4.8-1.3 7 0z" style="fill-rule:evenodd;clip-rule:evenodd;fill:#864f21"/>
    <path d="M616.5 176.5c-3.5 1.3-6.8 3.1-10 5.5-.6 1.3-1.3 2.5-2 3.5-.2-1.4 0-2.7.5-4 3.1-3.2 7-4.9 11.5-5z" style="fill-rule:evenodd;clip-rule:evenodd;fill:#563e1b"/>
    <path d="M331.5 162.5c1.3.6 2.1 1.6 2.5 3 .2 5.7.7 11.4 1.5 17 3.3 1.5 6.3 1.2 9-1 0 1.5-.7 2.7-2 3.5-3.1.3-6.1-.2-9-1.5v-5h-4v-4h-4c1.4-1 3.1-1.3 5-1v4h3c.4-5.2-.3-10.2-2-15z" style="fill-rule:evenodd;clip-rule:evenodd;fill:#7c5127"/>
    <path d="M509.5 180.5c-4.1 1.2-7.8 3.2-11 6 2-2.5 4.3-4.6 7-6.5 1.6-.8 2.9-.6 4 .5z" style="fill-rule:evenodd;clip-rule:evenodd;fill:#7c4a1d"/>
    <path d="M460.5 182.5c2.6.9 4.6 2.6 6 5-2.6-.9-4.6-2.6-6-5z" style="fill-rule:evenodd;clip-rule:evenodd;fill:#2e5452"/>
    <path d="M483.5 176.5c-2.1 1.4-3.8 3.2-5 5.5 1.9 2.4 3.5 4.9 5 7.5-1.6-1.3-3.3-2.6-5-4-1.4 1.4-2.4 3.1-3 5-.3-2.7.3-5 2-7-.9-1.3-1.1-2.6-.5-4 2-1.4 4.2-2.4 6.5-3z" style="fill-rule:evenodd;clip-rule:evenodd;fill:#5a7f37"/>
    <path d="M509.5 180.5c2.6 1 4.9 2.5 7 4.5 1.6.5 3.3.7 5 .5-.7 3.3-1 6.6-1 10-1-2.8-1.3-5.8-1-9-4.1-.7-7.4-2.7-10-6z" style="fill-rule:evenodd;clip-rule:evenodd;fill:#8a4c22"/>
    <path d="M370.5 189.5c-3.6-3.4-7.4-3.8-11.5-1-1.7-.4-3.2-1.1-4.5-2 4.7-.7 9.3-.8 14-.5 1.3.8 2 2 2 3.5z" style="fill-rule:evenodd;clip-rule:evenodd;fill:#8c5924"/>
    <path d="M498.5 186.5c-1.6 3.6-4.3 6-8 7-.5-2.1-1.4-4.1-2.5-6-.8 1.2-1.8 2.2-3 3-.8-.1-1.3-.4-1.5-1 1.5-.9 3-1.9 4.5-3 1.8 1.6 3.2 3.6 4 6 1.7-2.6 3.9-4.6 6.5-6z" style="fill-rule:evenodd;clip-rule:evenodd;fill:#66623b"/>
    <path d="M544.5 179.5c2.2.7 4 2 5.5 4-.5 3.4-.3 6.7.5 10-2.3-2.3-2.6-4.9-1-8-1.7-2-3.4-4-5-6z" style="fill-rule:evenodd;clip-rule:evenodd;fill:#783d20"/>
    <path d="M273.5 185.5v3c-3.4.2-6.7.7-10 1.5-3.4 3.5-6.1 7.5-8 12-2 .7-4 .7-6 0-.8-.7-1.1-1.5-1-2.5 1.7 1.7 3.7 2.2 6 1.5 1.9-4.5 4.6-8.5 8-12 3.9-.7 7.6-1.9 11-3.5z" style="fill-rule:evenodd;clip-rule:evenodd;fill:#844925"/>
    <path d="m233.5 148.5 6 1.5c.8.7 1.1 1.5 1 2.5-1-.6-2-1.3-3-2-2.1 1.3-3.4.6-4-2z" style="fill-rule:evenodd;clip-rule:evenodd;fill:#5e5243"/>
    <path d="M294.5 146.5c-.5 2.4-1.2 4.7-2 7 2.1 2.2 3.1 4.9 3 8 3.1.5 5.5 2.1 7 5-2.4-1.8-5.1-3.1-8-4 0-3.6-1.3-6.6-4-9 1-2.7 2.3-5 4-7z" style="fill-rule:evenodd;clip-rule:evenodd;fill:#632a4a"/>
    <path d="M445.5 155.5c-1-.6-2-1.3-3-2-3.6.9-7.3 1.3-11 1 3.5-.8 7.2-1.5 11-2 2 0 3 1 3 3z" style="fill-rule:evenodd;clip-rule:evenodd;fill:#237225"/>
    <path d="M277.5 146.5c0 1.1-.4 2.1-1 3 1.8 3.4 2.5 7 2 11-.8-2.5-1.3-5.1-1.5-8-1.4-.7-2.9-1.2-4.5-1.5-.8-.7-1.1-1.5-1-2.5 1 .6 2 1.3 3 2 .6-1.7 1.6-3 3-4z" style="fill-rule:evenodd;clip-rule:evenodd;fill:#46265d"/>
    <path d="M408.5 140.5h3c-1.4 3.4-2.1 7.1-2 11 1.1.1 2.1 0 3-.5 1.7-3.8 4.7-5.5 9-5 2-2.5 4.4-3 7-1.5-4.4 1.8-8.9 3.5-13.5 5-.4.9-.9 1.8-1.5 2.5 3 .5 6 .7 9 .5.1 1.1 0 2.1-.5 3-4.2 1.9-6.3 4.9-6.5 9-1 0-1.7-.5-2-1.5 1.2-2.2 2.5-4.4 4-6.5-2.8-2.1-5.9-3.5-9.5-4-1-3.8-.1-7.1 2.5-10-.7-.7-1.4-1.3-2-2z" style="fill-rule:evenodd;clip-rule:evenodd;fill:#63622c"/>
    <path d="M568.5 155.5h3c.1 1.8-.2 3.4-1 5 .7 1.9 1.2 3.9 1.5 6 2.1.7 4.3.8 6.5.5 3.2 1.1 5.2 3.3 6 6.5h-1c-.8-2.3-2.5-3.8-5-4.5-2.6-.2-5.1-.7-7.5-1.5-.2-2.6-1-5-2.5-7 .7-1 1.3-2 2-3-.7-.7-1.4-1.3-2-2z" style="fill-rule:evenodd;clip-rule:evenodd;fill:#527820"/>
    <path d="M444.5 160.5c-1.3 2.3-1.3 4.7 0 7-1.4-.6-2.1-1.8-2-3.5-.1-1.7.6-2.9 2-3.5z" style="fill-rule:evenodd;clip-rule:evenodd;fill:#252b69"/>
    <path d="M157.5 154.5c-.5 5.8-1.1 11.5-2 17-.2-4.7 0-9.3.5-14 .2-1.2.7-2.2 1.5-3z" style="fill-rule:evenodd;clip-rule:evenodd;fill:#782b43"/>
    <path d="M448.5 169.5c2.2.6 3.9 1.9 5 4-2.2-.6-3.9-1.9-5-4z" style="fill-rule:evenodd;clip-rule:evenodd;fill:#283c65"/>
    <path d="M379.5 145.5c1.2.7 1.9 1.8 2 3.5-.4 4.3-1.2 8.5-2.5 12.5-.7 3-.7 6 0 9 1 .5 2.2.6 3.5.5 2.3 2.9 5.3 4.2 9 4 2.5 3.8 5.9 4.9 10 3.5-.7 1.2-1.1 2.5-1 4-3.7-1.4-7.1-3.5-10-6.5-2-.3-4-.7-6-1-1.8-1.8-4-3-6.5-3.5-.3-2.9-.8-5.7-1.5-8.5 3.1-5.5 4.1-11.3 3-17.5z" style="fill-rule:evenodd;clip-rule:evenodd;fill:#784b21"/>
    <path d="M415.5 169.5v4c-2-.2-4 0-6 .5-1.2 1.9-2.8 2.7-5 2.5 2.4-3.4 5.7-4.8 10-4-.2-1.3.1-2.3 1-3z" style="fill-rule:evenodd;clip-rule:evenodd;fill:#4c2a3f"/>
    <path d="M588.5 174.5c6.1-.6 9.8 2.4 11 9-1.7-3.2-4-6-7-8.5-1.3-.5-2.6-.7-4-.5z" style="fill-rule:evenodd;clip-rule:evenodd;fill:#2d415b"/>
    <path d="M583.5 173.5h1c1.1.9 2.4 1.3 4 1-3.1 1.3-6.4 2-10 2 .2 1.3-.2 2.5-1 3.5-2.2 1.2-4.5 1.7-7 1.5 1.9-.8 3.9-1.7 6-2.5.8-1 1.2-2.2 1-3.5 2.5.4 4.5-.2 6-2z" style="fill-rule:evenodd;clip-rule:evenodd;fill:#44335f"/>
    <path d="M404.5 108.5c-1.2 2.2-2.2 4.5-3 7 .5 1.6.9 3.3 1 5-3-4.6-2.4-8.6 2-12z" style="fill-rule:evenodd;clip-rule:evenodd;fill:#471952"/>
    <path d="M308.5 113.5c2.1 1 3.3 2.6 3.5 5 .5 3 .7 6 .5 9-.5-4.8-1.9-9.5-4-14z" style="fill-rule:evenodd;clip-rule:evenodd;fill:#481e61"/>
    <path d="M475.5 115.5c-.4 2.4-1.8 4.2-4 5.5-4 1.7-7.7 3.8-11 6.5 0-1.5.7-2.7 2-3.5 5-1.8 9.4-4.7 13-8.5z" style="fill-rule:evenodd;clip-rule:evenodd;fill:#507e1d"/>
    <path d="M402.5 120.5c2.4 4.6 3.4 9.6 3 15-1.1-4.9-2.1-9.8-3-15z" style="fill-rule:evenodd;clip-rule:evenodd;fill:#581c47"/>
    <path d="M423.5 126.5c-1.4 1.3-2.9 1.3-4.5 0-.8 1.3-2 2-3.5 2 1.9-3.3 4.6-4 8-2z" style="fill-rule:evenodd;clip-rule:evenodd;fill:#655d39"/>
    <path d="M460.5 127.5c-1.9 1.7-4.3 2.3-7 2 .2 1.3-.2 2.5-1 3.5-2.2.4-4.2-.1-6-1.5-1.7 1.5-3.7 2.5-6 3 2.8-4.2 6.3-4.9 10.5-2 1.2-1.1 1.7-2.4 1.5-4 2.7-.1 5.4-.4 8-1z" style="fill-rule:evenodd;clip-rule:evenodd;fill:#50751e"/>
    <path d="M355.5 132.5c2.9 2.6 5.9 4.9 9 7-2-.7-4-1.3-6-2-3.4 3.1-5.8 2.4-7-2 4.1 2.9 5.4 1.9 4-3z" style="fill-rule:evenodd;clip-rule:evenodd;fill:#5f6b4e"/>
    <path d="M440.5 134.5c-.8.9-1.8 1.6-3 2-.7 2.5-1.4 5-2 7.5-1.7.8-3.3 1.7-5 2.5-1-.4-1.7-1-2-2 6.1.2 8.7-2.8 8-9 1.2-.7 2.6-1.1 4-1z" style="fill-rule:evenodd;clip-rule:evenodd;fill:#487f20"/>
    <path d="M226.5 134.5c1.5 3.8 2.3 7.8 2.5 12 1.6.6 3.1 1.3 4.5 2-2.5.4-4.5-.2-6-2 .3-3.6-.3-6.9-2-10 0-.9.4-1.6 1-2z" style="fill-rule:evenodd;clip-rule:evenodd;fill:#352266"/>
    <path d="M348.5 136.5c-.9 1-1.5 2.2-2 3.5 3.8 6.3 2.2 10.3-5 12-1.3 1.7-2.7 3.3-4 5-4.4-.6-6.4 1.2-6 5.5-2.4-1.6-2.4-3.4 0-5.5 4.3 0 7.3-2 9-6 7.1-1.3 8.7-5 5-11-.2-2.3.8-3.4 3-3.5z" style="fill-rule:evenodd;clip-rule:evenodd;fill:#7e4d1d"/>
    <path d="M312.5 131.5c.3 2.9-.1 5.8-1 8.5-3.7.3-7.3.7-11 1-1.9 2-3.9 3.9-6 5.5 1-2.6 2.7-4.7 5-6.5 3.7-.3 7.3-.7 11-1 .6-2.6 1.3-5.1 2-7.5z" style="fill-rule:evenodd;clip-rule:evenodd;fill:#512070"/>
    <path d="M274.5 128.5c2.4 4.7 3.7 9.9 4 15.5-.1.8-.4 1.3-1 1.5-.2-1.5-.9-2.9-2-4 .5-1.3.9-2.6 1-4-1.4-2.8-2.1-5.8-2-9z" style="fill-rule:evenodd;clip-rule:evenodd;fill:#521b4b"/>
    <path d="M364.5 139.5c3.6.2 6.3 1.9 8 5 1.5 1 3.2 1.3 5 1-1.3 1.6-3 2.1-5 1.5-2.1-3.2-4.8-5.7-8-7.5z" style="fill-rule:evenodd;clip-rule:evenodd;fill:#82501f"/>
    <path d="M252.5 130.5c.6.4 1 1.1 1 2-2.1 3.1-3.2 6.4-3.5 10 .8 1 1.7 2 2.5 3 1.1-1.3 2.5-2.3 4-3 1.5 0 2.5.6 3 2-1.1 0-2.1-.4-3-1-1.6 2.1-3.6 3.8-6 5 0-2.7-.6-5.2-2-7.5 1.1-3.7 2.4-7.2 4-10.5z" style="fill-rule:evenodd;clip-rule:evenodd;fill:#793931"/>
    <path d="M482.5 136.5c1.3 2.3 2.3 4.8 3 7.5-1.2 2.7-3.2 4.5-6 5.5-.3 1-.7 2-1 3 3.5 4.7 6.1 9.9 8 15.5-1.4 2.8-2.4 5.6-3 8.5-.5-3.2.2-6 2-8.5-2.4-1.9-3.6-4.4-3.5-7.5-4.4-3-5.5-7-3.5-12 5.3-2.2 6.3-5.7 3-10.5.1-.8.4-1.3 1-1.5z" style="fill-rule:evenodd;clip-rule:evenodd;fill:#5a7c1e"/>
    <path d="M549.5 143.5c3.8.4 7.4 1.2 11 2.5.8 1.5 1.4 3 2 4.5-1.5-.6-2.5-1.8-3-3.5-3.6-.9-6.9-2-10-3.5z" style="fill-rule:evenodd;clip-rule:evenodd;fill:#57761e"/>
    <path d="M226.5 146.5c-2 2.2-3.7 4.7-5 7.5l-6 1.5c1.2-1.6 2.8-2.4 5-2.5 1-3.2 3-5.4 6-6.5z" style="fill-rule:evenodd;clip-rule:evenodd;fill:#884820"/>
    <path d="M251.5 102.5c-.1 2.7-.4 5.4-1 8 1 2.7 2 5.3 3 8 .1 2-.6 3.6-2 5 2.2 2.1 2.6 4.4 1 7-1.3-1-1.3-2.2 0-3.5-1.2-1-2.2-2.2-3-3.5 1.4-1.4 2.4-3.1 3-5-2.9-4.5-3.7-9.5-2.5-15 .4-.6.9-.9 1.5-1z" style="fill-rule:evenodd;clip-rule:evenodd;fill:#571e53"/>
    <path d="M259.5 71.5c.2 2.7 0 5.4-.5 8-2 2.2-4.2 4.2-6.5 6 1.2-2.7 3-5.1 5.5-7 .7-1.7.5-3.4-.5-5 .4-1 1-1.7 2-2z" style="fill-rule:evenodd;clip-rule:evenodd;fill:#681f4f"/>
    <path d="M391.5 79.5c2.7 2.7 5.3 2.7 8 0-.5 2.6-2.2 3.6-5 3v3c-1.5-1.7-2.5-3.7-3-6z" style="fill-rule:evenodd;clip-rule:evenodd;fill:#356076"/>
    <path d="M281.5 81.5v3h-7c2.5-.6 4.8-1.6 7-3z" style="fill-rule:evenodd;clip-rule:evenodd;fill:#22185a"/>
    <path d="M438.5 74.5c1.5.8 2.3 2.2 2.5 4 .8 5.2.6 10.2-.5 15 .2-6.4-.5-12.8-2-19z" style="fill-rule:evenodd;clip-rule:evenodd;fill:#3d2d8c"/>
    <path d="M252.5 85.5c.2 1.2-.1 2.2-1 3-1.8-.5-3.5-1.2-5-2 2.1.2 4.1-.2 6-1z" style="fill-rule:evenodd;clip-rule:evenodd;fill:#631d41"/>
    <path d="M273.5 85.5c.2 1.6-.3 2.9-1.5 4-1.4-1.5-3-2.5-5-3-2.8.8-5.6 1.2-8.5 1 2.8-1 5.8-1.6 9-2 1.9-.1 3.4.6 4.5 2 .3-.9.8-1.6 1.5-2z" style="fill-rule:evenodd;clip-rule:evenodd;fill:#551d40"/>
    <path d="M258.5 87.5c-.2 2.2-.9 4.2-2 6-1.1-.8-1.2-1.8-.5-3 .9-1.1 1.7-2.1 2.5-3z" style="fill-rule:evenodd;clip-rule:evenodd;fill:#651d43"/>
    <path d="M178.5 87.5c1.1-1.1 2.4-1.3 4-.5 1.5 7.1 3.2 7.2 5 .5.2 1.7 0 3.4-.5 5-1.3 1.3-2.7 1.3-4 0 .3-3.4-1.2-5.1-4.5-5z" style="fill-rule:evenodd;clip-rule:evenodd;fill:#4d1b4b"/>
    <path d="M466.5 88.5c1 1.4 1.7 3.1 2 5-1.3 2.3-2.6 4.6-4 7 2.6.8 5.3 1.3 8 1.5.6.4.9.9 1 1.5-3.3-.8-6.6-1.2-10-1 2-4.4 3-9.1 3-14z" style="fill-rule:evenodd;clip-rule:evenodd;fill:#904d25"/>
    <path d="M224.5 124.5c-1.6-1.1-3.1-2.5-4.5-4-3-7.2-5.6-14.5-8-22-4.7-3.6-9.9-4.6-15.5-3 5.8-2.9 11.3-2.2 16.5 2 2.4 7.5 5 14.8 8 22 1.8 1.3 3 3 3.5 5z" style="fill-rule:evenodd;clip-rule:evenodd;fill:#4b1d5e"/>
    <path d="M260.5 97.5c1.1.8 1.2 1.8.5 3-2.6 3.2-5.8 3.8-9.5 2 1.8-.6 3.8-.8 6-.5 1.6-1.1 2.6-2.6 3-4.5z" style="fill-rule:evenodd;clip-rule:evenodd;fill:#4a184c"/>
    <path d="M441.5 100.5c1.4 2 2.1 4.3 2 7-1.4-2-2.1-4.3-2-7z" style="fill-rule:evenodd;clip-rule:evenodd;fill:#4b3a69"/>
    <path d="M288.5 103.5h-3c1.3 5.3-.7 8-6 8 1.6-.7 3.1-1.7 4.5-3 .2-2.3.7-4.4 1.5-6.5 1.5-.6 2.5-.1 3 1.5z" style="fill-rule:evenodd;clip-rule:evenodd;fill:#46258b"/>
    <path d="M399.5 106.5c-1.5.8-3.1 1.3-5 1.5-2 2.9-4.7 4.7-8 5.5.8-1.5 1.1-3.2 1-5 .7.6 1.3 1.3 2 2 1.5-1 2.8-2.1 4-3.5 2-.5 4-.7 6-.5z" style="fill-rule:evenodd;clip-rule:evenodd;fill:#631f3a"/>
    <path d="M473.5 103.5c3.7 2.7 7.3 5.3 11 8-.5 1.5-1.2 2.8-2 4-.4-4.8-2.4-5.8-6-3 0-1.5.7-2.7 2-3.5-1.9-1.7-3.5-3.5-5-5.5z" style="fill-rule:evenodd;clip-rule:evenodd;fill:#5e491f"/>
    <path d="M443.5 111.5c-3.8.8-7.8 1.3-12 1.5.6.4.9.9 1 1.5-1.5-.3-2.2-1.3-2-3h13z" style="fill-rule:evenodd;clip-rule:evenodd;fill:#6d692a"/>
    <path d="M302.5 25.5c1.6 2.9 1.1 5.6-1.5 8-.5 2.3-.7 4.6-.5 7h-1c-.2-2.7 0-5.4.5-8 2.1-1.8 3-4.2 2.5-7z" style="fill-rule:evenodd;clip-rule:evenodd;fill:#511e62"/>
    <path d="M395.5 36.5c-.2 2.2-.9 4.2-2 6-1.1-.8-1.2-1.8-.5-3 .9-1.1 1.7-2.1 2.5-3z" style="fill-rule:evenodd;clip-rule:evenodd;fill:#584c1f"/>
    <path d="M393.5 42.5c.9 1.8 1.9 3.6 3 5.5 2.4.6 4.4 1.8 6 3.5-2.8-1.1-5.6-2.1-8.5-3-.5-2-.7-4-.5-6z" style="fill-rule:evenodd;clip-rule:evenodd;fill:#704720"/>
    <path d="M444.5 49.5c1.1 2.5 1.3 5.1.5 8-1 .7-2 1.3-3 2-.2 2.2-.7 4.2-1.5 6-.2-2.4 0-4.7.5-7 1-.7 2-1.3 3-2 .5-2.3.7-4.6.5-7z" style="fill-rule:evenodd;clip-rule:evenodd;fill:#7d4a1f"/>
    <path d="M263.5 61.5c-7-1-8.4 1-4 6-3.5-.6-4.6-2.6-3.5-6 2.6-1.3 5.1-1.3 7.5 0z" style="fill-rule:evenodd;clip-rule:evenodd;fill:#6e1e34"/>
    <path d="M360.5 61.5c.7.9 1.3 1.9 2 3 4-1.8 6.6-.7 8 3.5 3.7-.3 6 1.2 7 4.5-2-1.5-4.3-2.3-7-2.5-1.1-2.3-2.8-4.2-5-5.5-1.8 1.2-3.8 1.9-6 2 .8-1.5 1.1-3.2 1-5z" style="fill-rule:evenodd;clip-rule:evenodd;fill:#347e54"/>
    <path d="M217.5 70.5c2.7.3 4.7 1.7 6 4-2.4-.8-4.4-2.2-6-4z" style="fill-rule:evenodd;clip-rule:evenodd;fill:#491b5f"/>
    <path d="M475.5 66.5c-2.1 2.6-4.8 4.4-8 5.5-1.6.5-3.3.7-5 .5.7 3.7 1.3 7.3 2 11-2.5-3.5-3.5-7.5-3-12 4.9-.9 9.6-2.5 14-5z" style="fill-rule:evenodd;clip-rule:evenodd;fill:#7d3621"/>
    <path d="M413.5 73.5c1.4-.2 2.7 0 4 .5 2.5 2.3 5.5 3.1 9 2.5-4.2 1.7-8 1-11.5-2-1.1 1.6-2.6 2.6-4.5 3 1-1.4 2-2.7 3-4z" style="fill-rule:evenodd;clip-rule:evenodd;fill:#362970"/>
    <path d="M440.5 65.5c-1.6 2.7-2.3 5.7-2 9-3.8 2.3-7.8 2.9-12 2 1-1.3 2.2-1.3 3.5 0 5.3-.7 8-3.7 8-9 .7-.9 1.5-1.5 2.5-2z" style="fill-rule:evenodd;clip-rule:evenodd;fill:#4e1c3d"/>
    <path d="M224.5 76.5c3.3.2 6.3 1.2 9 3 .8-2 2.3-3 4.5-3 1.4.2 2.2.9 2.5 2-.8-.4-1.6-.8-2.5-1-4.6 3.6-9.1 3.2-13.5-1z" style="fill-rule:evenodd;clip-rule:evenodd;fill:#461d5e"/>
  </g>
  <defs>
    <clipPath id="pottyok">
      <path id="pn0" visibility="hidden" d="M97.5 324.5c-1.7.2-3 .8-4 2 0 .7-.3 1-1 1-1.2-.1-2.1-.7-2.5-2-.5-3.3-.7-6.6-.5-10-1.6 0-3-.6-4-2-1.9-8.7 1.4-12 10-10 .5-2.2 1.5-4.2 3-6 3.7-.9 7.4-1.9 11-3 1.8-1.2 2.8-2.9 3-5 4-.2 8 0 12 .5 1.8 2.9 4.1 5 7 6.5 6.7-.6 13.4 0 20 2 2.6 1.6 5.6 2.4 9 2.5 4.3 2.8 3.9 4.7-1 5.5-3 1.3-6.2 2.3-9.5 3-1.1 0-1.9-.4-2.5-1-.2-.6-.7-.9-1.5-1-3.8.7-7.6 1.2-11.5 1.5-.9 1.7-1.2 3.5-1 5.5v3c-2.9-.3-4.4 1.1-4.5 4-.8 1.3-2 2-3.5 2-1.5 3.9-2 7.9-1.5 12 3.5 5.8 5.4 12.1 5.5 19 .2 1.2.9 1.9 2 2 1 1.5 2.1 2.8 3.5 4-1.5 5.1.4 8.4 5.5 10 2.6 2.3 5.3 4.7 8 7h1c-.2 1.3.1 2.3 1 3-.5 2.8.5 4.8 3 6-.3 1.5.1 2.8 1 4 2.5.6 4.8 1.2 7 2 .1 1-.2 1.8-1 2.5-3 1.4-6.2 2.2-9.5 2.5-4.5-1.3-9-2.2-13.5-2.5-2 2.2-3.4 4.7-4 7.5-2.1 0-3.9.6-5.5 2-.2 2.3-.7 4.4-1.5 6.5-2.4 1.8-5.1 2.4-8 2-2.1-3.4-4.8-6.2-8-8.5-1.1-3.7-3.1-6.9-6-9.5-5.1-.5-7.4.7-10.6-3.2l-.4.7c-1.3 1.1-2.3 2.5-3 4-.5 3.1-1.4 6.1-2.5 9-.6 2.4-.4 4.7.5 7-1.4 2.1-2.1 4.4-2 7l-4 1h4c.2 2.1.7 4.1 1.5 6 7 7.8 11.8 16.8 14.5 27 2.1 1.5 4.3 2.8 6.5 4 .6 3 .5 6-.5 9 2.6 5.2 3.9 10.9 4 17-3.3.5-5.6 2.3-7 5.5-1.7.7-3.3.7-5 0-3.6-6.3-8.9-9.6-16-10-3.2-4.3-7.6-6.4-13-6.5-.6-2.1-1.6-3.9-3-5.5-4.9-1.9-9.9-2.8-15-2.5-1.4-2.7-2.9-5.4-4.5-8-8.5-6.7-14-15.4-16.5-26 1.4-2.2 2.5-4.5 3.5-7 .5-3.8 1-7.7 1.5-11.5-1.4-3-2-6.1-2-9.5-2.1-3.6-5.3-5.9-9.5-7-4.2-4.5-8-9.4-11.5-14.5-3-2.5-6.4-4.5-10-6 1.2-.8 2.2-1.8 3-3 1.3-4 2.7-8 4-12 2.1-3.9 4.7-7.4 8-10.5 1.3 2.5 2.8 4.8 4.5 7 .5 1.3.7 2.6.5 4 3.3.5 5.6 2.3 7 5.5l4.5 1.5c1.7-1.8 3.9-2.8 6.5-3 1.3.3 2.7.7 4 1 2.7 2.5 5.5 4.9 8.5 7 2.3-.7 4.7-1.3 7-2h3.5c.2-2.4 0-4.7-.5-7-1.6-1.2-2.4-2.9-2.5-5 .4-2.8 1.4-5.3 3-7.5-.9-2.3-2-4.1-3.5-5.5 1.8-1.8 3.6-3.5 5.5-5 5.5-2.7 11.5-4.2 18-4.5 1.5-3.6 3.8-6.5 7-8.5"/>	
      <path id="pn1" visibility="hidden" d="M291.5 379.5c-.5 2.7-.7 5.3-.5 8 1.7.9 3.5 1.2 5.5 1 1.3 2.3 3 4.3 5 6 1.8.8 3.8 1.3 6 1.5l2 2c3.2.8 6.2.6 9-.5 1.7-.2 3.4 0 5 .5 1.2 1.6 2.7 2.7 4.5 3.5 1.3-.1 2.1-.8 2.5-2 3.5 0 7 .3 10.5 1 2.4 0 4.5-.6 6.5-2 1.2.8 2.2 1.8 3 3 2.8 2.2 6.2 3.2 10 3 4.1-.1 7.1 1.6 9 5 2.4 1.4 4.1 3.4 5 6-.4 2.8-1.8 5.1-4 7 .5 1.8 1.5 3.1 3 4 1.6 3.3 3.9 5.9 7 8 .3.6.6 1.3 1 2-1.8 2.2-4.1 3.4-7 3.5-1.8 3.1-4 6-6.5 8.5-6.5-2.1-12-.8-16.5 4-.7-1.8-1.4-3.7-2-5.5-4.7-1.7-9.2-3.9-13.5-6.5-.5-3.9 0-7.8 1.5-11.5-.9-1.8-1.5-3.6-2-5.5-4.7-.3-9.4-1-14-2-4.1 1.8-7.8 4.3-11 7.5-3.9 0-7.7-.5-11.5-1.5-4.4 2.2-9 3.5-14 4-6.3-.9-8.8-4.6-7.5-11h-3c-.2-6.7-3.7-9.7-10.5-9-5.2 3.3-8.7 2-10.5-4-3.6.4-7.2.6-11 .5-3.3 3.7-5.9 3.3-8-1-1.6-.6-3.3-1.1-5-1.5-3.4 2.7-7 5-11 7-2.7-1.7-5-3.9-7-6.5-4.3.8-8.6 1.1-13 1-2.6-1.9-5.6-2.9-9-3-1.3-1.8-2.9-3-5-3.5-2.7 1.8-5.7 2.3-9 1.5-3.5-4.9-8.1-8.1-14-9.5-2.2-.8-4.5-1.4-7-2-.9-1.2-1.3-2.5-1-4l-3-6c-.9-.7-1.2-1.7-1-3h-1c-1.4-3.7-4.1-6-8-7-1.5-2-3.1-3.8-5-5.5 2-4.4.7-7.2-4-8.5-.9-8.5-3.2-16.5-7-24 1.7-5.9 4.7-10.9 9-15v-3c.8-1.1 1.5-2.5 2-4 4-.8 8-1.5 12-2 .6.6 1.4 1 2.5 1 3.3-.7 6.5-1.7 9.5-3h7c2.3.6 3.9 2 5 4 1.5 1.7 3.3 3 5.5 4v4c2.6.7 4.7 2.1 6.5 4-.1 2.5.6 4.9 2 7l1 1c3.4 1.6 7.1 2.4 11 2.5.6.4.9.9 1 1.5 1.5.8 3.1 1.3 5 1.5.7 2.9 2.4 5.1 5 6.5 3.4 1.9 7.1 3.5 11 5 2.3 1.3 4.7 1.3 7 0 5 .8 10 1 15 .5.9.7 1.5 1.5 2 2.5 2 2.1 4.3 2.4 7 1 .8 1.3 1.8 2.3 3 3l6 3c2 3.6 4.6 6.6 8 9 2.2.9 4.5 1.6 7 2 3.2 1.5 6.5 2.8 10 4 3.1-1.9 6.5-2.4 10-1.5.8 1 1.2 2.2 1 3.5"/>
      <path id="pn2" visibility="hidden" d="M409.5 321.5c-1.3.2-2.3-.1-3-1-1.7-.2-3-1-4-2.5-3-.5-6-.7-9-.5-2.7-.9-5-2.4-7-4.5-2.9-.2-5.5-.7-8-1.5-2.3-1.1-4.4-2.4-6.5-4-3.5.7-7 1.2-10.5 1.5-4.4 2.8-5.1 6.3-2 10.5-.7 2.3-1.1 4.6-1 7 .8 3.8 1.3 7.8 1.5 12 1.7 1.8 1.5 3.7-.5 5.5 2.4 2.1 3.4 4.8 3 8-1.3 4.5-2.3 9.2-3 14 .8 2.5-.2 4.3-3 5.5-.3 1.8 0 3.5 1 5 1.1-1.3 2.5-1.8 4-1.5 4.1 4.6 7.1 9.8 9 15.5-.5 1.6-.9 3.3-1 5 .2 1.9 1.2 3.2 3 4 .6.2.9.7 1 1.5a31.4 31.4 0 0 0-4 8.5c2.4 1.4 4.1 3.4 5 6 1.1 1.1 1.3 2.4.5 4-2.7 1.9-3.2 4.2-1.5 7 1.6 3.3 3.9 5.9 7 8h12c.2 5.3 2.2 9.8 6 13.5 1.4.8 2.8.6 4-.5l1 1c2.9 1.2 5.9 1.3 9 .5 1.4-.4 2.4-1.2 3-2.5 8.4-.6 15.4-4.1 21-10.5.9-.5 1.9-.6 3-.5l3 1.5c2.9 1 5.9 1.7 9 2 1.8 2.5 2.8 5.3 3 8.5 8 0 15.7 1.5 23 4.5 2.2 3.4 4.2 6.9 6 10.5 1.1 1.3 2.5 1.8 4 1.5 3.6-4.2 6.7-8.7 9.5-13.5 3.2-3.4 6.7-6.4 10.5-9-1.6-2.2-2.9-4.5-4-7 3.2-10.1 7.9-19.5 14-28-1.3-1.5-2.9-2.5-5-3-1.8-4.4-.3-7.1 4.5-8l3-3c2.8-.7 5.6-1.4 8.5-2 11.4 0 22.5-2.3 33.5-7 1.5 1.1 3.1 1.8 5 2 5.7-2.4 7.9-6.6 6.5-12.5.5-3.7 1.9-6.8 4-9.5-1-.3-1.6-1-2-2 1-1.9 1.2-3.9.5-6-2.7-1.1-4.9-2.7-6.5-5-1.5 0-2.7-.7-3.5-2 .2-2.3.2-4.6 0-7-1-.6-1.8-1.2-2.5-2-3.5-2.3-5.5-5.7-6-10h-3c.4-3.1-.5-5.7-2.5-8-4.1-3.8-7.9-7.8-11.5-12-2.6-1.4-5.2-2.4-8-3-.9-3.2-1.2-6.6-1-10-3.3.2-6.3-.5-9-2-2.1-.1-3.7.5-5 2-.8.3-1.2 1-1 2-.4 2.7-1.4 5-3 7-2.4-.2-4.8.1-7 1-1.6-1.9-3.6-2.9-6-3-.1 3.2.6 6.2 2 9-.7 1.4-1.4 2.7-2 4-1.4 1.3-2.1 3-2 5l-4 5c-4.8-.8-9.8-1.3-15-1.5-1.5-1.7-3.2-3.2-5-4.5l-3-1h-4c-4.7.8-9.4 1.2-14 1-1.5 0-2.5-.6-3-2-2.6-1.2-5.5-2.2-8.5-3-1.6.1-3.1.4-4.5 1-1.5-1.7-3.3-2.7-5.5-3-3.9.8-7.7 1.8-11.5 3-1.9-.5-3.7-1.2-5.5-2-.8.1-1.3.4-1.5 1"/>
      <path id="pn3" visibility="hidden" d="M566.5 347c1.2 1 2.2 2.2 3 3.5 1.6 2.3 3.8 3.9 6.5 5 .7 2.1.5 4.1-.5 6 .4 1 1 1.7 2 2 .9.7 1.2 1.7 1 3 1.9-.2 3.4.5 4.5 2 .4 4.6 1.9 5.1 4.5 1.5 4.1.1 7.8-1.1 11-3.5 8.5-.1 15.8-2.9 22-8.5 2.6-.5 5.3-.7 8-.5 3.4 1.4 6.4.7 9-2 .8.4 1.6.8 2.5 1 3.5-1.9 6.9-1.9 10 0 2.9-.6 5.7-1.3 8.5-2 2.2 2.6 4.4 2.6 6.5 0 2.7 1.9 5.5 3.6 8.5 5 .8 1.9 1.3 3.9 1.5 6 1.8 1.2 3.3 2.7 4.5 4.5 5.7 2.7 8.7.9 9-5.5 4.3-2.4 8.8-4.4 13.5-6 4.2 2.7 8.7 4.7 13.5 6-1.2-3.1-.4-5.8 2.5-8 1.6 2.6 3.7 3.8 6.5 3.5 3.1-3.4 5.7-7.1 8-11 2.9-1.7 5.9-1.9 9-.5 1.8-4.4 3.1-8.9 4-13.5-.2-2.2-.3-4.3-.5-6.5l-1.5-1.5c1.6-3 3-6.2 4-9.5-.2-5.3-.3-10.6-.5-16-3.3-5.6-8.1-8.9-14.5-10-1.1 1.6-2.4 3.1-4 4.5-5.2 3.2-10.9 5.4-17 6.5-2.5-1.3-5.2-2-8-2-1.4-2.5-2.2-5.1-2.5-8-1.4-1.4-3.1-2.4-5-3-.3-1.7-.8-3.4-1.5-5-4.7-5.4-8.4-11.4-11-18-4.9-1-9.3-3-13-6h-2c-1.1-.1-2.1 0-3 .5-1.8 3.2-4.3 5.7-7.5 7.5-2.9 4.2-5.7 8.4-8.5 12.5l-12 1.5c-3.4.4-6.4-.2-9-2-2.3-1.3-4.7-2.6-7-4-3.1 1.9-6.4 3.2-10 4h-8c-1.6.8-3.2 1.1-5 1-.3 1-1 1.7-2 2-2.1.8-4.5 1.3-7 1.5-2.7 3.7-6.2 6.2-10.5 7.5-1.4-.2-2.2-.9-2.5-2 0-1.5-.7-2.7-2-3.5-2-.5-4-.7-6-.5v4h-6c-.2 2.4-1.5 3.4-4 3-2.7-1.1-5.4-1.1-8 0-1.7-.9-3.6-1.6-5.5-2-4.2.9-8.4 1.9-12.5 3-.3.7-.7 1.3-1 2-.2 3.4.1 6.8 1 10 2.4-.2 4.7 0 7 .5.8.7 1.1 1.5 1 2.5 3.6 4.2 7.4 8.2 11.5 12 2 2.3 2.9 4.9 2.5 8h3c.5 4.3 2.5 7.7 6 10"/>
      <path id="pn4" visibility="hidden" d="M632.5 239.5c-2.1-1.6-3.8-3.6-5-6-4.4-1.6-8.7-1.9-13-1-1.1 2.8-3.1 4.4-6 5-.8 1.1-1.5 2.5-2 4-6.3 1.3-12.7 1.3-19 0-.5-1.4-1.5-2.1-3-2-3.4.3-6.7.5-10 .5-1.6-1.1-2.6-2.6-3-4.5-.1-.6-.4-1.1-1-1.5-3-.8-6-1.7-9-2.5-1.8-2.4-4.2-4.1-7-5-3.5-1.4-6.5-.8-9 2-.4 1.9-1.4 3.4-3 4.5-6 2-12 3.2-18 3.5-2.7 1.9-4.7 4.2-6 7-1.6 3.9-3.6 7.5-6 11 .3 3.3 1.8 6 4.5 8 .7 2.4.5 4.7-.5 7 .7 1 1.4 2 2 3l1 5c-4.7 1.6-6.1 4.6-4 9 .2 4.5 2.5 7.2 7 8 2.7 1.5 5.7 2.2 9 2 .3-.7.7-1.3 1-2 4.8-3.3 10.1-4.5 16-3.5 1.7 1.8 3.4 1.7 5-.5 3 1.3 6 1.3 9 0h6v-4c2-.2 4 0 6 .5 1.3.8 2 2 2 3.5 1.2.9 2.6 1.1 4 .5 3-2 5.6-4.3 8-7 2.6-.5 5.3-.7 8-.5 1-.3 1.7-1 2-2 3.9-1.9 8.2-2.6 13-2 2.8-.6 5.1-1.9 7-4l1-1c4.1.4 7.1 2.4 9 6 3.2.4 6.2 1 9 2l12-1.5c2.8-4.1 5.6-8.3 8.5-12.5 3.2-1.8 5.7-4.3 7.5-7.5.9-.5 1.9-.6 3-.5h2c3.7 3 8.1 5 13 6 2.6 6.6 6.3 12.6 11 18 .7 1.6 1.2 3.3 1.5 5 1.9.6 3.6 1.6 5 3 .3 2.9 1.1 5.5 2.5 8 2.8 0 5.5.7 8 2 6.1-1.1 11.8-3.3 17-6.5 1.6-1.4 2.9-2.9 4-4.5 1.2-4.1 1-8.1-.5-12-3.3-4.2-7.3-7.5-12-10-.2-.8-.3-1.7-.5-2.5 1.3-2.3 2.7-4.7 4-7-1.4-2.7-2.6-5.5-3.5-8.5-1.5-.8-2.8-1.8-4-3-.7-3.6-2.4-6.6-5-9-7-4.7-12.2-10.8-15.5-18.5-5.2-2.5-10.4-5-15.5-7.5-.9.2-1.7.6-2.5 1-1.6.3-2.6 1.3-3 3l-3 2c-6.7-.2-13.3-.5-20-1-3.7.7-7.4 1.7-11 3-1.3 3-2.3 6-3 9"/>
      <path id="pn5" visibility="hidden" d="M403.5 316.5c-3.5-.3-6.9 0-10 1-2.7-.9-5-2.4-7-4.5-2.9-.2-5.5-.7-8-1.5-1-1.5-2.1-2.8-3.5-4-.7-.7-.7-1.3 0-2 4.7-3.9 9.2-7.9 13.5-12 0-.7-.3-1-1-1v-4c3.7.3 6.4-1.2 8-4.5-.1-.8-.4-1.3-1-1.5-2.1-.7-4.1-1.7-6-3 .2-3-.5-5.7-2-8-.8-4.5-2.2-8.8-4-13-1.8-1.6-3.8-3-6-4-2.1-2.7-2.4-5.7-1-9 1.1.6 2.1 1.5 3 2.5 1.2.7 2.2.6 3-.5 3.2-3.5 7.2-5.2 12-5v-8h4v-5c2-.2 3.8.1 5.5 1 1.2 3.4 2.4 6.8 3.5 10 0 1 .5 1.7 1.5 2 4.2-1.5 5.4-4.2 3.5-8 0-1.1-.4-2.1-1-3 1.1-1.1 1.8-2.5 2-4 .3-4.7 2.7-6 7-4-2-1.4-3-3.4-3-6 2-1 3.4-2.7 4-5 1.8-1.4 3.8-2.4 6-3 .9 2.3 2.6 3.3 5 3 3.2.7 6.5.7 10 0-.1-3.1.2-6.1 1-9-.2-1.3.2-2.5 1-3.5 3.3-.3 6.5-1.2 9.5-2.5 1.1 0 1.9.4 2.5 1 .8 1.1 1.8 1.2 3 .5 2.5-3.6 5.9-5.4 10-5.5v-4c2.2.9 4.5 1.2 7 1 .6-1.9 1.6-3.6 3-5 1.7 1.4 3.4 2.7 5 4 .2.6.7.9 1.5 1 1.2-.8 2.2-1.8 3-3 1.1 1.9 2 3.9 2.5 6 1.1 5.5 4.4 8.8 10 10 .8.5 1.1 1.1 1 2 1.5 1.2 3.2 1.2 5 0 .3.7.7 1.3 1 2-1.4 2.5-2.4 5.2-3 8-1.2 4.7-1.2 9.3 0 14 3.4.8 6.7 2 10 3.5.8.7 1.1 1.5 1 2.5 1 1.5 2.1 2.8 3.5 4 .6 1.4.4 2.8-.5 4-1.6 3.9-3.6 7.5-6 11 .3 3.3 1.8 6 4.5 8 .7 2.4.5 4.7-.5 7 .7 1 1.4 2 2 3 .8 1.5 1.1 3.2 1 5-4.7 1.6-6.1 4.6-4 9v5.5c1.5 1.1 2.2 2.6 2 4.5-.8.3-1.2 1-1 2-1.9 1.8-2.9 4.2-3 7-2.4-.2-4.8.1-7 1-1.6-1.9-3.6-2.9-6-3-.1 3.2.6 6.2 2 9-.7 1.4-1.4 2.7-2 4-1-.1-1.8.2-2.5 1-.8 2.9-.6 5.8.5 8.5-1.3.5-2.6.7-4 .5-4.8-.8-9.8-1.3-15-1.5-1.5-1.7-3.2-3.2-5-4.5-.7-.9-1.7-1.2-3-1h-4c-5.6-.4-11.2-.8-17-1-2.6-1.2-5.5-2.2-8.5-3-1.6.1-3.1.4-4.5 1-1.5-1.7-3.3-2.7-5.5-3-3.9.8-7.7 1.8-11.5 3-1.9-.5-3.7-1.2-5.5-2-.8.1-1.3.4-1.5 1-1.3.7-2.3 1.7-3 3-1.5.8-3.2 1.1-5 1"/>
      <path id="pn6" visibility="hidden" d="M279.5 320.5c-.3-2.2 0-4.2 1-6 .6-2.2 1.9-3.9 4-5-2.7-3-2.4-5.6 1-8-2.3-.6-3.9-2-5-4-.6-.1-1.1-.4-1.5-1-.7-2-.7-4 0-6 1-.8 2.2-1.2 3.5-1-.3-1.5.1-2.8 1-4 2 1.4 3 .7 3-2-.3-2-.7-4-1-6-1-1.4-1.3-3.1-1-5h6c-.3-2 .3-3.3 2-4-.1-3.4-.4-6.7-1-10-1.2-2.5-2.2-5.1-3-8-1.7 1.4-3.4 2.7-5 4-1.4 4.1-3.7 7.4-7 10-.3 1-1 1.6-2 2-2.4-2.4-4.6-5.1-6.5-8-.7.8-1.5 1.1-2.5 1-.4.7-1.1 1.2-2 1.5-4.8.5-8.8-1-12-4.5-1.1.1-2.1.4-3 1-.7 0-1 .3-1 1 0-.7.3-1 1-1-1.7-5.7-5.3-9.3-11-11-2.7.5-5.4 1.4-8 2.5-8.6 5.5-17.6 10.1-27 14-4.6 0-9 .8-13 2.5-1.4 1-3.1 1.3-5 1 .3 5.3-.4 10.3-2 15v4c-10.1.6-17.3 5.3-21.5 14 2.4 1.9 4.3 4.3 5.5 7 2.3.6 3.9 2 5 4 2.3.6 4.5 1.6 6.5 3 1.6 3.1 3.5 6.1 5.5 9 1.5 2.4 2.5 5.1 3 8 3.4 1.6 7.1 2.4 11 2.5.6.4.9.9 1 1.5 2-.2 4 0 6 .5 1.2 2.6 2.5 5.1 4 7.5 3.4 1.9 7.1 3.5 11 5 1.4.2 2.7 0 4-.5l3 .5c5 .8 10 1 15 .5.9.7 1.5 1.5 2 2.5 3.1-.3 6.1 0 9 1 .6.9 1 1.9 1 3l6 3c1-.1 1.8.2 2.5 1 2.1 2.6 3.9 5.2 5.5 8 2-.2 4 0 6 .5.6.4.9.9 1 1.5 4 .7 8 1.3 12 2l1-1c2.7-.2 5.4 0 8 .5 1.3 1.6 1.3 3.1 0 4.5-1.8.8-3.2 2.1-4 4 2.5 2.2 2.5 4.5 0 7 1.9.8 3.5 1.8 5 3 1.3 2.3 3 4.3 5 6 5.5 1.5 11.2 2.5 17 3 1.8-1.1 3.8-1.3 6-.5 1.5 2.8 3.5 3.6 6 2.5 5.5-.8 11.2-1.4 17-2 2.4.2 3.4 1.6 3 4 2.8 2.2 6.2 3.2 10 3 2.7-1.3 5.4-.9 8 1 1.8-1.7 3.2-3.7 4-6-1.8-.8-2.8-2.1-3-4-1.2-7.1-4.2-13.5-9-19-1.6.8-3.2 1.1-5 1-.3-2.2 0-4.2 1-6 1.2-4.6 2-9.3 2.5-14 3.3-4.5 3.1-9-.5-13.5v-17.5c-1-2.5-1.1-5.2-.5-8-1.9-.6-3.8-1.3-5.5-2-3-1.6-5.5-.9-7.5 2-3.6-.6-6.5-2.2-8.5-5-1.4-.5-2.1-1.5-2-3s-.6-2.5-2-3c-4.8-4.7-10.4-6.6-17-5.5-2.2-3.4-5.2-5.2-9-5.5-.6 4-2.9 6.1-7 6.5-5.7 4.8-10.3 10.3-14 16.5-1.4 1.3-2.1 3-2 5"/>
      <path id="pn7" visibility="hidden" d="M194.5 197.5c-.1-.6-.4-1.1-1-1.5 2.5-3.4 4.5-7.1 6-11-1.5-2.8-3.7-5-6.5-6.5-1-2.3-1.8-4.6-2.5-7-.5-.3-1-.7-1.5-1-1.8.8-3.6 1.5-5.5 2-2.6-.9-5.3-1.1-8-.5-1.5 1.1-2.2 2.6-2 4.5-6 .2-12-.1-18-1v-4c-.2-4.7 0-9.3.5-14 .2-1.2.7-2.2 1.5-3 2.7-2 2.7-4 0-6-1.7-.2-3.4 0-5 .5-2.6 4.3-5.5 4.5-8.5.5-2.4 2.3-4.9 4.5-7.5 6.5 1.4 4.9-.6 7-6 6.5-.2 2 0 4 .5 6 4.8 1.8 6.5 5.1 5 10-1.3 2.3-2.4 4.6-3.5 7 .9 2.3 2.3 4.3 4 6-2.1-1.6-4.4-2.1-7-1.5-.6 2.2-1.6 4.2-3 6-3.9.7-7.5 1.9-11 3.5.6 5.9 1.9 11.6 4 17-1.6 3.5-2.1 7.2-1.5 11 2.7 3.3 3 7 1 11-6.1 3.5-8.9 8.8-8.5 16 2.2 4.4 3.2 9.1 3 14 2.1-.2 4.1.2 6 1l2 1.5c1.5 1.5 2.7 3.4 3.5 5.5.4 3.6 1.2 7.1 2.5 10.5-.2.9-.6 1.7-1 2.5 1.4 2.5 3.1 4.9 5 7 6.7-.6 13.4 0 20 2 2.7.3 5.3.7 8 1 4.2-9.4 11.5-14.4 22-15-.2-1.3.1-2.3 1-3 .3-8.6 1.8-16.9 4.5-25 1.4.9 2.9 1.2 4.5 1 .5-1 1.1-1.8 2-2.5 2.3-.3 4.7-.7 7-1 4.2-1.6 8.2-3.6 12-6 4.3-.5 8.3-1.7 12-3.5-.2-1.3.1-2.3 1-3 1.3-1.4 2.8-2.8 4.5-4 .5-.9.6-1.9.5-3l2-2c2.2-2.4 4.7-2.4 7.5 0 1.3 2.9 1.7 5.9 1 9-2.6.7-3.7 2.4-3.5 5 5.7 1.7 9.3 5.3 11 11 .9-.6 1.9-.9 3-1 1.2.2 2.4.5 3.5 1 1.3-1.2 2.8-1.9 4.5-2h1c.1-1.1 0-2.1-.5-3-2.5-1.9-4.3-4.3-5.5-7-.7-1.9-1.3-3.9-2-6-1.9-.8-3.6-1.8-5-3-1.3-1-2-2.3-2-4 .2-3-.5-5.6-2-8-1.7-3.6-3.4-7.2-5-11-.9-2.2-.9-4.5 0-7-1.9-2.5-2.6-5.5-2-9-1.2.2-2.2-.1-3-1-1.1-3.1-2.1-6.1-3-9-.9-.1-1.5.2-2 1-.6 1.9-1.3 3.7-2 5.5-3.7 1.1-7.4 1.2-11 .5-5.7 2.1-11.6 3.7-17.5 5-1.3-.5-2.5-1.1-3.5-2z"/>
      <path id="pn8" visibility="hidden" d="M234.5 195c-1.3-2.7-2.2-5.5-2.5-8.5-.7-.9-1.5-1.5-2.5-2 .1 1.1.4 2.1 1 3-.9-.1-1.5.2-2 1-.6 1.9-1.3 3.7-2 5.5-3.7 1.1-7.4 1.2-11 .5-5.7 2.1-11.6 3.7-17.5 5-1.3-.5-2.5-1.1-3.5-2-.1-.6-.4-1.1-1-1.5 2.5-3.4 4.5-7.1 6-11-1.5-2.8-3.7-5-6.5-6.5-1-2.3-1.8-4.6-2.5-7-.5-.3-1-.7-1.5-1-1.8.8-3.6 1.5-5.5 2-2.6-.9-5.3-1.1-8-.5-1.5 1.1-2.2 2.6-2 4.5-6 .2-12-.1-18-1v-4c.9-5.5 1.5-11.2 2-17 2.7-2 2.7-4 0-6-.2-1.6.1-3.1 1-4.5 3.2-.8 6.2-2.2 9-4 1.7-.7 3.4-.5 5 .5 1.8-2 3.5-4.2 5-6.5.9-.5 1.9-.6 3-.5-1.6-1.1-3.1-2.4-4.5-4-2.1-8-4.6-15.8-7.5-23.5.3-1.9.8-3.7 1.5-5.5 3.3-2.1 4.1-5 2.5-8.5 1.5-2.3 3.5-3.8 6-4.5 3.3-.1 4.8 1.6 4.5 5 1.3 1.3 2.7 1.3 4 0 .5-1.6.7-3.3.5-5 2.2-1.3 4.5-1.3 7 0 1.3 2.2.9 4.2-1 6 .5 1.4 1.5 2.1 3 2 5.6-1.6 10.8-.6 15.5 3 2.4 7.5 5 14.8 8 22 1.4 1.5 2.9 2.9 4.5 4-.2 3.6.5 6.9 2 10-.6.4-1 1.1-1 2 1.7 3.1 2.3 6.4 2 10h-1 1c1.5 1.8 3.5 2.4 6 2 .6 2.6 1.9 3.3 4 2 1 .7 2 1.4 3 2 3.5-.7 6.9-2.1 10-4 2.4-1.2 4.4-2.9 6-5 .9.6 1.9 1 3 1 1.4 1.3 2.9 1.3 4.5 0 1.7 2.9 4.2 4.2 7.5 4-.1 1 .2 1.8 1 2.5 1.6.3 3.1.8 4.5 1.5.2 2.9.7 5.5 1.5 8 4 1.8 7.7 4.1 11 7 1.1 2.5 1.1 5 0 7.5-4.2 1.9-8.2 4.2-12 7-1.3.5-2.6.7-4 .5v6c3.7 5.8 8.5 10.5 14.5 14 .2 2.3.3 4.7.5 7 0 2.8-.7 5.1-2 7-1.1 4.8-1.3 9.8-.5 15 1 2.2 2.5 3.8 4.5 5v2c.2 3 0 6-.5 9-3.1 1.6-5.2 3.9-6.5 7-2.8 2.9-5.1 6.3-7 10-1.1.1-2.1 0-3-.5-1.1-2.2-2.4-4.2-4-6-1.9-.8-3.2-.3-4 1.5h-8c0-1.7.7-3 2-4h1c1.1-1.1 1.3-2.4.5-4-2-2.2-4.2-4.2-6.5-6 1.7-6.3-.6-9.3-7-9-1.3-1-2-2.3-2-4 1.7-3.2 1-5.9-2-8-.3-4.4-1.9-8.1-5-11-.9-2.2-.9-4.5 0-7"/>
      <path id="pn9" visibility="hidden" d="M377.5 257.5c1.7.1 3.4.5 5 1 1.8 4.2 3.2 8.5 4 13 .1 2.9.7 5.6 2 8-.1 1 .2 1.8 1 2.5 1.6.5 3.3.7 5 .5.6.2.9.7 1 1.5-1.6 3.3-4.3 4.8-8 4.5v4c-4.8 4.6-9.8 9.1-15 13.5-3.9 1.1-7.9 1.8-12 2-3.3 1.9-4.7 4.7-4 8.5h-4c-3-1.6-5.5-.9-7.5 2-3.6-.6-6.5-2.2-8.5-5 .1-1.5-.6-2.5-2-3 .1-1.5-.6-2.5-2-3-4.8-4.7-10.4-6.6-17-5.5-2.2-3.4-5.2-5.2-9-5.5-4.9 3.4-9.7 7.1-14.5 11-3 3.6-5.1 7.6-6.5 12-1.4 1.3-2.1 3-2 5-.9-.7-1.2-1.7-1-3-1.6-2-2.3-4.3-2-7 .6-2.2 1.9-3.9 4-5-2.7-3-2.4-5.6 1-8-2.3-.6-3.9-2-5-4-.6-1.9-1-3.9-1-6 1.6-.2 3.1.1 4.5 1 .6-1.4.4-2.7-.5-4 1.2-.9 2.5-1.3 4-1 .2-2.7 0-5.4-.5-8-.3-.9-.8-1.6-1.5-2-1-1.4-1.3-3.1-1-5h6c-.3-2 .3-3.3 2-4 1.4-3.5 1-6.8-1-10-.3-6.8-.6-13.5-1-20v-2c-.9-2.1-2.1-4.1-3.5-6-.5-4.7-.7-9.3-.5-14 1.3-1.9 2-4.2 2-7-.2-2.3-.3-4.7-.5-7-6-3.5-10.8-8.2-14.5-14v-6c1.4.2 2.7 0 4-.5 3.8-2.8 7.8-5.1 12-7 1.1-2.5 1.1-5 0-7.5 1.9-1.4 3.6-3.1 5-5 2.9.9 5.6 2.2 8 4 4.5-.5 9.1-.5 14 0 2.4 2.2 4.4 4.7 6 7.5.9.5 1.9.6 3 .5h4v4h4v5c2.9 1.3 5.9 1.8 9 1.5 1.3-.8 2-2 2-3.5 2.9-.9 5.9-1.2 9-1-.3 2.2 0 4.2 1 6 1.3.9 2.8 1.6 4.5 2 4.1-2.8 7.9-2.4 11.5 1 .6 2.4 1.6 4.8 3 7 2.3 1.1 4.8 1.1 7.5 0 1.8-1.7 4-2.7 6.5-3 5.1.5 10.1 1.5 15 3 2.7.3 5.3.7 8 1-.3 1.6.1 2.9 1 4-1.1 5.8-1.1 11.5 0 17 1 1.3 2.2 1.3 3.5 0 .6 1.9-.1 3.2-2 4-.5 1.6-.7 3.3-.5 5-.2 1.5-.9 2.9-2 4 .6.9 1 1.9 1 3 .5 3.8-1.2 5.8-5 6-1.1-3.2-2.3-6.6-3.5-10-1.7-.9-3.5-1.2-5.5-1-.9 1.1-1.3 2.4-1 4h-4v8c-3.7-.3-7 .5-10 2.5-.8 1-1.2 2.2-1 3.5-3.6-.9-5.3-3.3-5-7-2.4-.4-3.8.6-4 3 .7 3.3 1.2 6.6 1.5 10 .7.8 1.5 1.1 2.5 1 .6.9.9 1.9 1 3z"/>
      <path id="pn10" visibility="hidden" d="M413.5 152c.6-.8 1.1-1.6 1.5-2.5 4.6-1.5 9.1-3.2 13.5-5 .3 1 1 1.6 2 2 1.7-.8 3.3-1.7 5-2.5.6-2.5 1.3-5 2-7.5 1.2-.4 2.2-1.1 3-2 2.3-.5 4.3-1.5 6-3 1.8 1.4 3.8 1.9 6 1.5.8-1 1.2-2.2 1-3.5 2.7.3 5.1-.3 7-2 3.3-2.7 7-4.8 11-6.5 2.2-1.3 3.6-3.1 4-5.5-.2-1.3.1-2.3 1-3 3.6-2.8 5.6-1.8 6 3-2.1 3.9-1.3 6.9 2.5 9 .3 3.1.8 6.1 1.5 9-1.3 1-2.7 2-4 3-.6.2-.9.7-1 1.5 3.3 4.8 2.3 8.3-3 10.5-2 5-.9 9 3.5 12-.1 3.1 1.1 5.6 3.5 7.5-1.8 2.5-2.5 5.3-2 8.5-2.3.6-4.5 1.6-6.5 3-.6 1.4-.4 2.7.5 4-1.7 2-2.3 4.3-2 7-2.5.2-4.8-.1-7-1-1-.3-1.7-1-2-2 .3 1 1 1.7 2 2v4c-2.4-.2-4.7 0-7 .5-1.6 2.1-3.6 3.6-6 4.5-.6-.6-1.4-1-2.5-1-3 1.3-6.2 2.2-9.5 2.5-.8 1-1.2 2.2-1 3.5-.6.1-1.1.4-1.5 1-.5 2.3-.7 4.6-.5 7-3 .2-6 .5-9 1-1.6-1.3-3.3-2.6-5-4-1.7.4-3.4.9-5 1.5-.8.7-1.1 1.5-1 2.5-.6 2.3-2 4-4 5-1.7.1-3.4.5-5 1 .4-5.9.4-11.5 0-17-.9-1.1-1.3-2.4-1-4-2.7-.3-5.3-.7-8-1-.5-1-1.1-1.8-2-2.5-4.3-.5-8.7-.7-13-.5-.4-.6-1.1-1-2-1-3.8 1.9-7.8 3.3-12 4-1.4-2.2-2.4-4.6-3-7 0-1.5-.7-2.7-2-3.5-4.7-.3-9.3-.2-14 .5.3-2.6-.1-5.1-1-7.5-3.5-.3-6.5.5-9 2.5-2.7 2.2-5.7 2.5-9 1-.8-5.6-1.3-11.3-1.5-17-.4-1.4-1.2-2.4-2.5-3-.4-4.3 1.6-6.1 6-5.5 1.3-1.7 2.7-3.3 4-5 7.2-1.7 8.8-5.7 5-12 .5-1.3 1.1-2.5 2-3.5.9-.6 1.9-.9 3-1l4-3c2.2-5.4 5.4-6 9.5-2 3.4-2.4 6.9-4.4 10.5-6 2.6-1 5.3-1.3 8-1 .1-2.2-.2-4.4-1-6.5.6-2.1 1.9-3.2 4-3.5 3.3-.8 6-2.6 8-5.5 1.9-.2 3.5-.7 5-1.5 1.4.1 2.8-.3 4-1 .9.8 1.2 1.8 1 3-4.4 3.4-5 7.4-2 12 .9 5.2 1.9 10.1 3 15 1.2 1.6 2.5 2 4 1-.3 1.3-.7 2.7-1 4 .6.7 1.3 1.3 2 2-2.6 2.9-3.5 6.2-2.5 10l5.5-.5z"/>
      <path id="pn11" visibility="hidden" d="M583.5 173.5c-.8-2.3-2.5-3.8-5-4.5-2.6-.2-5.1-.7-7.5-1.5-.2-2.6-1-5-2.5-7 .7-1 1.3-2 2-3-.7-.7-1.4-1.3-2-2-1.4-2.4-3.4-4.1-6-5-1.5-.6-2.5-1.8-3-3.5-3.6-.9-6.9-2-10-3.5-1.7-2-2.3-4.3-2-7-2.6 3.8-4.1 8.2-4.5 13-2.8 1.4-5.5 3.1-8 5-4-1.5-8.1-2.5-12.5-3-1.5-3.1-2.4-6.5-2.5-10-1-2.2-2.5-3.8-4.5-5-2.9 1.2-5.7 1.2-8.5 0-4.1 4.4-8.9 5.2-14.5 2.5-1.9-2-3.9-3.9-6-5.5-1.3 1-2.7 2-4 3 1.3 2.3 2.3 4.8 3 7.5-1.2 2.7-3.2 4.5-6 5.5-.3 1-.7 2-1 3 3.5 4.7 6.1 9.9 8 15.5-1.4 2.8-2.4 5.6-3 8.5-2.1 1.4-3.8 3.2-5 5.5 1.9 2.4 3.5 4.9 5 7.5 1.5-.9 3-1.9 4.5-3 1.8 1.6 3.2 3.6 4 6l-1.5 1c1.1 5.5 4.4 8.8 10 10 .8.5 1.1 1.1 1 2 2.3-.5 4.6-.8 7-1 .5 4.5-.8 8.1-4 11-1.2 4.7-1.2 9.3 0 14 3.4.8 6.7 2 10 3.5.8.7 1.1 1.5 1 2.5 1.9.4 3.4 1.4 4.5 3 1.1-1.5 2.6-2.2 4.5-2 1.1-1.1 2.4-1.9 4-2.5 6.4.5 12.1-1.3 17-5.5 2.5-2.8 5.5-3.4 9-2-.7-.8-1.5-1.4-2.5-2 1 .6 1.8 1.2 2.5 2 2.8.9 5.2 2.6 7 5 3 .8 6 1.7 9 2.5.6.4.9.9 1 1.5 1.6 1.3 3.3 2.6 5 4 2.8-1.3 5.5-1.3 8 0 1.5-.1 2.5.6 3 2 6.3 1.3 12.7 1.3 19 0 .5-1.5 1.2-2.9 2-4l1-4c1.7-.1 3.4-.5 5-1 1.6-.9 3.5-1.5 5.5-2 2 1.3 4 1.3 6 0 2.7 2.5 5.2 5.2 7.5 8 .8-2.1 1.3-4.5 1.5-7 .7-.8 1.5-1.1 2.5-1-.2-2.4 0-4.7.5-7 .7-.9 1.5-1.5 2.5-2 3.6-1.3 7.3-2.3 11-3 7.5-.2 15.2-.5 23-1 .4-1.7 1.4-2.7 3-3v-3c-3.3-.3-6.3.4-9 2-1.6-.8-3-1.9-4-3.5-3.4-.7-6.8-1.7-10-3-4.1-7.1-2.1-10.9 6-11.5.3-2.1 0-4.1-1-6-4-2.7-4-5.6 0-8.5-2.9-1.6-5.9-2.8-9-3.5-1.8-1.5-4-2.2-6.5-2-4.5 2.1-9.3 3.5-14.5 4-4.3-.3-8-2-11-5-1 .4-1.7 1-2 2-3.5 1.3-6.8 3.1-10 5.5-.6 1.3-1.3 2.5-2 3.5h-3c-.3-1-1-1.7-2-2-1.7-3.2-4-6-7-8.5-1.3-.5-2.6-.7-4-.5l-5-1z"/>
      <path id="pn12" visibility="hidden" d="M497.5 50.5c-3.9-.4-6.9-2.2-9-5.5-5 1.4-8.6-.3-11-5-2.7-.7-5.3-1.3-8-2-1-5-3.7-9-8-12-3.2-2.1-6.2-2-9 .5 1.1 1.6 1.6 3.2 1.5 5-2.5 1.8-4.1 4.1-5 7-5.2 2-6.7 5.7-4.5 11 1.1 2.5 1.3 5.1.5 8-1 .7-2 1.3-3 2-.2 2.2-.7 4.2-1.5 6-1.6 2.7-2.3 5.7-2 9 1.5.8 2.3 2.2 2.5 4 .8 5.2.6 10.2-.5 15-.2 2.4.1 4.8 1 7 1.4 2 2.1 4.3 2 7v4c-3.8.8-7.8 1.3-12 1.5.6.4.9.9 1 1.5v3c-4.3-.4-6.1 1.6-5.5 6-1.5.7-2.7 1.7-3.5 3-1.4 1.3-2.9 1.3-4.5 0-.8 1.3-2 2-3.5 2-3.9 1-5.9 3.7-6 8-.3 1.3-.7 2.7-1 4h3c-1.4 3.4-2.1 7.1-2 11 1.1.1 2.1 0 3-.5 1.7-3.8 4.7-5.5 9-5 2-2.5 4.4-3 7-1.5 6.1.2 8.7-2.8 8-9 1.2-.7 2.6-1.1 4-1 2.8-4.2 6.3-4.9 10.5-2 1.2-1.1 1.7-2.4 1.5-4 2.7-.1 5.4-.4 8-1 0-1.5.7-2.7 2-3.5 5-1.8 9.4-4.7 13-8.5-.2-1.3.1-2.3 1-3 0-1.5.7-2.7 2-3.5-1.9-1.7-3.5-3.5-5-5.5 3.7 2.7 7.3 5.3 11 8-.5 1.5-1.2 2.8-2 4-2.1 3.9-1.3 6.9 2.5 9 .3 3.1.8 6.1 1.5 9 2.1 1.6 4.1 3.5 6 5.5 5.6 2.7 10.4 1.9 14.5-2.5 2.8 1.2 5.6 1.2 8.5 0 2 1.2 3.5 2.8 4.5 5 .1 3.5 1 6.9 2.5 10 4.4.5 8.5 1.5 12.5 3 2.5-1.9 5.2-3.6 8-5 .4-4.8 1.9-9.2 4.5-13-.3 2.7.3 5 2 7 3.8.4 7.4 1.2 11 2.5.8 1.5 1.4 3 2 4.5 2.6.9 4.6 2.6 6 5h3c.1 1.8-.2 3.4-1 5 .7 1.9 1.2 3.9 1.5 6 2.1.7 4.3.8 6.5.5 3.2 1.1 5.2 3.3 6 6.5 1.1.9 2.4 1.3 4 1 6.1-.6 9.8 2.4 11 9 1 .3 1.7 1 2 2h3c-.2-1.4 0-2.7.5-4 3.1-3.2 7-4.9 11.5-5 .3-1 1-1.6 2-2 3 3 6.7 4.7 11 5 5.2-.5 10-1.9 14.5-4 2.5-.2 4.7.5 6.5 2 1 0 1.7-.5 2-1.5-1.4-6.7-5.4-10.7-12-12-1.8-5.9-5.8-8.9-12-9-.8-1.9-1.5-3.9-2-6l-5.5-5.5c.5-3.3.9-6.6 1-10-4.8-4.1-7-9.4-6.5-16-1.6-2.2-3.1-4.5-4.5-7-2.1-1.5-4.4-2.5-7-3-2.6 3.2-5.7 3.9-9.5 2 .2-4.5-.8-8.6-3-12.5-3.7.2-7.3.7-11 1.5v-5c-4.3-.8-7.6-2.9-10-6.5-1.3-.3-2.7-.7-4-1-5.4-5.6-11.7-8.1-19-7.5-.1-1.2-.7-2.1-2-2.5-2.4-.3-4.7-.8-7-1.5-2.7-4.9-6.7-6.7-12-5.5-1.9-2.5-4.3-4.3-7-5.5-1-1.9-1-3.7 0-5.5-3.6-4.8-8.2-6.5-14-5l-8-2.5z"/>
      <path id="pn13" visibility="hidden" d="M438 66.5c.7-.9 1.5-1.5 2.5-2-.2-2.4 0-4.7.5-7 1-.7 2-1.3 3-2 .5-2.3.7-4.6.5-7-.6-.1-1.1-.4-1.5-1-1.9-5.5-.2-9.2 5-11 1.1-2.8 2.6-5.3 4.5-7.5-2-10.3-7.8-13.1-17.5-8.5-2.4-1.3-4.9-2.3-7.5-3-2.7 1-5.3 2-8 3-1.5-.2-3-.5-4.5-1-.5.3-1 .7-1.5 1 .9 1.3 1.1 2.6.5 4-3.8 1-6 3.3-6.5 7h-6c-.7-5.1-3-6.4-7-4 .5-1.3.7-2.7.5-4-1.6-.9-3.1-1.9-4.5-3-2 1.4-4.1 2-6.5 2-2.9-1.2-5.7-1.2-8.5 0-3-1.8-6.4-3.3-10-4.5-1.7-.7-3.3-.7-5 0-1.3 3.6-1.3 7.3 0 11-.6 4.7-2.6 8.5-6 11.5-.3 1.9 0 3.6 1 5 1.4.5 2.1 1.5 2 3 .1 2.2-.2 4.4-1 6.5 1.9 1.4 3.3 3.3 4 5.5.7.9 1.3 1.9 2 3l-3 3c-6 .1-12 .4-18 1 2.3 2.1 2.6 4.6 1 7.5 1 1.9 1.6 3.9 2 6-1.2 3.1-2.2 6.3-3 9.5h-3c-.8 5.1.7 9.5 4.5 13 .3 2.7.7 5.3 1 8 1 .8 2.2 1.2 3.5 1 .2 4.7 0 9.3-.5 14-.7.5-1.2 1.2-1.5 2 2.5 2.1 3.5 4.7 3 8 .9-.6 1.9-.9 3-1 4.1 2.9 5.4 1.9 4-3 2.2-5.4 5.4-6 9.5-2 3.4-2.4 6.9-4.4 10.5-6 2.6-1 5.3-1.3 8-1 .1-2.2-.2-4.4-1-6.5.6-2.1 1.9-3.2 4-3.5.8-1.5 2.3-4.7 3-4 1.5-1 2.8-2.1 4-3.5 2-.5 4-.7 6-.5 1.4.1 2.8-.3 4-1 .9.8 1.2 1.8 1 3-1.2 2.2-2.2 4.5-3 7 .5 1.6.9 3.3 1 5 2.4 4.6 3.4 9.6 3 15 1.2 1.6 2.5 2 4 1 .1-4.3 2.1-7 6-8 1.9-3.3 4.6-4 8-2 .8-1.3 2-2.3 3.5-3-.6-4.4 1.2-6.4 5.5-6v-3c-1.5-.3-2.2-1.3-2-3h13v-4c-1.4-2-2.1-4.3-2-7-.9-2.2-1.2-4.6-1-7 .2-6.4-.5-12.8-2-19l-.5-7z"/>
      <path id="pn14" visibility="hidden" d="M295.5 161.5c3.1.5 5.5 2.1 7 5 4.5-.5 9.1-.5 14 0 2.4 2.2 4.4 4.7 6 7.5.9.5 1.9.6 3 .5 1.4-1 3.1-1.3 5-1v4h3c.4-5.2-.3-10.2-2-15-2.4-1.6-2.4-3.4 0-5.5 4.3 0 7.3-2 9-6 7.1-1.3 8.7-5 5-11-.2-2.3.8-3.4 3-3.5.5-3.3-.5-5.9-3-8 .3-.8.8-1.5 1.5-2 .5-4.7.7-9.3.5-14-1.3.2-2.5-.2-3.5-1-.3-2.7-.7-5.3-1-8-3.8-3.5-5.3-7.9-4.5-13h3c.8-3.2 1.8-6.4 3-9.5-.4-2.1-1-4.1-2-6 1.6-2.9 1.3-5.4-1-7.5v-1c6-.6 12-.9 18-1 .8-1.5 1.1-3.2 1-5-.7-2.2-2.1-4.1-4-5.5.8-2.1 1.1-4.3 1-6.5-1.4-.5-2.1-1.5-2-3-1-1.4-1.3-3.1-1-5 .2-1.3-.2-2.5-1-3.5-3.9-1.3-7.9-1.8-12-1.5.4-3.8-.2-7.3-2-10.5 2.2-3.4 2.2-6.9 0-10.5 1.3-1.8 1.8-3.8 1.5-6-2.8-2-5.8-3.7-9-5-2.6 1.2-5.3 2.2-8 3-1.9-1.5-4-2.2-6.5-2 .2 1.7 0 3.4-.5 5-2.1.7-4.3.8-6.5.5-1.4 1.6-2 3.4-2 5.5h-3c.2 1.7 0 3.4-.5 5-1.7.8-2.5 2.1-2.5 4 1.6 2.9 1.1 5.6-1.5 8-.5 2.3-.7 4.6-.5 7 1.7 1.1 2.7 2.8 3 5v1c-.3-2.2-1.3-3.9-3-5h-1c-3.1-.3-6.1.2-9 1.5-.7 1.1-1.2 2.2-1.5 3.5-1.8.6-3.7 1.3-5.5 2-.5 1.7-1.2 3.4-2 5-2 2.5-4.3 4.5-7 6v3c1.3 3.4 2.9 6.8 5 10-.2.6-.5 1.1-1 1.5 1.6 2.1 2.9 4.2 4 6.5 2.2-.1 4.2-.8 6-2 1.4 1.5 3 2.1 5 2 .7 4 1.3 8 2 12-2.7 3.4-4.4 7.4-5 12h-5c1.3 5.3-.7 8-6 8-1.3.8-2.5 1.8-3.5 3-.1 4.2-1 8.2-2.5 12 0 .9.4 1.6 1 2 2.4 4.7 3.7 9.9 4 15.5-.1.8-.4 1.3-1 1.5v1c0 1.1-.4 2.1-1 3 1.8 3.4 2.5 7 2 11 4 1.8 7.7 4.1 11 7 1.9-1.4 3.6-3.1 5-5"/>
      <path id="pn15" visibility="hidden" d="M250.5 148.5c-3.1 1.9-6.5 3.3-10 4 .1-1-.2-1.8-1-2.5l-6-1.5c-1.4-.7-2.9-1.4-4.5-2-.2-4.2-1-8.2-2.5-12-1.5-3.1-2.2-6.4-2-10-.5-2-1.7-3.7-3.5-5-3-7.2-5.6-14.5-8-22-5.2-4.2-10.7-4.9-16.5-2-1.5.1-2.5-.6-3-2 1.9-1.8 2.3-3.8 1-6-2.5-1.3-4.8-1.3-7 0-1.8 6.7-3.5 6.6-5-.5-1.6-.8-2.9-.6-4 .5-1.1-.1-1.8-.8-2-2 1.4-2.8 2.1-5.8 2-9 1.3.2 2.5-.2 3.5-1 .9-2 1.8-4 2.5-6 2.7-.7 5.2-1.7 7.5-3 1.2.4 2.4.9 3.5 1.5 1.8 4.9 4.8 5.7 9 2.5 2.2.5 4 1.5 5.5 3 2.2-1.7 4.7-2.7 7.5-3-.1-1 .2-1.8 1-2.5 1.3-.3 2.7-.7 4-1 1.8-2.5 4.1-4.1 7-5 .6-1.9 1.6-3.6 3-5 3.7-1.1 7.4-2.2 11-3.5-.5-7.3.6-14.3 3.5-21 4.9-.9 9.4-2.7 13.5-5.5 1.5-2.8 3.7-5 6.5-6.5.9-2.2 1.7-4.3 2.5-6.5 4.3.1 8.7.1 13 0 5.4-3.5 9.3-2 11.5 4.5 1.5 1.5 3.3 2.3 5.5 2.5 1.3 1.4 2.3 2.9 3 4.5.5 2.8-.4 5.2-2.5 7-.5 2.6-.7 5.3-.5 8-3.1-.3-6.1.2-9 1.5-.7 1.1-1.2 2.2-1.5 3.5-1.8.6-3.7 1.3-5.5 2-.5 1.7-1.2 3.4-2 5-2 2.5-4.3 4.5-7 6-2.5.3-4.1 1.6-5 4 1.5 0 2.7-.7 3.5-2 .4.6.9.9 1.5 1 1.3 3.4 2.9 6.8 5 10-.2.6-.5 1.1-1 1.5 1.6 2.1 2.9 4.2 4 6.5 2.2-.1 4.2-.8 6-2 1.4 1.5 3 2.1 5 2 .7 4 1.3 8 2 12-2.7 3.4-4.4 7.4-5 12h-2c-.5-1.6-1.5-2.1-3-1.5-.8 2.1-1.3 4.2-1.5 6.5-1.4 1.3-2.9 2.3-4.5 3-1.3.8-2.5 1.8-3.5 3-.1 4.2-1 8.2-2.5 12 0 .9.4 1.6 1 2-.1 3.2.6 6.2 2 9-.1 1.4-.5 2.7-1 4 1.1 1.1 1.8 2.5 2 4v1c-1.4 1-2.4 2.3-3 4-1-.7-2-1.4-3-2-3.3.2-5.8-1.1-7.5-4-1.6 1.3-3.1 1.3-4.5 0-.5-1.4-1.5-2-3-2-1.5.7-2.9 1.7-4 3"/>
    </clipPath>
  </defs>
  <g id="pottyozes" clip-path="url(#pottyok)">
    <pattern id="_x36__dpi_30_x25_" width="48" height="48" y="495" patternUnits="userSpaceOnUse" style="overflow:visible" viewBox="3.6 -51.6 48 48">
      <path d="M3.6-51.6h48v48h-48z" style="fill:none"/>
      <circle cx="27.6" cy="-3.6" r="3.6" style="fill:#fff"/>
      <circle cx="51.6" cy="-3.6" r="3.6" style="fill:#fff"/>
      <circle cx="27.6" cy="-27.6" r="3.6" style="fill:#fff"/>
      <circle cx="51.6" cy="-27.6" r="3.6" style="fill:#fff"/>
      <circle cx="39.6" cy="-15.6" r="3.6" style="fill:#fff"/>
      <circle cx="15.6" cy="-15.6" r="3.6" style="fill:#fff"/>
      <circle cx="39.6" cy="-39.6" r="3.6" style="fill:#fff"/>
      <circle cx="15.6" cy="-39.6" r="3.6" style="fill:#fff"/>
      <circle cx="3.6" cy="-3.6" r="3.6" style="fill:#fff"/>
      <circle cx="3.6" cy="-27.6" r="3.6" style="fill:#fff"/>
      <circle cx="27.6" cy="-51.6" r="3.6" style="fill:#fff"/>
      <circle cx="51.6" cy="-51.6" r="3.6" style="fill:#fff"/>
      <circle cx="3.6" cy="-51.6" r="3.6" style="fill:#fff"/>
    </pattern>
    <path id="pottyos" d="M332.5.5c1.1.6 2.1 1.5 3 2.5 5.4 0 9.1 2.5 11 7.5-3.4 3.7-3.8 7.7-1 12-.7 1-1.3 2-2 3 1.9 2.4 2.2 4.9 1 7.5 2.3-.4 4.6-.4 7 0 1.1.6 2.1 1.5 3 2.5.6-2.1 1.6-3.9 3-5.5-1.4-1-2.1-2.3-2-4-.6-6.4 2.3-10.3 8.5-11.5 4 .9 7.7 2.6 11 5 3.3-2.7 6.3-2.4 9 1 3.3-1.8 6.8-2.3 10.5-1.5 2.9 3.4 6.2 6.2 10 8.5 1.2-2.1 3.1-3.5 5.5-4 .3-1.9.8-3.8 1.5-5.5 3.5-.1 6.9-.8 10-2 8.4.8 16.7 1.1 25 1 4.7 2.4 9.7 4.1 15 5 1.7 1.3 3.6 2.5 5.5 3.5 2.6 5.7 6.7 9.6 12.5 11.5 2.1 3.9 5.1 5.2 9 4 2.5 2 5.2 3.9 8 5.5 1.4-.8 2.9-1.5 4.5-2 2.2 1.5 4.3 3 6.5 4.5 5.9-1.2 10.7.7 14.5 5.5-.4 4.4 1.1 7.9 4.5 10.5 6-.3 10.7 2 14 7 4.4.2 8.4 1.5 12 4 3 .3 6 .7 9 1 3.9 3.5 8.2 6.3 13 8.5 1.3 3 3.7 4.5 7 4.5.6 1.5 1.3 3 2 4.5 3.7-2 7.3-2.2 11-.5 1.9 3.9 3.2 8.1 4 12.5 1.4-1.7 3-3 5-4 3 2.5 6.3 4.3 10 5.5 1.3 4 3.5 7.5 6.5 10.5-.3 2.6-.3 5.3 0 8 2 1.7 4 3.3 6 5 1 3.5.5 6.7-1.5 9.5 3.5 2.8 5.5 6.3 6 10.5 5.9.3 10.2 3.1 13 8.5 7.6 2.4 11.6 7.6 12 15.5 1.8 0 3.5.5 5 1.5 4 2.7 4 5.4 0 8 2.7 4.1 3.5 8.6 2.5 13.5-2.1.8-4.2 1.3-6.5 1.5-1.2 1.2-1.2 2.3 0 3.5 4.6 1.2 8.7 3.2 12.5 6 3.3-2.3 6.8-2.5 10.5-.5 6.8 2.9 13.3 6.4 19.5 10.5 2.8 7 7.5 12.3 14 16 2.7 3.8 5.2 7.8 7.5 12 1.3.9 2.4 1.9 3.5 3 .9 3.2 2 6.2 3.5 9-1.1 2.9-2.3 5.5-3.5 8 3.7 2.1 7.1 4.7 10 8 2.5 4.3 3.4 8.8 2.5 13.5 6.9 2.7 11.5 7.5 14 14.5-.4 4.9-.4 9.7 0 14.5-1 2.3-2 4.6-3 7 1.9.4 2.9 1.6 3 3.5-1.5 2.4-2.5 5.1-3 8 .8 2.7.9 5.3.5 8-1 .8-2.2 1.2-3.5 1 0 2.1-.6 3.9-2 5.5-2.8.1-5.4.2-8 .5-3.2 5.7-7.7 9.7-13.5 12-1.2-.8-2.2-1.8-3-3 0 2.8-.9 5.3-2.5 7.5-3.2-.4-6.2-1.8-9-4-4.1-2-8.1-1.8-12 .5-2.9 3-5.4 6.3-7.5 10-2.2 1.2-4.4 1.1-6.5-.5-3.1-2.1-6-4.6-8.5-7.5-.5-2-.7-4-.5-6-4.5-1.1-9-2.1-13.5-3-4.1 1.9-8.2 2.2-12.5 1-7.5 2.2-15.1 3.4-23 3.5-6.7 5.2-14.4 7.9-23 8-2.6 2.7-5.6 3.5-9 2.5-2.8 3.5-6.5 4.8-11 4 .3-2.4 0-4.8-1-7-.7 4.7-1.5 9.4-2.5 14-3.6 4-7.9 5.3-13 4-13.1 5.2-26.6 7.7-40.5 7.5-1.2 2.7-3.2 4.5-6 5.5 1.4 1.1 2.9 2.1 4.5 3 .2.8.3 1.7.5 2.5-1.6 4.4-4.1 8.2-7.5 11.5-2.2 5.8-4.3 11.7-6.5 17.5 1.2 1.8 2.3 3.7 3.5 5.5.7 1 .7 2 0 3-2.9 2.8-6 5.1-9.5 7-3.2 6.2-7.2 11.7-12 16.5-2.4.7-4.7.5-7-.5-2.6-3.5-4.9-7.2-7-11-6.7-2.6-13.7-4.1-21-4.5-3-2-4.7-4.9-5-8.5-3.8-.7-7.4-1.7-11-3-3.8 3.4-7.8 6.6-12 9.5-3 .3-6 .7-9 1-14.1 6.8-24.1 3-30-11.5-3.2 1.7-6.5 3.2-10 4.5-2.6 2.8-4.9 5.8-7 9-3.9.3-7.8-.2-11.5-1.5-2.5 4.4-6.4 6.1-11.5 5v-5c-5-2.8-10.2-5.5-15.5-8-.7-4.6-.2-9.1 1.5-13.5-1.7-1.9-3.9-3.1-6.5-3.5-1.7 1.1-3.4 1.1-5 0-6.1 6.4-13.3 8-21.5 5-2.2.5-3.8 1.7-5 3.5-3.6 0-6.9.9-10 2.5-7.9-1.4-12.1-6.1-12.5-14-.8-2.1-2-3.9-3.5-5.5-4.3-1.7-8.6-2-13-1-2.9-1.9-6.1-3.4-9.5-4.5-4.3 1.6-8.8 2.3-13.5 2 0-2.6-1.3-4-4-4-2.7 1.7-5 3.9-7 6.5-2 .7-4 .7-6 0-2.6-2.1-5.1-4.2-7.5-6.5-8.9 1.4-17.3-.3-25-5-6.9 2.8-12.4 1-16.5-5.5-4.3-2.5-7.9-1.8-11 2-1.8.2-3.7.3-5.5.5-4.2-.9-8.4-1.7-12.5-2.5-1.2 4-3.7 6.8-7.5 8.5v4c-2.8 2.8-6.2 4.8-10 6-7-3.1-12-8.1-15-15-1.6-1.7-3.1-3.6-4.5-5.5-3.2-1-6-.5-8.5 1.5-1.1 4.9-1.2 9.7-.5 14.5-2 3.6-2.5 7.4-1.5 11.5 6.7 7.5 11.4 16.2 14 26 6.9 3.1 9.4 8.3 7.5 15.5.4 1.4 1.3 2.6 2.5 3.5.3 4.2.8 8.4 1.5 12.5-3.5 3-6.5 6.5-9 10.5-.8.9-1.8 1.2-3 1-1.7.2-3.4 0-5-.5-2.6-2.5-4.9-5.1-7-8-4.5-.9-8.5-2.9-12-6-3.3-1-6.7-2-10-3-1.6-1.8-2.9-3.8-4-6-4-.3-8-.3-12 0l-4.5-4.5c-5.7-7.3-11.3-14.7-17-22-1.1-4.7-2.6-9.2-4.5-13.5 3.1-5.7 5.1-11.9 6-18.5-2.1-3.5-3.9-7.2-5.5-11-3.1-1.5-5.9-3.3-8.5-5.5-4.4-7.8-10.8-13.4-19-17-.6-.7-.9-1.6-1-2.5 4-8.2 8-16.6 12-25 2.1-2.3 4.6-4 7.5-5 .8.3 1.7.7 2.5 1 2.8 6.4 6.8 11.9 12 16.5 1.6-1.3 3.6-2.1 6-2.5 3 .8 6 1.7 9 2.5 2.5 1.6 4.7 3.4 6.5 5.5 1.9-.4 3.8-1.1 5.5-2-2.6-5.2-2.6-10.4 0-15.5-3.4-1-4.5-3.2-3.5-6.5 3.3-2.7 6.4-5.5 9.5-8.5 5.7-2.3 11.5-4.1 17.5-5.5 1.2-3.8 1.7-7.7 1.5-11.5-2.1-1.1-3.9-2.6-5.5-4.5-.5-4.7.5-9 3-13 2.3-3 5.1-3.7 8.5-2 1.1-1.4 2.1-2.9 3-4.5 4.4-1 8.7-2.4 13-4 1.2-1.8 2.5-3.5 4-5 3.8-.1 7.4-.3 11-.5-1.5-2.8-2.3-5.8-2.5-9-3.5-2.8-7.2-5.5-11-8-.4-1.2-.2-2.3.5-3.5-1.8-3.3-3.1-6.8-4-10.5.6-3 1.1-6 1.5-9 3.2-3.9 6-8.1 8.5-12.5-2.3-5-2.6-10.2-1-15.5-1.5-5.2-2.9-10.5-4-16 .4-1.9 1.4-3.4 3-4.5 2.8-2.6 6.2-4.3 10-5 .8-1.3 1.8-2.5 3-3.5 1.3-4.8 3.3-9.3 6-13.5-5.3-2.6-7.5-6.8-6.5-12.5 1.1-3.5 3.3-4.6 6.5-3.5.2-1.6.4-3.5.5-5.5 1.3-2.1 3.1-3.1 5.5-3-.2-1.3.2-2.5 1-3.5 3.1-.7 6.1-.6 9 .5 1.4-1.4 3-2.1 5-2v-4c2 .2 4 0 6-.5 3.6-4.1 7.9-5.3 13-3.5-.5-4.4-1.3-8.7-2.5-13-2.6-5.7-4.8-11.5-6.5-17.5.4-2.2.9-4.4 1.5-6.5 3.2-2.4 4-5.4 2.5-9 3.8-8.3 8.3-16.3 13.5-24 3-1.5 5.8-3.1 8.5-5 2.9 1 5.6 2.5 8 4.5 3.9 0 7.6.8 11 2.5 4.4-2.8 8.7-5.7 13-8.5 1.3-.3 2.7-.7 4-1 2.1-6.2 6.4-9 13-8.5-.2-3.3 0-6.7.5-10 1.3-4.4 3.1-8.6 5.5-12.5 3.9-.7 7.6-2.1 11-4 1.9-3.1 4.4-5.6 7.5-7.5.6-2.3 1.5-4.4 2.5-6.5 4.2-1.9 8.4-1.7 12.5.5 5-3.6 10.4-4 16-1 .5 3.8 2.5 6.5 6 8 2.8-2.8 4.8-6.1 6-10 2.2-2 4.5-2.3 7-1 .4-4.1 2.8-6.4 7-7 1.3 1 2.7 2 4 3 2.2-1.7 4.7-2.7 7.5-3z" style="fill-rule:evenodd;clip-rule:evenodd;fill:url(#_x36__dpi_30_x25_)"/>
  </g>
</svg>
