<?xml version="1.0" encoding="utf-8"?>
<!-- Generator: Adobe Illustrator 23.0.1, SVG Export Plug-In . SVG Version: 6.00 Build 0)  -->
<svg version="1.1" id="Réteg_1" xmlns="http://www.w3.org/2000/svg" xmlns:xlink="http://www.w3.org/1999/xlink" x="0px" y="0px"
	 viewBox="0 0 1268 917" style="enable-background:new 0 0 1268 917;" xml:space="preserve">
<style type="text/css">
	.st0{fill:#FFFF00;}
	.st1{fill:#00FF00;}
	.st2{fill:#00FFFF;}
	.st3{fill:#0000FF;}
	.st4{fill:#FF00FF;}
	.st5{fill:#C1272D;}
	.st6{fill:#ED1C24;}
	.st7{fill:#F15A24;}
	.st8{fill:#F7931E;}
</style>
<defs>
	<pattern id="pottyos" patternUnits="userSpaceOnUse" width="50" height="50">
		<circle cx="25" cy="25" r="10" fill="white" />
	</pattern>
</defs>
<g id="negyszog9">
	<rect x="0.5" y="0.5" class="st0" id="n9" width="391" height="274"/>
	<path d="M391,1v273H1V1H391 M392,0H0v275h392V0L392,0z"/>
</g>
<g id="negyszog8">
	<rect x="438.5" y="0.5" class="st1" id="n8" width="391" height="274"/>
	<path d="M829,1v273H439V1H829 M830,0H438v275h392V0L830,0z"/>
</g>
<g id="negyszog7">
	<rect x="876.5" y="0.5" class="st2" id="n7" width="391" height="274"/>
	<path d="M1267,1v273H877V1H1267 M1268,0H876v275h392V0L1268,0z"/>
</g>
<g id="negyszog6">
	<rect x="0.5" y="321.5" class="st3" id="n6" width="391" height="274"/>
	<path d="M391,322v273H1V322H391 M392,321H0v275h392V321L392,321z"/>
</g>
<g id="negyszog5">
	<rect x="438.5" y="321.5" class="st4" id="n5" width="391" height="274"/>
	<path d="M829,322v273H439V322H829 M830,321H438v275h392V321L830,321z"/>
</g>
<g id="negyszog4">
	<rect x="876.5" y="321.5" class="st5" id="n4" width="391" height="274"/>
	<path d="M1267,322v273H877V322H1267 M1268,321H876v275h392V321L1268,321z"/>
</g>
<g id="negyszog3">
	<rect x="0.5" y="642.5" class="st6" id="n3" width="391" height="274"/>
	<path d="M391,643v273H1V643H391 M392,642H0v275h392V642L392,642z"/>
</g>
<g id="negyszog2">
	<rect x="438.5" y="642.5" class="st7" id="n2" width="391" height="274"/>
	<path d="M829,643v273H439V643H829 M830,642H438v275h392V642L830,642z"/>
</g>
<g id="negyszog1">
	<rect x="876.5" y="642.5" class="st8" id="n1" width="391" height="274"/>
	<path d="M1267,643v273H877V643H1267 M1268,642H876v275h392V642L1268,642z"/>
</g>
</svg>
