<?xml version="1.0" encoding="utf-8"?>
<!-- Generator: Adobe Illustrator 23.0.1, SVG Export Plug-In . SVG Version: 6.00 Build 0)  -->
<svg version="1.1" id="Réteg_1" xmlns="http://www.w3.org/2000/svg" xmlns:xlink="http://www.w3.org/1999/xlink" x="0px" y="0px"
	 viewBox="0 0 1920 1080" style="enable-background:new 0 0 1920 1080;" xml:space="preserve">
<style type="text/css">
	.st0{fill:#FFFF00;}
	.st1{fill:#00FF00;}
	.st2{fill:#00FFFF;}
	.st3{fill:#0000FF;}
	.st4{fill:#FF00FF;}
	.st5{fill:#C1272D;}
	.st6{fill:#ED1C24;}
	.st7{fill:#F15A24;}
	.st8{fill:#F7931E;}
</style>
<defs>
	<pattern id="pottyos" patternUnits="userSpaceOnUse" width="50" height="50">
		<circle cx="25" cy="25" r="10" fill="white" />
	</pattern>
</defs>
<g id="negyszog9">
	<rect x="143.5" y="63.5" class="st0" id="n9" width="391" height="274"/>
	<path d="M534,64v273H144V64H534 M535,63H143v275h392V63L535,63z"/>
</g>
<g id="negyszog8">
	<rect x="581.5" y="63.5" class="st1" id="n8" width="391" height="274"/>
	<path d="M972,64v273H582V64H972 M973,63H581v275h392V63L973,63z"/>
</g>
<g id="negyszog7">
	<rect x="1019.5" y="63.5" class="st2" id="n7" width="391" height="274"/>
	<path d="M1410,64v273h-390V64H1410 M1411,63h-392v275h392V63L1411,63z"/>
</g>
<g id="negyszog6">
	<rect x="143.5" y="384.5" class="st3" id="n6" width="391" height="274"/>
	<path d="M534,385v273H144V385H534 M535,384H143v275h392V384L535,384z"/>
</g>
<g id="negyszog5">
	<rect x="581.5" y="384.5" class="st4" id="n5" width="391" height="274"/>
	<path d="M972,385v273H582V385H972 M973,384H581v275h392V384L973,384z"/>
</g>
<g id="negyszog4">
	<rect x="1019.5" y="384.5" class="st5" id="n4" width="391" height="274"/>
	<path d="M1410,385v273h-390V385H1410 M1411,384h-392v275h392V384L1411,384z"/>
</g>
<g id="negyszog3">
	<rect x="143.5" y="705.5" class="st6" id="n3" width="391" height="274"/>
	<path d="M534,706v273H144V706H534 M535,705H143v275h392V705L535,705z"/>
</g>
<g id="negyszog2">
	<rect x="581.5" y="705.5" class="st7" id="n2" width="391" height="274"/>
	<path d="M972,706v273H582V706H972 M973,705H581v275h392V705L973,705z"/>
</g>
<g id="negyszog1">
	<rect x="1019.5" y="705.5" class="st8" id="n1" width="391" height="274"/>
	<path d="M1410,706v273h-390V706H1410 M1411,705h-392v275h392V705L1411,705z"/>
</g>
</svg>
